<?xml version="1.0" encoding="UTF-8"?>
<svg id="Layer_2" data-name="Layer 2" xmlns="http://www.w3.org/2000/svg" viewBox="0 0 479.97 392">
  <defs>
    <style>
      .cls-1 {
        fill: #193268;
      }

      .cls-1, .cls-2, .cls-3 {
        stroke-width: 0px;
      }

      .cls-2 {
        fill: #3b8fcf;
      }

      .cls-3 {
        fill: #89e5f7;
      }
    </style>
  </defs>
  <g id="Layer_3" data-name="Layer 3">
    <path class="cls-2" d="M448.63,116.57c5.79-.8,11.4-2.8,16.39-5.85.95-.58,1.94-1.28,2.31-2.33.35-.99-2.18-23.34-2.46-24.35-5.1-18.23-7.71-17.7-16.71-32.26-2.88-4.66-5.56-10.78-11.03-10.86-2.63-.03-5.05,1.34-7.23,2.81-2.91,1.96-5.65,4.18-8.18,6.61-.78.75-1.58,1.62-1.63,2.69-.04.9.45,1.72.93,2.48,4.7,7.46,9.41,14.92,14.11,22.37"/>
    <path class="cls-3" d="M26.7,220.37c-2.49,54.83,21.72,110.25,63.63,145.68,3.28,2.77,14.87,11.45,14.87,11.45l344.65-203.57s8.86-26.7-11.79-85.63c-17.67-50.42-56.71-73.76-61.46-74.48-8.6-1.31-45.23,28.36-60.97,39.97-33.56,24.77-44.35,70.84-74.64,99.51-9.35,8.84-5.33-.28-19.58,10.42-8.67,6.52-.86,14.45-6.47,14.91-17.44,1.43-50.53,6.36-64.41,8.77-17.66,3.07-94.5,23.75-123.84,32.96Z"/>
  </g>
  <g>
    <path class="cls-1" d="M374.78,11.03c-29.24,13.84-55.62,33.58-77.28,57.59-10.78,11.96-20.4,24.97-28.62,38.82-4.03,6.79-7.56,13.82-11.18,20.83s-7.27,13.54-12.55,19.08c-2.76,2.89-5.91,5.37-9.5,7.12-4.25,2.07-8.98,2.86-13.26,4.86-3.67,1.71-6.68,4.37-7.93,8.32-1.07,3.42-.4,7.09,2.48,9.38l.46-1.71c-25.38,3.19-50.64,7.35-75.7,12.47-25.17,5.15-50.15,11.26-74.85,18.33-13.79,3.95-27.49,8.2-41.1,12.72-1.13.37-.11,1.54.42,1.88.99.64,2.31.82,3.42.45,24.23-8.06,48.77-15.19,73.56-21.36,24.71-6.16,49.66-11.37,74.77-15.63,14.1-2.39,28.25-4.47,42.43-6.25.98-.12,1.23-1.09.46-1.71-2.63-2.09-2.28-5.76-1.05-8.55,1.57-3.54,4.82-5.46,8.3-6.8,3.78-1.46,7.77-2.31,11.43-4.09,3.22-1.57,6.17-3.7,8.75-6.17,5.24-5,9.06-11.29,12.48-17.62,3.61-6.7,6.86-13.57,10.62-20.19,15.68-27.56,36.96-51.96,61.93-71.48,14.03-10.97,29.26-20.36,45.35-27.98,1.04-.49.2-1.48-.42-1.88-.89-.58-2.41-.93-3.42-.45h0Z"/>
    <path class="cls-1" d="M24.52,219.32c-1.68,25.28,2.49,50.77,11.66,74.36,8.46,21.76,21.02,41.83,36.97,58.88,4.68,5.01,9.66,9.74,14.91,14.16,2.65,2.23,5.38,4.39,8.16,6.45,2.38,1.77,4.9,3.33,7.3,5.04.82.58,2.5.98,3.42.45,1.01-.58.23-1.41-.42-1.88-1.99-1.42-4.09-2.68-6.06-4.14-2.43-1.79-4.81-3.64-7.14-5.56-4.66-3.83-9.11-7.92-13.33-12.22-8.08-8.23-15.31-17.29-21.64-26.93-12.96-19.77-22.03-42.05-26.41-65.28-2.61-13.84-3.53-27.98-2.6-42.03.12-1.84-4.73-2.86-4.83-1.29h0Z"/>
    <path class="cls-1" d="M376.66,12.91c19.57,13.74,35.82,31.97,47.88,52.58s19.96,43.76,22.89,67.5c1.65,13.38,1.68,26.92.01,40.29-.23,1.8,4.63,2.91,4.83,1.29,3.03-24.24.5-49.04-6.85-72.31-7.32-23.16-19.34-44.9-35.28-63.25-9.02-10.38-19.23-19.64-30.48-27.54-.82-.58-2.49-.99-3.42-.45-1.01.58-.24,1.42.42,1.88h0Z"/>
    <path class="cls-1" d="M107.12,378.67c22.56-13.29,45.1-26.59,67.64-39.9,22.41-13.23,44.81-26.47,67.2-39.72,22.25-13.16,44.5-26.32,66.75-39.48,22.39-13.24,44.78-26.48,67.17-39.7,22.52-13.3,45.04-26.59,67.58-39.87,2.77-1.63,5.54-3.26,8.3-4.89,1.95-1.15-2.47-3.14-3.84-2.34-22.56,13.29-45.1,26.59-67.64,39.9s-44.81,26.47-67.2,39.72c-22.25,13.16-44.5,26.32-66.75,39.48-22.39,13.24-44.78,26.48-67.17,39.7-22.52,13.3-45.04,26.59-67.58,39.87-2.77,1.63-5.54,3.26-8.3,4.89-1.95,1.15,2.47,3.14,3.84,2.34h0Z"/>
    <path class="cls-1" d="M449.22,119.4c6.66-3.55,13.59-6.55,20.26-10.11.4-.22.5-.43.49-.87-.16-20.48-7.14-40.76-19.38-57.17-3.45-4.63-7.32-8.94-11.54-12.88-1-.94-3.01-1.38-4.18-.55-6.28,4.5-12.56,9-18.85,13.48-.91.65.84,1.75,1.29,1.94,1,.42,2.27.61,3.2-.05,6.29-4.48,12.57-8.98,18.85-13.48l-4.18-.55c14.68,13.71,24.62,32.19,28.34,51.9,1.04,5.52,1.58,11.13,1.62,16.75l.49-.87c-6.66,3.55-13.59,6.55-20.26,10.11-.99.53-.25,1.47.42,1.88.87.54,2.44.98,3.42.45h0Z"/>
    <path class="cls-1" d="M227.85,187.1c5.01,19.07,12.9,37.38,23.32,54.12,2.96,4.76,6.14,9.39,9.49,13.88.69.93,2.07,1.35,3.19,1.32.72-.02,2.01-.48,1.31-1.42-11.71-15.64-21.05-33.01-27.59-51.42-1.85-5.21-3.48-10.51-4.88-15.86-.43-1.63-5.29-2.36-4.83-.61h0Z"/>
    <path class="cls-1" d="M243.69,205.48c7.04,14.75,18.12,27.38,31.63,36.54,3.89,2.64,7.99,4.94,12.24,6.97.78.37,2.54.75,3.2-.05.71-.85-.69-1.65-1.29-1.94-13.99-6.67-26.03-17.27-34.69-30.09-2.48-3.67-4.68-7.53-6.58-11.53-.67-1.41-5.5-1.99-4.5.1h0Z"/>
    <path class="cls-1" d="M239.35,167.26c6.35,14.1,12.71,28.2,19.06,42.31.46,1.03,1.68,1.51,2.74,1.64.46.06,2.54-.01,2.08-1.03-6.35-14.1-12.71-28.2-19.06-42.31-.46-1.03-1.68-1.51-2.74-1.64-.46-.06-2.54.01-2.08,1.03h0Z"/>
    <path class="cls-1" d="M57.24,288.95c2.43,5.47,4.86,10.94,7.29,16.42.46,1.03,1.68,1.51,2.74,1.64.5.06,2.5,0,2.08-1.03-2.08-5.21-4.16-10.42-6.24-15.63-.41-1.04-1.71-1.51-2.74-1.64-.5-.06-2.5,0-2.08,1.03,2.08,5.21,4.16,10.42,6.24,15.63l4.83.61c-2.43-5.47-4.86-10.94-7.29-16.42-.46-1.03-1.68-1.51-2.74-1.64-.47-.06-2.54.01-2.08,1.03h0Z"/>
    <path class="cls-1" d="M42.16,226.32c12.79,12.78,23.99,27.11,33.39,42.55,9.45,15.52,17.06,32.15,22.6,49.46,3.12,9.73,5.57,19.66,7.35,29.71.29,1.63,5.16,2.47,4.83.61-3.21-18.09-8.62-35.77-16.04-52.57-7.39-16.74-16.71-32.61-27.8-47.16-6.28-8.25-13.13-16.06-20.46-23.39-.79-.78-2.35-1.17-3.42-.92s-1.18.98-.46,1.71h0Z"/>
    <path class="cls-1" d="M443.48,48.48c-6.24,4.4-12.49,8.8-18.73,13.2-.91.64.85,1.75,1.29,1.94,1,.43,2.27.61,3.2-.05,6.24-4.4,12.49-8.8,18.73-13.2.91-.64-.85-1.75-1.29-1.94-1-.43-2.27-.61-3.2.05h0Z"/>
    <path class="cls-1" d="M452.1,63.16c-6.53,4.4-13.06,8.8-19.59,13.2-1.91,1.29,2.53,3.22,3.84,2.34,6.53-4.4,13.06-8.8,19.59-13.2,1.91-1.29-2.53-3.22-3.84-2.34h0Z"/>
    <path class="cls-1" d="M458.91,79.98c-6.74,3.55-13.48,7.1-20.22,10.64-.99.52-.25,1.47.42,1.88.88.54,2.43.97,3.42.45,6.74-3.55,13.48-7.1,20.22-10.64.99-.52.25-1.47-.42-1.88-.88-.54-2.43-.97-3.42-.45h0Z"/>
    <path class="cls-1" d="M461.89,95.1c-6.03,3.05-12.06,6.1-18.1,9.15-1.01.51-.24,1.48.42,1.88.89.55,2.42.96,3.42.45,6.03-3.05,12.06-6.1,18.1-9.15,1.01-.51.24-1.48-.42-1.88-.89-.55-2.42-.96-3.42-.45h0Z"/>
  </g>
</svg>