<?xml version="1.0" encoding="UTF-8"?>
<svg id="Layer_6" data-name="Layer 6" xmlns="http://www.w3.org/2000/svg" viewBox="0 0 514.05 618.34">
  <defs>
    <style>
      .cls-1 {
        fill: #b4edfe;
      }

      .cls-1, .cls-2 {
        stroke-width: 0px;
      }

      .cls-2 {
        fill: #2b3369;
      }
    </style>
  </defs>
  <g id="Layer_16" data-name="Layer 16">
    <path class="cls-1" d="M214.85,189.14c16.47-48.59,40.3-97.24,71.26-138.15-35.24-27.42-40.63-40.64-40.63-40.64l-36.72,14.97s-8.1,21.3-9.27,23.69c-1.16,2.38,1.26,3.99-1.37,3.68-5.81-.7-14.32-23.39-18.32-19.02-22.11,24.12-63.6,76.93-63.6,76.93,0,0,6.29,34.69,17.18,54.75,7.91,14.55,19.54,26.83,26.67,41.77.54,1.14,1.08,2.31,1.17,3.56.12,1.7-.61,3.34-1.26,4.92-4.93,11.86-10.65,20.01-8.98,32.74.77,5.87,6.18,21.96,11.07,21.03,15.96-3.06,7.02-25.6,44.49-15.97,3.71.95,9.33,1.31,19.72-13.22,8.49-11.87,2.47-37.77-.58-45.13-1.82-4.37-9.55-5.1-10.84-5.91ZM185.61,87.48c-6.4,15.22-4.34,40.57-9.99,54.02-5.37-7.81-11.72-23.55-16.29-33.48-1.02-2.21-2.03-4.77-1.06-7.01.68-1.58,2.19-2.61,3.63-3.55,6.83-4.49,13.66-8.97,20.49-13.46.85-.56,1.9-1.14,2.82-.71,1.42.65,1.02,2.75.41,4.18Z"/>
    <path class="cls-1" d="M159.24,268.23c-27.56,24.21-54.86,53.42-76.55,83-3.43,4.68-6.83,9.51-8.65,15.02-3.51,10.62-.73,22.19-1.2,33.36-.73,17.33-9.86,34.11-24.02,44.13-3.29,2.33-7.32,5.38-6.49,9.33,1.06,5,8.61,5.33,11.38,9.63,3.49,5.41-5.27,13.56-6.67,19.85-1.82,8.11,7.16,13.81,13.05,19.66,31.52,31.29,67.47,69.19,101.97,97.16,3.09,2.5,86-14.27,115.48-37.08,2.35-1.82,34.93,19.73,44.16,23.35,25.09-17.59,46.23-37.1,65.44-57.25-3.19,2.24-9.54-3.03-10.01-6.9s2.33-7.2,3.74-10.84c18.68-48.39,66.57-153.47,66.57-153.47,0,0-18.98-6.14-71.42-8.87-43.43-2.26-75.68-.89-75.68-.89,0,0-23.13-30.73-27.21-37.45-15.03-24.77-31.5-47.6-47-73.14-3.7,5.5-1.96,8.15-7.28,12.11s-17.07,5.05-23.25,2.65c-2.78-1.08-7.26-1.56-10.21-1.93-6.61-.82-10.23,8.53-13.9,14.08s-8.37,9.17-12.26,4.48Z"/>
  </g>
  <g>
    <path class="cls-2" d="M165.11,206.46c-13.08,11.22-19.16,29.68-15.84,46.53,1.58,8.02,5.67,18.22,15.48,17.87,6.81-.24,10.25-7.2,13.85-11.97,1.98-2.63,4.3-5.37,7.5-6.5,4.38-1.54,9.29.52,13.58,1.47,4.7,1.04,9.36,1.31,13.99-.2,3.93-1.28,7.44-3.64,10.32-6.59,6.57-6.72,9.41-15.73,9.37-24.98-.02-5.58-.97-11.1-2.31-16.51-.69-2.79-1.49-5.54-2.33-8.29-.37-1.22-.75-2.43-1.14-3.64-.2-.63-.33-1.37-.75-1.88-.56-.68-1.51-.93-2.33-1.11-18.11-3.84-37.63.73-51.96,12.51-1.73,1.42-3.37,2.95-4.92,4.57-1.26,1.31,3.31,3.12,4.49,1.89,10.38-10.82,25.07-17.23,40.05-17.58,4.11-.1,8.24.27,12.26,1.15l-2.09-1.51c4.56,14.31,9.85,30.97,2.87,45.4-2.67,5.52-7.07,10.52-12.66,13.17-2.56,1.21-5.38,1.9-8.22,1.78-3.54-.15-6.97-1.4-10.42-2.13-3.63-.76-7.43-1.22-11.02-.06-2.45.8-4.54,2.34-6.3,4.2-3.34,3.53-5.52,8-8.96,11.44-1.27,1.27-3.03,2.51-4.62,2.62-.5.03-.65.03-.95-.04-.5-.1-.94-.32-1.36-.61-1.19-.81-2.09-2.02-2.83-3.23-3.24-5.25-4.41-12.12-4.6-18.2-.39-12.54,4.3-25.33,12.93-34.46,1.08-1.14,2.23-2.22,3.42-3.24.84-.72-.78-1.72-1.29-1.94-.92-.39-2.36-.67-3.2.05h0Z"/>
    <path class="cls-2" d="M199.42,53.98c-2.49-3.72-5.69-7.04-8.6-10.42-1.23-1.43-2.5-2.84-3.66-4.34-1.92-2.5-3.48-5.1-6.41-6.54-.88-.43-2.4-.64-3.2.05-1.56,1.34-2.88,3.09-4.32,4.58-1.62,1.68-3.23,3.36-4.83,5.06-3.16,3.35-6.28,6.74-9.36,10.16-6.13,6.79-12.1,13.72-17.91,20.79-7.91,9.63-15.45,19.57-22.88,29.57-.96,1.3-1.95,2.58-2.86,3.92-1.71,2.52-2.3,5.21-2.07,8.23.34,4.45,1.67,8.78,3.08,12.98s2.92,8.53,4.51,12.75c3.23,8.57,6.84,17.03,11.37,25,3.6,6.33,7.61,12.43,11.48,18.6,5.34,8.52,10.72,17.02,15.9,25.63.26.44.53.88.78,1.33.78,1.37,5.62,1.88,4.5-.1-4.58-8.08-9.75-15.88-14.67-23.75-3.21-5.13-6.48-10.22-9.65-15.37-4.8-7.78-8.89-15.81-12.34-24.27-1.72-4.21-3.31-8.46-4.81-12.75s-3.02-8.39-4.11-12.69c-.94-3.68-1.99-7.99-.53-11.66.58-1.46,1.52-2.66,2.43-3.91,6.64-9.06,13.44-18.03,20.47-26.79,11.41-14.22,23.53-27.86,36.17-40.99,1.38-1.43,2.65-3.11,4.15-4.4l-3.2.05c.92.46,1.71,1.77,2.3,2.58.66.9,1.29,1.82,2,2.69,1.22,1.5,2.5,2.96,3.77,4.42,2.72,3.16,5.68,6.27,8.01,9.73.63.94,2.11,1.35,3.19,1.32.77-.02,1.95-.46,1.31-1.42h0Z"/>
    <path class="cls-2" d="M186.09,79.36c-7.88,4.79-15.64,9.78-23.07,15.24-3.69,2.72-7.3,5.55-10.84,8.46-1.89,1.56-3.77,3.14-5.63,4.75-1.71,1.48-3.43,3.01-4.71,4.89-2.53,3.68-3.16,8.01-2.18,12.31,1.2,5.29,2.59,10.55,3.9,15.82,2.66,10.66,5.35,21.3,8.09,31.93,3.09,11.99,6.23,23.97,9.43,35.94.43,1.63,5.3,2.36,4.83.61-5.58-20.9-11-41.84-16.26-62.83-1.3-5.21-2.6-10.41-3.88-15.62-.6-2.45-1.37-4.92-1.68-7.43-.25-1.99.12-3.89.77-5.77,1.57-4.54,5.57-7.47,9.12-10.46s7.03-5.8,10.66-8.56c8.1-6.15,16.62-11.67,25.31-16.95,1.94-1.18-2.48-3.16-3.84-2.34h0Z"/>
    <path class="cls-2" d="M155.25,101.08c6.19,13.81,11.63,27.94,17.81,41.75.46,1.03,1.68,1.51,2.74,1.64.46.06,2.54-.01,2.08-1.03-6.19-13.81-11.63-27.94-17.81-41.75-.46-1.03-1.68-1.51-2.74-1.64-.46-.06-2.54.01-2.08,1.03h0Z"/>
    <path class="cls-2" d="M206.34,24.68c-8.95,22.8-18.11,45.6-24.67,69.23-3.23,11.62-5.8,23.42-7.29,35.39s-2.09,24.61-2.83,36.94c-.83,13.9-1.91,27.82-4.81,41.46-.37,1.73,4.48,2.96,4.83,1.29,5.17-24.38,4.49-49.43,7.14-74.1s9.51-47.68,17.75-70.55c4.64-12.89,9.7-25.62,14.7-38.36.6-1.53-4.17-2.99-4.83-1.29h0Z"/>
    <path class="cls-2" d="M210.68,26.49c12.24-4.99,24.48-9.98,36.72-14.97l-4.17-1.12c8.32,12.78,18.74,24.21,30.72,33.66,3.44,2.71,7,5.26,10.66,7.65l-.74-1.66c-12.11,17.05-23.78,34.43-34.16,52.59-9.72,17.02-18.16,34.72-25.28,52.97-4.42,11.33-8.36,22.85-11.97,34.46-.51,1.63,4.3,2.99,4.83,1.29,6.17-19.82,13.32-39.35,22.09-58.18,8.23-17.68,17.88-34.64,28.42-51.03,6.59-10.25,13.5-20.28,20.55-30.21.49-.69-.19-1.3-.74-1.66-12.37-8.06-23.41-18.15-32.55-29.75-2.6-3.3-5.04-6.71-7.33-10.23-.77-1.19-2.92-1.63-4.17-1.12-12.24,4.99-24.48,9.98-36.72,14.97-1.07.44-.18,1.51.42,1.88.96.59,2.35.89,3.42.45h0Z"/>
    <path class="cls-2" d="M273.44,60.02c-.25-2.25-.7-4.68-2.14-6.51-1.75-2.22-4.84-3.29-7.61-2.83s-4.8,2.54-6.59,4.53c-1.9,2.11-3.75,4.27-5.53,6.48-5.9,7.34-10.93,15.33-14.91,23.87s-7,17.54-10.02,26.47c-3.91,11.59-8.03,23.11-11.6,34.81-4.31,14.14-7.9,28.53-9.97,43.18-.25,1.79,4.6,2.92,4.83,1.29,3.48-24.55,11.37-47.94,19.32-71.32,5.76-16.94,11.08-34.13,21.32-49.02,3.19-4.64,6.73-9.04,10.48-13.24,1-1.12,1.98-2.28,3.16-3.2.51-.4,1.06-.77,1.67-1.01.22-.09.47-.21.71-.2.25.02-.07-.02-.11-.05.75.4,1.17,1.63,1.41,2.37.4,1.22.6,2.49.74,3.76.18,1.62,5.04,2.54,4.83.61h0Z"/>
    <path class="cls-2" d="M157.7,267.69c-20.72,19.42-40.29,40.1-58.93,61.51-4.63,5.32-9.2,10.7-13.7,16.14-2.09,2.53-4.17,5.08-6.22,7.64s-4.15,5.05-5.77,7.87c-3.8,6.64-2.36,14.71-2.48,22.04s-.71,15.34-2.28,22.85c-2.65,12.7-8.36,25.1-18.28,33.76-2.4,2.1-5.07,3.65-7.66,5.47s-4.06,4.3-2.9,7.34,3.74,4.88,6.3,6.48c2.38,1.5,5.03,3.01,5.58,6.01.46,2.51-.79,5.02-2,7.14-1.33,2.34-2.89,4.56-3.91,7.06-2.53,6.24.86,11.97,5,16.56,5.05,5.59,10.64,10.74,16,16.03s11.17,10.96,16.78,16.41c22.62,21.93,45.63,43.48,68.99,64.63,2.86,2.59,5.73,5.17,8.6,7.75.83.75,2.31,1.19,3.42.92.97-.24,1.24-1,.46-1.71-23.21-20.84-46.07-42.06-68.56-63.67-11.21-10.77-22.32-21.63-33.35-32.58-2.61-2.59-5.29-5.13-7.78-7.82-2.17-2.34-4.3-5.02-5.2-8.14-1.71-5.93,2.64-10.54,5.11-15.48,1.09-2.18,1.82-4.65,1.14-7.08-.77-2.75-2.97-4.63-5.25-6.17-2.48-1.68-5.7-3.11-6.66-6.21-1.08-3.47,2.3-5.28,4.73-6.83,10.59-6.74,17.81-17.64,21.79-29.4,2.35-6.92,3.61-14.18,4.24-21.45s.39-14.92.46-22.41c.03-3.82.77-7.36,2.81-10.63,1.75-2.8,3.94-5.34,6-7.91,4.26-5.3,8.61-10.53,13.02-15.7,18.31-21.49,37.61-42.21,57.92-61.81,2.34-2.26,4.7-4.5,7.07-6.72,1.28-1.2-3.24-3.06-4.49-1.89h0Z"/>
    <path class="cls-2" d="M225.68,239c14.76,26.33,31.72,51.37,48.78,76.24,4.28,6.24,8.58,12.46,12.86,18.69,2.03,2.95,4.06,5.91,6.08,8.87.97,1.41,1.9,2.85,2.89,4.24,1.32,1.85,3.12,1.83,5.23,1.75,16.25-.62,32.51-.72,48.76-.28s32.31,1.39,48.41,2.87c8.15.75,16.29,1.63,24.41,2.64,4.06.51,8.12,1.05,12.17,1.62,1.91.27,3.83.55,5.74.83,1.01.15,2.02.3,3.03.46.89.14,1.28-.02,1.22,1.07-.08,1.53-1.16,3.16-1.77,4.52-.89,2-1.79,3.99-2.68,5.99-1.69,3.78-3.39,7.56-5.08,11.35-3.34,7.46-6.68,14.92-10.02,22.38-6.73,15.02-13.46,30.05-20.19,45.07-6.73,15.02-13.46,30.05-20.19,45.07-1.69,3.78-3.39,7.56-5.08,11.35s-3.48,7.24-4.73,11.02c-1.02,3.07-1.58,6.66-.2,9.71,1.14,2.51,3.39,4.42,5.93,5.42s5.49,1.22,7.81-.3l-4.16-2.11c-12.29,12.1-24.92,23.84-37.89,35.19-6.4,5.6-12.89,11.12-19.45,16.53-1.56,1.29-3.09,2.62-4.71,3.84-.6.45-1.29.97-2.02,1.18-1.23.35-2.24-.31-3.28-.9-3.74-2.13-7.41-4.42-11.11-6.62-8.63-5.15-17.25-10.29-25.88-15.44-.88-.53-2.45-1.01-3.42-.45s-.29,1.46.42,1.88c8.23,4.91,16.47,9.83,24.7,14.74,4.01,2.39,8,4.81,12.03,7.17,3.42,2,7.6,3.6,11.36,1.49,1.68-.94,3.12-2.31,4.6-3.52,1.88-1.54,3.75-3.09,5.62-4.65,3.56-2.97,7.1-5.98,10.62-9.01,6.86-5.92,13.64-11.94,20.31-18.07,7.66-7.02,15.18-14.19,22.59-21.47,1.35-1.33-3.13-2.79-4.16-2.11-3.74,2.45-5.96-3.43-5.86-6.33.18-5.43,3.41-10.73,5.58-15.58,4.71-10.51,9.41-21.01,14.12-31.52,9.51-21.22,19.01-42.44,28.52-63.67,4.71-10.51,9.41-21.01,14.12-31.52,2.4-5.36,4.8-10.72,7.2-16.07.86-1.92,2-4.09.39-5.94-1.44-1.66-3.85-2.04-5.9-2.35-22.58-3.5-45.34-5.9-68.14-7.3s-45.86-1.8-68.79-1.13c-2.84.08-5.68.18-8.52.3l3.19,1.32c-19.13-28.1-38.87-55.81-56.82-84.69-4.88-7.85-9.62-15.79-14.14-23.85-.77-1.37-5.61-1.89-4.5.1h0Z"/>
    <path class="cls-2" d="M273.86,561.63c-6.04,4.24-12.74,7.57-19.45,10.61-8.17,3.71-16.55,6.94-25.01,9.89-16.28,5.69-32.95,10.52-49.85,13.99-3.45.71-6.92,1.35-10.4,1.85-.76.11-1.52.21-2.28.3-.12.01-.24.03-.36.04-.12.01-.24.03-.36.04.22-.02.25-.03.1-.01-.31.03-.62.06-.93.09-1.17.11-2.33.18-3.51.19-.84,0-1.85.47-1.31,1.42s2.19,1.33,3.19,1.32c5.39-.04,10.83-1.06,16.11-2.07,7.82-1.51,15.56-3.4,23.24-5.48,17.81-4.82,35.49-10.57,52.4-17.98,7.93-3.47,15.79-7.33,22.9-12.31.91-.64-.85-1.75-1.29-1.94-1-.43-2.27-.61-3.2.05h0Z"/>
    <path class="cls-2" d="M186.39,246.29c7.38-11.39,15.09-22.55,23.13-33.48,1.14-1.55-3.51-3.22-4.49-1.89-8.04,10.93-15.75,22.09-23.13,33.48-1.07,1.65,3.61,3.25,4.49,1.89h0Z"/>
    <path class="cls-2" d="M194.88,235.24c-1.04,2.41-2.03,4.86-1.92,7.54.09,2.17,1.16,4.32,2.89,5.65,2.64,2.02,5.79,1.96,8.92,1.59,2.79-.33,5.58-.75,8.35-1.24,1-.18,1.18-1.05.46-1.71-.86-.78-2.29-1.11-3.42-.92-2.31.41-4.63.77-6.95,1.06-1.06.14-2.13.3-3.2.32-.18,0-.27-.04-.39-.02-.27.06-.03-.05.1.05-.4-.33.08.21-.25-.13.21.22-.26-.24-.25-.23-1.03-1.02-1.49-2.81-1.41-4.29.12-2.24,1.03-4.35,1.91-6.38.4-.93-1.49-1.71-2.09-1.85-.81-.2-2.32-.42-2.74.56h0Z"/>
    <path class="cls-2" d="M167.84,285.46c-15.36,19.29-30.72,38.58-46.08,57.87-4.36,5.47-8.72,10.95-13.08,16.42-1.18,1.48,3.45,3.19,4.49,1.89,15.36-19.29,30.72-38.58,46.08-57.87,4.36-5.47,8.72-10.95,13.08-16.42,1.18-1.48-3.45-3.19-4.49-1.89h0Z"/>
    <path class="cls-2" d="M187.93,285.33c-4.41,17.61-8.41,35.31-11.99,53.1-1.02,5.07-2,10.15-2.96,15.24-.33,1.75,4.52,2.95,4.83,1.29,3.34-17.84,7.1-35.6,11.27-53.26,1.19-5.03,2.42-10.06,3.67-15.08.42-1.69-4.41-2.98-4.83-1.29h0Z"/>
    <path class="cls-2" d="M197.16,289.28c-.23,14.19.52,28.37,2.3,42.45.21,1.63,5.07,2.52,4.83.61-1.75-13.85-2.53-27.8-2.3-41.76.03-1.86-4.8-2.81-4.83-1.29h0Z"/>
    <path class="cls-2" d="M215.34,271.14c8.21,21.43,16.84,42.7,25.9,63.78s18.58,42.08,28.49,62.83c5.57,11.66,11.27,23.25,17.1,34.78.71,1.4,5.54,1.96,4.5-.1-10.33-20.43-20.26-41.07-29.76-61.91-9.49-20.8-18.57-41.8-27.22-62.97-4.86-11.88-9.58-23.82-14.17-35.81-.4-1.04-1.72-1.51-2.74-1.64-.51-.06-2.48,0-2.08,1.03h0Z"/>
    <path class="cls-2" d="M291.79,544.71c3.62-20.3,5.6-40.89,5.87-61.51.02-1.22.03-2.44.03-3.67,0-.81-.03-1.17.58-1.71.45-.4,1.01-.72,1.5-1.07,2.03-1.44,4.06-2.86,6.12-4.27,4-2.74,8.04-5.41,12.13-8.02,8.24-5.25,16.65-10.24,25.21-14.94,9.58-5.26,19.35-10.16,29.29-14.7,1.04-.47.21-1.49-.42-1.88-.92-.57-2.38-.93-3.42-.45-17.91,8.19-35.29,17.55-51.97,28.03-4.17,2.62-8.3,5.31-12.38,8.06-2.02,1.37-4.03,2.75-6.03,4.14-.95.66-1.89,1.33-2.83,1.99-.5.36-1,.71-1.5,1.07-.7.5-1.04.6-1.11,1.46-.2,2.58-.03,5.24-.09,7.82s-.14,5.21-.25,7.82c-.22,5.21-.55,10.42-.99,15.62-.98,11.7-2.52,23.34-4.58,34.9-.31,1.76,4.54,2.95,4.83,1.29h0Z"/>
    <path class="cls-2" d="M95.09,449.7c7.33,16.32,15.19,32.39,23.58,48.19s17.34,31.36,26.78,46.58c5.34,8.6,10.84,17.1,16.5,25.5.64.94,2.11,1.35,3.19,1.32.77-.02,1.95-.46,1.31-1.42-9.96-14.79-19.44-29.91-28.41-45.33s-17.34-31-25.22-46.91c-4.47-9.02-8.77-18.13-12.9-27.32-.46-1.03-1.68-1.51-2.74-1.64-.46-.06-2.54.01-2.08,1.03h0Z"/>
  </g>
</svg>