<?xml version="1.0" encoding="UTF-8"?>
<svg id="Layer_8_copy" data-name="Layer 8 copy" xmlns="http://www.w3.org/2000/svg" viewBox="0 0 743.83 450">
  <defs>
    <style>
      .cls-1 {
        fill: #b4edfe;
      }

      .cls-1, .cls-2, .cls-3 {
        stroke-width: 0px;
      }

      .cls-2 {
        fill: #89f8d1;
      }

      .cls-3 {
        fill: #2b3369;
      }
    </style>
  </defs>
  <g id="Layer_18_copy_2" data-name="Layer 18 copy 2">
    <path class="cls-2" d="M247.11,354.62c4.23.49,16.61-6.95,20.4-8.88,15.17-7.71,22.54-6.24,39.43-8.29,9.9-1.2,33.37,1.94,48.64.08,11.33-1.38,84.33-30.93,137.21-39.74,35.17-5.86,71.82-6.4,104.93-11.91-.79-5.99-.57-13.48-1.36-19.47-.9-6.82-4.25-59.1-4.69-65.97-1.21-19.12.99-32.99-3.34-65.96-55.48,3.84-113.48,26.31-160.3,51.04-21.67,11.44-40.22,33.82-64.73,33.82-11.02,0-22.55-1.3-32.88-1.67-13.18-.47-24.31-1.2-37.42.17-54.16,5.65-71.5,12.66-71.5,12.66,0,0,2.45,81.27,4.17,86.38,4.43,13.2,16.05,37.12,21.44,37.75Z"/>
  </g>
  <g id="Layer_19_copy" data-name="Layer 19 copy">
    <path class="cls-1" d="M240.4,345.59c.13,4.84,5.34,8.25,10.18,8.27,5.38.03,17.05-7.39,29.05-12.6,9.47-4.11,23.39-3.04,69.67-3.04,10.28,0,32.36-10.64,46.51-14.87,28.99-8.66,56.96-16.47,84.21-23.12,30.77-7.51,116.42-13.4,116.42-13.4l-1.81-11.59s-13.86-.2-27.71.95c-39.54,3.28-81.32,9.88-94.05,12.55-37.32,7.84-88.76,25.7-111.82,34.4-10.59,4-14.81,3.76-26.13,3.61-7.75-.1-25.66-2.9-33.22-1.17-25.83,5.9-38,10.98-61.3,20.01Z"/>
    <path class="cls-1" d="M588.55,149.06c-60.34,5.12-125.05,23.57-176.49,59.94-11.22,7.94-16.68,17.45-30.1,20.43-10.07,2.24-26.24-.57-36.55-.57-40.8,0-77.2-.46-114.69,8.22-2.43.56-5.04,1.14-7.37.24s-3.95-3.98-2.46-5.99c2.86-3.51,7.75-4.42,12.22-5.1,14.65-2.23,29.3-4.45,43.95-6.68,12.97-1.97,25.52-1.23,38.62-1.89,28.71-1.45,45.03,5.17,65.31-1.74,5.51-1.87,12.18-8.55,16.89-11.96,35.74-25.86,76.96-41.84,118.88-55.6,24.38-8,45.49-10.49,71.57-13.89.33,6.01-.96,10.81.22,14.59Z"/>
  </g>
  <g>
    <path class="cls-3" d="M587.39,133.11c-24.01,2.4-47.78,6.9-70.99,13.5-23.28,6.62-45.99,15.28-67.75,25.88s-42.31,23.06-61.79,37.24c-5.24,3.82-10.44,6.92-16.97,7.79s-12.85.05-19.22-.35c-13.48-.86-26.99-1.13-40.48-.77-27.01.71-53.96,3.87-80.4,9.43-3.31.7-6.62,1.43-9.91,2.2-.53.12-1.02.39-.94,1.01,4.14,30.21-.81,61.23,6.59,91.07,1.61,6.5,3.81,12.84,6.73,18.86,1.5,3.08,3.19,6.07,5.09,8.91,1.74,2.61,3.58,5.35,6.42,6.86,6.28,3.34,12.6-.1,17.96-3.52,5.65-3.59,11.71-6.4,18.13-8.3,13.12-3.87,26.93-4.41,40.53-4.18,6.93.12,13.86.46,20.79.75,7.65.32,14.95.07,22.27-2.37s14.16-5.42,21.27-8.01c7.18-2.62,14.41-5.11,21.68-7.46,14.84-4.81,29.86-9.07,45.01-12.79,29.96-7.35,60.47-12.59,91.18-15.55,15.77-1.52,31.66-1.91,47.37-3.94,1.81-.23,3.63-.49,5.43-.79.87-.14,2.64-.07,3.32-.81.21-.22.24-.46.31-.73.21-.84.14-1.82.15-2.68.18-10.04-.44-20.12-.89-30.14-.71-15.62-1.56-31.22-2.48-46.83-.9-15.2-1.86-30.4-2.99-45.58-.41-5.47-.83-10.94-1.33-16.41-.28-3.04-.48-6.15-1.03-9.16-.17-.91-.38-1.63-1.25-2.16s-2.52-1.06-3.42-.45-.35,1.41.42,1.88c-.62-.38-.82-1.25-.71-.49.05.36.14.73.2,1.09.2,1.27.34,2.55.48,3.82.48,4.45.84,8.92,1.2,13.39,1.1,13.83,2.01,27.69,2.87,41.54.98,15.77,1.88,31.54,2.66,47.32.59,11.84,1.19,23.69,1.41,35.55.05,2.68.16,5.1-.09,7.79,0,.1-.08.28-.06.38.08.33-.19,0,0,.1-.1-.05.8-.49.79-.46-.07.23-2.6.44-2.89.49-2.05.33-4.1.61-6.16.87-7.82.96-15.69,1.44-23.55,1.96-30.18,1.99-60.19,5.89-89.82,11.97-29.41,6.04-58.39,14.13-86.68,24.17-7.08,2.51-14.09,5.18-21.09,7.9-3.48,1.35-7,2.66-10.68,3.35s-7.52.74-11.3.65c-13.58-.36-27.12-1.4-40.71-.61s-26.31,3.1-38.09,9.08c-2.93,1.49-5.63,3.3-8.44,4.98-2.27,1.37-5.87,3.72-8.68,2.96-1.32-.36-2.31-1.71-3.09-2.75-1.05-1.4-2.03-2.86-2.97-4.34-1.81-2.87-3.43-5.87-4.83-8.96-12.06-26.64-9.59-56.6-10.48-85.05-.24-7.54-.73-15.07-1.75-22.55l-.94,1.01c26.44-6.18,53.41-9.96,80.53-11.2,13.53-.62,27.08-.63,40.61-.01,6.38.29,12.75.92,19.13,1.12,5.99.19,12.12-.22,17.72-2.51,5.61-2.28,10.37-6.38,15.26-9.85s10.08-6.96,15.24-10.27c10.17-6.52,20.63-12.57,31.34-18.15,21.38-11.14,43.75-20.4,66.76-27.58,23.06-7.2,46.76-12.35,70.73-15.32,3.03-.38,6.07-.72,9.11-1.02,3.24-.32-.02-2.92-1.88-2.74h0Z"/>
    <path class="cls-3" d="M593.69,273.86c-24.89.31-49.75,2.1-74.43,5.35-24.72,3.26-49.24,7.99-73.39,14.17s-47.81,13.75-70.99,22.73c-8.82,3.42-17.72,7.18-27.04,9-5.79,1.13-11.73.55-17.53-.19-6.09-.78-12.12-1.51-18.27-1.46-23.53.17-45.51,9.28-66.96,17.99-2.84,1.15-5.69,2.3-8.54,3.43-1.09.43-.15,1.51.42,1.88.94.61,2.36.87,3.42.45,21.54-8.55,43.25-18.88,66.67-20.72,5.93-.47,11.89-.39,17.8.3,6.36.74,12.69,1.86,19.12,1.68,9.46-.27,18.7-3.88,27.45-7.19,10.78-4.07,21.49-8.24,32.41-11.94,11.76-3.98,23.65-7.6,35.64-10.87,23.95-6.52,48.28-11.62,72.83-15.25,24.48-3.62,49.18-5.78,73.92-6.44,3.12-.08,6.23-.14,9.35-.18.85-.01,1.83-.46,1.31-1.42s-2.21-1.33-3.19-1.32h0Z"/>
    <path class="cls-3" d="M588.53,148.25c-27.52,1.85-54.82,6.61-81.26,14.52s-51.21,18.56-74.83,32.08c-11.89,6.81-23.39,14.3-34.45,22.39-4.37,3.19-8.64,6.83-13.43,9.41-2.62,1.41-5.04,1.71-7.94,1.65-24.1-.52-48.19-1.66-72.3-.84-23.41.8-46.67,3.61-69.83,6.95-3.8.55-7.61,1.11-11.41,1.69-1.05.16-1.12,1.05-.46,1.71.82.82,2.31,1.08,3.42.92,24.39-3.68,48.88-7.05,73.53-8.25,23.03-1.12,46.1-.39,69.13.28,4.87.14,10.11.88,14.95-.03,3.39-.63,6.28-2.54,9.05-4.48,5.27-3.67,10.35-7.61,15.61-11.3,5.75-4.04,11.62-7.9,17.6-11.59,23.14-14.29,47.89-25.94,73.68-34.59,26.05-8.73,53.16-14.37,80.51-16.94,3.43-.32,6.86-.59,10.3-.83.84-.06,1.85-.43,1.31-1.42-.5-.92-2.23-1.38-3.19-1.32h0Z"/>
    <path class="cls-3" d="M536.98,196.6c-23.64,10.31-46.31,22.7-68.43,35.92-11.01,6.58-21.9,13.37-32.75,20.23-5.41,3.42-10.8,6.87-16.21,10.3s-10.59,6.39-16.7,7.81c-13.57,3.16-27.71.23-41.4,2.55-1.03.17-1.15,1.05-.46,1.71.84.8,2.3,1.1,3.42.92,12.26-2.08,24.78,0,37.08-1.75,6.14-.88,11.85-2.94,17.22-6.04,5.63-3.25,11.04-6.92,16.53-10.4,21.79-13.82,43.72-27.46,66.43-39.73,12.78-6.91,25.8-13.37,39.11-19.18,1.05-.46.19-1.5-.42-1.88-.94-.58-2.37-.91-3.42-.45h0Z"/>
    <path class="cls-3" d="M373.12,262.32c-16.44-1.56-32.93-2.62-49.44-3.16-16.55-.55-33.12-.57-49.67-.07-9.31.28-18.61.73-27.9,1.33-.82.05-1.86.44-1.31,1.42.52.92,2.22,1.38,3.19,1.32,32.68-2.13,65.5-2.27,98.2-.31,9.21.55,18.41,1.27,27.6,2.14.72.07,2.23.05,2.08-1.03-.14-1.01-1.96-1.56-2.74-1.64h0Z"/>
    <path class="cls-3" d="M428.33,270.71c-5.69,3.11-11.38,6.22-17.08,9.32-2.81,1.53-5.62,3.07-8.43,4.6-2.63,1.44-5.33,3.24-8.28,3.95s-5.62-.07-8.37-.63c-3.19-.65-6.4-1.1-9.64-1.35-6.3-.49-12.63-.42-18.94-.34-25.97.33-51.91,1.94-77.8,4-14.52,1.15-29.02,2.45-43.52,3.75-.81.07-1.87.43-1.31,1.42.51.91,2.23,1.4,3.19,1.32,26.12-2.34,52.25-4.67,78.43-6.17,13.13-.75,26.27-1.29,39.41-1.52,6.31-.11,12.64-.26,18.94.07,3.14.17,6.27.49,9.37,1.02s6.24,1.42,9.46,1.45c3.45.04,6.53-1.18,9.52-2.79,3.16-1.7,6.29-3.43,9.43-5.15,6.48-3.54,12.97-7.08,19.45-10.62.98-.54.26-1.46-.42-1.88-.86-.53-2.44-.99-3.42-.45h0Z"/>
    <path class="cls-3" d="M601.36,286.44c6.54-19.29,12.08-38.91,16.58-58.77,4.48-19.78,7.93-39.8,10.34-59.94,1.36-11.41,2.38-22.86,3.07-34.32.09-1.43-2.25-2.11-3.35-2.02-13.5,1.14-27.1.57-40.6,1.71-.82.07-1.87.43-1.31,1.42.51.91,2.22,1.4,3.19,1.32,13.5-1.14,27.1-.58,40.6-1.71l-3.35-2.02c-1.22,20.33-3.5,40.59-6.83,60.68-3.32,20.01-7.67,39.85-13.05,59.41-3.04,11.08-6.42,22.06-10.11,32.94-.54,1.59,4.25,2.99,4.83,1.29h0Z"/>
    <path class="cls-3" d="M632.23,133.71c.97-.76,1.98-1.46,2.95-2.23.51-.4,1.01-.8,1.47-1.26.16-.15.28-.33.42-.49.1-.12.25-.19.35-.32.24-.28.29-.66.22-1.01-.12-.53-.55-1.03-.95-1.37-.54-.45-1.17-.83-1.83-1.09-.85-.33-1.77-.56-2.68-.53-.59.02-1.17.14-1.61.55-.37.35-.62.87-.85,1.31-.3.56-.56,1.13-.82,1.71-.46,1.03-.83,2.12-1.33,3.13-.17.34.28.86.48,1.04.42.39,1.07.68,1.61.81.86.21,2.26.4,2.74-.56.35-.71.62-1.47.93-2.2.42-1,.84-2,1.39-2.94l-.17.3c.16-.27.33-.58.58-.77l-.32.22s.06-.04.09-.05l-.44.14c.22-.07-.63.03-.34.03-.03,0-.74-.05-.36-.01-.75-.07-.64-.13-.38-.07.36.09-.73-.28-.32-.1s-.55-.31-.24-.13c.07.04.13.08.19.12.28.17-.43-.35-.2-.14.07.06.14.13.2.19l-.31-.35c.08.1.16.2.21.31l-.17-.35c.05.11.07.21.07.32v-.34c0,.08-.02.13-.06.21l.17-.3c-.1.12-.25.19-.35.32-.06.07-.11.16-.18.23-.14.17-.31.33-.47.48-.47.43-.97.83-1.47,1.22-.9.7-1.83,1.35-2.72,2.05-.31.24-.17.74,0,1,.27.42.85.76,1.29.94.98.39,2.3.65,3.2-.05h0Z"/>
    <path class="cls-3" d="M635.02,130.08c-3.18-18.57-2.66-38,1.43-56.39,2.01-9.01,5.04-17.82,8.36-26.43s7.34-17.57,11.85-25.94c2.21-4.1,4.57-8.11,7.11-12.01,1.17-1.8,2.34-3.64,3.71-5.3,1.2-1.46,2.81-3.27,4.75-3.67,1.38-.29,2.54,2.06,3.13,3.03,1.17,1.92,2.07,3.98,2.79,6.11,1.48,4.36,2.24,8.93,3,13.46,1.75,10.3,4.08,20.48,7.06,30.5.72,2.4,1.53,4.95,1.2,7.49-.29,2.23-1.36,4.24-2.63,6.05-2.88,4.11-6.35,7.82-9.84,11.42-14.21,14.65-28.88,28.84-41.9,44.6-1.59,1.92-3.15,3.87-4.69,5.84-1.17,1.5,3.46,3.2,4.49,1.89,13.16-16.84,28.28-32.01,43.34-47.14,3.7-3.72,7.38-7.48,10.68-11.56,2.99-3.7,5.88-7.64,5.42-12.64-.25-2.62-1.18-5.15-1.91-7.67-.76-2.65-1.49-5.31-2.16-7.98-1.35-5.35-2.52-10.74-3.51-16.16-.87-4.76-1.51-9.58-2.74-14.26-1.15-4.37-2.85-9.14-5.92-12.56-3.33-3.71-8.66-4.19-12.55-1.13-1.76,1.39-3.08,3.21-4.34,5.04-1.34,1.95-2.63,3.94-3.87,5.95-10.23,16.55-17.92,34.8-23.47,53.41-5.59,18.72-6.9,39-4.63,58.37.28,2.37.62,4.73,1.02,7.08.28,1.63,5.15,2.48,4.83.61h0Z"/>
    <path class="cls-3" d="M217.16,230.75c-7.81,11.13-16.63,23.54-30.31,27.64-7.72,2.31-15.91,2.13-23.87,1.77-8.49-.38-16.94-1.2-25.41-1.86-16.9-1.31-33.88-1.86-50.54,1.85-7.85,1.74-15.55,4.29-22.88,7.58-5.9,2.65-11.68,6.08-16.18,10.79s-7.25,10.66-6.76,17.22c.56,7.4,4.71,14.62,9.19,20.35,4.53,5.79,10.18,10.54,16.51,14.25s13.05,6.42,19.83,9.04,13.49,5.06,19.85,8.4,11.96,7.37,17.06,12.22,9.42,10.29,12.99,16.27c1.83,3.07,3.21,6.6,6.17,8.79s7.06,2.79,10.8,2.67c7.53-.25,15.14-1.35,22.55-2.73,7.46-1.38,14.83-3.24,22.06-5.54,14.48-4.61,28.38-10.95,41.28-18.98,3.12-1.94,6.17-3.98,9.17-6.1.91-.64-.84-1.75-1.29-1.94-1-.42-2.27-.61-3.2.05-12.11,8.56-25.31,15.57-39.14,20.9-13.81,5.32-28.29,8.92-42.98,10.7-3.55.43-7.15.84-10.73.91-1.43.03-3.02.04-4.33-.61-1.38-.68-2.29-2.01-3.07-3.29-1.82-3-3.41-6.1-5.39-9.01s-4.06-5.52-6.34-8.07c-4.63-5.16-9.86-9.71-15.63-13.55s-12.41-6.95-19-9.61c-12.87-5.19-26.74-9.32-37.16-18.94-5.23-4.83-9.64-10.88-12.32-17.5-1.45-3.57-2.4-7.47-1.97-11.35.33-2.96,1.36-5.84,2.95-8.35,3.33-5.28,8.51-9.19,13.91-12.17,6.51-3.6,13.65-6.22,20.79-8.23,7.59-2.13,15.38-3.49,23.24-4.03,8.36-.57,16.75-.32,25.11.22,8.35.55,16.68,1.36,25.03,1.92s16.35,1.07,24.47.16c7.28-.82,14.06-3.18,20.04-7.44,5.53-3.94,10.07-9.1,14.17-14.47,2.02-2.64,3.94-5.35,5.84-8.07,1.12-1.59-3.54-3.23-4.49-1.89h0Z"/>
  </g>
</svg>