<?xml version="1.0" encoding="UTF-8"?>
<svg id="Layer_4" data-name="Layer 4" xmlns="http://www.w3.org/2000/svg" viewBox="0 0 380 320">
  <defs>
    <style>
      .cls-1 {
        fill: #b4edfe;
      }

      .cls-1, .cls-2, .cls-3, .cls-4 {
        stroke-width: 0px;
      }

      .cls-2 {
        fill: #2493b1;
      }

      .cls-3 {
        fill: #8af8d1;
      }

      .cls-4 {
        fill: #2b3369;
      }
    </style>
  </defs>
  <g id="Layer_11" data-name="Layer 11">
    <path class="cls-1" d="M314.63,75.95c4.04-1.84,7.54-4.83,9.99-8.52-6.01-12.04-14.04-23.07-23.64-32.5-.47-.47-.98-.94-1.62-1.12-.72-.2-1.49.02-2.19.28-4.21,1.57-7.73,4.89-9.54,8.99,3.2,3.34,6.4,6.69,9.61,10.03,5.61,5.86,11.35,11.92,14.39,19.44.81,2.01,1.56,4.05,3.01,3.4Z"/>
  </g>
  <g id="Layer_10" data-name="Layer 10">
    <path class="cls-3" d="M198.76,31.47S117.42,72.67,61.96,119.05c-15.13,12.66-33.94,28.17-45,75.63-1.91,8.18-7.55,57.97,56.96,94.25,27.88,15.68,58.12-3.99,64.54-8.74,41.24-30.53,85.35-72.83,113.75-97.08,19.32-16.5,60.54-58.07,65.05-70.9,5.85-16.64-5.43-41.4-16.43-55.2-13.43-16.85-28.79-29.75-49.51-35.67-20.72-5.92-52.57,10.14-52.57,10.14Z"/>
  </g>
  <g id="Layer_13" data-name="Layer 13">
    <path class="cls-2" d="M229.08,201.92c3.32-3.08,5.84-7.11,7.02-11.48,10.5-38.94-3.45-62.57-19.32-80.33-29.26-32.74-51.68-36.42-57.52-36.94-10.27-.9-23.79.54-34.71,2.9,11.75-9.26,52.02-32.73,52.02-32.73,0,0,23.05-10.08,54.42,5.78,13.22,6.68,22.81,17.81,31.88,29.52,9.07,11.71,17.22,24.65,18.54,39.4.8,8.98,2.89,22.68-10.26,45.68-7.42,12.97-20.83,21.42-31.75,31.62-3.02,2.81-6.05,5.64-10.31,6.58Z"/>
  </g>
  <g>
    <path class="cls-4" d="M65.47,112.57c-13.46,9.83-25.27,21.95-34.14,36.11-7.76,12.39-13.28,26.21-15.59,40.68-2.07,12.96-1.6,26.44,2.05,39.09,1.73,6,4.18,11.81,7.32,17.22,3.91,6.73,9.05,12.62,14.31,18.33,10.98,11.91,23.97,22.96,39.5,28.31,13.58,4.68,27.85,4.21,41.36-.49,16.93-5.9,31.09-17.17,44.81-28.36,15.66-12.78,31.05-25.89,46.14-39.32,15.25-13.58,30.21-27.48,44.88-41.67,15.19-14.68,30.08-29.66,44.74-44.87,3.71-3.85,7.4-7.71,11.08-11.59,1.25-1.32-3.32-3.12-4.49-1.89-14.51,15.28-29.24,30.36-44.24,45.16-14.35,14.15-28.95,28.03-43.84,41.61s-29.49,26.33-44.64,39.02c-7.66,6.42-15.36,12.8-23.19,19.01-6.96,5.52-14.29,10.64-22.14,14.83-12.13,6.48-25.8,10.71-39.65,8.72-14.36-2.06-26.95-10.56-37.44-20.21-6.55-6.03-12.81-12.66-18.15-19.79-3.63-4.84-6.62-10.14-8.89-15.74-4.78-11.77-6.55-24.66-5.69-37.31.94-13.89,4.94-27.5,11.21-39.91,7.15-14.15,17.31-26.67,29.22-37.09,3.19-2.79,6.52-5.43,9.95-7.94.9-.66-.83-1.74-1.29-1.94-.99-.42-2.28-.62-3.2.05h0Z"/>
    <path class="cls-4" d="M310.77,127.22c15.26-14.14,11.24-36.88,2.97-53.61-4.97-10.05-11.85-18.92-19.88-26.71-8.81-8.54-18.54-16.31-29.54-21.83s-22.31-8.14-34.1-6.78c-5.95.69-11.5,2.61-17,4.91-5.53,2.32-10.99,4.83-16.38,7.46-22.59,11.02-44.22,23.98-65.43,37.43-19.55,12.4-39.06,24.85-57.79,38.48-2.73,1.98-5.44,3.98-8.14,5.99-.89.66.83,1.74,1.29,1.94.98.42,2.29.63,3.2-.05,9.37-6.97,18.86-13.78,28.56-20.3,9.26-6.22,18.68-12.21,28.08-18.21,20.58-13.14,41.35-26,62.98-37.33,10.47-5.48,21.17-10.88,32.26-15.01,10.34-3.85,21.51-3.76,31.92-.23,10.93,3.71,20.66,10.49,29.32,17.98s16.22,15.49,22.14,25.1c9.37,15.21,16.85,37.73,5.43,53.91-1.27,1.81-2.75,3.45-4.37,4.95-1.29,1.19,3.23,3.05,4.49,1.89h0Z"/>
    <path class="cls-4" d="M112.18,285.31c9.3-1.83,18.15-5.64,25.56-11.61,6.88-5.55,12.22-12.84,15.7-20.95,7.78-18.12,5.94-39.12-1.44-57.04-7.94-19.3-22.04-36.88-40.75-46.59-14.97-7.77-32.85-10.66-49.13-5.43-7.35,2.36-14.15,6.31-19.69,11.71-5.76,5.62-10,12.7-12.52,20.33-.67,2.01-1.21,4.06-1.65,6.13-.37,1.73,4.47,2.96,4.83,1.29,1.68-7.82,4.9-15.27,9.91-21.53,4.59-5.74,10.47-10.3,17.15-13.36s14.03-4.51,21.35-4.49c7.76.02,15.36,1.74,22.52,4.79,17.99,7.67,31.77,23.21,40.42,40.5s12.13,37.84,6.33,56.57c-5.18,16.7-17.87,29.93-34.58,35.29-2.28.73-4.61,1.3-6.95,1.76-1.01.2-1.17,1.03-.46,1.71.82.78,2.32,1.13,3.42.92h0Z"/>
    <path class="cls-4" d="M229.37,208.85c8.19-14.11,13.68-29.84,13.02-46.33-.5-12.5-4.69-24.45-10.99-35.17-6.23-10.6-14.26-20.32-23.07-28.87-10.2-9.91-22.19-18.41-35.69-23.16-14.92-5.25-30.86-5.56-45.92-.65-2.07.67-4.1,1.43-6.11,2.26-1.07.44-.18,1.51.42,1.88.95.59,2.35.9,3.42.45,13.84-5.74,28.93-7.15,43.37-2.89,12.88,3.8,24.33,11.51,34.13,20.54,8.86,8.16,16.82,17.58,23.25,27.78s10.71,20.91,11.99,32.61c1.65,15.02-2.25,29.99-8.95,43.38-1.06,2.13-2.2,4.22-3.39,6.28-.53.92.52,1.61,1.29,1.94.64.27,2.69.82,3.2-.05h0Z"/>
    <path class="cls-4" d="M270.2,168.67c7.69-13.23,14.03-27.99,14.2-43.54.12-11.26-3.21-21.9-8.84-31.58-2.71-4.66-5.86-9.03-9.14-13.29-4.02-5.21-8.28-10.23-12.89-14.94-9.4-9.6-20.5-17.98-33.26-22.5-14.49-5.14-29.87-4.88-44.42-.08-2.1.69-4.17,1.47-6.21,2.32-1.07.44-.18,1.51.42,1.88.95.59,2.35.9,3.42.45,13.45-5.58,28.18-7.59,42.31-3.42,12.12,3.58,22.66,11.18,31.63,19.9,8.29,8.06,15.85,17.28,22.01,27.08,5.6,8.9,9.44,18.77,10.05,29.34.81,14.07-3.98,27.92-10.35,40.26-1.09,2.1-2.23,4.18-3.42,6.23-.53.92.52,1.61,1.29,1.94.64.27,2.69.82,3.2-.05h0Z"/>
    <path class="cls-4" d="M316.28,78.36c3.56-3.16,7.12-6.33,10.67-9.49.17-.18.23-.4.17-.64-6.07-14.14-15.19-26.81-26.72-37.01-.92-.81-3.14-1.54-4.18-.55-3.86,3.67-7.43,7.62-11.29,11.28-1.28,1.22,3.25,3.07,4.49,1.89,3.86-3.67,7.43-7.62,11.29-11.28l-4.18-.55c11.07,9.8,19.93,22.02,25.76,35.62l.17-.64c-3.56,3.16-7.12,6.33-10.67,9.49-.82.73.76,1.71,1.29,1.94.9.38,2.37.68,3.2-.05h0Z"/>
  </g>
</svg>