<?xml version="1.0" encoding="UTF-8"?>
<svg id="Layer_5" data-name="Layer 5" xmlns="http://www.w3.org/2000/svg" viewBox="0 0 340 483.94">
  <defs>
    <style>
      .cls-1 {
        fill: #b4edfe;
      }

      .cls-1, .cls-2, .cls-3 {
        stroke-width: 0px;
      }

      .cls-2 {
        fill: #2493b1;
      }

      .cls-3 {
        fill: #2b3369;
      }
    </style>
  </defs>
  <g id="Layer_12" data-name="Layer 12">
    <path class="cls-2" d="M159.89,46.18c-15.2,42.81-31.9,80.92-50.41,122.4-18.26,40.92-35.43,82.31-52.6,123.7-10.63,25.62-23.75,51.36-25.14,79.06-1.6,31.92,17.81,48.26,36.73,56.93,32.23,14.78,64.03,13.33,74.17,9.42,25.74-9.92,40.61-42.08,48.21-66.31,26.87-85.63,52.08-157.37,78.39-241.25,4.52-14.39,16.4-39.16,18.11-54.15,1.71-14.99-6.93-35.05-17.59-45.72-18.33-18.33-36.57-26.13-51.07-23.9-23.88,3.67-51.89,20.34-58.8,39.79Z"/>
  </g>
  <g id="Layer_14" data-name="Layer 14">
    <path class="cls-1" d="M89.32,220.04c-14.82,31.37-28.42,63.33-40.75,95.76,6.74-4.39,17.44-13.77,25.38-15.02,18.25-2.86,56.96-7.48,97.89,15.32,7.21,4.02,30.13,22.46,24.75,43.74,3.72-17.92,28.11-101.76,28.11-101.76,0,0-6.31-28.25-46.99-44.16-52.47-20.52-91.2,6.78-88.39,6.11Z"/>
    <path class="cls-1" d="M55.56,420.63c-2.3,6.92-4.61,13.84-6.91,20.76-1.28,3.84-2.56,8.06-1.14,11.85.76,2.03,2.22,3.71,3.76,5.23,5.05,4.98,11.29,8.75,18.06,10.9,5.75,1.83,11.8,2.49,17.62,4.05,3.13.84,11.57.1,23.27-1.55,2.04-.29,3.27-2.58,4.38-4.32,1.49-2.36,2.05-5.16,2.59-7.9,1.34-6.79,2.68-13.74,1.75-20.6-.34-2.49-.99-4.99-2.34-7.11-1.03-1.63-2.43-2.48-3.81-3.82-2.27-2.2-18.68-22.22-55.27-10.81-2.1.65-3.23,3.27-1.94,3.32Z"/>
  </g>
  <g>
    <path class="cls-3" d="M120.14,441.67c11.79.65,23.94-.51,34.28-6.67,5.24-3.12,9.52-7.43,13.46-12.04,3.79-4.43,7.16-9.22,10.12-14.24,5.98-10.12,10.36-21.05,13.99-32.2,1.83-5.6,3.47-11.26,5.07-16.94,1.82-6.47,3.83-12.81,6.03-19.16,4.75-13.73,9.53-27.44,13.74-41.36s8.1-27.9,12.39-41.77c4.37-14.13,9.33-28.08,13.95-42.13,4.59-13.93,9.11-27.89,13.77-41.8,9.16-27.36,18.27-54.78,28.15-81.89,1.24-3.4,2.5-6.79,3.78-10.18.58-1.55-4.19-2.99-4.83-1.29-10,26.47-18.75,53.41-27.91,80.17-9.39,27.45-18.09,55.13-27.48,82.58-4.67,13.66-8.57,27.58-12.62,41.43s-8.3,27.6-13.01,41.24c-2.26,6.55-4.56,13.08-6.79,19.63-2.02,5.93-3.61,11.96-5.34,17.98-3.24,11.22-6.83,22.4-11.74,33.01s-11.19,20.5-19.29,28.92c-4.25,4.43-8.94,7.99-14.63,10.39-5.36,2.26-11.14,3.35-16.93,3.66-2.94.16-5.89.14-8.83-.03-.72-.04-2.23-.07-2.08,1.03.13.98,1.97,1.6,2.74,1.64h0Z"/>
    <path class="cls-3" d="M157.47,45.53c-4.67,13.03-9.8,25.89-14.65,38.85-2.45,6.54-4.81,13.1-7.46,19.56s-5.22,12.69-7.86,19.02c-10.65,25.52-21.62,50.9-32.57,76.29s-21.73,50.44-32.22,75.81c-5.27,12.73-10.44,25.51-15.48,38.33-2.36,5.99-5.21,11.66-7.97,17.46-2.77,5.83-4.59,11.96-6.21,18.2-3.13,12.03-5.07,24.75-2.78,37.11,2.16,11.64,8.16,21.52,16.61,29.67,2.01,1.94,4.11,3.77,6.25,5.57.87.73,2.29,1.2,3.42.92.94-.24,1.28-1.02.46-1.71-8.9-7.46-16.47-15.81-20.17-27.04-3.98-12.1-3.04-25.04-.38-37.3,1.32-6.09,2.86-12.35,5.06-18.19s5.36-11.21,7.9-16.87c2.76-6.14,5.02-12.53,7.52-18.78s5.1-12.66,7.7-18.98c10.33-25.19,21.05-50.21,31.83-75.21,10.79-25.04,21.64-50.06,32.21-75.19,5.3-12.61,10.96-25.19,15.58-38.07s9.73-25.68,14.55-38.55c1.2-3.19,2.37-6.4,3.52-9.61.56-1.57-4.22-2.99-4.83-1.29h0Z"/>
    <path class="cls-3" d="M288.19,83.22c4.03-12.44,1.58-25.62-4.46-36.97-6.53-12.27-16.9-22.45-28.58-29.85-10.96-6.94-23.25-11.51-36.33-11.42-12.12.08-24.26,3.67-34.65,9.86s-19.47,15.3-24.86,26.4c-.68,1.4-1.29,2.82-1.85,4.27-.59,1.53,4.17,2.99,4.83,1.29,4.26-11.01,12.11-20.36,21.76-27.09,9.32-6.49,20.47-10.79,31.81-11.78,5.29-.46,10.89-.23,15.9.9,5.77,1.31,11.28,3.73,16.54,6.68,11.47,6.44,21.6,15.63,28.6,26.81,6.5,10.37,10.15,22.88,7.64,35.08-.31,1.52-.72,3.02-1.2,4.5-.52,1.61,4.28,2.99,4.83,1.29h0Z"/>
    <path class="cls-3" d="M197.53,358.55c3.72-13.73-5.28-27-14.94-35.87-12.2-11.22-27.59-18.13-43.65-21.65-12.41-2.73-25.08-4.48-37.8-4.69s-25.24,1.02-36.73,5.92c-10.68,4.56-19.21,12.74-22.97,23.86-.49,1.46-.9,2.95-1.24,4.45-.39,1.72,4.45,2.97,4.83,1.29,1.27-5.62,3.58-10.96,7.19-15.49,3.31-4.15,7.51-7.47,12.19-9.95,10.21-5.42,22.06-7.1,33.48-7.34,12.11-.26,24.23,1.14,36.15,3.47.04,0,.48.09.14.03.13.03.26.05.39.08.35.07.69.14,1.04.21.73.15,1.45.3,2.18.46,1.28.28,2.56.57,3.84.87,3.86.92,7.66,2.05,11.36,3.5,7.49,2.92,14.64,6.84,20.99,11.77,10.01,7.78,20.56,19.79,19.49,33.4-.12,1.49-.38,2.95-.77,4.39-.45,1.67,4.37,2.98,4.83,1.29h0Z"/>
    <path class="cls-3" d="M226.53,267.06c3.21-11.88-4.3-23.37-12.2-31.55-9.53-9.86-21.88-17.62-34.77-22.26-5.85-2.11-11.97-3.57-18.05-4.87-6.11-1.3-12.28-2.34-18.51-2.9-11.99-1.09-24.39-.62-35.81,3.51s-20.43,12.04-26.19,22.58c-.81,1.48-1.55,3-2.23,4.54s4.09,2.98,4.83,1.29c4.73-10.71,12.69-19.51,23.39-24.43,10.12-4.65,21.55-5.7,32.56-5.12,11.58.61,22.87,2.96,33.99,6.09,12.16,3.42,23.74,10.28,33.13,18.73,8.05,7.24,16.66,17.74,15.7,29.31-.11,1.28-.34,2.54-.68,3.78-.45,1.67,4.37,2.98,4.83,1.29h0Z"/>
    <path class="cls-3" d="M264.53,113.13c-4.21-15.78-18.21-27.61-32.18-34.84-16.17-8.37-35.42-12.58-53.48-8.89-9.88,2.02-19.08,6.61-26.32,13.68-1.27,1.24,3.26,3.08,4.49,1.89,12.25-11.96,29.61-15.72,46.2-13.5,15.99,2.13,32.05,9.37,43.86,20.84,5.74,5.58,10.52,12.42,12.6,20.22.43,1.63,5.3,2.36,4.83.61h0Z"/>
    <path class="cls-3" d="M262.77,122.63c-4.21-15.78-18.21-27.61-32.18-34.84-16.17-8.37-35.42-12.58-53.48-8.89-9.88,2.02-19.08,6.61-26.32,13.68-1.27,1.24,3.26,3.08,4.49,1.89,12.25-11.96,29.61-15.72,46.2-13.5s32.05,9.37,43.86,20.84c5.74,5.58,10.52,12.42,12.6,20.22.43,1.63,5.3,2.36,4.83.61h0Z"/>
    <path class="cls-3" d="M121.71,441.67c1.6-10.72-9.41-18.44-17.7-22.62-5.72-2.88-11.88-4.85-18.16-6.05-5.9-1.13-12.04-1.52-17.99-.59-5.36.84-10.97,3-14.25,7.55-1.13,1.57,3.53,3.22,4.49,1.89,2.58-3.58,6.61-5.54,10.73-6.45,5.07-1.12,10.11-.94,15.23-.16s10.65,2.38,15.73,4.68c4.45,2.01,8.89,4.68,12.43,8.36,3.01,3.13,5.35,7.47,4.66,12.08-.27,1.79,4.59,2.93,4.83,1.29h0Z"/>
    <path class="cls-3" d="M112.19,466.32c.12-4.07-2.12-7.5-4.91-10.28-3.6-3.59-8.19-6.19-12.78-8.29-5.14-2.35-10.6-4.09-16.14-5.2-5.24-1.05-10.67-1.7-16.02-1.21-4.37.4-9.45,1.46-12.37,5.06-1.19,1.47,3.43,3.19,4.49,1.89,2.18-2.69,5.46-3.62,8.8-4.1,1.76-.25,4.11-.32,6.2-.24.86.03,2.08.13,3.25.25,1.25.14,2.49.31,3.73.52,4.57.78,9.59,2.23,14.02,4.06,4.18,1.73,8.19,3.83,11.58,6.75,2.73,2.35,5.46,5.61,5.35,9.48-.05,1.85,4.79,2.83,4.83,1.29h0Z"/>
    <path class="cls-3" d="M117.4,441.55c-2.22,8.95-4.45,17.89-6.67,26.84-.42,1.7,4.41,2.98,4.83,1.29,2.22-8.95,4.45-17.89,6.67-26.84.42-1.7-4.41-2.98-4.83-1.29h0Z"/>
    <path class="cls-3" d="M52.64,420.35c-3.06,8.98-6.12,17.95-9.19,26.93-.54,1.59,4.25,2.99,4.83,1.29,3.06-8.98,6.12-17.95,9.19-26.93.54-1.59-4.25-2.99-4.83-1.29h0Z"/>
    <path class="cls-3" d="M110.9,467.82c-2.99,2.95-7.16,4-11.28,4.55-5.13.68-10.57.23-15.91-.66s-11.23-2.53-16.42-4.67c-4.72-1.94-9.23-4.28-13-7.62-2.99-2.65-5.83-6.34-5.36-10.64.2-1.81-4.65-2.9-4.83-1.29-.49,4.45,1.9,8.32,4.9,11.39,3.93,4.01,9.03,6.87,14.1,9.16,6.01,2.72,12.39,4.63,18.87,5.9,5.97,1.17,12.16,1.79,18.24,1.3,5.33-.44,11.23-1.64,15.18-5.53,1.27-1.25-3.27-3.09-4.49-1.89h0Z"/>
  </g>
</svg>