<?xml version="1.0" encoding="UTF-8"?>
<svg id="Layer_2" data-name="Layer 2" xmlns="http://www.w3.org/2000/svg" viewBox="0 0 1772.38 1223.78">
  <defs>
    <style>
      .cls-1 {
        fill: #0f8872;
      }

      .cls-1, .cls-2 {
        stroke: #01242c;
      }

      .cls-1, .cls-2, .cls-3 {
        stroke-miterlimit: 10;
      }

      .cls-4 {
        fill: #9ee2f3;
      }

      .cls-4, .cls-5, .cls-6, .cls-7, .cls-8, .cls-9, .cls-10 {
        stroke-width: 0px;
      }

      .cls-2 {
        fill: none;
      }

      .cls-5 {
        fill: #2d3365;
      }

      .cls-6 {
        fill: #528cc9;
      }

      .cls-7 {
        fill: #1f3164;
      }

      .cls-8 {
        fill: #000;
      }

      .cls-9 {
        fill: #4990ad;
      }

      .cls-3 {
        fill: #b9f8d1;
        stroke: #007c7a;
      }

      .cls-10 {
        fill: #bfeafb;
      }
    </style>
  </defs>
  <g id="Layer_11" data-name="Layer 11">
    <path class="cls-3" d="M242.59,124.65c1.1-8.5,3.44-26.66,3.94-30.51.06-.48.05-.95-.02-1.42-1.14-6.91-9.48-63.56,18.21-85.33.2-.16.38-.32.55-.51,1.75-1.9,12.92-13.07,22.81-.47.34.44.74.82,1.21,1.13,4.05,2.64,25.48,19.71,18.37,81.86-.04.37-.04.76,0,1.13l4.14,35.08c.24,1.99,1.64,3.64,3.58,4.18,3.37.95,9.39,3.07,17.89,7.7,2.66,1.45,5.97.2,7.02-2.64,3.03-8.26,11.14-22.92,31.12-26.39.4-.07.81-.09,1.22-.06,9.05.64,114.92,9.08,155.71,58.5.06.08.13.15.2.22,2.11,2.21,36.21,38.38,20.6,55.1,0,0-8.05,12.65-34.51-10.35,0,0-9.18-10.33-65.35-24.1-.13-.03-.26-.06-.4-.08-1.74-.27-15.84-2.63-54.72-13.3-4.52-1.24-8.07,3.91-5.31,7.7,13.62,18.7,37.91,55.16,34.27,72.82-.25,1.2-.1,2.43.49,3.49,3.03,5.46,11.79,24.01,8.37,51.18-.1.77-.02,1.55.24,2.28,1.78,5.02,8.53,26.99-.05,50.9-.21.59-.32,1.21-.29,1.84.17,4.43-.15,24.57-17.82,46.63-.4.5-.7,1.07-.88,1.68-1.27,4.33-7.62,23.35-24.38,36.54-.44.35-.82.76-1.12,1.24l-11.59,18.34c-1.06,1.68-1.02,3.82.11,5.45,6.55,9.48,27.95,42.09,25.86,60.84-.07.61-.26,1.2-.55,1.74-1.84,3.47-8.77,14.13-16.15,17.54-.51.24-1.09.27-1.6.51-3.93,1.84-19.62,7.9-33.58-5.07-11.13-10.33-15.12-23.97-16.52-31.4-.5-2.67-3.08-4.42-5.75-3.92-1.08.2-2.4.42-3.98.64-.88.12-1.71.48-2.4,1.03-4.69,3.75-23.97,18.63-35.85,19.04-2,.07-3.81,1.24-4.54,3.1-2.08,5.31-6.56,13.51-10.65-.36-.54-1.83-2.09-3.17-3.97-3.48-6.17-1.02-20.29-4.58-32.3-16.61-.85-.85-1.96-1.39-3.17-1.46-3.08-.18-9.14-.85-10.83-3.39-2.3-3.45,2.3,32.21-19.55,36.81-18.44,3.88-39.13,9.31-46.79-10.01-2.54-6.41-2.57-13.53-.51-20.11,3.02-9.63,9.81-26.69,24.02-45.86,1.4-1.89,1.3-4.51-.28-6.25-2.76-3.05-6.95-8.41-9.8-15.55-4.55-11.37-14.72-5.88-24.95-39.09-.23-.74-.62-1.41-1.15-1.97-3.71-3.88-19.09-21.52-17.7-46.19.05-.84-.1-1.67-.46-2.43-2.42-5.14-11.52-27.35-.38-50.7.46-.96.63-2.04.43-3.09-1.26-6.65-5.21-32.87,7.19-48.21.82-1.02,1.22-2.32,1.08-3.62-.65-6.07-1.28-24.37,12.1-38.5.52-.55.93-1.19,1.16-1.91,1.49-4.61,8.14-23.15,21.35-32.55.87-.62,1.49-1.54,1.79-2.57.83-2.87,2.75-8.75,5.29-12.14,3.44-4.59-57.17,19.42-89.45,22.98-.19.02-.36.05-.55.09-3.11.74-31.85,8.08-63.91,32.25-.94.71-2.11,1.08-3.29,1-5.84-.4-22.42-3.61-11.89-27.56,0,0,13.8-37.96,62.11-60.96,0,0,60.54-27.42,114.47-29.88.39-.02.77,0,1.15.08,3.89.74,25.69,5.74,30.64,26.16.79,3.24,4.4,4.89,7.29,3.22,5.43-3.12,13.24-7.1,18.8-7.79,2.21-.27,3.92-2.05,4.21-4.26Z"/>
    <path class="cls-3" d="M858.24,125.99c1.1-8.5,3.44-26.66,3.94-30.51.06-.48.05-.95-.02-1.42-1.14-6.91-9.48-63.56,18.21-85.33.2-.16.38-.32.55-.51,1.75-1.9,12.92-13.07,22.81-.47.34.44.74.82,1.21,1.13,4.05,2.64,25.48,19.71,18.37,81.86-.04.37-.04.76,0,1.13l4.14,35.08c.24,1.99,1.64,3.64,3.58,4.18,3.37.95,9.39,3.07,17.89,7.7,2.66,1.45,5.97.2,7.02-2.64,3.03-8.26,11.14-22.92,31.12-26.39.4-.07.81-.09,1.22-.06,9.05.64,114.92,9.08,155.71,58.5.06.08.13.15.2.22,2.11,2.21,36.21,38.38,20.6,55.1,0,0-8.05,12.65-34.51-10.35,0,0-9.18-10.33-65.35-24.1-.13-.03-.26-.06-.4-.08-1.74-.27-15.84-2.63-54.72-13.3-4.52-1.24-8.07,3.91-5.31,7.7,13.62,18.7,37.91,55.16,34.27,72.82-.25,1.2-.1,2.43.49,3.49,3.03,5.46,11.79,24.01,8.37,51.18-.1.77-.02,1.55.24,2.28,1.78,5.02,8.53,26.99-.05,50.9-.21.59-.32,1.21-.29,1.84.17,4.43-.15,24.57-17.82,46.63-.4.5-.7,1.07-.88,1.68-1.27,4.33-7.62,23.35-24.38,36.54-.44.35-.82.76-1.12,1.24l-11.59,18.34c-1.06,1.68-1.02,3.82.11,5.45,6.55,9.48,27.95,42.09,25.86,60.84-.07.61-.26,1.2-.55,1.74-1.84,3.47-8.77,14.13-16.15,17.54-.51.24-1.09.27-1.6.51-3.93,1.84-19.62,7.9-33.58-5.07-11.13-10.33-15.12-23.97-16.52-31.4-.5-2.67-3.08-4.42-5.75-3.92-1.08.2-2.4.42-3.98.64-.88.12-1.71.48-2.4,1.03-4.69,3.75-23.97,18.63-35.85,19.04-2,.07-3.81,1.24-4.54,3.1-2.08,5.31-6.56,13.51-10.65-.36-.54-1.83-2.09-3.17-3.97-3.48-6.17-1.02-20.29-4.58-32.3-16.61-.85-.85-1.96-1.39-3.17-1.46-3.08-.18-9.14-.85-10.83-3.39-2.3-3.45,2.3,32.21-19.55,36.81-18.44,3.88-39.13,9.31-46.79-10.01-2.54-6.41-2.57-13.53-.51-20.11,3.02-9.63,9.81-26.69,24.02-45.86,1.4-1.89,1.3-4.51-.28-6.25-2.76-3.05-6.95-8.41-9.8-15.55-4.55-11.37-14.72-5.88-24.95-39.09-.23-.74-.62-1.41-1.15-1.97-3.71-3.88-19.09-21.52-17.7-46.19.05-.84-.1-1.67-.46-2.43-2.42-5.14-11.52-27.35-.38-50.7.46-.96.63-2.04.43-3.09-1.26-6.65-5.21-32.87,7.19-48.21.82-1.02,1.22-2.32,1.08-3.62-.65-6.07-1.28-24.37,12.1-38.5.52-.55.93-1.19,1.16-1.91,1.49-4.61,8.14-23.15,21.35-32.55.87-.62,1.49-1.54,1.79-2.57.83-2.87,2.75-8.75,5.29-12.14,3.44-4.59-57.17,19.42-89.45,22.98-.19.02-.36.05-.55.09-3.11.74-31.85,8.08-63.91,32.25-.94.71-2.11,1.08-3.29,1-5.84-.4-22.42-3.61-11.89-27.56,0,0,13.8-37.96,62.11-60.96,0,0,60.54-27.42,114.47-29.88.39-.02.77,0,1.15.08,3.89.74,25.69,5.74,30.64,26.16.79,3.24,4.4,4.89,7.29,3.22,5.43-3.12,13.24-7.1,18.8-7.79,2.21-.27,3.92-2.05,4.21-4.26Z"/>
    <path class="cls-3" d="M243.32,788.46c1.1-8.5,3.44-26.66,3.94-30.51.06-.48.05-.95-.02-1.42-1.14-6.91-9.48-63.56,18.21-85.33.2-.16.38-.32.55-.51,1.75-1.9,12.92-13.07,22.81-.47.34.44.74.82,1.21,1.13,4.05,2.64,25.48,19.71,18.37,81.86-.04.37-.04.76,0,1.13l4.14,35.08c.24,1.99,1.64,3.64,3.58,4.18,3.37.95,9.39,3.07,17.89,7.7,2.66,1.45,5.97.2,7.02-2.64,3.03-8.26,11.14-22.92,31.12-26.39.4-.07.81-.09,1.22-.06,9.05.64,114.92,9.08,155.71,58.5.06.08.13.15.2.22,2.11,2.21,36.21,38.38,20.6,55.1,0,0-8.05,12.65-34.51-10.35,0,0-9.18-10.33-65.35-24.1-.13-.03-.26-.06-.4-.08-1.74-.27-15.84-2.63-54.72-13.3-4.52-1.24-8.07,3.91-5.31,7.7,13.62,18.7,37.91,55.16,34.27,72.82-.25,1.2-.1,2.43.49,3.49,3.03,5.46,11.79,24.01,8.37,51.18-.1.77-.02,1.55.24,2.28,1.78,5.02,8.53,26.99-.05,50.9-.21.59-.32,1.21-.29,1.84.17,4.43-.15,24.57-17.82,46.63-.4.5-.7,1.07-.88,1.68-1.27,4.33-7.62,23.35-24.38,36.54-.44.35-.82.76-1.12,1.24l-11.59,18.34c-1.06,1.68-1.02,3.82.11,5.45,6.55,9.48,27.95,42.09,25.86,60.84-.07.61-.26,1.2-.55,1.74-1.84,3.47-8.77,14.13-16.15,17.54-.51.24-1.09.27-1.6.51-3.93,1.84-19.62,7.9-33.58-5.07-11.13-10.33-15.12-23.97-16.52-31.4-.5-2.67-3.08-4.42-5.75-3.92-1.08.2-2.4.42-3.98.64-.88.12-1.71.48-2.4,1.03-4.69,3.75-23.97,18.63-35.85,19.04-2,.07-3.81,1.24-4.54,3.1-2.08,5.31-6.56,13.51-10.65-.36-.54-1.83-2.09-3.17-3.97-3.48-6.17-1.02-20.29-4.58-32.3-16.61-.85-.85-1.96-1.39-3.17-1.46-3.08-.18-9.14-.85-10.83-3.39-2.3-3.45,2.3,32.21-19.55,36.81-18.44,3.88-39.13,9.31-46.79-10.01-2.54-6.41-2.57-13.53-.51-20.11,3.02-9.63,9.81-26.69,24.02-45.86,1.4-1.89,1.3-4.51-.28-6.25-2.76-3.05-6.95-8.41-9.8-15.55-4.55-11.37-14.72-5.88-24.95-39.09-.23-.74-.62-1.41-1.15-1.97-3.71-3.88-19.09-21.52-17.7-46.19.05-.84-.1-1.67-.46-2.43-2.42-5.14-11.52-27.35-.38-50.7.46-.96.63-2.04.43-3.09-1.26-6.65-5.21-32.87,7.19-48.21.82-1.02,1.22-2.32,1.08-3.62-.65-6.07-1.28-24.37,12.1-38.5.52-.55.93-1.19,1.16-1.91,1.49-4.61,8.14-23.15,21.35-32.55.87-.62,1.49-1.54,1.79-2.57.83-2.87,2.75-8.75,5.29-12.14,3.44-4.59-57.17,19.42-89.45,22.98-.19.02-.36.05-.55.09-3.11.74-31.85,8.08-63.91,32.25-.94.71-2.11,1.08-3.29,1-5.84-.4-22.42-3.61-11.89-27.56,0,0,13.8-37.96,62.11-60.96,0,0,60.54-27.42,114.47-29.88.39-.02.77,0,1.15.08,3.89.74,25.69,5.74,30.64,26.16.79,3.24,4.4,4.89,7.29,3.22,5.43-3.12,13.24-7.1,18.8-7.79,2.21-.27,3.92-2.05,4.21-4.26Z"/>
    <path class="cls-3" d="M858.96,789.8c1.1-8.5,3.44-26.66,3.94-30.51.06-.48.05-.95-.02-1.42-1.14-6.91-9.48-63.56,18.21-85.33.2-.16.38-.32.55-.51,1.75-1.9,12.92-13.07,22.81-.47.34.44.74.82,1.21,1.13,4.05,2.64,25.48,19.71,18.37,81.86-.04.37-.04.76,0,1.13l4.14,35.08c.24,1.99,1.64,3.64,3.58,4.18,3.37.95,9.39,3.07,17.89,7.7,2.66,1.45,5.97.2,7.02-2.64,3.03-8.26,11.14-22.92,31.12-26.39.4-.07.81-.09,1.22-.06,9.05.64,114.92,9.08,155.71,58.5.06.08.13.15.2.22,2.11,2.21,36.21,38.38,20.6,55.1,0,0-8.05,12.65-34.51-10.35,0,0-9.18-10.33-65.35-24.1-.13-.03-.26-.06-.4-.08-1.74-.27-15.84-2.63-54.72-13.3-4.52-1.24-8.07,3.91-5.31,7.7,13.62,18.7,37.91,55.16,34.27,72.82-.25,1.2-.1,2.43.49,3.49,3.03,5.46,11.79,24.01,8.37,51.18-.1.77-.02,1.55.24,2.28,1.78,5.02,8.53,26.99-.05,50.9-.21.59-.32,1.21-.29,1.84.17,4.43-.15,24.57-17.82,46.63-.4.5-.7,1.07-.88,1.68-1.27,4.33-7.62,23.35-24.38,36.54-.44.35-.82.76-1.12,1.24l-11.59,18.34c-1.06,1.68-1.02,3.82.11,5.45,6.55,9.48,27.95,42.09,25.86,60.84-.07.61-.26,1.2-.55,1.74-1.84,3.47-8.77,14.13-16.15,17.54-.51.24-1.09.27-1.6.51-3.93,1.84-19.62,7.9-33.58-5.07-11.13-10.33-15.12-23.97-16.52-31.4-.5-2.67-3.08-4.42-5.75-3.92-1.08.2-2.4.42-3.98.64-.88.12-1.71.48-2.4,1.03-4.69,3.75-23.97,18.63-35.85,19.04-2,.07-3.81,1.24-4.54,3.1-2.08,5.31-6.56,13.51-10.65-.36-.54-1.83-2.09-3.17-3.97-3.48-6.17-1.02-20.29-4.58-32.3-16.61-.85-.85-1.96-1.39-3.17-1.46-3.08-.18-9.14-.85-10.83-3.39-2.3-3.45,2.3,32.21-19.55,36.81-18.44,3.88-39.13,9.31-46.79-10.01-2.54-6.41-2.57-13.53-.51-20.11,3.02-9.63,9.81-26.69,24.02-45.86,1.4-1.89,1.3-4.51-.28-6.25-2.76-3.05-6.95-8.41-9.8-15.55-4.55-11.37-14.72-5.88-24.95-39.09-.23-.74-.62-1.41-1.15-1.97-3.71-3.88-19.09-21.52-17.7-46.19.05-.84-.1-1.67-.46-2.43-2.42-5.14-11.52-27.35-.38-50.7.46-.96.63-2.04.43-3.09-1.26-6.65-5.21-32.87,7.19-48.21.82-1.02,1.22-2.32,1.08-3.62-.65-6.07-1.28-24.37,12.1-38.5.52-.55.93-1.19,1.16-1.91,1.49-4.61,8.14-23.15,21.35-32.55.87-.62,1.49-1.54,1.79-2.57.83-2.87,2.75-8.75,5.29-12.14,3.44-4.59-57.17,19.42-89.45,22.98-.19.02-.36.05-.55.09-3.11.74-31.85,8.08-63.91,32.25-.94.71-2.11,1.08-3.29,1-5.84-.4-22.42-3.61-11.89-27.56,0,0,13.8-37.96,62.11-60.96,0,0,60.54-27.42,114.47-29.88.39-.02.77,0,1.15.08,3.89.74,25.69,5.74,30.64,26.16.79,3.24,4.4,4.89,7.29,3.22,5.43-3.12,13.24-7.1,18.8-7.79,2.21-.27,3.92-2.05,4.21-4.26Z"/>
    <path class="cls-3" d="M1460.54,126.14c1.1-8.5,3.44-26.66,3.94-30.51.06-.48.05-.95-.02-1.42-1.14-6.91-9.48-63.56,18.21-85.33.2-.16.38-.32.55-.51,1.75-1.9,12.92-13.07,22.81-.47.34.44.74.82,1.21,1.13,4.05,2.64,25.48,19.71,18.37,81.86-.04.37-.04.76,0,1.13l4.14,35.08c.24,1.99,1.64,3.64,3.58,4.18,3.37.95,9.39,3.07,17.89,7.7,2.66,1.45,5.97.2,7.02-2.64,3.03-8.26,11.14-22.92,31.12-26.39.4-.07.81-.09,1.22-.06,9.05.64,114.92,9.08,155.71,58.5.06.08.13.15.2.22,2.11,2.21,36.21,38.38,20.6,55.1,0,0-8.05,12.65-34.51-10.35,0,0-9.18-10.33-65.35-24.1-.13-.03-.26-.06-.4-.08-1.74-.27-15.84-2.63-54.72-13.3-4.52-1.24-8.07,3.91-5.31,7.7,13.62,18.7,37.91,55.16,34.27,72.82-.25,1.2-.1,2.43.49,3.49,3.03,5.46,11.79,24.01,8.37,51.18-.1.77-.02,1.55.24,2.28,1.78,5.02,8.53,26.99-.05,50.9-.21.59-.32,1.21-.29,1.84.17,4.43-.15,24.57-17.82,46.63-.4.5-.7,1.07-.88,1.68-1.27,4.33-7.62,23.35-24.38,36.54-.44.35-.82.76-1.12,1.24l-11.59,18.34c-1.06,1.68-1.02,3.82.11,5.45,6.55,9.48,27.95,42.09,25.86,60.84-.07.61-.26,1.2-.55,1.74-1.84,3.47-8.77,14.13-16.15,17.54-.51.24-1.09.27-1.6.51-3.93,1.84-19.62,7.9-33.58-5.07-11.13-10.33-15.12-23.97-16.52-31.4-.5-2.67-3.08-4.42-5.75-3.92-1.08.2-2.4.42-3.98.64-.88.12-1.71.48-2.4,1.03-4.69,3.75-23.97,18.63-35.85,19.04-2,.07-3.81,1.24-4.54,3.1-2.08,5.31-6.56,13.51-10.65-.36-.54-1.83-2.09-3.17-3.97-3.48-6.17-1.02-20.29-4.58-32.3-16.61-.85-.85-1.96-1.39-3.17-1.46-3.08-.18-9.14-.85-10.83-3.39-2.3-3.45,2.3,32.21-19.55,36.81-18.44,3.88-39.13,9.31-46.79-10.01-2.54-6.41-2.57-13.53-.51-20.11,3.02-9.63,9.81-26.69,24.02-45.86,1.4-1.89,1.3-4.51-.28-6.25-2.76-3.05-6.95-8.41-9.8-15.55-4.55-11.37-14.72-5.88-24.95-39.09-.23-.74-.62-1.41-1.15-1.97-3.71-3.88-19.09-21.52-17.7-46.19.05-.84-.1-1.67-.46-2.43-2.42-5.14-11.52-27.35-.38-50.7.46-.96.63-2.04.43-3.09-1.26-6.65-5.21-32.87,7.19-48.21.82-1.02,1.22-2.32,1.08-3.62-.65-6.07-1.28-24.37,12.1-38.5.52-.55.93-1.19,1.16-1.91,1.49-4.61,8.14-23.15,21.35-32.55.87-.62,1.49-1.54,1.79-2.57.83-2.87,2.75-8.75,5.29-12.14,3.44-4.59-57.17,19.42-89.45,22.98-.19.02-.36.05-.55.09-3.11.74-31.85,8.08-63.91,32.25-.94.71-2.11,1.08-3.29,1-5.84-.4-22.42-3.61-11.89-27.56,0,0,13.8-37.96,62.11-60.96,0,0,60.54-27.42,114.47-29.88.39-.02.77,0,1.15.08,3.89.74,25.69,5.74,30.64,26.16.79,3.24,4.4,4.89,7.29,3.22,5.43-3.12,13.24-7.1,18.8-7.79,2.21-.27,3.92-2.05,4.21-4.26Z"/>
    <path class="cls-3" d="M1461.26,787.07c1.1-8.5,3.44-26.66,3.94-30.51.06-.48.05-.95-.02-1.42-1.14-6.91-9.48-63.56,18.21-85.33.2-.16.38-.32.55-.51,1.75-1.9,12.92-13.07,22.81-.47.34.44.74.82,1.21,1.13,4.05,2.64,25.48,19.71,18.37,81.86-.04.37-.04.76,0,1.13l4.14,35.08c.24,1.99,1.64,3.64,3.58,4.18,3.37.95,9.39,3.07,17.89,7.7,2.66,1.45,5.97.2,7.02-2.64,3.03-8.26,11.14-22.92,31.12-26.39.4-.07.81-.09,1.22-.06,9.05.64,114.92,9.08,155.71,58.5.06.08.13.15.2.22,2.11,2.21,36.21,38.38,20.6,55.1,0,0-8.05,12.65-34.51-10.35,0,0-9.18-10.33-65.35-24.1-.13-.03-.26-.06-.4-.08-1.74-.27-15.84-2.63-54.72-13.3-4.52-1.24-8.07,3.91-5.31,7.7,13.62,18.7,37.91,55.16,34.27,72.82-.25,1.2-.1,2.43.49,3.49,3.03,5.46,11.79,24.01,8.37,51.18-.1.77-.02,1.55.24,2.28,1.78,5.02,8.53,26.99-.05,50.9-.21.59-.32,1.21-.29,1.84.17,4.43-.15,24.57-17.82,46.63-.4.5-.7,1.07-.88,1.68-1.27,4.33-7.62,23.35-24.38,36.54-.44.35-.82.76-1.12,1.24l-11.59,18.34c-1.06,1.68-1.02,3.82.11,5.45,6.55,9.48,27.95,42.09,25.86,60.84-.07.61-.26,1.2-.55,1.74-1.84,3.47-8.77,14.13-16.15,17.54-.51.24-1.09.27-1.6.51-3.93,1.84-19.62,7.9-33.58-5.07-11.13-10.33-15.12-23.97-16.52-31.4-.5-2.67-3.08-4.42-5.75-3.92-1.08.2-2.4.42-3.98.64-.88.12-1.71.48-2.4,1.03-4.69,3.75-23.97,18.63-35.85,19.04-2,.07-3.81,1.24-4.54,3.1-2.08,5.31-6.56,13.51-10.65-.36-.54-1.83-2.09-3.17-3.97-3.48-6.17-1.02-20.29-4.58-32.3-16.61-.85-.85-1.96-1.39-3.17-1.46-3.08-.18-9.14-.85-10.83-3.39-2.3-3.45,2.3,32.21-19.55,36.81-18.44,3.88-39.13,9.31-46.79-10.01-2.54-6.41-2.57-13.53-.51-20.11,3.02-9.63,9.81-26.69,24.02-45.86,1.4-1.89,1.3-4.51-.28-6.25-2.76-3.05-6.95-8.41-9.8-15.55-4.55-11.37-14.72-5.88-24.95-39.09-.23-.74-.62-1.41-1.15-1.97-3.71-3.88-19.09-21.52-17.7-46.19.05-.84-.1-1.67-.46-2.43-2.42-5.14-11.52-27.35-.38-50.7.46-.96.63-2.04.43-3.09-1.26-6.65-5.21-32.87,7.19-48.21.82-1.02,1.22-2.32,1.08-3.62-.65-6.07-1.28-24.37,12.1-38.5.52-.55.93-1.19,1.16-1.91,1.49-4.61,8.14-23.15,21.35-32.55.87-.62,1.49-1.54,1.79-2.57.83-2.87,2.75-8.75,5.29-12.14,3.44-4.59-57.17,19.42-89.45,22.98-.19.02-.36.05-.55.09-3.11.74-31.85,8.08-63.91,32.25-.94.71-2.11,1.08-3.29,1-5.84-.4-22.42-3.61-11.89-27.56,0,0,13.8-37.96,62.11-60.96,0,0,60.54-27.42,114.47-29.88.39-.02.77,0,1.15.08,3.89.74,25.69,5.74,30.64,26.16.79,3.24,4.4,4.89,7.29,3.22,5.43-3.12,13.24-7.1,18.8-7.79,2.21-.27,3.92-2.05,4.21-4.26Z"/>
    <g>
      <path class="cls-5" d="M246.74,938.26c.07.77.09,1.53.17,2.3.04.4.08.8.16,1.2.02.13.08.26.11.39.03.09.01.2.05.29.07.22.25.38.45.46.32.12.73.06,1.04-.03.42-.13.83-.33,1.19-.59.46-.33.9-.74,1.19-1.22.19-.32.32-.66.26-1.03-.06-.31-.25-.62-.4-.89-.19-.35-.4-.68-.62-1.01-.38-.59-.83-1.16-1.19-1.76-.12-.2-.55-.15-.71-.1-.35.09-.72.33-.97.57-.4.38-.98,1.05-.64,1.63.25.42.56.82.84,1.24.38.56.76,1.12,1.07,1.73l-.1-.19c.09.18.19.37.21.57v-.24s0,.05-.01.06l.08-.28c-.04.14.2-.34.1-.19.01-.02.28-.37.13-.19.29-.37.29-.29.17-.18-.17.16.39-.29.16-.13-.23.15.35-.18.15-.08-.04.02-.09.04-.13.06-.18.09.33-.11.14-.06-.06.02-.12.03-.17.04l.29-.04c-.08,0-.16.02-.23,0l.24.03c-.07-.01-.13-.03-.19-.07l.18.12s-.06-.05-.09-.1l.1.19c-.03-.09-.01-.2-.05-.29-.02-.06-.05-.11-.06-.17-.04-.13-.07-.27-.09-.41-.07-.39-.11-.79-.14-1.19-.06-.71-.09-1.42-.15-2.12-.02-.24-.33-.34-.52-.34-.31,0-.69.19-.93.36-.54.38-1.12.98-1.06,1.69h-.02Z"/>
      <path class="cls-9" d="M363.94,1027.86c4.53.63,6.5-1.86,10.21-4.53,4.66-3.36,6.11-9.44,8.53-14.54,2.43-5.13,3.37-10.83,2.49-16.44-1.47-9.29-2.69-16.44-7.15-24.73.53.72,13.46,9.56,22.46-7.04,4.25-7.83,4.97-19.82,2.63-28.42-1.72-6.31-5.5-11.91-9.76-16.87-4.26-4.96-10.32-5.45-16.85-4.98,1.05-6.33,1.2-13.36-.87-19.22-2.07-5.87-4.65-11.01-8.82-15.63-4.61-5.11-9.78-9.99-16.19-12.51-6.4-2.52-12.74-1.24-17.97,3.23,3.13-16.23-3.84-27.48-10.03-39.1-1.55-2.9-5.44-5.38-8.1-7.31-3.49-2.54-7.64-4.88-11.95-4.64-16.31.91-31.77,15.84-30.53,32.49.71,9.53,3.56,17.78,9.47,24.23-11.34-3.34-23.76.96-30.88,19.22-4.97,12.72,3.4,27.33,11.95,33.81,11.82,8.96,21.87,9.03,42.98,4.53-12,12.93-8.19,25.76.42,36.52,8.61,10.76,19.98,20.03,35.97,14.65.94,6.43,1.89,12.86,2.84,19.3,1.26,8.56,5.05,16.07,9.52,23.52,1.38,2.31,6.97,4.1,9.64,4.46h0ZM384.86,915.09c1.62.66,4.01,1.53,5.25,2.76,2.94,2.9,4.89,5.32,6.72,9.03,2.7,5.49,3.61,12.91,3.39,19.02-.22,6.11-2.2,12.2-5.89,17.08-.65.86-1.37,1.7-2.31,2.24-1.48.86-3.29.88-5,.73-2.26-.19-4.49-.61-6.66-1.25-2.21-.66-3.29-2.07-7.01-4.44-3.72-2.37-6.85-6.14-8.73-10.13-1.78-3.8-3.54-8.65-3.98-12.82-1.08-10.19,7.27-17.59,8.44-18.91,2.73-3.09,7.15-4.16,11.27-4.08,1.54.03,3.1.2,4.52.78h0ZM286.39,869.66c-3.57-4.2-7.19-9-7.77-14.48-.39-3.72-2.38-7.89-1.64-11.55.86-4.31.1-9.69,3.29-12.73,5.49-5.23,9.54-10.6,16.45-11,4.08-.23,8.15.82,11.87,2.52,5.88,2.68,11.08,7.06,14.12,12.76,1.77,3.32,3.37,6.38,4.34,10.02,1.23,4.62,1.84,9.92,1.95,14.71.12,4.78-1.77,9.73-4.64,13.56-2.48,3.33-6.08,8.28-11.46,10.1-1.55.52-3.75.98-5.38.96-1.06-.01-1.08.5-2.05.06-2.18-.98-4.35-1.96-6.53-2.95-3.99-1.8-7.4-5.94-12.55-11.99h0ZM319.56,893.46c-.21-1.54.13-3.11.48-4.63.68-3,1.38-6.06,2.96-8.7.77-1.28,1.73-2.45,2.73-3.56,3.01-3.37,5.73-6.62,9.85-8.49,4.11-1.87,9.69-2.27,13.94-.73,2,.73,3.82,1.89,5.54,3.14,4.44,3.22,8.42,7.08,11.77,11.42,1.43,1.84,2.75,3.79,3.67,5.93,2.1,4.86,2.02,10.34,1.91,15.63-.14,6.41-4.23,12.38-9.18,16.55-2.25,1.9-9.76,4.48-17.8.58-5.94-2.89-11.36-6.74-16.81-10.48-1.49-1.02-3.03-2.09-4.03-3.59-1.36-2.04-4.74-10.85-5.05-13.08h0ZM299.43,927.24c-1.59.42-9.46.82-11.1.94-5.97.42-10.68-.91-16.47-2.4-5.79-1.49-7.13-4.31-11.01-8.86-1.4-1.65-2.25-3.96-3.3-5.84-2.39-4.27-2.45-7.33-2.95-12.21-.5-4.87,1.24-9.55,3.2-14.04,3.2-7.34,10.65-8.47,17.34-8.41,6.69.06,13.14,2.84,18.51,6.83,5.37,3.99,9.76,9.14,13.82,14.45,2.37,3.09,6.73,11.74,6.02,18.16-.71,6.42-7.82,9.72-14.07,11.39h0ZM321.78,973.51c-7.79-5.64-12.06-7.21-17.46-17.85-.88-1.74-1.62-3.59-1.72-5.54-.1-1.83-.01-3.88.52-5.63,1.4-4.67,2.44-8.06,4.62-12.42.8-1.6,1.92-3.6,3.26-4.8,1.05-.94,3.23-2.1,4.56-2.58,6.97-2.55,15.01-1.05,21.32,2.85,6.31,3.9,11.04,9.99,14.45,16.58,1.15,2.22,2.18,4.54,2.64,7,.9,4.85.53,9.98-1.49,14.48-1.94,4.3-5.69,8.24-9.59,10.88-7.59,5.15-17.28-.2-21.1-2.97ZM356.69,1018.58c-2.1-3.2-3.94-6.79-5.51-10.55-1.24-2.97-2.52-6.19-2.77-9.39-.21-2.77-1.03-6.37-1.05-9.16-.06-7.48,2.58-12.36,5.49-16.84,2.28-3.52,6-8.52,14.77-6.61,1.66.36,2.88,1.78,4,3.06,7.19,8.15,10.46,19.32,10.22,30.18-.06,2.43-1.1,4.28-1.82,6.6-.73,2.36-1.7,5-2.91,7.15-2.09,3.73-4.24,7.18-7.63,9.78-.87.67-1.95,1.07-3.02,1.26-1.41.26-2.22.53-3.52-.08-2.53-1.18-4.71-3.08-6.24-5.41Z"/>
      <path class="cls-8" d="M281.28,871.61c-3.35-1.53-7.02-1.96-10.63-1.21-3.39.7-6.56,2.39-9.29,4.48-5.36,4.1-9.95,9.9-11.57,16.54-2.15,8.75.07,18.55,4.59,26.2,2.18,3.7,5.05,6.99,8.66,9.34,3.72,2.42,7.98,3.92,12.29,4.85,8.82,1.89,18.55,1.76,27.18-1.01.94-.3,1.88-.65,2.79-1.03l-.5-.97c-6.43,6.88-10.08,17.18-6.73,26.35,1.16,3.18,3.09,6.08,5.04,8.83,2.07,2.92,4.38,5.68,6.96,8.18,4.37,4.24,9.59,7.87,15.45,9.71,5.44,1.71,11.33,1.66,16.51-.85l-.83-.13c.3,8.72,1.63,17.49,4.12,25.86,1.21,4.08,2.73,8.08,4.8,11.81,2.07,3.73,5.03,8.12,9.38,9.6,3.85,1.31,8.16.34,11.56-1.7,4.21-2.52,7.2-6.67,9.41-10.96,3.75-7.29,5.6-15.49,5.46-23.68-.17-9.22-2.76-18.31-7.74-26.09-.4-.62-2.17.83-1.71,1.54,8.44,13.17,9.95,30.47,4,44.93-3,7.3-9.08,16.49-18.3,14.58-4.47-.93-7.42-4.86-9.65-8.56-2.09-3.46-3.61-7.25-4.84-11.08-2.84-8.84-4.3-18.22-4.62-27.5-.01-.39-.65-.21-.83-.13-9.91,4.8-21.21-.63-28.76-7.31-2.46-2.18-4.71-4.61-6.74-7.19-2.21-2.8-4.36-5.82-5.93-9.03-2.23-4.59-2.68-9.76-1.45-14.69,1.12-4.48,3.51-8.68,6.65-12.04.54-.59.35-1.32-.5-.97-7.89,3.24-17.18,3.65-25.54,2.41-4.21-.63-8.4-1.74-12.24-3.6-3.7-1.79-6.84-4.35-9.35-7.61-5.24-6.79-8.06-15.93-7.41-24.5.28-3.72,1.28-7.31,3.24-10.5,1.5-2.45,3.36-4.7,5.47-6.66,2.55-2.37,5.54-4.36,8.9-5.35,3.78-1.12,7.69-.76,11.27.87.69.32,2.25-1.35,1.45-1.72h0Z"/>
      <path class="cls-8" d="M376.46,967.27c1.91,2.36,4.42,4.18,7.5,4.56,2.53.31,5.09-.37,7.35-1.5,4.93-2.47,8.51-6.68,10.62-11.72,3.07-7.34,3.72-15.83,2.69-23.68-1.02-7.8-4.22-15.51-10.51-20.5-4.73-3.75-10.9-5.88-16.96-5.66l.39.43c2.1-10.41-.54-21.33-6.29-30.14-3.46-5.3-8.05-9.95-13.3-13.5-4.01-2.71-8.63-4.8-13.55-4.66-4.24.12-8.13,1.91-11.63,4.2l1.08.17c1.77-8.89.15-18.09-3.42-26.33-3.85-8.9-9.77-17.35-18.43-22.13-1.95-1.07-4.04-1.93-6.24-2.33-2.2-.4-4.12-.26-6.19.12-4.62.83-9.02,2.84-12.92,5.4-4.01,2.63-7.62,5.97-10.36,9.92-2.6,3.73-4.1,8.06-4.77,12.55-1.42,9.46.7,19.92,6.74,27.49.75.93,1.55,1.82,2.41,2.65.59.57,2.27-1,1.71-1.54-6.75-6.54-9.75-16.3-9.37-25.55.18-4.35,1.04-8.88,3.07-12.77,2.02-3.88,5.09-7.22,8.55-9.87,3.6-2.75,7.69-4.91,12.08-6.08,1.95-.52,4-.9,6.03-.78,2.03.12,4.1.74,5.99,1.59,8.55,3.85,14.69,11.88,18.7,20.1,3.87,7.93,6.09,16.86,5.01,25.7-.11.93-.27,1.85-.45,2.77-.14.71.84.33,1.08.17,2.85-1.86,5.97-3.35,9.4-3.62,4.57-.37,8.95,1.35,12.78,3.73,9.76,6.1,17.34,16.17,20.05,27.38,1.29,5.32,1.47,10.88.39,16.27-.05.26.14.44.39.43,4.94-.18,9.98,1.29,14.16,3.9,6.21,3.88,10.05,10.37,11.74,17.38,1.8,7.48,1.67,15.71-.37,23.13-1.43,5.21-3.8,9.78-8.29,12.8-2.13,1.43-4.63,2.45-7.23,2.39-3.25-.08-5.92-1.97-7.9-4.42-.49-.61-2.23.91-1.71,1.54h0Z"/>
      <path class="cls-8" d="M311.6,903.19c-2.67-5.83-7.14-10.84-11.7-15.26-4.05-3.93-8.52-7.89-13.73-10.18-6.19-2.72-13.67-3.58-20.08-1.1-5.68,2.2-9.23,8.04-11.25,13.52-.95,2.59-1.68,5.41-1.47,8.19.31,3.96,1.19,7.97,2.58,11.69,2.18,5.84,5.91,10.97,11.15,14.39,1.93,1.26,3.91,2.27,6.15,2.85,2.58.66,5.25,1.03,7.89,1.32,2.97.32,5.96.49,8.94.48,2.49,0,5.02-.1,7.46-.59,1.43-.29,2.79-.84,4.14-1.38,1.74-.69,3.44-1.49,5.06-2.43,2.44-1.42,4.77-3.24,6.28-5.67,2.43-3.93,1.57-8.42,0-12.49-.44-1.12-.92-2.23-1.42-3.33-.38-.83-2.16.58-1.86,1.26,1.68,3.7,3.69,8.04,2.75,12.21-.46,2.02-1.62,3.51-3.12,4.79-2.37,2.02-5.56,3.45-8.55,4.56-2.13.79-4.23,1.1-6.5,1.23-2.76.16-5.54.1-8.3-.08-2.76-.17-5.52-.46-8.25-.94-1.98-.35-4.06-.74-5.89-1.6-5.11-2.41-9.31-6.48-12.05-11.4-1.7-3.05-2.84-6.39-3.61-9.79-.7-3.15-1.34-6.43-.77-9.65.5-2.81,1.56-5.55,2.92-8.05.68-1.25,1.43-2.46,2.31-3.58.75-.96,1.65-1.93,2.47-2.55,1-.76,2.12-1.25,3.4-1.67,1.5-.49,3.04-.77,4.61-.9,3.32-.26,6.68.16,9.87,1.09,2.92.85,5.73,2.14,8.24,3.88,2.11,1.45,4.09,3.09,6.01,4.78,4.65,4.13,9.08,8.75,12.43,14.01.75,1.17,1.44,2.39,2.02,3.65.38.83,2.16-.59,1.86-1.26h0Z"/>
      <path class="cls-8" d="M354.55,947.53c-1.74-3.82-3.78-7.51-6.19-10.94-2.07-2.95-4.42-5.75-7.21-8.05-5.2-4.29-12.3-6.5-19.01-6.25-3.26.12-6.68.84-9.5,2.54-2.79,1.67-4.7,4.59-6.15,7.43-1.55,3.03-2.69,6.24-3.74,9.47-.71,2.2-1.41,4.33-1.37,6.67.07,4.4,1.98,8.54,4.44,12.11,2.8,4.07,6.41,7.59,10.34,10.56,3.93,2.98,7.84,5.28,12.26,6.87,3.64,1.31,7.54,2,11.27.7,5.56-1.93,9.85-6.6,12.55-11.7,2.55-4.83,4.18-10.63,3.27-16.12-.19-1.13-.5-2.24-.97-3.29-.37-.83-2.16.58-1.86,1.26,2.04,4.55,1.26,10.03-.38,14.57-.92,2.55-2.18,5-3.81,7.17-1.58,2.1-3.36,3.87-5.59,5.21-.99.6-2.15,1.11-3.3,1.44-.95.27-1.49.38-2.45.41-1.69.07-3.37-.22-5-.66-4.16-1.11-8.08-3.16-11.65-5.54-3.98-2.67-7.67-5.85-10.75-9.53-2.75-3.29-5.15-7.07-6.1-11.3-.42-1.87-.53-3.78-.19-5.67.2-1.1.57-2.13.91-3.22.47-1.49.97-2.98,1.51-4.45,1.09-2.97,2.36-6.02,4.28-8.56.79-1.05,1.65-1.98,2.76-2.61,1.21-.69,2.67-1.16,4.06-1.49,6.38-1.49,13.49.04,19.13,3.22,2.81,1.58,5.19,3.78,7.3,6.2,2.52,2.88,4.67,6.08,6.55,9.41.99,1.76,1.89,3.55,2.73,5.38.38.83,2.16-.59,1.86-1.26h0Z"/>
      <path class="cls-8" d="M381.34,1004.2c1.7-6.03,1.93-12.44.6-18.57-.55-2.55-1.38-5.01-2.51-7.36-1.49-3.11-3.11-6.26-5.45-8.83-2.14-2.34-4.89-3.97-8-4.61-1.21-.25-2.42-.42-3.64-.21-.96.17-1.89.55-2.74,1.01-4.19,2.29-7.43,6.39-9.81,10.44-1.07,1.81-2.04,3.75-2.61,5.79-.52,1.87-.7,3.81-.76,5.75-.14,5.19.6,10.42,1.93,15.43,1.47,5.55,3.75,11.03,7.19,15.66,2.37,3.18,5.74,6.92,10.14,6.27,3.89-.57,6.9-3.75,9.08-6.79,2.48-3.44,4.33-7.38,5.72-11.37.3-.86.58-1.74.83-2.62.13-.44-.07-.72-.55-.61-.47.11-1.08.62-1.21,1.09-1.08,3.74-2.58,7.41-4.54,10.78-1,1.72-1.98,3.17-3.3,4.62-.12.14-.25.28-.38.41.17-.18-.08.08-.09.09-.08.08-.15.15-.23.23-.16.15-.31.29-.47.43-.08.07-.16.14-.24.21-.04.03-.37.31-.16.14-.74.58-1.17.85-1.93,1.19-.5.22-1.22.43-1.85.49-.75.07-1.49,0-2.21-.21-1.92-.55-3.43-1.89-4.77-3.32-3.74-4.01-6.28-9.01-8.04-14.16-1.76-5.15-2.72-10.15-3.01-15.37-.21-3.79-.07-7.68,1.44-11.17,1.69-3.91,4.37-7.71,7.54-10.41,1.22-1.04,2.72-2.07,4.38-2.31,1.19-.16,2.45.11,3.6.4,1.49.38,2.93.99,4.21,1.85,2.55,1.71,4.42,4.25,5.94,6.87,1.52,2.62,2.78,5.18,3.69,7.95,1.76,5.36,2.21,11.15,1.4,16.73-.22,1.54-.54,3.06-.96,4.55-.13.44.07.72.55.61s1.08-.62,1.21-1.09Z"/>
      <path class="cls-8" d="M400.14,953.16c1.67-5.93,1.92-12.22.67-18.25-.51-2.48-1.28-4.91-2.35-7.2-1.4-2.98-2.99-5.97-5.18-8.44-1.99-2.24-4.5-3.94-7.34-4.93-2.38-.83-4.91-1.3-7.42-.94-4.4.64-8.29,3.23-11.34,6.36-2.79,2.86-5.24,6.32-6.55,10.12-.65,1.88-.75,3.72-.72,5.71.04,2.86.39,5.72,1.13,8.5,1.27,4.75,3.67,9.17,6.96,12.82,2.84,3.15,6.3,5.74,10.09,7.66,3.78,1.92,8.56,3.53,12.84,1.83,4.28-1.69,6.56-5.79,8.06-9.74.43-1.14.8-2.31,1.14-3.48.13-.44-.07-.72-.55-.61-.47.11-1.08.62-1.21,1.09-.63,2.19-1.37,4.4-2.45,6.42-.46.85-.97,1.66-1.51,2.33-.12.15-.25.3-.37.44-.08.08-.15.17-.23.25.17-.17-.09.09-.1.1-.16.15-.32.3-.49.45-.08.07-.17.14-.25.21.19-.15-.16.11-.19.14-.65.46-1.25.77-2.04,1.01-.86.26-1.75.37-2.65.37-2.33-.01-4.61-.75-6.73-1.67-7.73-3.35-14.24-9.6-17.35-17.48-.94-2.38-1.58-4.88-1.92-7.42-.19-1.39-.3-2.8-.32-4.2-.02-1.1-.04-2.24.13-3.34.47-3.07,2.36-6.17,4.26-8.59,2.38-3.02,5.29-5.67,9.02-6.94,1.85-.63,3.85-.87,5.79-.57,2.85.44,5.72,1.54,8.03,3.28,2.31,1.75,4.12,4.14,5.58,6.66,1.46,2.51,2.61,4.92,3.45,7.56,1.68,5.28,2.11,10.96,1.31,16.44-.22,1.54-.54,3.06-.96,4.55-.13.44.07.72.55.61.48-.11,1.08-.62,1.21-1.09v-.02Z"/>
      <path class="cls-8" d="M372.63,906.81c1.78-6.34.98-13.21-1.32-19.32-.88-2.34-1.99-4.55-3.45-6.58-2.15-3-4.66-5.75-7.43-8.17-4.72-4.14-10.91-8.15-17.47-7.55-5.74.53-11.05,3.78-15.12,7.71-4.07,3.93-7.61,9.23-8.67,15-1.04,5.67.22,11.53,3.18,16.43,2.76,4.58,6.82,8.27,11.18,11.29,2.02,1.4,4.13,2.68,6.29,3.85,1.95,1.06,3.95,2.12,6.01,2.97,2.64,1.08,5.54,1.67,8.4,1.46,2.6-.19,5.1-1.01,7.35-2.32,4.46-2.59,7.82-6.85,9.88-11.54.46-1.05.85-2.13,1.17-3.24.13-.44-.07-.72-.55-.61-.47.11-1.08.62-1.21,1.09-.63,2.18-1.52,4.25-2.7,6.17-1.17,1.92-2.59,3.65-4.32,5.11-.45.38-.74.61-1.3.99-.46.32-.9.58-1.31.81-1.03.56-2.09.99-3.22,1.3-2.44.66-5.01.65-7.47.1-2.46-.55-4.67-1.63-6.89-2.75-1.97-.99-3.9-2.06-5.78-3.21-4.27-2.63-8.31-5.79-11.48-9.69-3.37-4.15-5.58-9.19-5.71-14.58-.07-2.73.34-5.42,1.31-7.97.97-2.55,2.34-4.84,4-6.94,3.26-4.11,7.68-7.61,12.82-9.09,2.35-.67,4.84-.88,7.24-.35,3.28.72,6.34,2.35,9.07,4.27,2.95,2.07,5.61,4.54,8,7.24,1.85,2.1,3.63,4.34,4.9,6.83,2.62,5.14,4.02,11.22,3.62,16.99-.11,1.61-.36,3.22-.8,4.77-.13.44.07.72.55.61.48-.11,1.08-.62,1.21-1.09Z"/>
      <path class="cls-8" d="M329.48,862.65c1.47-6.72.2-13.72-2.23-20.06-2.6-6.77-6.4-13.36-12.03-18.05-2.68-2.23-5.77-4.02-9.14-4.96-2.89-.81-5.92-.93-8.87-.43-5.57.95-10.56,4.13-14.39,8.2-3.62,3.85-6.39,8.8-7.22,14.06-.43,2.71-.14,5.39.37,8.07.63,3.26,1.64,6.43,2.94,9.47,2.45,5.74,5.9,11.07,10.08,15.71,3.31,3.67,7.19,7.16,11.69,9.29,2.34,1.11,4.93,1.63,7.52,1.41,2.83-.24,5.51-1.27,7.92-2.73,5.55-3.36,9.59-9.03,11.87-15.02.61-1.61,1.1-3.27,1.48-4.95.12-.52-.55-.44-.83-.31-.48.23-.91.68-1.03,1.21-1.35,6-4.35,11.84-9.06,15.89-3.84,3.3-9.06,5.15-14.1,3.69-4.4-1.27-8.26-4.49-11.47-7.64-4.17-4.09-7.7-8.86-10.42-14.03-1.47-2.79-2.69-5.71-3.61-8.73-.87-2.84-1.6-5.88-1.71-8.87-.18-4.77,1.74-9.5,4.48-13.33,2.74-3.83,6.87-7.29,11.65-8.89,2.49-.83,5.11-1.18,7.73-.98,3.19.25,6.28,1.38,9.02,3.02,6.32,3.76,10.73,10.06,13.77,16.63,2.64,5.7,4.54,11.99,4.33,18.32-.05,1.66-.26,3.3-.61,4.92-.11.52.55.44.83.31.48-.23.91-.68,1.03-1.21h0Z"/>
    </g>
    <g>
      <path class="cls-5" d="M1567.55,1097.65c.75-.17,1.51-.29,2.26-.46.4-.09.78-.18,1.17-.31.13-.04.25-.11.37-.16.09-.04.19-.04.28-.09.21-.09.34-.29.4-.51.08-.33-.03-.73-.17-1.03-.18-.4-.44-.78-.74-1.11-.39-.42-.85-.79-1.37-1.02-.34-.15-.7-.24-1.06-.12-.3.1-.58.32-.83.51-.32.23-.62.49-.92.74-.54.46-1.04.97-1.59,1.41-.19.15-.07.56,0,.72.13.33.42.67.69.89.43.35,1.17.83,1.7.42.39-.31.75-.66,1.12-.99.51-.45,1.01-.9,1.58-1.28l-.18.12c.16-.11.34-.24.53-.28l-.24.04s.04,0,.06,0l-.29-.04c.14.02-.36-.15-.2-.07-.02,0-.4-.23-.2-.1-.4-.24-.33-.25-.2-.14.18.15-.34-.35-.15-.14.18.21-.23-.32-.1-.14.03.04.05.08.07.12.11.17-.15-.31-.07-.13.02.05.04.11.06.16l-.08-.28c.02.08.04.16.03.23v-.24c0,.08-.02.14-.05.2l.09-.19s-.05.07-.09.1l.18-.12c-.09.04-.19.04-.28.09-.05.02-.11.06-.16.08-.12.06-.26.1-.39.14-.38.12-.77.21-1.16.29-.7.15-1.4.27-2.09.42-.24.05-.3.37-.27.56.04.31.27.66.47.88.45.48,1.12.99,1.82.83v.02Z"/>
      <path class="cls-9" d="M1641.33,969.89c.04-4.58-2.68-6.21-5.81-9.54-3.93-4.19-10.14-4.85-15.52-6.59-5.4-1.75-11.18-1.95-16.63-.35-9.03,2.66-15.96,4.78-23.61,10.28.65-.62,7.75-14.58-9.87-21.36-8.31-3.2-20.3-2.38-28.52,1.05-6.04,2.52-11.1,6.99-15.47,11.85-4.38,4.86-4.08,10.94-2.77,17.35-6.41-.22-13.4.53-18.95,3.34-5.55,2.81-10.32,6.03-14.37,10.76-4.48,5.23-8.64,10.99-10.32,17.66-1.68,6.67.41,12.8,5.52,17.41-16.5-1.02-26.76,7.34-37.49,14.98-2.68,1.91-4.63,6.08-6.21,8.97-2.07,3.78-3.86,8.21-3.07,12.44,3,16.06,19.8,29.47,36.15,26.1,9.36-1.93,17.17-5.82,22.81-12.51-1.85,11.68,4.01,23.44,23.03,28.15,13.26,3.29,26.66-6.89,31.99-16.2,7.37-12.88,6.14-22.85-1.04-43.21,14.37,10.24,26.6,4.81,36.17-5.12,9.56-9.93,17.29-22.39,9.9-37.55,6.26-1.76,12.51-3.53,18.77-5.3,8.33-2.35,15.29-7.07,22.1-12.46,2.11-1.67,3.17-7.44,3.19-10.13h0ZM1526.8,963.65c.44-1.69,1-4.17,2.06-5.56,2.5-3.29,4.65-5.53,8.09-7.82,5.09-3.38,12.34-5.24,18.43-5.81,6.09-.57,12.38.62,17.69,3.65.94.53,1.86,1.14,2.52,2,1.04,1.36,1.29,3.15,1.37,4.86.1,2.26-.03,4.53-.39,6.77-.37,2.27-1.63,3.53-3.5,7.53-1.87,3.99-5.2,7.59-8.92,9.96-3.54,2.25-8.12,4.63-12.2,5.6-9.96,2.38-18.38-4.95-19.84-5.94-3.42-2.31-5.05-6.55-5.5-10.66-.17-1.53-.2-3.1.19-4.58h0ZM1494.42,1067.15c-3.7,4.09-8,8.29-13.36,9.57-3.63.87-7.52,3.37-11.25,3.12-4.38-.3-9.62,1.14-13.04-1.62-5.9-4.77-11.74-8.1-13.02-14.89-.76-4.02-.23-8.19.97-12.1,1.9-6.17,5.58-11.9,10.84-15.64,3.07-2.19,5.89-4.17,9.38-5.59,4.43-1.81,9.6-3.1,14.33-3.83,4.73-.73,9.88.51,14.05,2.85,3.62,2.03,9,4.96,11.5,10.07.72,1.47,1.46,3.6,1.65,5.21.12,1.05.64,1.01.33,2.02-.69,2.28-1.39,4.57-2.08,6.85-1.27,4.19-4.94,8.1-10.27,13.98h0ZM1513.76,1031.2c-1.5.41-3.1.27-4.65.12-3.06-.29-6.19-.59-9.01-1.82-1.37-.59-2.65-1.4-3.88-2.25-3.73-2.56-7.3-4.84-9.68-8.67-2.38-3.84-3.5-9.32-2.52-13.73.46-2.08,1.39-4.03,2.4-5.9,2.63-4.81,5.94-9.26,9.81-13.15,1.64-1.65,3.4-3.22,5.41-4.41,4.55-2.71,9.99-3.33,15.25-3.9,6.37-.69,12.82,2.6,17.59,6.97,2.17,1.98,5.7,9.11,2.86,17.57-2.1,6.26-5.22,12.13-8.23,18.02-.82,1.61-1.68,3.27-3.04,4.46-1.85,1.62-10.15,6.1-12.32,6.69h0ZM1549.85,1046.81c.62,1.52,2.03,9.28,2.36,10.88,1.18,5.86.48,10.7-.26,16.64-.73,5.93-3.36,7.62-7.37,12.06-1.45,1.6-3.63,2.74-5.37,4.03-3.93,2.92-6.96,3.37-11.73,4.49-4.77,1.12-9.63,0-14.33-1.36-7.69-2.23-9.77-9.47-10.57-16.11-.8-6.64,1.13-13.4,4.39-19.24,3.26-5.84,7.81-10.86,12.55-15.57,2.76-2.74,10.78-8.19,17.24-8.31,6.46-.12,10.65,6.51,13.1,12.49h0ZM1592.86,1018.69c-4.59,8.45-5.6,12.89-15.46,19.61-1.61,1.1-3.36,2.07-5.27,2.42-1.8.33-3.85.51-5.65.21-4.81-.78-8.3-1.39-12.91-2.98-1.69-.58-3.82-1.44-5.18-2.62-1.07-.92-2.49-2.94-3.14-4.19-3.42-6.58-2.98-14.75.08-21.51,3.06-6.76,8.49-12.23,14.58-16.47,2.05-1.43,4.22-2.75,6.6-3.52,4.7-1.52,9.83-1.81,14.55-.38,4.51,1.37,8.9,4.59,12.03,8.11,6.09,6.87,2.02,17.16-.23,21.3ZM1633.05,978.27c-2.91,2.49-6.23,4.78-9.75,6.82-2.78,1.61-5.81,3.3-8.96,3.95-2.72.57-6.19,1.84-8.95,2.22-7.4,1.03-12.59-.97-17.41-3.27-3.78-1.81-9.22-4.85-8.45-13.8.14-1.69,1.4-3.08,2.52-4.36,7.16-8.18,17.81-12.86,28.62-14.02,2.41-.26,4.39.54,6.78.95,2.44.42,5.17,1.04,7.47,1.97,3.97,1.6,7.66,3.28,10.68,6.31.77.78,1.31,1.8,1.64,2.84.44,1.37.81,2.13.38,3.5-.85,2.66-2.45,5.07-4.56,6.89Z"/>
      <path class="cls-8" d="M1497.01,1071.96c-1.09,3.52-1.04,7.21.17,10.69,1.13,3.27,3.21,6.2,5.64,8.64,4.76,4.79,11.1,8.59,17.89,9.35,8.96,1,18.38-2.45,25.39-7.92,3.39-2.64,6.28-5.9,8.15-9.79,1.92-4,2.87-8.42,3.23-12.82.74-8.99-.64-18.62-4.5-26.82-.42-.9-.88-1.78-1.38-2.64l-.89.62c7.65,5.49,18.34,7.78,26.99,3.29,3.01-1.56,5.64-3.84,8.11-6.13,2.63-2.43,5.07-5.08,7.21-7.95,3.64-4.88,6.57-10.53,7.64-16.57.99-5.62.19-11.44-2.97-16.26l-.02.84c8.6-1.42,17.14-3.87,25.11-7.41,3.89-1.72,7.66-3.75,11.09-6.28,3.43-2.53,7.4-6.03,8.31-10.54.81-3.98-.72-8.14-3.17-11.25-3.04-3.85-7.54-6.28-12.08-7.92-7.71-2.79-16.08-3.56-24.19-2.36-9.12,1.35-17.81,5.09-24.88,11.03-.56.47,1.1,2.04,1.75,1.5,11.98-10.07,28.93-13.78,44.04-9.75,7.62,2.04,17.52,6.89,16.82,16.27-.35,4.56-3.87,7.98-7.25,10.67-3.16,2.51-6.72,4.51-10.37,6.23-8.4,3.96-17.52,6.61-26.68,8.12-.39.06-.12.68-.02.84,6.03,9.21,2.11,21.12-3.55,29.46-1.84,2.72-3.96,5.26-6.26,7.6-2.49,2.55-5.21,5.07-8.2,7.04-4.26,2.81-9.33,3.91-14.38,3.33-4.58-.53-9.06-2.36-12.8-5.05-.65-.46-1.35-.18-.89.62,4.22,7.41,5.83,16.57,5.67,25.02-.08,4.26-.65,8.55-2,12.6-1.3,3.9-3.44,7.34-6.34,10.25-6.06,6.07-14.76,10.04-23.34,10.5-3.72.2-7.41-.33-10.83-1.86-2.63-1.17-5.1-2.73-7.31-4.57-2.68-2.23-5.03-4.93-6.45-8.14-1.59-3.61-1.74-7.53-.58-11.29.22-.73-1.63-2.06-1.89-1.21h-.01Z"/>
      <path class="cls-8" d="M1579.63,965.27c2.09-2.2,3.58-4.93,3.56-8.02-.02-2.55-1.03-5-2.43-7.1-3.08-4.57-7.72-7.58-12.99-9.02-7.68-2.1-16.18-1.65-23.83.38-7.6,2.02-14.84,6.18-18.98,13.06-3.11,5.18-4.43,11.57-3.43,17.54l.38-.44c-10.59-.75-21.08,3.28-29.08,10.12-4.81,4.12-8.83,9.27-11.67,14.92-2.17,4.32-3.65,9.17-2.87,14.04.67,4.19,2.94,7.82,5.66,10.99l.03-1.09c-9.04-.62-17.96,2.18-25.67,6.78-8.33,4.96-15.95,11.93-19.58,21.12-.82,2.07-1.39,4.26-1.5,6.49-.11,2.23.27,4.12.91,6.12,1.42,4.47,3.97,8.58,7.02,12.12,3.13,3.64,6.9,6.78,11.17,9,4.04,2.1,8.52,3.03,13.06,3.12,9.57.19,19.66-3.26,26.39-10.22.83-.86,1.6-1.77,2.31-2.73.49-.66-1.28-2.13-1.75-1.5-5.62,7.54-14.9,11.77-24.13,12.58-4.34.38-8.94.11-13.06-1.4-4.11-1.5-7.81-4.12-10.88-7.21-3.19-3.21-5.86-7-7.58-11.2-.77-1.87-1.4-3.85-1.55-5.88-.14-2.03.21-4.16.81-6.14,2.71-8.97,9.89-16.1,17.53-21.13,7.37-4.86,15.93-8.21,24.84-8.27.94,0,1.87.03,2.8.09.72.05.22-.87.03-1.09-2.21-2.58-4.09-5.49-4.8-8.86-.95-4.49.19-9.05,2.06-13.15,4.79-10.46,13.8-19.27,24.58-23.41,5.11-1.96,10.6-2.86,16.08-2.48.26.02.42-.2.38-.44-.81-4.88,0-10.07,2.04-14.55,3.05-6.66,8.99-11.3,15.72-13.87,7.19-2.74,15.36-3.68,22.98-2.61,5.36.75,10.19,2.51,13.76,6.57,1.69,1.93,3.02,4.27,3.3,6.86.34,3.23-1.2,6.12-3.37,8.4-.54.56,1.18,2.09,1.75,1.5h0Z"/>
      <path class="cls-8" d="M1524.44,1037.84c-5.44,3.4-9.83,8.47-13.63,13.57-3.37,4.52-6.73,9.46-8.33,14.93-1.9,6.49-1.79,14.02,1.5,20.05,2.91,5.35,9.16,8.12,14.86,9.41,2.69.61,5.59.97,8.31.4,3.89-.82,7.75-2.21,11.26-4.06,5.51-2.91,10.12-7.27,12.84-12.91,1-2.08,1.75-4.17,2.03-6.46.33-2.64.35-5.34.29-8-.07-2.99-.29-5.97-.68-8.93-.33-2.47-.75-4.96-1.55-7.32-.47-1.38-1.19-2.66-1.9-3.92-.91-1.64-1.92-3.22-3.06-4.71-1.72-2.24-3.83-4.31-6.43-5.49-4.21-1.91-8.55-.48-12.38,1.61-1.06.58-2.09,1.2-3.12,1.84-.77.48.85,2.07,1.49,1.68,3.46-2.14,7.5-4.7,11.75-4.3,2.06.19,3.69,1.16,5.15,2.48,2.31,2.09,4.14,5.07,5.62,7.89,1.06,2.01,1.64,4.06,2.06,6.29.51,2.72.81,5.48.99,8.24.18,2.76.26,5.54.13,8.3-.09,2.01-.21,4.12-.83,6.05-1.73,5.37-5.23,10.06-9.75,13.41-2.8,2.08-5.97,3.64-9.24,4.84-3.03,1.1-6.21,2.16-9.47,2.01-2.85-.13-5.7-.83-8.36-1.86-1.32-.51-2.63-1.1-3.85-1.83-1.05-.63-2.13-1.39-2.85-2.12-.88-.9-1.51-1.94-2.09-3.16-.67-1.42-1.16-2.92-1.48-4.46-.69-3.26-.71-6.64-.19-9.93.47-3.01,1.39-5.95,2.78-8.67,1.17-2.28,2.53-4.45,3.97-6.57,3.49-5.15,7.51-10.13,12.3-14.13,1.07-.89,2.18-1.73,3.36-2.47.77-.48-.86-2.07-1.49-1.68h0Z"/>
      <path class="cls-8" d="M1562.87,989.54c-3.56,2.21-6.96,4.71-10.05,7.55-2.65,2.43-5.14,5.13-7.05,8.18-3.58,5.71-4.86,13.03-3.75,19.66.54,3.21,1.7,6.51,3.74,9.09,2.02,2.55,5.16,4.07,8.16,5.14,3.2,1.14,6.53,1.87,9.87,2.49,2.27.42,4.48.84,6.79.5,4.36-.63,8.21-3.07,11.44-5.96,3.68-3.31,6.7-7.34,9.14-11.62,2.45-4.28,4.23-8.46,5.23-13.04.83-3.78,1.02-7.73-.76-11.27-2.63-5.26-7.81-8.92-13.22-10.94-5.12-1.91-11.08-2.78-16.4-1.16-1.1.33-2.16.79-3.14,1.39-.77.47.85,2.07,1.49,1.68,4.25-2.61,9.78-2.54,14.5-1.5,2.64.58,5.24,1.52,7.6,2.86,2.29,1.29,4.27,2.83,5.88,4.87.72.91,1.38,1.99,1.86,3.09.39.91.57,1.43.73,2.38.28,1.67.21,3.37,0,5.04-.57,4.27-2.09,8.42-4,12.26-2.13,4.29-4.82,8.36-8.07,11.89-2.9,3.15-6.35,6.02-10.42,7.51-1.8.66-3.68,1.01-5.6.92-1.12-.05-2.18-.29-3.31-.49-1.54-.28-3.08-.58-4.61-.93-3.08-.7-6.27-1.56-9.04-3.15-1.14-.65-2.17-1.39-2.94-2.4-.84-1.11-1.5-2.5-1.99-3.83-2.3-6.14-1.7-13.38.73-19.38,1.21-2.99,3.08-5.63,5.21-8.04,2.53-2.87,5.43-5.41,8.49-7.7,1.61-1.21,3.28-2.34,4.99-3.4.77-.48-.86-2.07-1.49-1.68h0Z"/>
      <path class="cls-8" d="M1615.62,955.68c-6.2-.91-12.59-.31-18.49,1.79-2.45.88-4.79,2.02-6.97,3.43-2.9,1.88-5.81,3.89-8.06,6.54-2.05,2.42-3.31,5.36-3.54,8.52-.09,1.23-.11,2.45.26,3.64.29.93.78,1.8,1.35,2.58,2.81,3.86,7.29,6.55,11.62,8.39,1.94.82,3.98,1.54,6.07,1.84,1.92.27,3.87.21,5.8.01,5.16-.53,10.26-1.94,15.05-3.9,5.32-2.18,10.46-5.13,14.61-9.15,2.85-2.76,6.12-6.59,4.92-10.86-1.07-3.79-4.61-6.35-7.9-8.13-3.73-2.02-7.88-3.34-12.01-4.21-.9-.19-1.8-.35-2.71-.49-.45-.07-.7.16-.53.62.17.45.75.99,1.24,1.06,3.85.58,7.68,1.6,11.28,3.12,1.83.77,3.4,1.56,5.01,2.68.15.1.31.21.45.32-.2-.15.09.07.1.08.09.07.17.13.26.2.17.14.33.27.49.41.08.07.16.14.24.21.04.03.35.33.16.14.67.66,1,1.05,1.43,1.76.29.47.59,1.15.72,1.77.17.73.19,1.48.08,2.22-.3,1.98-1.43,3.64-2.68,5.16-3.49,4.22-8.12,7.39-13.01,9.79-4.88,2.41-9.72,4.01-14.85,4.97-3.73.69-7.61,1.06-11.26.01-4.09-1.18-8.2-3.34-11.3-6.14-1.19-1.07-2.41-2.43-2.85-4.05-.31-1.16-.21-2.44-.06-3.62.19-1.52.61-3.03,1.29-4.41,1.37-2.75,3.64-4.93,6.05-6.77,2.41-1.85,4.78-3.42,7.41-4.68,5.09-2.44,10.77-3.63,16.41-3.55,1.55.02,3.11.14,4.64.37.45.07.7-.16.53-.62s-.75-.99-1.24-1.06Z"/>
      <path class="cls-8" d="M1562.6,943.6c-6.1-.9-12.36-.33-18.19,1.68-2.39.83-4.71,1.9-6.84,3.26-2.78,1.77-5.53,3.73-7.71,6.23-1.97,2.26-3.32,4.97-3.94,7.91-.52,2.46-.66,5.03.03,7.48,1.2,4.28,4.27,7.8,7.77,10.43,3.19,2.4,6.94,4.38,10.88,5.19,1.95.4,3.79.26,5.75-.02,2.83-.41,5.63-1.12,8.28-2.21,4.55-1.87,8.62-4.82,11.81-8.55,2.76-3.22,4.88-6.99,6.3-10.99,1.41-4,2.4-8.94.17-12.97-2.23-4.03-6.58-5.76-10.7-6.74-1.19-.28-2.39-.5-3.6-.69-.45-.07-.7.16-.53.62.17.45.75.99,1.24,1.06,2.26.34,4.54.79,6.68,1.6.9.35,1.77.75,2.5,1.2.16.1.33.21.48.31.09.06.19.13.28.2-.19-.14.1.08.11.09.17.14.34.28.51.43.08.07.16.15.24.22-.17-.17.13.14.16.17.54.59.93,1.14,1.27,1.89.37.82.59,1.69.7,2.59.29,2.31-.15,4.66-.79,6.88-2.32,8.09-7.69,15.36-15.1,19.46-2.24,1.24-4.64,2.19-7.11,2.86-1.36.37-2.74.65-4.12.85-1.09.16-2.22.33-3.33.3-3.11-.07-6.42-1.55-9.06-3.12-3.3-1.97-6.31-4.52-8.04-8.05-.87-1.76-1.36-3.7-1.32-5.67.07-2.89.79-5.87,2.22-8.39,1.43-2.52,3.58-4.61,5.88-6.39,2.31-1.77,4.54-3.22,7.06-4.39,5.02-2.35,10.6-3.5,16.14-3.42,1.55.02,3.11.14,4.64.37.45.07.7-.16.53-.62-.17-.46-.75-.99-1.24-1.06h-.02Z"/>
      <path class="cls-8" d="M1520.16,976.85c-6.52-.95-13.22.73-18.99,3.79-2.21,1.17-4.26,2.56-6.08,4.27-2.69,2.51-5.1,5.36-7.15,8.42-3.5,5.21-6.68,11.87-5.24,18.29,1.26,5.62,5.17,10.48,9.59,14.01,4.42,3.53,10.13,6.36,15.99,6.67,5.76.31,11.4-1.7,15.89-5.27,4.19-3.33,7.32-7.83,9.76-12.54,1.13-2.18,2.12-4.44,3.01-6.74.8-2.07,1.6-4.19,2.17-6.34.73-2.76.94-5.71.37-8.52-.53-2.55-1.66-4.93-3.25-7-3.14-4.09-7.8-6.87-12.71-8.31-1.1-.32-2.23-.57-3.36-.75-.45-.07-.7.16-.53.62.17.45.75.99,1.24,1.06,2.24.34,4.41.96,6.46,1.88,2.06.92,3.95,2.1,5.63,3.63.43.4.7.66,1.15,1.16.37.42.69.81.97,1.19.69.95,1.25,1.94,1.7,3.02.97,2.33,1.29,4.88,1.06,7.39-.23,2.51-1.01,4.84-1.84,7.18-.73,2.08-1.54,4.13-2.44,6.14-2.06,4.57-4.67,8.98-8.13,12.63-3.68,3.88-8.39,6.72-13.73,7.54-2.69.42-5.42.36-8.07-.27-2.65-.63-5.1-1.69-7.39-3.08-4.49-2.71-8.53-6.63-10.66-11.54-.97-2.24-1.49-4.69-1.28-7.13.29-3.35,1.51-6.59,3.06-9.55,1.68-3.19,3.78-6.15,6.15-8.86,1.84-2.1,3.83-4.16,6.15-5.74,4.76-3.26,10.61-5.43,16.38-5.78,1.61-.1,3.24-.06,4.84.18.45.07.7-.16.53-.62-.17-.46-.75-.99-1.24-1.06Z"/>
      <path class="cls-8" d="M1481.93,1025.32c-6.86-.59-13.63,1.56-19.6,4.79-6.38,3.45-12.43,8.06-16.35,14.25-1.86,2.94-3.25,6.24-3.74,9.7-.43,2.97-.17,5.99.71,8.85,1.65,5.41,5.46,9.94,9.98,13.22,4.29,3.1,9.55,5.21,14.88,5.35,2.74.07,5.36-.55,7.95-1.41,3.15-1.04,6.16-2.45,9.02-4.14,5.38-3.17,10.22-7.27,14.28-12.02,3.21-3.75,6.17-8.05,7.71-12.79.8-2.47.98-5.1.43-7.64-.6-2.78-1.97-5.3-3.73-7.51-4.05-5.07-10.19-8.35-16.43-9.84-1.68-.4-3.38-.67-5.1-.83-.53-.05-.37.61-.2.87.29.45.79.82,1.33.87,6.12.57,12.3,2.79,16.92,6.94,3.76,3.38,6.27,8.32,5.48,13.51-.7,4.53-3.39,8.77-6.1,12.36-3.52,4.66-7.8,8.77-12.57,12.14-2.57,1.81-5.32,3.4-8.19,4.7-2.71,1.23-5.63,2.34-8.57,2.84-4.71.8-9.65-.5-13.8-2.73-4.15-2.22-8.11-5.87-10.32-10.41-1.15-2.36-1.83-4.92-1.97-7.54-.16-3.2.56-6.41,1.83-9.34,2.92-6.76,8.6-11.93,14.72-15.79,5.31-3.35,11.3-6.04,17.61-6.65,1.65-.16,3.31-.17,4.96-.02.53.05.37-.61.2-.87-.29-.45-.79-.82-1.33-.87h0Z"/>
    </g>
    <g>
      <path class="cls-5" d="M968.72,470.03c.75-.17,1.51-.29,2.26-.46.4-.09.78-.18,1.17-.31.13-.04.25-.11.37-.16.09-.04.19-.04.28-.09.21-.09.34-.29.4-.51.08-.33-.03-.73-.17-1.03-.18-.4-.44-.78-.74-1.11-.39-.42-.85-.79-1.37-1.02-.34-.15-.7-.24-1.06-.12-.3.1-.58.32-.83.51-.32.23-.62.49-.92.74-.54.46-1.04.97-1.59,1.41-.19.15-.07.56,0,.72.13.33.42.67.69.89.43.35,1.17.83,1.7.42.39-.31.75-.66,1.12-.99.51-.45,1.01-.9,1.58-1.28l-.18.12c.16-.11.34-.24.53-.28l-.24.04s.04,0,.06,0l-.29-.04c.14.02-.36-.15-.2-.07-.02,0-.4-.23-.2-.1-.4-.24-.33-.25-.2-.14.18.15-.34-.35-.15-.14.18.21-.23-.32-.1-.14.03.04.05.08.07.12.11.17-.15-.31-.07-.13.02.05.04.11.06.16l-.08-.28c.02.08.04.16.03.23v-.24c0,.08-.02.14-.05.2l.09-.19s-.05.07-.09.1l.18-.12c-.09.04-.19.04-.28.09-.05.02-.11.06-.16.08-.12.06-.26.1-.39.14-.38.12-.77.21-1.16.29-.7.15-1.4.27-2.09.42-.24.05-.3.37-.27.56.04.31.27.66.47.88.45.48,1.12.99,1.82.83v.02Z"/>
      <path class="cls-9" d="M1042.5,342.27c.04-4.58-2.68-6.21-5.81-9.54-3.93-4.19-10.14-4.85-15.52-6.59-5.4-1.75-11.18-1.95-16.63-.35-9.03,2.66-15.96,4.78-23.61,10.28.65-.62,7.75-14.58-9.87-21.36-8.31-3.2-20.3-2.38-28.52,1.05-6.04,2.52-11.1,6.99-15.47,11.85-4.38,4.86-4.08,10.94-2.77,17.35-6.41-.22-13.4.53-18.95,3.34-5.55,2.81-10.32,6.03-14.37,10.76-4.48,5.23-8.64,10.99-10.32,17.66-1.68,6.67.41,12.8,5.52,17.41-16.5-1.02-26.76,7.34-37.49,14.98-2.68,1.91-4.63,6.08-6.21,8.97-2.07,3.78-3.86,8.21-3.07,12.44,3,16.06,19.8,29.47,36.15,26.1,9.36-1.93,17.17-5.82,22.81-12.51-1.85,11.68,4.01,23.44,23.03,28.15,13.26,3.29,26.66-6.89,31.99-16.2,7.37-12.88,6.14-22.85-1.04-43.21,14.37,10.24,26.6,4.81,36.17-5.12,9.56-9.93,17.29-22.39,9.9-37.55,6.26-1.76,12.51-3.53,18.77-5.3,8.33-2.35,15.29-7.07,22.1-12.46,2.11-1.67,3.17-7.44,3.19-10.13h0ZM927.97,336.03c.44-1.69,1-4.17,2.06-5.56,2.5-3.29,4.65-5.53,8.09-7.82,5.09-3.38,12.34-5.24,18.43-5.81,6.09-.57,12.38.62,17.69,3.65.94.53,1.86,1.14,2.52,2,1.04,1.36,1.29,3.15,1.37,4.86.1,2.26-.03,4.53-.39,6.77-.37,2.27-1.63,3.53-3.5,7.53-1.87,3.99-5.2,7.59-8.92,9.96-3.54,2.25-8.12,4.63-12.2,5.6-9.96,2.38-18.38-4.95-19.84-5.94-3.42-2.31-5.05-6.55-5.5-10.66-.17-1.53-.2-3.1.19-4.58h0ZM895.59,439.54c-3.7,4.09-8,8.29-13.36,9.57-3.63.87-7.52,3.37-11.25,3.12-4.38-.3-9.62,1.14-13.04-1.62-5.9-4.77-11.74-8.1-13.02-14.89-.76-4.02-.23-8.19.97-12.1,1.9-6.17,5.58-11.9,10.84-15.64,3.07-2.19,5.89-4.17,9.38-5.59,4.43-1.81,9.6-3.1,14.33-3.83,4.73-.73,9.88.51,14.05,2.85,3.62,2.03,9,4.96,11.5,10.07.72,1.47,1.46,3.6,1.65,5.21.12,1.05.64,1.01.33,2.02-.69,2.28-1.39,4.57-2.08,6.85-1.27,4.19-4.94,8.1-10.27,13.98h0ZM914.93,403.58c-1.5.41-3.1.27-4.65.12-3.06-.29-6.19-.59-9.01-1.82-1.37-.59-2.65-1.4-3.88-2.25-3.73-2.56-7.3-4.84-9.68-8.67-2.38-3.84-3.5-9.32-2.52-13.73.46-2.08,1.39-4.03,2.4-5.9,2.63-4.81,5.94-9.26,9.81-13.15,1.64-1.65,3.4-3.22,5.41-4.41,4.55-2.71,9.99-3.33,15.25-3.9,6.37-.69,12.82,2.6,17.59,6.97,2.17,1.98,5.7,9.11,2.86,17.57-2.1,6.26-5.22,12.13-8.23,18.02-.82,1.61-1.68,3.27-3.04,4.46-1.85,1.62-10.15,6.1-12.32,6.69h0ZM951.02,419.19c.62,1.52,2.03,9.28,2.36,10.88,1.18,5.86.48,10.7-.26,16.64-.73,5.93-3.36,7.62-7.37,12.06-1.45,1.6-3.63,2.74-5.37,4.03-3.93,2.92-6.96,3.37-11.73,4.49-4.77,1.12-9.63,0-14.33-1.36-7.69-2.23-9.77-9.47-10.57-16.11-.8-6.64,1.13-13.4,4.39-19.24,3.26-5.84,7.81-10.86,12.55-15.57,2.76-2.74,10.78-8.19,17.24-8.31,6.46-.12,10.65,6.51,13.1,12.49h0ZM994.03,391.08c-4.59,8.45-5.6,12.89-15.46,19.61-1.61,1.1-3.36,2.07-5.27,2.42-1.8.33-3.85.51-5.65.21-4.81-.78-8.3-1.39-12.91-2.98-1.69-.58-3.82-1.44-5.18-2.62-1.07-.92-2.49-2.94-3.14-4.19-3.42-6.58-2.98-14.75.08-21.51,3.06-6.76,8.49-12.23,14.58-16.47,2.05-1.43,4.22-2.75,6.6-3.52,4.7-1.52,9.83-1.81,14.55-.38,4.51,1.37,8.9,4.59,12.03,8.11,6.09,6.87,2.02,17.16-.23,21.3ZM1034.23,350.66c-2.91,2.49-6.23,4.78-9.75,6.82-2.78,1.61-5.81,3.3-8.96,3.95-2.72.57-6.19,1.84-8.95,2.22-7.4,1.03-12.59-.97-17.41-3.27-3.78-1.81-9.22-4.85-8.45-13.8.14-1.69,1.4-3.08,2.52-4.36,7.16-8.18,17.81-12.86,28.62-14.02,2.41-.26,4.39.54,6.78.95,2.44.42,5.17,1.04,7.47,1.97,3.97,1.6,7.66,3.28,10.68,6.31.77.78,1.31,1.8,1.64,2.84.44,1.37.81,2.13.38,3.5-.85,2.66-2.45,5.07-4.56,6.89Z"/>
      <path class="cls-8" d="M898.18,444.35c-1.09,3.52-1.04,7.21.17,10.69,1.13,3.27,3.21,6.2,5.64,8.64,4.76,4.79,11.1,8.59,17.89,9.35,8.96,1,18.38-2.45,25.39-7.92,3.39-2.64,6.28-5.9,8.15-9.79,1.92-4,2.87-8.42,3.23-12.82.74-8.99-.64-18.62-4.5-26.82-.42-.9-.88-1.78-1.38-2.64l-.89.62c7.65,5.49,18.34,7.78,26.99,3.29,3.01-1.56,5.64-3.84,8.11-6.13,2.63-2.43,5.07-5.08,7.21-7.95,3.64-4.88,6.57-10.53,7.64-16.57.99-5.62.19-11.44-2.97-16.26l-.02.84c8.6-1.42,17.14-3.87,25.11-7.41,3.89-1.72,7.66-3.75,11.09-6.28,3.43-2.53,7.4-6.03,8.31-10.54.81-3.98-.72-8.14-3.17-11.25-3.04-3.85-7.54-6.28-12.08-7.92-7.71-2.79-16.08-3.56-24.19-2.36-9.12,1.35-17.81,5.09-24.88,11.03-.56.47,1.1,2.04,1.75,1.5,11.98-10.07,28.93-13.78,44.04-9.75,7.62,2.04,17.52,6.89,16.82,16.27-.35,4.56-3.87,7.98-7.25,10.67-3.16,2.51-6.72,4.51-10.37,6.23-8.4,3.96-17.52,6.61-26.68,8.12-.39.06-.12.68-.02.84,6.03,9.21,2.11,21.12-3.55,29.46-1.84,2.72-3.96,5.26-6.26,7.6-2.49,2.55-5.21,5.07-8.2,7.04-4.26,2.81-9.33,3.91-14.38,3.33-4.58-.53-9.06-2.36-12.8-5.05-.65-.46-1.35-.18-.89.62,4.22,7.41,5.83,16.57,5.67,25.02-.08,4.26-.65,8.55-2,12.6-1.3,3.9-3.44,7.34-6.34,10.25-6.06,6.07-14.76,10.04-23.34,10.5-3.72.2-7.41-.33-10.83-1.86-2.63-1.17-5.1-2.73-7.31-4.57-2.68-2.23-5.03-4.93-6.45-8.14-1.59-3.61-1.74-7.53-.58-11.29.22-.73-1.63-2.06-1.89-1.21h-.01Z"/>
      <path class="cls-8" d="M980.8,337.65c2.09-2.2,3.58-4.93,3.56-8.02-.02-2.55-1.03-5-2.43-7.1-3.08-4.57-7.72-7.58-12.99-9.02-7.68-2.1-16.18-1.65-23.83.38-7.6,2.02-14.84,6.18-18.98,13.06-3.11,5.18-4.43,11.57-3.43,17.54l.38-.44c-10.59-.75-21.08,3.28-29.08,10.12-4.81,4.12-8.83,9.27-11.67,14.92-2.17,4.32-3.65,9.17-2.87,14.04.67,4.19,2.94,7.82,5.66,10.99l.03-1.09c-9.04-.62-17.96,2.18-25.67,6.78-8.33,4.96-15.95,11.93-19.58,21.12-.82,2.07-1.39,4.26-1.5,6.49-.11,2.23.27,4.12.91,6.12,1.42,4.47,3.97,8.58,7.02,12.12,3.13,3.64,6.9,6.78,11.17,9,4.04,2.1,8.52,3.03,13.06,3.12,9.57.19,19.66-3.26,26.39-10.22.83-.86,1.6-1.77,2.31-2.73.49-.66-1.28-2.13-1.75-1.5-5.62,7.54-14.9,11.77-24.13,12.58-4.34.38-8.94.11-13.06-1.4-4.11-1.5-7.81-4.12-10.88-7.21-3.19-3.21-5.86-7-7.58-11.2-.77-1.87-1.4-3.85-1.55-5.88-.14-2.03.21-4.16.81-6.14,2.71-8.97,9.89-16.1,17.53-21.13,7.37-4.86,15.93-8.21,24.84-8.27.94,0,1.87.03,2.8.09.72.05.22-.87.03-1.09-2.21-2.58-4.09-5.49-4.8-8.86-.95-4.49.19-9.05,2.06-13.15,4.79-10.46,13.8-19.27,24.58-23.41,5.11-1.96,10.6-2.86,16.08-2.48.26.02.42-.2.38-.44-.81-4.88,0-10.07,2.04-14.55,3.05-6.66,8.99-11.3,15.72-13.87,7.19-2.74,15.36-3.68,22.98-2.61,5.36.75,10.19,2.51,13.76,6.57,1.69,1.93,3.02,4.27,3.3,6.86.34,3.23-1.2,6.12-3.37,8.4-.54.56,1.18,2.09,1.75,1.5h0Z"/>
      <path class="cls-8" d="M925.61,410.22c-5.44,3.4-9.83,8.47-13.63,13.57-3.37,4.52-6.73,9.46-8.33,14.93-1.9,6.49-1.79,14.02,1.5,20.05,2.91,5.35,9.16,8.12,14.86,9.41,2.69.61,5.59.97,8.31.4,3.89-.82,7.75-2.21,11.26-4.06,5.51-2.91,10.12-7.27,12.84-12.91,1-2.08,1.75-4.17,2.03-6.46.33-2.64.35-5.34.29-8-.07-2.99-.29-5.97-.68-8.93-.33-2.47-.75-4.96-1.55-7.32-.47-1.38-1.19-2.66-1.9-3.92-.91-1.64-1.92-3.22-3.06-4.71-1.72-2.24-3.83-4.31-6.43-5.49-4.21-1.91-8.55-.48-12.38,1.61-1.06.58-2.09,1.2-3.12,1.84-.77.48.85,2.07,1.49,1.68,3.46-2.14,7.5-4.7,11.75-4.3,2.06.19,3.69,1.16,5.15,2.48,2.31,2.09,4.14,5.07,5.62,7.89,1.06,2.01,1.64,4.06,2.06,6.29.51,2.72.81,5.48.99,8.24.18,2.76.26,5.54.13,8.3-.09,2.01-.21,4.12-.83,6.05-1.73,5.37-5.23,10.06-9.75,13.41-2.8,2.08-5.97,3.64-9.24,4.84-3.03,1.1-6.21,2.16-9.47,2.01-2.85-.13-5.7-.83-8.36-1.86-1.32-.51-2.63-1.1-3.85-1.83-1.05-.63-2.13-1.39-2.85-2.12-.88-.9-1.51-1.94-2.09-3.16-.67-1.42-1.16-2.92-1.48-4.46-.69-3.26-.71-6.64-.19-9.93.47-3.01,1.39-5.95,2.78-8.67,1.17-2.28,2.53-4.45,3.97-6.57,3.49-5.15,7.51-10.13,12.3-14.13,1.07-.89,2.18-1.73,3.36-2.47.77-.48-.86-2.07-1.49-1.68h0Z"/>
      <path class="cls-8" d="M964.04,361.92c-3.56,2.21-6.96,4.71-10.05,7.55-2.65,2.43-5.14,5.13-7.05,8.18-3.58,5.71-4.86,13.03-3.75,19.66.54,3.21,1.7,6.51,3.74,9.09,2.02,2.55,5.16,4.07,8.16,5.14,3.2,1.14,6.53,1.87,9.87,2.49,2.27.42,4.48.84,6.79.5,4.36-.63,8.21-3.07,11.44-5.96,3.68-3.31,6.7-7.34,9.14-11.62,2.45-4.28,4.23-8.46,5.23-13.04.83-3.78,1.02-7.73-.76-11.27-2.63-5.26-7.81-8.92-13.22-10.94-5.12-1.91-11.08-2.78-16.4-1.16-1.1.33-2.16.79-3.14,1.39-.77.47.85,2.07,1.49,1.68,4.25-2.61,9.78-2.54,14.5-1.5,2.64.58,5.24,1.52,7.6,2.86,2.29,1.29,4.27,2.83,5.88,4.87.72.91,1.38,1.99,1.86,3.09.39.91.57,1.43.73,2.38.28,1.67.21,3.37,0,5.04-.57,4.27-2.09,8.42-4,12.26-2.13,4.29-4.82,8.36-8.07,11.89-2.9,3.15-6.35,6.02-10.42,7.51-1.8.66-3.68,1.01-5.6.92-1.12-.05-2.18-.29-3.31-.49-1.54-.28-3.08-.58-4.61-.93-3.08-.7-6.27-1.56-9.04-3.15-1.14-.65-2.17-1.39-2.94-2.4-.84-1.11-1.5-2.5-1.99-3.83-2.3-6.14-1.7-13.38.73-19.38,1.21-2.99,3.08-5.63,5.21-8.04,2.53-2.87,5.43-5.41,8.49-7.7,1.61-1.21,3.28-2.34,4.99-3.4.77-.48-.86-2.07-1.49-1.68h0Z"/>
      <path class="cls-8" d="M1016.79,328.06c-6.2-.91-12.59-.31-18.49,1.79-2.45.88-4.79,2.02-6.97,3.43-2.9,1.88-5.81,3.89-8.06,6.54-2.05,2.42-3.31,5.36-3.54,8.52-.09,1.23-.11,2.45.26,3.64.29.93.78,1.8,1.35,2.58,2.81,3.86,7.29,6.55,11.62,8.39,1.94.82,3.98,1.54,6.07,1.84,1.92.27,3.87.21,5.8.01,5.16-.53,10.26-1.94,15.05-3.9,5.32-2.18,10.46-5.13,14.61-9.15,2.85-2.76,6.12-6.59,4.92-10.86-1.07-3.79-4.61-6.35-7.9-8.13-3.73-2.02-7.88-3.34-12.01-4.21-.9-.19-1.8-.35-2.71-.49-.45-.07-.7.16-.53.62.17.45.75.99,1.24,1.06,3.85.58,7.68,1.6,11.28,3.12,1.83.77,3.4,1.56,5.01,2.68.15.1.31.21.45.32-.2-.15.09.07.1.08.09.07.17.13.26.2.17.14.33.27.49.41.08.07.16.14.24.21.04.03.35.33.16.14.67.66,1,1.05,1.43,1.76.29.47.59,1.15.72,1.77.17.73.19,1.48.08,2.22-.3,1.98-1.43,3.64-2.68,5.16-3.49,4.22-8.12,7.39-13.01,9.79-4.88,2.41-9.72,4.01-14.85,4.97-3.73.69-7.61,1.06-11.26.01-4.09-1.18-8.2-3.34-11.3-6.14-1.19-1.07-2.41-2.43-2.85-4.05-.31-1.16-.21-2.44-.06-3.62.19-1.52.61-3.03,1.29-4.41,1.37-2.75,3.64-4.93,6.05-6.77,2.41-1.85,4.78-3.42,7.41-4.68,5.09-2.44,10.77-3.63,16.41-3.55,1.55.02,3.11.14,4.64.37.45.07.7-.16.53-.62s-.75-.99-1.24-1.06Z"/>
      <path class="cls-8" d="M963.77,315.98c-6.1-.9-12.36-.33-18.19,1.68-2.39.83-4.71,1.9-6.84,3.26-2.78,1.77-5.53,3.73-7.71,6.23-1.97,2.26-3.32,4.97-3.94,7.91-.52,2.46-.66,5.03.03,7.48,1.2,4.28,4.27,7.8,7.77,10.43,3.19,2.4,6.94,4.38,10.88,5.19,1.95.4,3.79.26,5.75-.02,2.83-.41,5.63-1.12,8.28-2.21,4.55-1.87,8.62-4.82,11.81-8.55,2.76-3.22,4.88-6.99,6.3-10.99s2.4-8.94.17-12.97c-2.23-4.03-6.58-5.76-10.7-6.74-1.19-.28-2.39-.5-3.6-.69-.45-.07-.7.16-.53.62.17.45.75.99,1.24,1.06,2.26.34,4.54.79,6.68,1.6.9.35,1.77.75,2.5,1.2.16.1.33.21.48.31.09.06.19.13.28.2-.19-.14.1.08.11.09.17.14.34.28.51.43.08.07.16.15.24.22-.17-.17.13.14.16.17.54.59.93,1.14,1.27,1.89.37.82.59,1.69.7,2.59.29,2.31-.15,4.66-.79,6.88-2.32,8.09-7.69,15.36-15.1,19.46-2.24,1.24-4.64,2.19-7.11,2.86-1.36.37-2.74.65-4.12.85-1.09.16-2.22.33-3.33.3-3.11-.07-6.42-1.55-9.06-3.12-3.3-1.97-6.31-4.52-8.04-8.05-.87-1.76-1.36-3.7-1.32-5.67.07-2.89.79-5.87,2.22-8.39,1.43-2.52,3.58-4.61,5.88-6.39,2.31-1.77,4.54-3.22,7.06-4.39,5.02-2.35,10.6-3.5,16.14-3.42,1.55.02,3.11.14,4.64.37.45.07.7-.16.53-.62-.17-.46-.75-.99-1.24-1.06h-.02Z"/>
      <path class="cls-8" d="M921.34,349.23c-6.52-.95-13.22.73-18.99,3.79-2.21,1.17-4.26,2.56-6.08,4.27-2.69,2.51-5.1,5.36-7.15,8.42-3.5,5.21-6.68,11.87-5.24,18.29,1.26,5.62,5.17,10.48,9.59,14.01,4.42,3.53,10.13,6.36,15.99,6.67,5.76.31,11.4-1.7,15.89-5.27,4.19-3.33,7.32-7.83,9.76-12.54,1.13-2.18,2.12-4.44,3.01-6.74.8-2.07,1.6-4.19,2.17-6.34.73-2.76.94-5.71.37-8.52-.53-2.55-1.66-4.93-3.25-7-3.14-4.09-7.8-6.87-12.71-8.31-1.1-.32-2.23-.57-3.36-.75-.45-.07-.7.16-.53.62.17.45.75.99,1.24,1.06,2.24.34,4.41.96,6.46,1.88,2.06.92,3.95,2.1,5.63,3.63.43.4.7.66,1.15,1.16.37.42.69.81.97,1.19.69.95,1.25,1.94,1.7,3.02.97,2.33,1.29,4.88,1.06,7.39-.23,2.51-1.01,4.84-1.84,7.18-.73,2.08-1.54,4.13-2.44,6.14-2.06,4.57-4.67,8.98-8.13,12.63-3.68,3.88-8.39,6.72-13.73,7.54-2.69.42-5.42.36-8.07-.27-2.65-.63-5.1-1.69-7.39-3.08-4.49-2.71-8.53-6.63-10.66-11.54-.97-2.24-1.49-4.69-1.28-7.13.29-3.35,1.51-6.59,3.06-9.55,1.68-3.19,3.78-6.15,6.15-8.86,1.84-2.1,3.83-4.16,6.15-5.74,4.76-3.26,10.61-5.43,16.38-5.78,1.61-.1,3.24-.06,4.84.18.45.07.7-.16.53-.62-.17-.46-.75-.99-1.24-1.06Z"/>
      <path class="cls-8" d="M883.1,397.7c-6.86-.59-13.63,1.56-19.6,4.79-6.38,3.45-12.43,8.06-16.35,14.25-1.86,2.94-3.25,6.24-3.74,9.7-.43,2.97-.17,5.99.71,8.85,1.65,5.41,5.46,9.94,9.98,13.22,4.29,3.1,9.55,5.21,14.88,5.35,2.74.07,5.36-.55,7.95-1.41,3.15-1.04,6.16-2.45,9.02-4.14,5.38-3.17,10.22-7.27,14.28-12.02,3.21-3.75,6.17-8.05,7.71-12.79.8-2.47.98-5.1.43-7.64-.6-2.78-1.97-5.3-3.73-7.51-4.05-5.07-10.19-8.35-16.43-9.84-1.68-.4-3.38-.67-5.1-.83-.53-.05-.37.61-.2.87.29.45.79.82,1.33.87,6.12.57,12.3,2.79,16.92,6.94,3.76,3.38,6.27,8.32,5.48,13.51-.7,4.53-3.39,8.77-6.1,12.36-3.52,4.66-7.8,8.77-12.57,12.14-2.57,1.81-5.32,3.4-8.19,4.7-2.71,1.23-5.63,2.34-8.57,2.84-4.71.8-9.65-.5-13.8-2.73-4.15-2.22-8.11-5.87-10.32-10.41-1.15-2.36-1.83-4.92-1.97-7.54-.16-3.2.56-6.41,1.83-9.34,2.92-6.76,8.6-11.93,14.72-15.79,5.31-3.35,11.3-6.04,17.61-6.65,1.65-.16,3.31-.17,4.96-.02.53.05.37-.61.2-.87-.29-.45-.79-.82-1.33-.87h0Z"/>
    </g>
    <g>
      <path class="cls-1" d="M1439.29,856.29l-3.86,9.27,28.7,12.28s17.22,6.64,9.7,23.15c-7.52,16.51-47.85,107.81-47.85,107.81l8.83,3.5,48.29-107.46s9.87-24.82-14.23-35.57c-24.11-10.75-29.58-13-29.58-13Z"/>
      <path class="cls-2" d="M1479.54,877.03s-3.71.04-7.51,6.46"/>
      <path class="cls-2" d="M1482.33,881.12s-3.64-.74-8.7,4.74"/>
      <path class="cls-2" d="M1484.13,885.75s-3.39-1.54-9.24,2.75"/>
      <path class="cls-2" d="M1484.55,899.46s-2.25-2.9-9.3-1.84"/>
      <path class="cls-2" d="M1485.03,892.56s-2.9-1.81-9.16,1.23"/>
      <path class="cls-2" d="M1484.79,888.49s-3.39-1.54-9.24,2.75"/>
    </g>
    <g>
      <path class="cls-1" d="M1513.58,212.59l-4.21,9.12-28.47-12.8s-16.55-8.17-23.6,8.55c-7.05,16.72-46.91,108.22-46.91,108.22l-8.56-4.13,46.35-108.31s11.57-24.07,35.81-13.62c24.24,10.45,29.59,12.96,29.59,12.96Z"/>
      <path class="cls-2" d="M1471.06,197.02s2.48,2.76.33,9.9"/>
      <path class="cls-2" d="M1466.16,197.74s3.01,2.18,2.4,9.61"/>
      <path class="cls-2" d="M1461.53,199.55s3.43,1.45,4.23,8.67"/>
      <path class="cls-2" d="M1451.16,208.53s3.66-.31,7.65,5.59"/>
      <path class="cls-2" d="M1455.91,203.5s3.29.91,5.3,7.57"/>
      <path class="cls-2" d="M1459.07,200.92s3.43,1.45,4.23,8.67"/>
    </g>
    <g>
      <path class="cls-1" d="M879.33,1121.72l4.21-9.12,28.47,12.8s16.55,8.17,23.6-8.55c7.05-16.72,46.91-108.22,46.91-108.22l8.56,4.13-46.35,108.31s-11.57,24.07-35.81,13.62c-24.24-10.45-29.59-12.96-29.59-12.96Z"/>
      <path class="cls-2" d="M921.84,1137.28s-2.48-2.76-.33-9.9"/>
      <path class="cls-2" d="M926.74,1136.57s-3.01-2.18-2.4-9.61"/>
      <path class="cls-2" d="M931.37,1134.75s-3.43-1.45-4.23-8.67"/>
      <path class="cls-2" d="M941.75,1125.77s-3.66.31-7.65-5.59"/>
      <path class="cls-2" d="M936.99,1130.8s-3.29-.91-5.3-7.57"/>
      <path class="cls-2" d="M933.84,1133.38s-3.43-1.45-4.23-8.67"/>
    </g>
    <g>
      <path class="cls-10" d="M242.27,983.25c-5.3-14.19-12.98-28.41-22.95-40.36,11.35-8.01,13.08-11.87,13.08-11.87l11.83,4.37s2.61,6.22,2.99,6.92c.37.7-.41,1.17.44,1.08,1.87-.2,4.61-6.83,5.9-5.56,7.12,7.05,20.48,22.47,20.48,22.47,0,0-2.03,10.13-5.53,15.99-2.55,4.25-6.29,7.84-8.59,12.2-.17.33-.35.67-.38,1.04-.04.5.2.98.41,1.44,1.59,3.46,3.43,5.85,2.89,9.56-.25,1.71-1.99,6.42-3.57,6.14-5.14-.89-2.26-7.48-14.33-4.67-1.19.28-3,.38-6.35-3.86-2.73-3.47-.8-11.03.19-13.18.59-1.28,3.08-1.49,3.49-1.73h0ZM251.69,953.55c2.06,4.45,1.4,11.85,3.22,15.78,1.73-2.28,3.77-6.88,5.25-9.78.33-.65.65-1.39.34-2.05-.22-.46-.71-.76-1.17-1.04-2.2-1.31-4.4-2.62-6.6-3.93-.27-.16-.61-.33-.91-.21-.46.19-.33.8-.13,1.22h0Z"/>
      <path class="cls-10" d="M260.18,1006.35c8.88,7.07,17.67,15.61,24.65,24.25,1.1,1.37,2.2,2.78,2.79,4.39,1.13,3.1.24,6.48.39,9.75.24,5.06,3.18,9.96,7.74,12.89,1.06.68,2.36,1.57,2.09,2.73-.34,1.46-2.77,1.56-3.66,2.81-1.12,1.58,1.7,3.96,2.15,5.8.59,2.37-2.31,4.03-4.2,5.74-10.15,9.14-21.73,20.21-32.84,28.38-1,.73-27.7-4.17-37.19-10.83-.76-.53-11.25,5.76-14.22,6.82-8.08-5.14-14.89-10.84-21.07-16.72,1.03.65,3.07-.89,3.22-2.02s-.75-2.1-1.2-3.17c-6.02-14.14-21.44-44.83-21.44-44.83,0,0,6.11-1.79,23-2.59,13.99-.66,24.37-.26,24.37-.26,0,0,7.45-8.98,8.76-10.94,4.84-7.24,10.14-13.91,15.14-21.37,1.19,1.61.63,2.38,2.34,3.54,1.71,1.16,5.5,1.48,7.49.77.9-.32,2.34-.46,3.29-.56,2.13-.24,3.29,2.49,4.48,4.11,1.18,1.62,2.7,2.68,3.95,1.31h0Z"/>
      <path class="cls-5" d="M258.29,988.31c4.21,3.28,6.17,8.67,5.1,13.59-.51,2.34-1.83,5.32-4.99,5.22-2.19-.07-3.3-2.1-4.46-3.5-.64-.77-1.38-1.57-2.42-1.9-1.41-.45-2.99.15-4.37.43-1.51.3-3.01.38-4.51-.06-1.27-.37-2.4-1.06-3.32-1.93-2.12-1.96-3.03-4.6-3.02-7.3,0-1.63.31-3.24.74-4.82.22-.82.48-1.62.75-2.42.12-.36.24-.71.37-1.06.06-.18.11-.4.24-.55.18-.2.49-.27.75-.32,5.83-1.12,12.12.21,16.73,3.65.56.41,1.09.86,1.58,1.34.41.38-1.07.91-1.45.55-3.34-3.16-8.07-5.03-12.9-5.14-1.32-.03-2.65.08-3.95.34l.67-.44c-1.47,4.18-3.17,9.05-.92,13.26.86,1.61,2.28,3.07,4.08,3.85.82.35,1.73.56,2.65.52,1.14-.04,2.24-.41,3.36-.62,1.17-.22,2.39-.36,3.55-.02.79.23,1.46.68,2.03,1.23,1.08,1.03,1.78,2.34,2.89,3.34.41.37.98.73,1.49.77.16,0,.21,0,.31-.01.16-.03.3-.09.44-.18.38-.24.67-.59.91-.94,1.04-1.53,1.42-3.54,1.48-5.32.13-3.66-1.38-7.4-4.16-10.07-.35-.33-.72-.65-1.1-.95-.27-.21.25-.5.42-.57.3-.11.76-.2,1.03.01h0Z"/>
      <path class="cls-5" d="M247.24,943.76c.8-1.09,1.83-2.06,2.77-3.04.4-.42.81-.83,1.18-1.27.62-.73,1.12-1.49,2.06-1.91.28-.13.77-.19,1.03.01.5.39.93.9,1.39,1.34.52.49,1.04.98,1.56,1.48,1.02.98,2.02,1.97,3.01,2.97,1.97,1.98,3.9,4.01,5.77,6.07,2.55,2.81,4.98,5.72,7.37,8.64.31.38.63.75.92,1.15.55.74.74,1.52.67,2.4-.11,1.3-.54,2.56-.99,3.79-.45,1.23-.94,2.49-1.45,3.72-1.04,2.5-2.2,4.98-3.66,7.3-1.16,1.85-2.45,3.63-3.7,5.43-1.72,2.49-3.45,4.97-5.12,7.49-.08.13-.17.26-.25.39-.25.4-1.81.55-1.45-.03,1.47-2.36,3.14-4.64,4.72-6.94,1.03-1.5,2.09-2.99,3.11-4.49,1.55-2.27,2.86-4.62,3.97-7.09.55-1.23,1.07-2.47,1.55-3.72.48-1.25.97-2.45,1.32-3.71.3-1.08.64-2.33.17-3.41-.19-.43-.49-.78-.78-1.14-2.14-2.65-4.33-5.27-6.59-7.83-3.67-4.15-7.58-8.14-11.65-11.97-.44-.42-.85-.91-1.34-1.29h1.03c-.3.15-.55.53-.74.77-.21.26-.42.53-.64.79-.39.44-.81.86-1.21,1.29-.88.92-1.83,1.83-2.58,2.84-.2.27-.68.39-1.03.39-.25,0-.63-.13-.42-.41h0Z"/>
      <path class="cls-5" d="M251.53,951.17c2.54,1.4,5.04,2.86,7.43,4.45,1.19.79,2.35,1.62,3.49,2.47.61.46,1.21.92,1.81,1.39.55.43,1.1.88,1.52,1.43.81,1.08,1.02,2.34.7,3.6-.39,1.55-.83,3.08-1.26,4.62-.86,3.11-1.72,6.22-2.61,9.33-1,3.5-2.01,7-3.04,10.5-.14.48-1.71.69-1.56.18,1.8-6.11,3.54-12.22,5.24-18.35.42-1.52.84-3.04,1.25-4.56.19-.72.44-1.44.54-2.17.08-.58-.04-1.14-.25-1.69-.51-1.33-1.79-2.18-2.94-3.06-1.14-.87-2.26-1.69-3.43-2.5-2.61-1.8-5.35-3.41-8.15-4.95-.62-.34.8-.92,1.24-.68h0Z"/>
      <path class="cls-5" d="M261.46,957.52c-1.99,4.03-3.75,8.16-5.74,12.2-.15.3-.54.44-.88.48-.15.02-.82,0-.67-.3,1.99-4.03,3.75-8.16,5.74-12.2.15-.3.54-.44.88-.48.15-.02.82,0,.67.3Z"/>
      <path class="cls-5" d="M245.01,935.2c2.88,6.66,5.83,13.32,7.94,20.22,1.04,3.39,1.87,6.84,2.35,10.34.48,3.5.67,7.19.91,10.79.27,4.06.62,8.13,1.55,12.11.12.51-1.44.86-1.56.38-1.66-7.12-1.45-14.44-2.3-21.65-.85-7.21-3.06-13.93-5.72-20.61-1.49-3.77-3.12-7.48-4.73-11.21-.19-.45,1.34-.87,1.56-.38h0Z"/>
      <path class="cls-5" d="M243.61,935.73c-3.94-1.46-7.88-2.92-11.83-4.37l1.34-.33c-2.68,3.73-6.04,7.07-9.89,9.83-1.11.79-2.25,1.54-3.43,2.23l.24-.48c3.9,4.98,7.66,10.06,11,15.36,3.13,4.97,5.85,10.14,8.14,15.47,1.42,3.31,2.69,6.68,3.85,10.07.16.48-1.38.87-1.56.38-1.99-5.79-4.29-11.5-7.11-17-2.65-5.16-5.76-10.12-9.15-14.91-2.12-2.99-4.35-5.92-6.62-8.83-.16-.2.06-.38.24-.48,3.98-2.35,7.54-5.3,10.48-8.69.84-.96,1.62-1.96,2.36-2.99.25-.35.94-.48,1.34-.33,3.94,1.46,7.88,2.92,11.83,4.37.34.13.06.44-.14.55-.31.17-.76.26-1.1.13h0Z"/>
      <path class="cls-5" d="M223.4,945.53c.08-.66.23-1.37.69-1.9.56-.65,1.56-.96,2.45-.83.89.13,1.55.74,2.12,1.32.61.62,1.21,1.25,1.78,1.89,1.9,2.14,3.52,4.48,4.8,6.97,1.28,2.49,2.25,5.12,3.23,7.73,1.26,3.39,2.59,6.75,3.74,10.17,1.39,4.13,2.54,8.33,3.21,12.61.08.52-1.48.85-1.56.38-1.12-7.17-3.66-14.01-6.22-20.84-1.85-4.95-3.57-9.97-6.87-14.32-1.03-1.36-2.17-2.64-3.38-3.87-.32-.33-.64-.67-1.02-.93-.16-.12-.34-.22-.54-.3-.07-.03-.15-.06-.23-.06-.08,0,.02,0,.04-.01-.24.12-.38.48-.45.69-.13.36-.19.73-.24,1.1-.06.47-1.62.74-1.56.18h0Z"/>
      <path class="cls-5" d="M260.68,1006.19c6.67,5.67,12.98,11.71,18.98,17.97,1.49,1.55,2.96,3.13,4.41,4.72.67.74,1.34,1.48,2,2.23s1.34,1.48,1.86,2.3c1.22,1.94.76,4.3.8,6.44.04,2.14.23,4.48.73,6.68.85,3.71,2.69,7.33,5.89,9.86.77.61,1.63,1.07,2.47,1.6s1.31,1.26.93,2.14-1.2,1.43-2.03,1.89c-.77.44-1.62.88-1.8,1.76-.15.73.25,1.47.64,2.09.43.68.93,1.33,1.26,2.06.81,1.82-.28,3.5-1.61,4.84-1.63,1.63-3.43,3.14-5.15,4.68-1.73,1.55-3.6,3.2-5.4,4.79-7.28,6.41-14.69,12.7-22.22,18.88-.92.76-1.85,1.51-2.77,2.26-.27.22-.74.35-1.1.27-.31-.07-.4-.29-.15-.5,7.47-6.09,14.84-12.29,22.08-18.6,3.61-3.15,7.19-6.32,10.74-9.52.84-.76,1.7-1.5,2.51-2.28.7-.68,1.38-1.47,1.67-2.38.55-1.73-.85-3.08-1.65-4.52-.35-.64-.59-1.36-.37-2.07.25-.8.96-1.35,1.69-1.8.8-.49,1.84-.91,2.14-1.81.35-1.01-.74-1.54-1.52-2-3.41-1.97-5.74-5.15-7.02-8.59-.76-2.02-1.16-4.14-1.37-6.27-.2-2.12-.13-4.36-.15-6.55,0-1.12-.25-2.15-.9-3.11-.56-.82-1.27-1.56-1.93-2.31-1.37-1.55-2.77-3.08-4.19-4.59-5.9-6.28-12.11-12.33-18.65-18.06-.75-.66-1.51-1.31-2.28-1.96-.41-.35,1.04-.89,1.45-.55Z"/>
      <path class="cls-5" d="M238.78,997.81c-4.75,7.69-10.22,15.01-15.71,22.27-1.38,1.82-2.76,3.64-4.14,5.46-.65.86-1.31,1.73-1.96,2.59-.31.41-.61.83-.93,1.24-.43.54-1,.53-1.68.51-5.23-.18-10.47-.21-15.7-.08-5.23.13-10.41.41-15.59.84-2.62.22-5.25.48-7.86.77-1.31.15-2.61.31-3.92.47-.62.08-1.23.16-1.85.24-.33.04-.65.09-.98.13-.29.04-.41,0-.39.31.03.45.37.92.57,1.32.29.58.58,1.17.86,1.75.54,1.1,1.09,2.21,1.64,3.32,1.08,2.18,2.15,4.36,3.23,6.54,2.17,4.39,4.33,8.78,6.5,13.17,2.17,4.39,4.33,8.78,6.5,13.17.54,1.1,1.09,2.21,1.64,3.32.54,1.11,1.12,2.12,1.52,3.22.33.9.51,1.95.06,2.84-.37.73-1.09,1.29-1.91,1.58s-1.77.36-2.52-.09l1.34-.62c3.96,3.53,8.03,6.96,12.2,10.28,2.06,1.64,4.15,3.25,6.26,4.83.5.38,1,.77,1.52,1.12.19.13.42.28.65.34.4.1.72-.09,1.06-.26,1.2-.62,2.39-1.29,3.58-1.93,2.78-1.5,5.56-3.01,8.33-4.51.28-.15.79-.3,1.1-.13.31.16.09.43-.14.55-2.65,1.43-5.3,2.87-7.95,4.31-1.29.7-2.58,1.41-3.87,2.09-1.1.58-2.45,1.05-3.66.44-.54-.27-1-.67-1.48-1.03-.61-.45-1.21-.9-1.81-1.36-1.15-.87-2.29-1.75-3.42-2.63-2.21-1.73-4.39-3.49-6.54-5.28-2.47-2.05-4.89-4.15-7.27-6.27-.43-.39,1.01-.82,1.34-.62,1.2.72,1.92-1,1.89-1.85-.06-1.59-1.1-3.13-1.8-4.55-1.52-3.07-3.03-6.14-4.55-9.21-3.06-6.2-6.12-12.4-9.18-18.6-1.52-3.07-3.03-6.14-4.55-9.21-.77-1.57-1.55-3.13-2.32-4.69-.28-.56-.64-1.19-.13-1.74.46-.48,1.24-.6,1.9-.69,7.27-1.02,14.6-1.72,21.94-2.13,7.34-.41,14.77-.53,22.15-.33.91.02,1.83.05,2.74.09l-1.03.39c6.16-8.21,12.52-16.3,18.3-24.74,1.57-2.29,3.1-4.61,4.55-6.97.25-.4,1.81-.55,1.45.03h0Z"/>
      <path class="cls-5" d="M223.27,1092.06c1.95,1.24,4.1,2.21,6.26,3.1,2.63,1.08,5.33,2.03,8.05,2.89,5.24,1.66,10.61,3.07,16.05,4.09,1.11.21,2.23.39,3.35.54.24.03.49.06.73.09.04,0,.08,0,.12.01s.08,0,.12.01c-.07,0-.08,0-.03,0,.1,0,.2.02.3.03.38.03.75.05,1.13.06.27,0,.6.14.42.41-.17.28-.71.39-1.03.39-1.74-.01-3.49-.31-5.19-.6-2.52-.44-5.01-.99-7.48-1.6-5.74-1.41-11.43-3.09-16.88-5.25-2.55-1.01-5.09-2.14-7.37-3.6-.29-.19.27-.51.42-.57.32-.13.73-.18,1.03.01h0Z"/>
      <path class="cls-5" d="M251.44,999.94c-2.38-3.33-4.86-6.59-7.45-9.78-.37-.45,1.13-.94,1.45-.55,2.59,3.19,5.07,6.45,7.45,9.78.34.48-1.16.95-1.45.55Z"/>
      <path class="cls-5" d="M248.7,996.71c.33.7.65,1.42.62,2.2-.03.63-.37,1.26-.93,1.65-.85.59-1.86.57-2.87.46-.9-.1-1.8-.22-2.69-.36-.32-.05-.38-.31-.15-.5.28-.23.74-.32,1.1-.27.74.12,1.49.22,2.24.31.34.04.69.09,1.03.09.06,0,.09-.01.13,0,.09.02,0-.01-.03.01.13-.1-.03.06.08-.04-.07.06.08-.07.08-.07.33-.3.48-.82.45-1.25-.04-.65-.33-1.27-.62-1.86-.13-.27.48-.5.67-.54.26-.06.75-.12.88.16h0Z"/>
      <path class="cls-5" d="M257.41,1011.38c4.95,5.64,9.89,11.27,14.84,16.91,1.4,1.6,2.81,3.2,4.21,4.8.38.43-1.11.93-1.45.55-4.95-5.64-9.89-11.27-14.84-16.91-1.4-1.6-2.81-3.2-4.21-4.8-.38-.43,1.11-.93,1.45-.55Z"/>
      <path class="cls-5" d="M250.94,1011.35c1.42,5.14,2.71,10.32,3.86,15.51.33,1.48.64,2.97.95,4.45.11.51-1.46.86-1.56.38-1.08-5.21-2.29-10.4-3.63-15.56-.38-1.47-.78-2.94-1.18-4.41-.14-.49,1.42-.87,1.56-.38h0Z"/>
      <path class="cls-5" d="M247.97,1012.5c.07,4.15-.17,8.29-.74,12.4-.07.48-1.63.74-1.56.18.56-4.05.81-8.12.74-12.2,0-.54,1.55-.82,1.56-.38h0Z"/>
      <path class="cls-5" d="M242.11,1007.2c-2.64,6.26-5.42,12.47-8.34,18.63-2.92,6.16-5.98,12.29-9.17,18.35-1.79,3.41-3.63,6.79-5.51,10.16-.23.41-1.78.57-1.45-.03,3.33-5.97,6.52-12,9.58-18.09,3.06-6.08,5.98-12.21,8.77-18.4,1.57-3.47,3.09-6.96,4.56-10.46.13-.3.55-.44.88-.48.16-.02.8,0,.67.3h0Z"/>
      <path class="cls-5" d="M217.49,1087.12c-1.17-5.93-1.8-11.95-1.89-17.97,0-.36,0-.71,0-1.07,0-.24,0-.34-.19-.5-.14-.12-.33-.21-.48-.31-.65-.42-1.31-.84-1.97-1.25-1.29-.8-2.59-1.58-3.91-2.34-2.65-1.53-5.36-2.99-8.12-4.36-3.09-1.54-6.23-2.97-9.43-4.29-.33-.14-.07-.44.14-.55.3-.17.77-.27,1.1-.13,5.77,2.39,11.36,5.13,16.74,8.19,1.34.77,2.67,1.55,3.99,2.35.65.4,1.3.8,1.94,1.21.31.19.61.39.91.58.16.11.32.21.48.31.23.15.33.18.36.43.06.75,0,1.53.03,2.28.02.75.05,1.52.08,2.28.07,1.52.18,3.04.32,4.56.32,3.42.81,6.82,1.47,10.2.1.51-1.46.86-1.56.38h0Z"/>
      <path class="cls-5" d="M280.84,1059.36c-2.36,4.77-4.89,9.46-7.59,14.08-2.7,4.62-5.58,9.16-8.62,13.61-1.72,2.51-3.49,5-5.31,7.45-.21.27-.68.39-1.03.39-.25,0-.63-.13-.42-.41,3.21-4.32,6.26-8.74,9.15-13.24,2.89-4.5,5.58-9.06,8.12-13.7,1.44-2.64,2.82-5.3,4.15-7.98.15-.3.54-.44.88-.48.15-.02.82,0,.67.3h0Z"/>
    </g>
    <g>
      <path class="cls-9" d="M847.7,1044.03c-.86-18-2.78-34.35-4.99-52.18-2.18-17.59-3.91-35.25-5.64-52.91-1.07-10.93-3.04-22.17-.51-32.93,2.92-12.4,11.8-16.64,19.66-17.98,13.39-2.3,24.84,1.58,28.12,4.14,8.31,6.49,10.22,20.37,10.33,30.45.42,35.63,1.76,65.76,2.17,100.66.07,5.99,1.69,16.72.68,22.65-1.02,5.92-6.37,12.71-11.44,15.69-8.7,5.11-16.22,6.2-21.27,3.83-8.32-3.9-16.72-13.22-17.11-21.39h0Z"/>
      <path class="cls-10" d="M840.99,970.01c-1.97-13.57-3.43-27.24-4.38-40.96,1.98,2.39,4.86,7.1,7.62,8.41,6.35,3,19.98,8.82,37.43,4.35,3.07-.79,13.47-5.46,13.83-14.18-.61,7.26-.89,41.94-.89,41.94,0,0-5.4,10.17-22,12.02-21.41,2.38-32.56-12.13-31.61-11.58h0Z"/>
      <path class="cls-10" d="M850.66,889.6c-.08-2.89-.17-5.79-.25-8.68-.05-1.61-.05-3.36.88-4.66.5-.7,1.22-1.19,1.95-1.61,2.39-1.38,5.08-2.17,7.79-2.29,2.3-.1,4.58.28,6.88.29,1.24,0,4.24,1.17,8.33,3.02.71.32.91,1.33,1.13,2.11.29,1.06.18,2.19.08,3.3-.26,2.74-.53,5.55-1.62,8.08-.4.92-.91,1.81-1.63,2.48-.55.52-1.16.7-1.81,1.07-1.07.61-9.26,6.57-21.37-1.63-.7-.47-.82-1.59-.34-1.48h0Z"/>
      <path class="cls-5" d="M876.55,888.28c4.38.98,8.69,2.7,11.79,6.14,1.57,1.74,2.66,3.84,3.59,6.02.9,2.09,1.6,4.28,2.13,6.52,1.07,4.5,1.47,9.15,1.58,13.8.05,2.34.03,4.68,0,7.02-.04,2.67,0,5.31.1,7.97.23,5.76.47,11.51.48,17.29.01,5.78-.1,11.54-.06,17.3.05,5.87.33,11.74.47,17.61.15,5.82.27,11.64.44,17.46.34,11.44.66,22.91,1.3,34.33.08,1.43.17,2.86.26,4.3.04.65-1.86.71-1.91-.01-.75-11.19-.99-22.43-1.4-33.64-.42-11.5-.56-23.02-.98-34.52-.21-5.72-.11-11.47-.07-17.2s0-11.45-.23-17.17c-.11-2.75-.23-5.49-.33-8.23-.09-2.48,0-4.96.02-7.45.05-4.64-.04-9.3-.67-13.88-.63-4.58-1.84-9.03-3.87-13.1-1.07-2.14-2.39-4-4.2-5.51-1.71-1.43-3.7-2.45-5.78-3.17-1.06-.37-2.14-.67-3.23-.91-.27-.06-.82-.21-.65-.61.15-.36.89-.41,1.18-.34h0Z"/>
      <path class="cls-5" d="M846.74,1044.02c-.28-5.48-.74-10.95-1.09-16.42-.18-2.76-.32-5.52-.58-8.28-.26-2.75-.51-5.41-.78-8.11-1.09-10.89-2.31-21.77-3.53-32.64-1.21-10.88-2.4-21.6-3.45-32.42-.53-5.43-1.02-10.87-1.45-16.31-.2-2.54-.62-5.01-1-7.52-.37-2.52-.36-5.06-.27-7.62.18-4.94.86-10.02,3.05-14.51,2.07-4.24,5.34-7.4,9.32-9.64.95-.53,1.91-1.02,2.89-1.48.4-.19.97-.22,1.35,0,.32.19.36.52-.02.7-4.07,1.93-7.75,4.34-10.33,8.26-2.78,4.22-3.86,9.28-4.23,14.26-.19,2.47-.31,5.03-.15,7.5.16,2.47.73,4.86,1.04,7.29.33,2.64.46,5.33.69,7.98s.47,5.39.73,8.08c1.01,10.73,2.18,21.44,3.38,32.15,1.19,10.73,2.41,21.45,3.52,32.19.55,5.39,1.24,10.8,1.51,16.22.27,5.42.74,10.86,1.09,16.3.09,1.35.16,2.7.23,4.05.03.66-1.87.71-1.91-.01h-.01Z"/>
      <path class="cls-5" d="M898.61,1043.23c.11,5.19-2.23,9.99-5.68,13.7-3.73,4.02-8.63,6.84-13.71,8.46-4.76,1.52-9.75,1.98-14.52.58-4.42-1.3-8.46-3.94-11.57-7.4-3.12-3.46-5.43-7.9-6.18-12.72-.09-.61-.16-1.22-.21-1.83-.05-.65,1.85-.71,1.91.01.35,4.67,2.19,9.07,4.98,12.66,2.69,3.46,6.29,6.27,10.32,7.84,1.88.73,3.95,1.23,5.9,1.32,2.25.1,4.53-.25,6.77-.83,4.89-1.27,9.6-3.73,13.38-7.29,3.51-3.3,6.22-7.71,6.64-12.65.05-.61.07-1.23.06-1.85-.01-.67,1.89-.7,1.91.01h.01Z"/>
      <path class="cls-5" d="M895.69,928.23c-.15,5.65-4.89,9.8-9.39,12.19-5.69,3.03-12.06,4.07-18.31,3.74-4.83-.25-9.65-.9-14.32-2.15-4.67-1.25-9.1-3.03-12.76-6.11-3.4-2.86-5.62-6.89-5.77-11.55-.02-.61,0-1.22.04-1.84.05-.7,1.95-.67,1.91.01-.15,2.29.11,4.57.93,6.69.75,1.94,1.92,3.65,3.36,5.09,3.13,3.14,7.28,5.03,11.42,6.31,4.39,1.36,8.97,2.09,13.58,2.45.01,0,.19.02.05,0,.05,0,.1,0,.15.01.14,0,.27.02.4.03.28.02.56.04.85.05.5.03,1,.05,1.5.07,1.51.05,3.02.01,4.53-.15,3.06-.34,6.1-1.09,8.96-2.32,4.51-1.94,9.68-5.44,10.78-10.77.12-.58.18-1.17.2-1.76.02-.69,1.92-.69,1.91.01Z"/>
      <path class="cls-5" d="M896.25,966.32c-.13,4.89-4.13,8.51-7.91,10.82-4.56,2.78-9.92,4.47-15.14,4.9-2.37.2-4.76.12-7.13-.02-2.37-.14-4.74-.39-7.08-.82-4.5-.83-8.97-2.31-12.69-5.09-3.72-2.78-6.14-6.75-7.09-11.39-.13-.65-.24-1.31-.32-1.97s1.82-.71,1.91.01c.55,4.6,2.49,8.8,5.86,11.81,3.19,2.84,7.24,4.44,11.33,5.36,4.3.98,8.68,1.25,13.08,1.22,4.82-.04,9.8-1.46,14.15-3.72,3.73-1.93,8.03-5.06,8.95-9.59.1-.5.15-1.01.17-1.52.02-.69,1.92-.69,1.91.01h0Z"/>
      <path class="cls-5" d="M893.25,1029.3c-3.27,5.61-9.68,8.68-15.57,9.99-6.82,1.52-14.31,1.12-20.5-2.18-3.39-1.81-6.24-4.53-8.11-7.99-.33-.61,1.53-.84,1.85-.26,3.16,5.86,9.09,9.12,15.39,10,6.07.85,12.73-.24,18.3-3.41,2.71-1.54,5.2-3.66,6.82-6.43.34-.58,2.19-.35,1.83.27h0Z"/>
      <path class="cls-5" d="M893.65,1025.47c-3.27,5.61-9.68,8.68-15.57,9.99-6.82,1.52-14.31,1.12-20.5-2.18-3.39-1.81-6.24-4.53-8.11-7.99-.33-.61,1.53-.84,1.85-.26,3.16,5.86,9.09,9.12,15.39,10,6.3.88,12.73-.24,18.3-3.41,2.71-1.54,5.2-3.66,6.82-6.43.34-.58,2.19-.35,1.83.27h0Z"/>
      <path class="cls-5" d="M877.12,888.45c-.59,4.28-5.46,6.09-8.94,6.82-2.4.51-4.87.62-7.29.42-2.28-.18-4.56-.68-6.63-1.65-1.87-.88-3.68-2.3-4.38-4.38-.24-.72,1.64-.87,1.85-.26.55,1.64,1.81,2.81,3.21,3.59,1.73.96,3.59,1.42,5.54,1.65,1.96.24,4.15.2,6.26-.15,1.85-.31,3.76-.87,5.46-1.91,1.44-.89,2.77-2.3,3.03-4.14.1-.71,2-.64,1.91.01h0Z"/>
      <path class="cls-5" d="M876.35,878c-.4,1.57-1.6,2.65-2.92,3.43-1.71,1-3.67,1.52-5.58,1.84-2.13.36-4.32.46-6.46.31-2.03-.14-4.08-.46-5.98-1.21-1.55-.61-3.29-1.55-3.96-3.23-.27-.69,1.6-.86,1.85-.26.5,1.26,1.6,1.96,2.76,2.49.62.28,1.47.55,2.24.74.32.08.77.17,1.21.24.47.08.94.14,1.42.19,1.75.18,3.75.15,5.56-.09,1.72-.23,3.41-.61,4.97-1.38,1.25-.62,2.61-1.58,2.99-3.07.18-.71,2.06-.58,1.91.01h0Z"/>
      <path class="cls-5" d="M875.53,888.04c.17-3.66.34-7.32.51-10.98.03-.7,1.94-.68,1.91.01-.17,3.66-.34,7.32-.51,10.98-.03.7-1.94.68-1.91-.01Z"/>
      <path class="cls-5" d="M849.56,889.4c-.13-3.76-.27-7.52-.4-11.28-.02-.67,1.88-.7,1.91.01.13,3.76.27,7.52.4,11.28.02.67-1.88.7-1.91-.01Z"/>
      <path class="cls-5" d="M876.04,877.29c-.77-1.44-2.18-2.28-3.62-2.92-1.8-.8-3.83-1.19-5.88-1.41-2.05-.22-4.38-.2-6.51.07-1.94.25-3.84.68-5.58,1.56-1.38.7-2.82,1.82-3.12,3.52-.13.71-2.02.63-1.91-.01.31-1.76,1.61-2.99,3.04-3.85,1.87-1.13,4.05-1.69,6.15-2.04,2.49-.41,5.03-.48,7.54-.29,2.31.18,4.64.58,6.8,1.41,1.9.73,3.92,1.8,4.94,3.71.33.61-1.53.84-1.85.26Z"/>
    </g>
    <g>
      <path class="cls-6" d="M914.37,221.66c1.01-1.89,2.46-3.56,4.22-4.87.33-.25.72-.5,1.16-.49.41.01,8.48,3.88,8.83,4.11,6.21,4.2,5.68,5.03,10.03,10.09,1.39,1.62,3.36,3.36,2.71,5.26-.31.91-1.13,1.56-1.95,2.12-1.09.74-2.26,1.39-3.49,1.94-.38.17-.8.33-1.21.2-.34-.11-.59-.39-.82-.65-2.22-2.62-4.43-5.25-6.65-7.87"/>
      <path class="cls-4" d="M823.4,353.41c-20.86-6.49-38.65-22.27-46.77-41.48-.63-1.5-2.46-6.67-2.46-6.67l118.84-91.71s11.1.52,30.65,15.54c16.72,12.86,20.66,29.46,20.34,31.2-.57,3.14-16.21,11.81-22.51,15.69-13.43,8.27-32.03,5.82-46.51,12.44-4.47,2.04-.55,1.88-6.32,5.36-3.51,2.12-5.52-1.64-6.39.24-2.69,5.83-8.62,16.59-11.23,21.06-3.33,5.69-20.56,29.44-27.63,38.34h0Z"/>
      <path class="cls-7" d="M944.83,261.29c-8.8,8.24-19.45,14.7-31.12,18.96-5.81,2.12-11.88,3.7-18.08,4.68-3.04.48-6.11.76-9.19,1.07-3.07.31-5.97.7-8.7,1.78-1.42.57-2.74,1.32-3.84,2.33-1.3,1.19-2.18,2.72-3.46,3.93-1.09,1.04-2.46,1.72-4.1,1.62-1.41-.09-2.71-.81-3.21-2.11l.7.07c-4.33,8.33-9,16.5-14.01,24.46-5.04,8-10.41,15.8-16.11,23.38-3.18,4.23-6.47,8.39-9.84,12.48-.28.34-.59-.17-.65-.4-.12-.43-.02-.91.25-1.24,6.01-7.28,11.71-14.8,17.08-22.53,5.36-7.71,10.39-15.62,15.08-23.72,2.64-4.55,5.16-9.15,7.58-13.81.17-.32.56-.28.7.07.46,1.19,1.88,1.56,3.08,1.51,1.52-.07,2.64-.93,3.57-1.95,1.01-1.11,1.82-2.37,2.94-3.4.99-.9,2.15-1.63,3.39-2.19,2.52-1.14,5.35-1.62,8.15-1.95,2.96-.35,5.93-.55,8.88-.96,12.27-1.72,24.04-5.8,34.44-11.8,5.84-3.37,11.24-7.37,16.08-11.91.31-.29.58.13.65.4.11.38.05.96-.25,1.24h0Z"/>
      <path class="cls-7" d="M823.53,354.3c-9.68-2.81-18.73-7.66-26.44-13.99-7.11-5.84-13.09-12.86-17.51-20.65-1.3-2.29-2.46-4.64-3.47-7.04-.51-1.21-.98-2.45-1.41-3.68-.37-1.06-.64-2.14-.99-3.2-.12-.36-.06-.99.25-1.24.34-.27.56.11.65.4.29.88.5,1.77.8,2.65.37,1.08.77,2.15,1.2,3.21.86,2.12,1.85,4.21,2.94,6.24,2.09,3.89,4.59,7.6,7.43,11.08,5.81,7.12,13.05,13.24,21.22,17.86,4.87,2.76,10.05,4.97,15.44,6.53.7.21.49,2.02-.11,1.84h0Z"/>
      <path class="cls-7" d="M944.35,260.39c-2.74-8.6-7.57-16.65-13.81-23.57-6.24-6.92-13.94-12.75-22.48-16.95-4.81-2.36-9.89-4.19-15.1-5.4-.7-.16-.52-1.99.11-1.84,9.46,2.2,18.45,6.4,26.26,12.05,7.78,5.63,14.45,12.69,19.36,20.65,2.78,4.5,4.99,9.27,6.56,14.21.12.36.06.99-.25,1.24-.34.27-.56-.11-.65-.4h0Z"/>
      <path class="cls-7" d="M773.98,304.44c7.77-6.01,15.53-12.01,23.3-18,7.72-5.96,15.45-11.92,23.18-17.88,7.68-5.92,15.36-11.84,23.04-17.75,7.73-5.96,15.45-11.91,23.17-17.87,7.76-5.99,15.53-11.99,23.28-17.99.95-.74,1.91-1.48,2.86-2.21.67-.52.87,1.27.4,1.64-7.77,6.01-15.53,12.01-23.3,18s-15.45,11.92-23.18,17.88c-7.68,5.92-15.36,11.84-23.04,17.75-7.73,5.96-15.45,11.91-23.17,17.87-7.76,5.99-15.53,11.99-23.28,17.99-.95.74-1.91,1.48-2.86,2.21-.67.52-.87-1.27-.4-1.64Z"/>
      <path class="cls-7" d="M913.38,221.08c2.15-1.82,4.13-3.81,6.29-5.64.13-.11.22-.11.39-.05,7.66,2.8,14.4,7.93,19.04,14.35,1.31,1.81,2.45,3.72,3.41,5.71.23.47.15,1.22-.31,1.52-2.46,1.57-4.92,3.13-7.38,4.7-.36.23-.55-.52-.57-.71-.03-.4.05-.87.41-1.1,2.46-1.57,4.92-3.14,7.38-4.7l-.31,1.52c-3.33-6.9-9.03-12.81-15.96-16.74-1.94-1.1-3.98-2.04-6.08-2.8l.39-.05c-2.15,1.82-4.13,3.81-6.29,5.64-.32.27-.58-.11-.65-.4-.1-.37-.07-.97.25-1.24h0Z"/>
      <path class="cls-7" d="M860.69,288.43c-6.53-4.28-12.42-9.46-17.41-15.3-1.42-1.66-2.76-3.38-4.03-5.14-.26-.36-.25-.9-.1-1.28.1-.25.43-.63.69-.26,4.42,6.14,9.78,11.69,15.87,16.41,1.73,1.34,3.51,2.61,5.34,3.81.56.37.23,2.14-.37,1.75h0Z"/>
      <path class="cls-7" d="M855.75,280.5c-4.66-4.41-8.03-9.92-9.8-15.81-.51-1.7-.87-3.42-1.1-5.16-.04-.32.03-.98.41-1.1.41-.13.53.46.57.71.77,5.72,3.26,11.3,7,16.01,1.07,1.35,2.25,2.62,3.51,3.82.45.42.07,2.17-.59,1.54h0Z"/>
      <path class="cls-7" d="M869.55,287.12c-4.5-4.08-9-8.17-13.51-12.25-.33-.3-.36-.78-.28-1.17.03-.17.32-.88.64-.58,4.5,4.08,9,8.17,13.51,12.25.33.3.36.78.28,1.17-.03.17-.32.88-.64.58Z"/>
      <path class="cls-7" d="M801.46,333.68c-1.75-1.57-3.5-3.14-5.26-4.72-.33-.3-.36-.78-.28-1.17.04-.18.31-.86.64-.58,1.7,1.42,3.39,2.83,5.09,4.25.34.28.36.79.28,1.17-.04.18-.31.86-.64.58-1.7-1.42-3.39-2.83-5.09-4.25l.37-1.75c1.75,1.57,3.5,3.14,5.26,4.72.33.3.36.78.28,1.17-.04.17-.32.88-.64.58h0Z"/>
      <path class="cls-7" d="M823.08,347.28c-3.21-6.13-7.2-11.91-11.83-17.23-4.65-5.34-9.95-10.2-15.75-14.43-3.26-2.38-6.68-4.56-10.23-6.52-.58-.32-.29-2.11.37-1.75,6.39,3.53,12.35,7.77,17.73,12.58,5.36,4.79,10.16,10.14,14.25,15.92,2.32,3.27,4.4,6.68,6.25,10.2.19.38.15.97-.08,1.3s-.51.28-.7-.07h0Z"/>
      <path class="cls-7" d="M939.26,232.56c-2.42,1.56-4.84,3.13-7.26,4.7-.35.23-.55-.53-.57-.71-.04-.4.05-.87.41-1.1,2.42-1.56,4.84-3.13,7.26-4.7.35-.23.55.53.57.71.04.4-.05.87-.41,1.1Z"/>
      <path class="cls-7" d="M934.82,227.62c-2.46,1.66-4.91,3.33-7.37,4.99-.72.49-.9-1.3-.4-1.64,2.46-1.66,4.91-3.33,7.37-4.99.72-.49.9,1.3.4,1.64Z"/>
      <path class="cls-7" d="M929.36,223.01c-2.16,1.85-4.32,3.7-6.48,5.55-.32.27-.58-.11-.65-.4-.09-.38-.06-.97.25-1.24,2.16-1.85,4.32-3.7,6.48-5.55.32-.27.58.11.65.4.09.38.06.97-.25,1.24Z"/>
      <path class="cls-7" d="M924.05,219.96c-1.89,1.67-3.77,3.35-5.66,5.02-.32.28-.58-.12-.65-.4-.1-.38-.06-.96.25-1.24,1.89-1.67,3.77-3.35,5.66-5.02.32-.28.58.12.65.4.1.38.06.96-.25,1.24Z"/>
    </g>
    <g>
      <path class="cls-1" d="M256.97,425.82l4.21-9.12,28.47,12.8s16.55,8.17,23.6-8.55c7.05-16.72,46.91-108.22,46.91-108.22l8.56,4.13-46.35,108.31s-11.57,24.07-35.81,13.62c-24.24-10.45-29.59-12.96-29.59-12.96Z"/>
      <path class="cls-2" d="M299.48,441.38s-2.48-2.76-.33-9.9"/>
      <path class="cls-2" d="M304.38,440.67s-3.01-2.18-2.4-9.61"/>
      <path class="cls-2" d="M309.01,438.86s-3.43-1.45-4.23-8.67"/>
      <path class="cls-2" d="M319.39,429.88s-3.66.31-7.65-5.59"/>
      <path class="cls-2" d="M314.63,434.9s-3.29-.91-5.3-7.57"/>
      <path class="cls-2" d="M311.48,437.49s-3.43-1.45-4.23-8.67"/>
    </g>
    <g>
      <path class="cls-9" d="M182.55,321.5c12.01-13.43,22.12-26.43,33.05-40.69,10.79-14.07,21.94-27.87,33.09-41.67,6.9-8.54,13.38-17.93,22.74-23.83,10.78-6.79,20.08-3.58,26.62.97,11.15,7.76,16.6,18.55,17.14,22.67,1.37,10.46-7.01,21.68-14,28.95-24.69,25.69-44.88,48.1-69.07,73.26-4.15,4.32-10.52,13.11-15.41,16.61-4.88,3.51-13.46,4.59-19.15,3.16-9.79-2.46-15.9-6.96-17.84-12.19-3.19-8.62-2.64-21.15,2.82-27.25h.01Z"/>
      <path class="cls-10" d="M229.69,264.05c8.12-11.06,16.66-21.82,25.61-32.26-.26,3.09-1.52,8.47-.47,11.34,2.42,6.6,8.05,20.3,23.62,29.36,2.74,1.59,13.43,5.55,19.81-.4-5.52,4.75-30.06,29.26-30.06,29.26,0,0-10.98,3.46-24.11-6.87-16.93-13.32-14.7-31.48-14.4-30.42h0Z"/>
      <path class="cls-10" d="M292.99,213.53c1.97-2.12,3.94-4.24,5.91-6.36,1.09-1.18,2.32-2.43,3.9-2.7.85-.15,1.7,0,2.52.22,2.67.69,5.15,2.02,7.16,3.83,1.71,1.54,3.07,3.41,4.7,5.03.88.87,2.2,3.81,3.81,8,.28.73-.28,1.59-.68,2.3-.54.96-1.41,1.69-2.26,2.41-2.11,1.78-4.27,3.58-6.82,4.62-.93.38-1.92.65-2.9.62-.76-.02-1.31-.32-2.04-.51-1.19-.32-11.2-1.82-14.08-16.15-.17-.82.53-1.71.79-1.29h0Z"/>
      <path class="cls-5" d="M312.37,230.75c2.43,3.77,4.3,8.02,4.09,12.64-.1,2.34-.8,4.61-1.66,6.81-.83,2.12-1.86,4.18-3.05,6.14-2.39,3.96-5.37,7.56-8.56,10.94-1.6,1.7-3.26,3.36-4.93,5-1.91,1.87-3.73,3.78-5.52,5.75-3.88,4.26-7.74,8.54-11.78,12.66-4.04,4.12-8.17,8.15-12.18,12.29-4.09,4.22-8,8.6-12.01,12.88-3.98,4.25-7.98,8.49-11.93,12.76-7.78,8.4-15.59,16.79-23.16,25.38-.95,1.08-1.89,2.16-2.83,3.25-.43.5-1.82-.8-1.35-1.34,7.32-8.5,15.03-16.68,22.6-24.96,7.77-8.49,15.75-16.8,23.52-25.29,3.87-4.22,7.97-8.25,12.02-12.3s8.03-8.16,11.88-12.39c1.85-2.03,3.69-4.07,5.54-6.1,1.68-1.83,3.48-3.54,5.24-5.29,3.29-3.27,6.5-6.65,9.26-10.36,2.76-3.71,5.02-7.72,6.43-12.05.74-2.27,1.1-4.52.87-6.88-.22-2.22-.92-4.34-1.89-6.32-.49-1-1.05-1.97-1.66-2.91-.15-.23-.44-.72-.03-.89.36-.15.92.34,1.08.58h0Z"/>
      <path class="cls-5" d="M181.87,320.83c3.65-4.1,7.15-8.32,10.74-12.47,1.81-2.09,3.65-4.16,5.39-6.3,1.75-2.14,3.43-4.22,5.13-6.33,6.87-8.53,13.62-17.14,20.39-25.74,6.76-8.6,13.44-17.08,20.29-25.53,3.43-4.24,6.9-8.46,10.41-12.64,1.64-1.96,3.07-4.01,4.57-6.06,1.51-2.06,3.29-3.86,5.16-5.62,3.59-3.4,7.64-6.53,12.36-8.2,4.44-1.57,8.99-1.53,13.4-.33,1.05.28,2.08.62,3.1.97.42.14.84.52.96.95.09.36-.11.62-.51.49-4.25-1.48-8.57-2.34-13.15-1.36-4.94,1.06-9.26,3.91-13.02,7.19-1.87,1.63-3.75,3.37-5.37,5.24-1.62,1.87-2.89,3.97-4.38,5.92-1.61,2.12-3.41,4.12-5.11,6.17s-3.44,4.17-5.15,6.27c-6.81,8.36-13.49,16.81-20.15,25.28-6.67,8.48-13.33,16.98-20.07,25.4-3.39,4.23-6.69,8.57-10.3,12.62-3.61,4.06-7.09,8.26-10.66,12.38-.88,1.02-1.78,2.04-2.68,3.05-.44.49-1.83-.81-1.35-1.34h0Z"/>
      <path class="cls-5" d="M219.39,356.65c-3.56,3.77-8.6,5.55-13.66,5.78-5.48.25-10.95-1.18-15.7-3.59-4.46-2.26-8.34-5.43-10.76-9.77-2.24-4.02-3.26-8.74-3.06-13.39.21-4.65,1.67-9.44,4.51-13.4.36-.5.74-.98,1.14-1.45.42-.5,1.82.79,1.35,1.34-3.02,3.57-4.8,8-5.33,12.51-.51,4.35.08,8.89,1.86,12.83.83,1.84,1.96,3.65,3.28,5.08,1.53,1.65,3.4,3,5.41,4.16,4.38,2.53,9.46,4.07,14.65,4.19,4.81.11,9.84-1.13,13.6-4.36.47-.4.91-.83,1.34-1.28.46-.49,1.84.83,1.35,1.34h.01Z"/>
      <path class="cls-5" d="M297.99,272.65c-4.07,3.92-10.36,3.55-15.24,2.1-6.17-1.83-11.45-5.56-15.67-10.18-3.27-3.57-6.24-7.41-8.69-11.58-2.45-4.16-4.36-8.54-4.81-13.31-.41-4.43.83-8.85,3.99-12.28.42-.45.86-.88,1.31-1.28.52-.47,1.86.89,1.35,1.34-1.71,1.52-3.13,3.33-4.03,5.42-.82,1.91-1.19,3.95-1.17,5.98.03,4.44,1.66,8.69,3.71,12.51,2.17,4.05,4.93,7.79,7.96,11.27,0,.01.12.14.04.04.03.04.07.08.1.11.09.1.18.2.27.3.19.21.38.42.57.63.34.37.68.73,1.02,1.1,1.04,1.1,2.14,2.13,3.34,3.07,2.41,1.9,5.11,3.5,8.01,4.63,4.57,1.78,10.71,2.91,15.23-.11.49-.33.95-.7,1.38-1.12.5-.48,1.85.86,1.35,1.34Z"/>
      <path class="cls-5" d="M271.66,300.19c-3.52,3.39-8.91,3.16-13.23,2.16-5.2-1.22-10.21-3.78-14.23-7.13-1.83-1.52-3.48-3.26-5.06-5.01-1.59-1.76-3.11-3.6-4.47-5.55-2.62-3.75-4.77-7.94-5.48-12.53-.7-4.59.36-9.12,2.94-13.09.36-.56.75-1.1,1.16-1.63s1.8.77,1.35,1.34c-2.83,3.67-4.4,8.02-4.11,12.53.28,4.26,2.05,8.24,4.31,11.77,2.38,3.71,5.3,6.98,8.47,10.04,3.46,3.35,8.01,5.83,12.69,7.28,4.02,1.24,9.27,2.03,13.11-.56.42-.29.82-.61,1.18-.97.5-.48,1.85.86,1.35,1.34h0Z"/>
      <path class="cls-5" d="M225.34,342.96c-6.26,1.7-12.99-.6-18.11-3.8-5.93-3.7-10.99-9.24-13.08-15.94-1.15-3.66-1.27-7.61-.17-11.39.19-.66,1.68.47,1.5,1.11-1.86,6.4.08,12.87,3.95,17.92,3.73,4.87,9.24,8.76,15.43,10.41,3.01.8,6.28,1.04,9.37.2.65-.18,1.81,1.29,1.11,1.48h0Z"/>
      <path class="cls-5" d="M228.31,340.51c-6.26,1.7-12.99-.6-18.11-3.8-5.93-3.7-10.99-9.24-13.08-15.94-1.15-3.66-1.27-7.61-.17-11.39.19-.66,1.68.47,1.5,1.11-1.86,6.4.08,12.87,3.95,17.92,3.87,5.05,9.24,8.76,15.43,10.41,3.01.8,6.28,1.04,9.37.2.65-.18,1.81,1.29,1.11,1.48h0Z"/>
      <path class="cls-5" d="M312.66,231.27c-3.42,2.63-8.16.51-11.16-1.41-2.07-1.33-3.9-2.98-5.49-4.82-1.5-1.73-2.78-3.68-3.57-5.83-.71-1.94-1.01-4.22-.04-6.19.33-.68,1.78.54,1.5,1.11-.76,1.56-.69,3.27-.23,4.81.56,1.9,1.56,3.53,2.79,5.07,1.23,1.54,2.82,3.05,4.56,4.28,1.53,1.08,3.29,2.02,5.23,2.47,1.65.38,3.59.3,5.06-.83.57-.44,1.87.94,1.35,1.34h0Z"/>
      <path class="cls-5" d="M319.43,223.28c-1.39.84-3,.77-4.49.39-1.92-.49-3.68-1.49-5.27-2.6-1.78-1.24-3.4-2.7-4.82-4.32-1.34-1.53-2.58-3.19-3.41-5.06-.68-1.52-1.26-3.41-.56-5.08.29-.68,1.75.51,1.5,1.11-.53,1.25-.24,2.52.22,3.71.24.63.66,1.42,1.08,2.1.17.28.43.66.69,1.03.28.39.57.76.88,1.13,1.13,1.36,2.57,2.73,4.03,3.84,1.38,1.04,2.86,1.96,4.51,2.5,1.33.44,2.97.7,4.29-.09.63-.38,1.88,1.03,1.35,1.34h0Z"/>
      <path class="cls-5" d="M311.81,229.87c2.69-2.49,5.38-4.98,8.07-7.47.51-.47,1.86.87,1.35,1.34-2.69,2.49-5.38,4.98-8.07,7.47-.51.47-1.86-.87-1.35-1.34Z"/>
      <path class="cls-5" d="M292.35,212.62c2.54-2.77,5.09-5.55,7.63-8.32.45-.49,1.83.82,1.35,1.34-2.54,2.77-5.09,5.55-7.63,8.32-.45.49-1.83-.82-1.35-1.34Z"/>
      <path class="cls-5" d="M319.71,222.56c.46-1.57.05-3.15-.53-4.62-.72-1.83-1.9-3.54-3.2-5.13-1.31-1.59-2.98-3.22-4.69-4.51-1.56-1.18-3.21-2.21-5.07-2.8-1.48-.47-3.29-.68-4.69.32-.59.42-1.88-.97-1.35-1.34,1.45-1.04,3.24-1,4.87-.62,2.13.51,4.07,1.64,5.81,2.86,2.07,1.45,3.92,3.19,5.58,5.08,1.52,1.74,2.89,3.67,3.86,5.78.84,1.85,1.53,4.03.92,6.1-.2.67-1.68-.47-1.5-1.11Z"/>
    </g>
    <g>
      <path class="cls-10" d="M1500.79,316.53c-6.01-16.07-14.69-32.16-25.98-45.69,12.85-9.07,14.81-13.44,14.81-13.44l13.39,4.95s2.95,7.05,3.38,7.84c.42.79-.46,1.32.5,1.22,2.12-.23,5.22-7.74,6.68-6.29,8.06,7.98,23.19,25.45,23.19,25.45,0,0-2.29,11.47-6.26,18.11-2.88,4.81-7.12,8.87-9.72,13.82-.2.38-.39.76-.43,1.18-.04.56.22,1.1.46,1.63,1.8,3.92,3.88,6.62,3.27,10.83-.28,1.94-2.25,7.26-4.04,6.96-5.82-1.01-2.56-8.47-16.22-5.28-1.35.31-3.4.43-7.19-4.37-3.1-3.93-.9-12.49.21-14.93.66-1.45,3.48-1.69,3.95-1.95h0ZM1511.45,282.9c2.33,5.03,1.58,13.42,3.64,17.87,1.96-2.58,4.27-7.79,5.94-11.07.37-.73.74-1.58.39-2.32-.25-.52-.8-.86-1.32-1.17-2.49-1.49-4.98-2.97-7.47-4.45-.31-.19-.69-.38-1.03-.23-.52.21-.37.91-.15,1.38h0Z"/>
      <path class="cls-10" d="M1521.06,342.69c10.05,8.01,20,17.67,27.91,27.45,1.25,1.55,2.49,3.15,3.15,4.97,1.28,3.51.27,7.34.44,11.03.27,5.73,3.6,11.28,8.76,14.6,1.2.77,2.67,1.78,2.37,3.09-.39,1.65-3.14,1.76-4.15,3.19-1.27,1.79,1.92,4.49,2.43,6.57.66,2.68-2.61,4.57-4.76,6.5-11.49,10.35-24.6,22.89-37.18,32.14-1.13.83-31.36-4.72-42.11-12.26-.86-.6-12.74,6.53-16.1,7.72-9.15-5.82-16.86-12.27-23.86-18.94,1.16.74,3.48-1,3.65-2.28s-.85-2.38-1.36-3.59c-6.81-16.01-24.27-50.76-24.27-50.76,0,0,6.92-2.03,26.04-2.93,15.84-.75,27.59-.29,27.59-.29,0,0,8.43-10.16,9.92-12.39,5.48-8.19,11.49-15.74,17.14-24.19,1.35,1.82.71,2.7,2.65,4.01,1.94,1.31,6.22,1.67,8.48.88,1.01-.36,2.65-.52,3.72-.64,2.41-.27,3.73,2.82,5.07,4.66,1.34,1.84,3.05,3.03,4.47,1.48h0Z"/>
      <path class="cls-5" d="M1518.92,322.26c4.77,3.71,6.99,9.82,5.78,15.39-.58,2.65-2.07,6.03-5.64,5.91-2.48-.08-3.74-2.38-5.05-3.96-.72-.87-1.57-1.78-2.73-2.15-1.6-.51-3.39.17-4.95.49-1.71.34-3.41.43-5.1-.07-1.43-.42-2.71-1.2-3.76-2.18-2.4-2.22-3.43-5.2-3.42-8.26,0-1.85.35-3.67.84-5.46.25-.92.54-1.83.85-2.74.13-.4.27-.8.42-1.2.07-.21.12-.45.27-.62.2-.22.55-.31.85-.37,6.6-1.27,13.72.24,18.95,4.14.63.47,1.23.98,1.79,1.51.46.43-1.21,1.03-1.64.63-3.78-3.58-9.14-5.7-14.6-5.81-1.5-.03-3,.09-4.47.38l.76-.5c-1.66,4.73-3.59,10.24-1.05,15.02.97,1.83,2.58,3.48,4.62,4.36.93.4,1.96.63,3,.59,1.29-.05,2.54-.46,3.8-.7,1.32-.25,2.71-.4,4.02-.02.89.26,1.66.77,2.3,1.39,1.22,1.17,2.01,2.65,3.27,3.78.46.42,1.1.83,1.68.87.18,0,.24,0,.35-.01.18-.03.34-.11.5-.2.43-.27.76-.67,1.03-1.07,1.18-1.74,1.61-4.01,1.68-6.02.14-4.15-1.57-8.38-4.71-11.4-.39-.38-.81-.73-1.25-1.07-.31-.24.28-.57.47-.64.34-.13.86-.22,1.17.02h0Z"/>
      <path class="cls-5" d="M1506.41,271.82c.91-1.23,2.07-2.33,3.14-3.45.45-.47.91-.94,1.33-1.44.7-.83,1.27-1.69,2.34-2.16.32-.14.88-.21,1.17.02.57.44,1.05,1.02,1.58,1.51.59.56,1.18,1.11,1.76,1.67,1.15,1.11,2.29,2.23,3.41,3.36,2.24,2.25,4.41,4.54,6.53,6.88,2.88,3.19,5.63,6.47,8.34,9.78.35.43.71.85,1.04,1.3.62.83.84,1.72.75,2.72-.12,1.47-.61,2.9-1.12,4.29-.51,1.39-1.06,2.82-1.64,4.22-1.18,2.83-2.49,5.63-4.15,8.27-1.31,2.09-2.77,4.11-4.19,6.15-1.95,2.82-3.91,5.63-5.8,8.48-.09.15-.19.29-.28.44-.28.45-2.05.62-1.64-.03,1.67-2.67,3.56-5.25,5.35-7.86,1.17-1.7,2.36-3.38,3.52-5.08,1.75-2.57,3.24-5.23,4.5-8.03.63-1.39,1.21-2.8,1.75-4.22.55-1.42,1.1-2.78,1.5-4.2.34-1.22.73-2.64.19-3.86-.21-.48-.55-.88-.89-1.29-2.42-3-4.9-5.96-7.46-8.86-4.16-4.7-8.58-9.21-13.19-13.56-.5-.47-.97-1.03-1.51-1.46l1.17.02c-.34.15-.62.59-.84.85-.24.3-.47.6-.73.89-.44.5-.91.98-1.37,1.46-.99,1.05-2.07,2.07-2.92,3.22-.23.31-.77.45-1.16.44-.28,0-.71-.15-.48-.47h0Z"/>
      <path class="cls-5" d="M1511.27,280.22c2.87,1.58,5.7,3.23,8.41,5.04,1.35.9,2.66,1.84,3.95,2.8.69.52,1.37,1.04,2.05,1.57.62.49,1.25,1,1.72,1.62.92,1.22,1.15,2.65.79,4.07-.44,1.75-.94,3.49-1.42,5.23-.97,3.53-1.95,7.05-2.95,10.56-1.13,3.97-2.27,7.93-3.44,11.89-.16.54-1.93.78-1.76.2,2.03-6.91,4.01-13.84,5.93-20.78.47-1.72.95-3.44,1.41-5.17.22-.81.5-1.63.61-2.46.09-.66-.04-1.29-.28-1.91-.57-1.5-2.03-2.47-3.33-3.46-1.29-.99-2.56-1.92-3.89-2.83-2.95-2.03-6.06-3.86-9.23-5.61-.71-.39.9-1.05,1.4-.77h0Z"/>
      <path class="cls-5" d="M1522.52,287.4c-2.26,4.57-4.24,9.24-6.49,13.81-.17.34-.61.5-1,.54-.17.02-.93,0-.76-.34,2.26-4.57,4.24-9.24,6.49-13.81.17-.34.61-.5,1-.54.17-.02.93,0,.76.34Z"/>
      <path class="cls-5" d="M1503.89,262.13c3.26,7.54,6.6,15.08,9,22.9,1.18,3.84,2.11,7.75,2.66,11.71.54,3.96.76,8.14,1.03,12.22.3,4.6.7,9.2,1.75,13.71.13.57-1.63.98-1.76.43-1.89-8.06-1.64-16.35-2.6-24.51-.97-8.16-3.47-15.77-6.47-23.34-1.69-4.26-3.54-8.47-5.36-12.69-.22-.51,1.52-.99,1.76-.43h0Z"/>
      <path class="cls-5" d="M1502.31,262.73c-4.46-1.65-8.93-3.3-13.39-4.95l1.52-.37c-3.03,4.23-6.83,8.01-11.2,11.13-1.25.9-2.55,1.74-3.89,2.53l.27-.55c4.42,5.64,8.67,11.39,12.46,17.39,3.54,5.63,6.62,11.48,9.22,17.52,1.61,3.75,3.05,7.56,4.36,11.4.19.54-1.57.99-1.76.43-2.25-6.56-4.86-13.02-8.05-19.24-3-5.85-6.52-11.46-10.36-16.88-2.4-3.39-4.92-6.71-7.49-9.99-.18-.23.07-.43.27-.55,4.51-2.67,8.54-6,11.87-9.84.95-1.09,1.84-2.22,2.67-3.38.28-.39,1.06-.54,1.52-.37,4.46,1.65,8.93,3.3,13.39,4.95.39.15.07.5-.15.62-.35.2-.86.29-1.25.15h0Z"/>
      <path class="cls-5" d="M1479.42,273.82c.09-.74.26-1.55.78-2.15.64-.73,1.76-1.09,2.77-.94,1.01.15,1.75.84,2.4,1.5.69.7,1.37,1.41,2.02,2.14,2.15,2.43,3.99,5.07,5.44,7.9,1.45,2.82,2.55,5.8,3.65,8.76,1.43,3.83,2.93,7.64,4.23,11.51,1.57,4.68,2.88,9.44,3.64,14.28.09.59-1.68.97-1.76.43-1.27-8.12-4.15-15.86-7.04-23.59-2.1-5.6-4.04-11.29-7.77-16.21-1.16-1.53-2.45-2.99-3.82-4.38-.36-.37-.72-.75-1.15-1.06-.19-.13-.39-.25-.61-.33-.08-.03-.17-.07-.26-.07-.09,0,.03,0,.04-.02-.27.13-.43.54-.51.78-.15.4-.22.82-.27,1.24-.07.54-1.84.84-1.76.2h0Z"/>
      <path class="cls-5" d="M1521.63,342.51c7.55,6.42,14.69,13.26,21.49,20.35,1.69,1.76,3.35,3.54,5,5.34.76.84,1.52,1.68,2.27,2.53s1.51,1.67,2.1,2.6c1.39,2.2.86,4.87.9,7.29.04,2.42.26,5.07.83,7.56.97,4.2,3.05,8.3,6.67,11.17.88.69,1.85,1.21,2.79,1.81s1.48,1.42,1.06,2.43-1.36,1.61-2.3,2.14c-.87.5-1.83,1-2.03,1.99-.17.83.29,1.66.73,2.36.48.77,1.05,1.51,1.43,2.34.92,2.06-.31,3.96-1.82,5.48-1.84,1.85-3.88,3.55-5.83,5.3-1.95,1.75-4.07,3.63-6.12,5.43-8.25,7.25-16.64,14.38-25.16,21.38-1.04.86-2.09,1.71-3.14,2.56-.3.25-.84.39-1.25.3-.35-.08-.45-.33-.17-.57,8.46-6.89,16.8-13.91,25-21.06,4.09-3.56,8.14-7.15,12.16-10.78.95-.86,1.93-1.7,2.84-2.59.79-.77,1.57-1.66,1.9-2.69.62-1.96-.96-3.49-1.86-5.12-.4-.72-.66-1.54-.42-2.34.28-.91,1.08-1.53,1.91-2.04.9-.56,2.08-1.03,2.43-2.05.39-1.15-.84-1.75-1.72-2.26-3.86-2.23-6.49-5.83-7.95-9.72-.86-2.29-1.32-4.69-1.55-7.09-.23-2.4-.14-4.93-.17-7.41-.01-1.26-.28-2.43-1.02-3.52-.64-.93-1.44-1.77-2.19-2.62-1.55-1.75-3.14-3.48-4.75-5.19-6.68-7.11-13.71-13.96-21.12-20.44-.85-.75-1.71-1.49-2.58-2.22-.47-.4,1.18-1.01,1.64-.63Z"/>
      <path class="cls-5" d="M1496.84,333.02c-5.38,8.71-11.57,16.99-17.79,25.22-1.56,2.06-3.13,4.12-4.69,6.18-.74.98-1.48,1.95-2.22,2.93-.35.47-.69.94-1.05,1.4-.48.61-1.14.61-1.91.58-5.93-.21-11.85-.24-17.78-.09-5.93.15-11.78.46-17.65.95-2.97.25-5.94.54-8.9.87-1.48.17-2.96.35-4.44.54-.7.09-1.4.18-2.09.27-.37.05-.74.1-1.1.15-.32.05-.47,0-.44.35.03.51.42,1.05.65,1.5.32.66.65,1.32.98,1.98.62,1.25,1.24,2.5,1.85,3.75,1.22,2.47,2.44,4.93,3.65,7.4,2.45,4.97,4.91,9.94,7.36,14.91,2.45,4.97,4.91,9.94,7.36,14.91.62,1.25,1.24,2.5,1.85,3.75.62,1.25,1.27,2.39,1.72,3.64.37,1.02.58,2.2.07,3.21-.42.83-1.24,1.46-2.16,1.79s-2,.4-2.85-.1l1.52-.7c4.48,4,9.09,7.89,13.82,11.64,2.33,1.85,4.7,3.68,7.09,5.47.57.43,1.13.87,1.72,1.27.22.15.47.32.74.39.45.12.82-.1,1.2-.3,1.36-.7,2.7-1.46,4.05-2.19,3.15-1.7,6.29-3.4,9.44-5.11.32-.18.89-.33,1.25-.15.35.19.11.48-.15.62-3,1.62-6.01,3.25-9.01,4.88-1.46.79-2.92,1.59-4.39,2.37-1.25.66-2.77,1.19-4.14.49-.61-.31-1.14-.76-1.68-1.16-.69-.51-1.37-1.02-2.05-1.54-1.3-.98-2.59-1.98-3.87-2.98-2.5-1.96-4.97-3.95-7.41-5.98-2.79-2.32-5.53-4.69-8.24-7.1-.49-.44,1.14-.92,1.52-.7,1.36.81,2.17-1.13,2.14-2.09-.07-1.8-1.24-3.55-2.03-5.15-1.72-3.48-3.43-6.95-5.15-10.43-3.47-7.02-6.93-14.04-10.4-21.06-1.72-3.48-3.43-6.95-5.15-10.43-.88-1.77-1.75-3.55-2.63-5.32-.31-.64-.73-1.35-.14-1.96.53-.55,1.4-.67,2.15-.78,8.23-1.16,16.53-1.95,24.85-2.41,8.31-.46,16.72-.6,25.08-.37,1.04.03,2.07.06,3.11.1l-1.16.44c6.98-9.29,14.17-18.46,20.72-28.01,1.78-2.6,3.51-5.22,5.16-7.89.28-.45,2.05-.63,1.64.03h0Z"/>
      <path class="cls-5" d="M1479.27,439.73c2.2,1.4,4.65,2.5,7.09,3.51,2.98,1.23,6.03,2.3,9.12,3.27,5.94,1.88,12.01,3.48,18.18,4.63,1.26.23,2.52.45,3.79.61.28.04.55.07.83.1.04,0,.09,0,.13.01s.09,0,.13.01c-.08,0-.09,0-.04,0,.11,0,.23.02.34.03.43.04.85.06,1.28.06.31,0,.67.16.48.47-.2.31-.8.44-1.16.44-1.97-.01-3.95-.35-5.87-.68-2.85-.5-5.67-1.12-8.47-1.81-6.49-1.59-12.94-3.5-19.11-5.95-2.89-1.15-5.76-2.42-8.35-4.07-.33-.21.31-.58.47-.64.36-.14.83-.2,1.17.02h0Z"/>
      <path class="cls-5" d="M1511.16,335.43c-2.69-3.77-5.5-7.46-8.43-11.07-.42-.51,1.28-1.07,1.64-.63,2.93,3.62,5.74,7.31,8.43,11.07.39.55-1.32,1.07-1.64.63Z"/>
      <path class="cls-5" d="M1508.07,331.78c.38.8.74,1.61.7,2.49-.03.72-.42,1.43-1.05,1.87-.96.67-2.11.65-3.25.53-1.02-.11-2.03-.25-3.04-.41-.36-.06-.43-.35-.17-.57.31-.26.83-.37,1.25-.3.84.14,1.69.25,2.53.35.39.05.78.1,1.17.11.07,0,.1-.01.14,0,.1.02.01-.02-.04.02.15-.11-.03.07.09-.04-.08.07.09-.08.09-.08.38-.34.54-.93.51-1.42-.04-.74-.38-1.44-.7-2.11-.15-.31.54-.57.76-.61.3-.07.85-.14,1,.19h0Z"/>
      <path class="cls-5" d="M1517.93,348.39c5.6,6.38,11.2,12.76,16.8,19.14,1.59,1.81,3.18,3.62,4.77,5.43.43.49-1.26,1.06-1.64.63-5.6-6.38-11.2-12.76-16.8-19.14-1.59-1.81-3.18-3.62-4.77-5.43-.43-.49,1.26-1.06,1.64-.63Z"/>
      <path class="cls-5" d="M1510.6,348.35c1.61,5.82,3.07,11.68,4.37,17.56.37,1.68.73,3.36,1.08,5.04.12.58-1.65.98-1.76.43-1.22-5.9-2.59-11.78-4.11-17.62-.43-1.66-.88-3.33-1.34-4.99-.15-.56,1.61-.99,1.76-.43h0Z"/>
      <path class="cls-5" d="M1507.24,349.65c.08,4.69-.19,9.38-.84,14.04-.08.54-1.85.83-1.76.2.64-4.58.92-9.2.84-13.81-.01-.62,1.75-.93,1.76-.43h0Z"/>
      <path class="cls-5" d="M1500.61,343.65c-2.99,7.09-6.14,14.12-9.44,21.1-3.3,6.97-6.77,13.92-10.39,20.78-2.03,3.86-4.11,7.69-6.23,11.5-.26.46-2.02.65-1.64-.03,3.77-6.76,7.39-13.58,10.85-20.48,3.46-6.88,6.77-13.83,9.92-20.83,1.77-3.93,3.49-7.88,5.17-11.84.15-.34.63-.5,1-.54.19-.02.9,0,.76.34h0Z"/>
      <path class="cls-5" d="M1472.73,434.14c-1.32-6.71-2.04-13.52-2.14-20.35,0-.4-.01-.81-.01-1.21,0-.27.01-.39-.21-.57-.16-.13-.37-.24-.55-.35-.74-.48-1.48-.95-2.23-1.41-1.46-.91-2.93-1.79-4.42-2.65-3-1.74-6.07-3.39-9.19-4.94-3.49-1.74-7.06-3.36-10.68-4.86-.38-.16-.08-.49.15-.62.34-.19.87-.31,1.25-.15,6.53,2.71,12.87,5.8,18.95,9.27,1.52.87,3.03,1.76,4.51,2.67.74.45,1.47.91,2.2,1.37.35.22.69.44,1.03.66.18.12.36.23.55.35.26.17.38.2.4.48.07.85.01,1.73.03,2.59.02.85.05,1.72.09,2.59.08,1.72.2,3.45.36,5.17.36,3.87.92,7.72,1.67,11.54.11.58-1.66.98-1.76.43h0Z"/>
      <path class="cls-5" d="M1544.45,402.71c-2.67,5.4-5.54,10.71-8.6,15.94-3.06,5.23-6.32,10.37-9.76,15.41-1.95,2.84-3.95,5.66-6.02,8.43-.23.31-.77.45-1.16.44-.28,0-.71-.15-.48-.47,3.63-4.89,7.09-9.89,10.36-14.99,3.27-5.1,6.32-10.25,9.2-15.52,1.63-2.98,3.2-6,4.7-9.04.17-.34.61-.5,1-.54.17-.02.93,0,.76.34h0Z"/>
    </g>
  </g>
</svg>