<?xml version="1.0" encoding="UTF-8"?>
<svg id="Layer_2" data-name="Layer 2" xmlns="http://www.w3.org/2000/svg" viewBox="0 0 1396.17 764.77">
  <defs>
    <style>
      .cls-1 {
        fill: #246db1;
      }

      .cls-1, .cls-2, .cls-3, .cls-4, .cls-5 {
        stroke: #01242c;
        stroke-miterlimit: 10;
      }

      .cls-2 {
        fill: none;
      }

      .cls-6 {
        fill: #2d3365;
      }

      .cls-6, .cls-7, .cls-8, .cls-9, .cls-10, .cls-11 {
        stroke-width: 0px;
      }

      .cls-3, .cls-4, .cls-5 {
        stroke-width: 2px;
      }

      .cls-3, .cls-11 {
        fill: #b5edfe;
      }

      .cls-7 {
        fill: #01242c;
      }

      .cls-8 {
        fill: #4990ad;
      }

      .cls-4 {
        fill: #2493b1;
      }

      .cls-9 {
        fill: #bfeafb;
      }

      .cls-5 {
        fill: #193268;
      }

      .cls-10 {
        fill: #a4f4d2;
      }
    </style>
  </defs>
  <g id="Layer_8" data-name="Layer 8">
    <g>
      <path class="cls-9" d="M244.9,239.67c6.7-11.47,15.19-22.57,24.98-31.32-7.01-8.84-7.58-12.49-7.58-12.49l-9.74,1.85s-3.15,4.98-3.57,5.53c-.41.54.08,1.08-.54.86-1.37-.49-2.17-6.71-3.38-5.81-6.7,4.95-19.71,16.17-19.71,16.17,0,0-.41,9.15,1.11,14.83,1.11,4.12,3.24,7.86,4.14,12.03.07.32.13.64.09.97-.07.44-.33.82-.58,1.18-1.86,2.75-3.7,4.52-4,7.84-.14,1.53.27,5.91,1.51,5.93,4.04.07,3.13-6.13,11.68-1.69.85.44,2.19.83,5.52-2.31,2.72-2.56,2.7-9.47,2.38-11.5-.2-1.21-2.03-1.8-2.3-2.08h0ZM243.48,212.28c-2.4,3.53-3.31,10.08-5.43,13.2-.87-2.27-1.53-6.61-2.08-9.37-.12-.62-.23-1.32.13-1.84.25-.37.68-.55,1.08-.71,1.91-.78,3.81-1.55,5.72-2.33.24-.1.52-.19.72-.03.31.24.09.75-.13,1.08h0Z"/>
      <path class="cls-9" d="M227.01,256.81c-8.03,4.69-16.28,10.66-23.18,17.02-1.09,1.01-2.19,2.05-2.93,3.36-1.44,2.51-1.41,5.6-2.15,8.41-1.14,4.37-4.29,8.14-8.28,9.94-.93.42-2.07.98-2.09,2.03-.02,1.33,1.79,1.81,2.22,3.05.54,1.56-2.03,3.17-2.72,4.69-.89,1.96.97,3.89,2.07,5.69,5.9,9.63,12.5,21.17,19.3,30.11.61.8,21.64.95,30.06-3.28.67-.34,7.37,6.87,9.4,8.28,7.06-3.14,13.27-6.97,19.06-11.07-.9.4-2.14-1.28-2.04-2.29s.97-1.71,1.51-2.56c7.23-11.3,24.69-35.46,24.69-35.46,0,0-4.26-2.57-16.82-6.05-10.4-2.88-18.3-4.25-18.3-4.25,0,0-3.89-9.04-4.51-10.96-2.26-7.09-4.98-13.77-7.32-21.09-1.2,1.2-.93,1.97-2.44,2.69-1.51.72-4.42.38-5.78-.56-.61-.42-1.67-.78-2.37-1.03-1.56-.56-2.96,1.62-4.15,2.84-1.2,1.22-2.54,1.89-3.22.49h0Z"/>
      <path class="cls-6" d="M231.88,241.42c-3.8,2.16-6.3,6.52-6.43,10.98-.06,2.12.36,4.93,2.76,5.36,1.66.3,2.89-1.28,4.02-2.31.63-.56,1.34-1.14,2.18-1.25,1.15-.16,2.22.63,3.21,1.1,1.08.51,2.2.83,3.4.69,1.02-.12,2.01-.53,2.87-1.13,1.97-1.36,3.16-3.5,3.66-5.85.31-1.42.38-2.87.36-4.32-.01-.75-.05-1.49-.1-2.23-.02-.33-.05-.66-.07-.99-.01-.17,0-.37-.08-.52-.1-.2-.31-.32-.5-.41-4.18-1.94-9.16-1.82-13.29.42-.5.27-.98.57-1.45.9-.38.27.63.97.98.72,3.12-2.2,7.04-3.05,10.69-2.34,1,.19,1.98.51,2.91.94l-.42-.49c.31,3.88.66,8.39-1.84,11.69-.95,1.26-2.3,2.3-3.8,2.67-.69.17-1.41.2-2.09.02-.85-.23-1.61-.73-2.41-1.1-.84-.39-1.73-.71-2.67-.6-.64.07-1.23.35-1.76.73-1.01.72-1.78,1.74-2.81,2.43-.38.26-.87.48-1.27.42-.12-.02-.16-.03-.23-.06-.12-.05-.21-.13-.3-.23-.24-.27-.39-.62-.51-.97-.49-1.51-.39-3.31-.1-4.87.6-3.21,2.45-6.21,5.06-8.07.33-.23.66-.45,1.01-.64.24-.14-.09-.48-.2-.56-.2-.15-.53-.3-.78-.16h0Z"/>
      <path class="cls-6" d="M248.7,204.5c-.4-1.08-.99-2.09-1.5-3.11-.22-.43-.45-.85-.65-1.3-.33-.74-.56-1.48-1.19-2-.19-.16-.55-.29-.78-.16-.45.26-.87.63-1.3.93-.49.34-.97.68-1.45,1.03-.95.68-1.9,1.38-2.84,2.08-1.86,1.4-3.7,2.84-5.5,4.33-2.45,2.03-4.84,4.15-7.19,6.3-.31.28-.62.55-.91.84-.56.55-.85,1.2-.96,1.98-.17,1.15-.08,2.32.02,3.46.11,1.14.23,2.32.38,3.48.31,2.35.71,4.69,1.36,6.96.52,1.8,1.15,3.56,1.75,5.34.82,2.45,1.65,4.9,2.43,7.36.04.13.08.25.11.38.11.39,1.26.78,1.1.21-.66-2.3-1.48-4.55-2.23-6.82-.49-1.47-1-2.94-1.48-4.42-.73-2.23-1.27-4.49-1.64-6.82-.18-1.16-.33-2.33-.46-3.5-.12-1.17-.26-2.29-.29-3.44-.02-.99-.04-2.14.52-2.99.22-.34.52-.6.81-.86,2.11-1.95,4.26-3.87,6.46-5.72,3.56-3.01,7.26-5.83,11.05-8.49.41-.29.82-.65,1.25-.9l-.78-.16c.2.17.32.54.41.78.11.26.21.53.33.79.21.45.44.89.67,1.32.48.95,1.03,1.9,1.4,2.9.1.27.44.46.7.51.19.04.5-.01.4-.29h0Z"/>
      <path class="cls-6" d="M244.05,210.24c-2.18.8-4.34,1.65-6.44,2.65-1.05.49-2.08,1.02-3.1,1.57-.55.3-1.09.6-1.63.91-.5.29-1,.58-1.41.99-.82.8-1.21,1.87-1.21,3.01,0,1.41.04,2.82.06,4.23.05,2.85.11,5.7.18,8.54.08,3.21.17,6.42.28,9.63.01.44,1.15.88,1.14.41-.19-5.61-.33-11.22-.44-16.83-.02-1.39-.05-2.78-.07-4.18,0-.65-.06-1.32,0-1.98.05-.52.25-.98.51-1.43.63-1.07,1.77-1.6,2.79-2.17,1.03-.57,2.03-1.1,3.06-1.61,2.31-1.13,4.68-2.08,7.08-2.96.54-.2-.42-.93-.8-.8h0Z"/>
      <path class="cls-6" d="M235.36,214.12c.73,3.84,1.26,7.72,1.99,11.56.05.29.32.47.57.56.11.04.62.13.56-.15-.73-3.84-1.26-7.72-1.99-11.56-.05-.29-.32-.47-.57-.56-.11-.04-.62-.13-.56.15Z"/>
      <path class="cls-6" d="M252.01,197.42c-3.44,5.32-6.93,10.63-9.84,16.28-1.43,2.78-2.71,5.64-3.74,8.61-1.03,2.96-1.88,6.14-2.75,9.24-.98,3.49-2.01,6.97-3.48,10.28-.19.42.92.99,1.1.58,2.61-5.92,3.84-12.32,5.86-18.45,2.02-6.13,4.96-11.61,8.24-16.98,1.84-3.03,3.78-5.99,5.7-8.97.23-.36-.84-.98-1.1-.58h0Z"/>
      <path class="cls-6" d="M252.96,198.11c3.25-.62,6.49-1.23,9.74-1.85l-.95-.51c1.3,3.69,3.19,7.15,5.57,10.19.68.87,1.4,1.71,2.16,2.51l-.09-.46c-3.89,3.69-7.68,7.49-11.21,11.55-3.31,3.81-6.34,7.86-9.08,12.12-1.7,2.64-3.3,5.36-4.82,8.12-.21.39.88.99,1.1.58,2.6-4.71,5.42-9.29,8.6-13.61,2.98-4.06,6.27-7.85,9.73-11.46,2.17-2.25,4.4-4.44,6.67-6.58.16-.15.03-.34-.09-.46-2.55-2.71-4.66-5.86-6.23-9.29-.45-.98-.85-1.97-1.21-2.99-.12-.34-.62-.57-.95-.51-3.25.62-6.49,1.23-9.74,1.85-.28.05-.13.37,0,.5.2.2.52.35.8.3h0Z"/>
      <path class="cls-6" d="M266.3,209.97c.06-.59.09-1.23-.16-1.77-.3-.66-.99-1.09-1.69-1.12-.7-.03-1.31.39-1.85.8-.58.44-1.15.89-1.7,1.35-1.84,1.55-3.5,3.31-4.95,5.27-1.44,1.96-2.67,4.09-3.9,6.19-1.59,2.74-3.24,5.45-4.75,8.23-1.83,3.36-3.51,6.83-4.82,10.44-.16.44.95.99,1.1.58,2.21-6.05,5.43-11.58,8.66-17.1,2.34-4,4.59-8.08,7.9-11.32,1.03-1.01,2.14-1.94,3.28-2.81.3-.23.61-.47.94-.65.15-.07.3-.14.46-.17.06-.01.13-.03.18-.01.06.02-.02,0-.02-.02.16.14.19.48.21.68.03.33,0,.66-.03.99-.05.42,1.08.91,1.14.41h0Z"/>
      <path class="cls-6" d="M226.67,256.59c-6.11,3.83-12,8.05-17.71,12.5-1.42,1.11-2.83,2.23-4.22,3.37-.65.53-1.29,1.07-1.93,1.61s-1.29,1.06-1.84,1.69c-1.29,1.49-1.39,3.61-1.83,5.47-.44,1.86-1.03,3.86-1.83,5.69-1.35,3.09-3.43,5.93-6.31,7.61-.7.41-1.43.66-2.16.98s-1.22.88-1.11,1.71.63,1.44,1.17,1.98c.49.51,1.05,1.03,1.02,1.82-.03.66-.47,1.23-.88,1.71-.45.52-.95,1.01-1.34,1.59-.96,1.45-.46,3.09.29,4.47.91,1.69,1.98,3.3,2.98,4.92,1,1.63,2.1,3.38,3.15,5.06,4.26,6.78,8.64,13.48,13.12,20.09.55.81,1.1,1.62,1.65,2.43.16.23.49.43.78.42.25,0,.36-.19.21-.41-4.46-6.53-8.82-13.14-13.07-19.83-2.12-3.33-4.2-6.68-6.27-10.05-.49-.8-1-1.59-1.45-2.4-.4-.71-.76-1.5-.81-2.35-.08-1.6,1.23-2.54,2.1-3.66.39-.5.7-1.08.67-1.74-.03-.74-.46-1.33-.93-1.85-.51-.56-1.21-1.09-1.27-1.93-.07-.94.85-1.22,1.53-1.48,2.94-1.15,5.3-3.54,6.92-6.31.96-1.63,1.67-3.41,2.22-5.23.56-1.81.93-3.77,1.36-5.67.22-.97.6-1.83,1.27-2.55.58-.62,1.25-1.15,1.9-1.69,1.33-1.12,2.67-2.22,4.03-3.3,5.64-4.49,11.47-8.73,17.49-12.63.69-.45,1.39-.89,2.09-1.33.38-.24-.61-.95-.98-.72Z"/>
      <path class="cls-6" d="M244.75,252.91c2.11,7.48,4.82,14.74,7.57,21.97.69,1.81,1.39,3.62,2.08,5.43.33.86.65,1.72.98,2.58.16.41.3.83.46,1.23.22.54.65.63,1.17.72,3.97.71,7.92,1.55,11.84,2.52,3.91.98,7.75,2.07,11.57,3.3,1.93.62,3.86,1.28,5.77,1.97.96.35,1.91.7,2.86,1.06.45.17.9.34,1.35.52.24.09.47.18.71.28.21.08.31.06.24.34-.1.38-.46.74-.68,1.05-.33.46-.66.92-.98,1.38-.62.87-1.24,1.74-1.86,2.61-1.23,1.72-2.45,3.44-3.68,5.15-2.47,3.46-4.94,6.92-7.41,10.38-2.47,3.46-4.94,6.92-7.41,10.38-.62.87-1.24,1.74-1.86,2.61-.62.87-1.25,1.65-1.76,2.55-.42.73-.75,1.61-.59,2.46.14.7.58,1.3,1.14,1.69s1.26.6,1.91.34l-.89-.76c-3.65,2.42-7.37,4.73-11.15,6.93-1.86,1.08-3.74,2.14-5.64,3.17-.45.24-.9.5-1.36.73-.17.08-.37.18-.56.19-.32.02-.53-.2-.74-.4-.79-.74-1.55-1.52-2.32-2.27-1.8-1.77-3.61-3.53-5.41-5.3-.18-.18-.54-.39-.8-.3-.27.09-.15.36,0,.5,1.72,1.69,3.44,3.37,5.17,5.06.84.82,1.67,1.65,2.52,2.46.72.69,1.64,1.32,2.67.98.46-.15.89-.42,1.31-.65.54-.29,1.08-.59,1.62-.88,1.03-.57,2.05-1.14,3.08-1.72,1.99-1.14,3.97-2.31,5.93-3.51,2.25-1.38,4.47-2.8,6.67-4.25.4-.27-.6-.88-.89-.76-1.04.42-1.25-1.19-1.07-1.92.35-1.37,1.42-2.55,2.22-3.66,1.73-2.42,3.45-4.84,5.18-7.26,3.49-4.89,6.97-9.77,10.46-14.66,1.73-2.42,3.45-4.84,5.18-7.26.88-1.23,1.76-2.47,2.64-3.7.32-.44.71-.93.43-1.49-.26-.5-.82-.72-1.3-.91-5.28-2.09-10.66-3.91-16.11-5.48-5.45-1.57-11.02-2.9-16.61-3.95-.69-.13-1.39-.26-2.08-.38l.7.51c-3.07-8.16-6.31-16.25-9.05-24.54-.75-2.25-1.45-4.52-2.1-6.81-.11-.39-1.25-.78-1.1-.21h0Z"/>
      <path class="cls-6" d="M238.44,337.47c-1.7.76-3.51,1.25-5.31,1.66-2.19.51-4.4.88-6.61,1.18-4.26.58-8.57.92-12.86.9-.88,0-1.75-.02-2.62-.08-.19-.01-.38-.03-.57-.04-.03,0-.06,0-.09,0s-.06,0-.09,0c.05,0,.06,0,.02,0-.08,0-.15-.02-.23-.03-.29-.03-.58-.08-.86-.14-.2-.04-.47.02-.4.29.08.27.46.45.7.51,1.31.28,2.68.31,4.02.33,1.98.03,3.96-.04,5.94-.16,4.59-.28,9.19-.8,13.7-1.78,2.12-.46,4.24-1.02,6.24-1.91.26-.11-.11-.49-.2-.56-.22-.16-.52-.28-.78-.16h0Z"/>
      <path class="cls-6" d="M234.82,252.68c2.42-2.5,4.92-4.93,7.47-7.28.36-.33-.67-1-.98-.72-2.56,2.35-5.05,4.78-7.47,7.28-.35.36.69,1.02.98.72Z"/>
      <path class="cls-6" d="M237.49,250.32c-.39.56-.76,1.13-.89,1.81-.1.56.04,1.16.39,1.59.53.65,1.29.81,2.07.88.69.06,1.39.11,2.09.13.25,0,.34-.2.21-.41-.16-.24-.49-.4-.78-.42-.58-.02-1.17-.05-1.74-.1-.26-.02-.53-.04-.79-.09-.04,0-.06-.02-.09-.03-.07,0,0-.01.02.02-.08-.11,0,.06-.05-.05.04.07-.05-.07-.05-.07-.19-.31-.2-.79-.1-1.17.15-.56.49-1.05.82-1.52.15-.22-.27-.51-.4-.58-.19-.09-.54-.23-.7,0h0Z"/>
      <path class="cls-6" d="M228.14,261.64c-4.8,4.09-9.6,8.17-14.4,12.26-1.36,1.16-2.72,2.32-4.09,3.48-.37.31.66.99.98.72,4.8-4.09,9.6-8.17,14.4-12.26,1.36-1.16,2.72-2.32,4.09-3.48.37-.31-.66-.99-.98-.72Z"/>
      <path class="cls-6" d="M233.01,262.68c-2.05,4.24-4.01,8.53-5.87,12.86-.53,1.23-1.05,2.47-1.57,3.72-.18.43.93.99,1.1.58,1.8-4.36,3.71-8.67,5.7-12.94.57-1.21,1.15-2.43,1.73-3.64.2-.41-.9-.99-1.1-.58h0Z"/>
      <path class="cls-6" d="M235.03,264.17c-.85,3.59-1.46,7.24-1.81,10.91-.04.43,1.09.91,1.14.41.35-3.61.94-7.2,1.77-10.73.11-.47-1.01-.97-1.1-.58h0Z"/>
      <path class="cls-6" d="M240.45,260.53c.8,5.88,1.7,11.75,2.72,17.59,1.02,5.84,2.16,11.68,3.4,17.48.7,3.26,1.44,6.51,2.21,9.75.09.39,1.23.79,1.1.21-1.36-5.74-2.62-11.51-3.76-17.32-1.14-5.79-2.17-11.61-3.09-17.45-.52-3.28-.99-6.56-1.44-9.85-.04-.29-.33-.48-.57-.56-.12-.04-.6-.13-.56.15h0Z"/>
      <path class="cls-6" d="M243.73,334.12c2.01-4.97,3.64-10.09,4.85-15.32.07-.31.14-.62.21-.93.05-.21.06-.3.24-.4.13-.08.28-.13.42-.19.57-.26,1.14-.51,1.72-.76,1.12-.48,2.25-.95,3.39-1.39,2.29-.9,4.61-1.72,6.94-2.46,2.62-.83,5.26-1.55,7.92-2.18.28-.06.13-.37,0-.5-.19-.19-.53-.36-.8-.3-4.8,1.13-9.53,2.58-14.16,4.36-1.16.44-2.31.91-3.45,1.39-.57.24-1.13.48-1.69.73-.27.12-.53.24-.8.36-.14.06-.28.13-.42.19-.2.09-.29.1-.35.31-.19.65-.3,1.33-.46,1.98-.16.65-.32,1.32-.5,1.97-.34,1.31-.71,2.62-1.11,3.92-.89,2.92-1.91,5.8-3.06,8.63-.17.43.94.99,1.1.58h0Z"/>
      <path class="cls-6" d="M201.34,299.51c.87,4.54,1.88,9.04,3.03,13.5,1.15,4.46,2.45,8.89,3.89,13.26.81,2.47,1.67,4.92,2.58,7.36.1.27.44.46.7.51.19.04.5-.01.4-.29-1.59-4.29-3.04-8.63-4.36-13.03-1.31-4.4-2.47-8.8-3.5-13.26-.58-2.53-1.12-5.07-1.6-7.63-.05-.29-.32-.47-.57-.56-.11-.04-.62-.13-.56.15h0Z"/>
    </g>
    <g>
      <path class="cls-9" d="M218.91,326.02c1.06-.69,1.96-1.78,2.56-3.09-1.84-4.09-4.21-7.81-6.98-10.95-.14-.16-.28-.31-.46-.37-.2-.06-.4.03-.59.13-1.11.6-2.01,1.8-2.42,3.25.93,1.11,1.85,2.23,2.78,3.35,1.62,1.96,3.29,3.98,4.24,6.54.26.69.49,1.38.88,1.14h0Z"/>
      <path class="cls-10" d="M186.72,312.2s-21.31,15.42-35.51,32.29c-3.87,4.6-8.69,10.24-10.85,26.86-.37,2.86-1.01,20.22,17.11,31.91,7.83,5.05,15.68-2.19,17.33-3.93,10.63-11.17,21.83-26.45,29.09-35.26,4.94-5.99,15.37-20.99,16.36-25.5,1.29-5.85-2.21-14.29-5.43-18.92-3.94-5.66-8.33-9.92-14.05-11.69s-14.06,4.25-14.06,4.25h0Z"/>
      <path class="cls-8" d="M197.97,370.91c.84-1.11,1.46-2.55,1.7-4.08,2.15-13.66-2.05-21.66-6.66-27.6-8.51-10.95-14.65-11.92-16.24-12.02-2.8-.17-6.44.52-9.35,1.49,3.02-3.38,13.51-12.08,13.51-12.08,0,0,6.07-3.82,14.85,1.25,3.7,2.13,6.5,5.86,9.16,9.8,2.67,3.94,5.1,8.31,5.72,13.41.38,3.1,1.19,7.83-1.97,15.99-1.78,4.6-5.26,7.72-8.04,11.41-.77,1.02-1.54,2.04-2.68,2.43h0Z"/>
      <path class="cls-6" d="M152.05,342.18c-3.47,3.6-6.46,7.97-8.61,13-1.88,4.41-3.13,9.28-3.5,14.33-.33,4.52.04,9.2,1.25,13.53.58,2.06,1.34,4.04,2.29,5.87,1.18,2.28,2.68,4.25,4.2,6.16,3.19,3.98,6.9,7.63,11.21,9.27,3.76,1.43,7.62,1.07,11.2-.75,4.48-2.28,8.12-6.39,11.64-10.46,4.02-4.65,7.95-9.41,11.8-14.28,3.89-4.92,7.7-9.95,11.42-15.08,3.85-5.3,7.62-10.71,11.32-16.19.94-1.39,1.87-2.78,2.8-4.17.32-.48-.96-1.04-1.25-.59-3.66,5.5-7.38,10.94-11.18,16.28-3.64,5.11-7.34,10.13-11.14,15.05-3.79,4.92-7.52,9.54-11.4,14.16-1.96,2.33-3.93,4.65-5.94,6.92-1.79,2.01-3.68,3.89-5.73,5.45-3.17,2.42-6.8,4.07-10.59,3.58-3.93-.52-7.49-3.29-10.5-6.49-1.88-2-3.7-4.21-5.27-6.61-1.07-1.63-1.97-3.43-2.69-5.34-1.5-4.02-2.21-8.46-2.21-12.86,0-4.83.85-9.61,2.33-14,1.69-5.01,4.22-9.49,7.26-13.27.81-1.01,1.67-1.97,2.55-2.89.23-.24-.26-.59-.38-.66-.28-.13-.63-.18-.87.06h0Z"/>
      <path class="cls-6" d="M218.77,343.86c3.88-5.12,2.39-12.95-.15-18.64-1.53-3.42-3.55-6.4-5.86-8.99-2.54-2.84-5.31-5.4-8.39-7.16s-6.19-2.51-9.36-1.88c-1.6.32-3.07,1.07-4.52,1.94-1.46.88-2.89,1.83-4.31,2.82-5.92,4.14-11.55,8.93-17.06,13.9-5.08,4.57-10.14,9.16-14.97,14.15-.7.72-1.4,1.46-2.1,2.19-.23.24.26.59.38.66.27.13.63.19.87-.06,2.41-2.55,4.86-5.04,7.38-7.44,2.4-2.29,4.84-4.5,7.28-6.71,5.34-4.84,10.74-9.59,16.4-13.83,2.74-2.05,5.54-4.07,8.47-5.66,2.73-1.48,5.76-1.6,8.64-.52,3.03,1.14,5.78,3.35,8.26,5.83,2.48,2.48,4.67,5.15,6.45,8.4,2.81,5.15,5.24,12.86,2.43,18.63-.31.65-.68,1.24-1.1,1.78-.33.43.93,1.01,1.25.59h0Z"/>
      <path class="cls-6" d="M167.78,401.46c2.49-.76,4.82-2.21,6.72-4.38,1.77-2.02,3.08-4.62,3.88-7.49,1.79-6.39.91-13.65-1.41-19.77-2.49-6.59-6.63-12.49-11.87-15.6-4.19-2.49-9.09-3.24-13.41-1.2-1.95.92-3.72,2.39-5.13,4.34-1.46,2.03-2.48,4.55-3.03,7.23-.15.71-.26,1.43-.34,2.15-.07.61,1.26.96,1.33.38.32-2.74,1.06-5.37,2.3-7.61,1.14-2.06,2.65-3.72,4.41-4.87,1.76-1.15,3.72-1.76,5.7-1.85,2.1-.1,4.19.39,6.19,1.35,5.01,2.41,9.02,7.61,11.67,13.49,2.65,5.88,3.96,12.96,2.72,19.54-1.11,5.87-4.31,10.63-8.74,12.72-.6.28-1.23.52-1.85.71-.27.08-.3.37-.09.6.24.26.65.36.94.27h0Z"/>
      <path class="cls-6" d="M198.17,373.31c1.97-5.01,3.18-10.54,2.7-16.25-.36-4.33-1.71-8.42-3.6-12.05-1.88-3.59-4.23-6.85-6.76-9.69-2.94-3.3-6.34-6.08-10.08-7.54-4.14-1.61-8.46-1.5-12.45.41-.55.26-1.09.55-1.62.87-.28.17-.02.53.15.65.27.19.65.28.93.11,3.65-2.18,7.71-2.88,11.7-1.61,3.56,1.14,6.8,3.65,9.61,6.65,2.55,2.71,4.87,5.87,6.79,9.31,1.92,3.45,3.27,7.11,3.83,11.15.71,5.19-.08,10.44-1.65,15.17-.25.75-.52,1.49-.81,2.23-.13.33.17.55.38.66.18.08.74.25.87-.06h0Z"/>
      <path class="cls-6" d="M208.52,358.8c1.85-4.7,3.3-9.91,3.07-15.3-.17-3.91-1.26-7.55-2.96-10.83-.82-1.58-1.75-3.05-2.71-4.48-1.18-1.75-2.43-3.43-3.76-5-2.72-3.2-5.87-5.95-9.41-7.34-4.02-1.58-8.18-1.28-12.04.59-.56.27-1.1.57-1.64.89-.28.17-.02.53.15.65.27.19.65.28.93.11,3.54-2.12,7.5-3.02,11.4-1.77,3.35,1.07,6.34,3.56,8.92,6.46,2.39,2.68,4.6,5.77,6.45,9.09,1.68,3.01,2.89,6.38,3.25,10.04.47,4.87-.58,9.74-2.09,14.11-.26.74-.53,1.48-.82,2.21-.13.33.17.55.38.66.18.08.74.25.87-.06Z"/>
      <path class="cls-6" d="M219.4,326.83c.91-1.15,1.82-2.3,2.72-3.44.04-.06.06-.14.03-.22-1.9-4.82-4.59-9.09-7.9-12.47-.26-.27-.88-.49-1.14-.13-.98,1.33-1.88,2.75-2.86,4.07-.33.44.94,1.02,1.25.59.98-1.33,1.88-2.75,2.86-4.07l-1.14-.13c3.17,3.25,5.79,7.36,7.61,12l.03-.22c-.91,1.15-1.82,2.3-2.72,3.44-.21.26.24.58.38.66.25.12.65.2.87-.06h0Z"/>
    </g>
    <g>
      <path class="cls-8" d="M369,166.43c-11.81,7.26-23.01,13.14-35.27,19.48-12.1,6.26-24.05,12.82-36.01,19.39-7.4,4.06-15.36,7.7-21.18,13.95-6.7,7.2-5.74,14.6-3.37,20.11,4.04,9.39,11.22,14.88,14.2,15.83,7.55,2.4,17.17-2.42,23.64-6.72,22.86-15.17,42.59-27.39,64.98-42.25,3.84-2.55,11.34-6.18,14.7-9.39,3.35-3.21,5.47-9.5,5.28-13.96-.32-7.67-2.73-12.85-6.31-14.99-5.9-3.52-15.29-4.75-20.66-1.45h0Z"/>
      <path class="cls-9" d="M319.12,194.29c-9.45,4.64-18.76,9.65-27.88,15,2.33.21,6.52-.03,8.49,1.13,4.52,2.68,13.83,8.7,18.16,21.57.76,2.27,2.06,10.8-3.34,14.81,4.37-3.52,26.33-18.73,26.33-18.73,0,0,4.25-7.79-1.4-18.99-7.29-14.45-21.11-15.15-20.37-14.79h0Z"/>
      <path class="cls-9" d="M271.9,235.19c-1.87,1.2-3.75,2.4-5.63,3.61-1.04.67-2.16,1.42-2.6,2.57-.24.62-.26,1.28-.23,1.92.1,2.1.71,4.13,1.74,5.87.88,1.49,2.06,2.75,3.01,4.19.51.77,2.49,2.15,5.35,3.91.5.31,1.22,0,1.81-.21.79-.28,1.47-.84,2.13-1.38,1.64-1.35,3.31-2.73,4.48-4.52.42-.65.78-1.35.91-2.1.1-.57-.03-1.03-.07-1.6-.05-.93.37-8.65-9.82-12.68-.58-.23-1.35.17-1.08.42h0Z"/>
      <path class="cls-6" d="M281.71,251.99c2.43,2.32,5.29,4.28,8.75,4.73,1.76.23,3.54,0,5.31-.36,1.7-.34,3.39-.85,5.03-1.49,3.31-1.28,6.43-3.04,9.44-4.99,1.51-.98,2.99-2.01,4.47-3.05,1.68-1.18,3.38-2.3,5.12-3.39,3.76-2.35,7.52-4.69,11.21-7.19,3.68-2.5,7.31-5.06,10.99-7.53,3.76-2.52,7.61-4.88,11.4-7.33,3.77-2.43,7.52-4.88,11.3-7.29,7.43-4.74,14.86-9.51,22.39-14.06.95-.57,1.89-1.14,2.84-1.7.43-.26-.31-1.47-.79-1.19-7.43,4.38-14.69,9.1-22,13.7-7.5,4.72-14.89,9.62-22.38,14.34-3.73,2.35-7.34,4.9-10.98,7.41-3.63,2.51-7.29,4.96-11.02,7.29-1.79,1.12-3.59,2.23-5.38,3.36-1.62,1.02-3.16,2.15-4.73,3.24-2.93,2.04-5.94,4.01-9.11,5.6-3.17,1.59-6.5,2.76-9.93,3.25-1.8.26-3.53.23-5.24-.25-1.61-.45-3.08-1.26-4.4-2.25-.67-.5-1.3-1.05-1.91-1.63-.15-.14-.47-.43-.66-.14-.17.25.11.74.27.89h0Z"/>
      <path class="cls-6" d="M368.61,165.83c-3.6,2.2-7.27,4.28-10.9,6.43-1.83,1.09-3.65,2.19-5.51,3.22-1.86,1.03-3.66,2.02-5.49,3.02-7.38,4.04-14.81,7.98-22.23,11.93-7.42,3.95-14.74,7.85-22.06,11.88-3.67,2.02-7.34,4.07-10.98,6.16-1.7.97-3.45,1.78-5.2,2.64-1.76.86-3.37,1.97-4.97,3.13-3.07,2.25-6.02,4.88-7.98,8.2-1.85,3.13-2.51,6.55-2.3,10.02.05.82.14,1.64.25,2.46.04.33.26.7.56.84.25.12.48,0,.44-.32-.44-3.39-.42-6.74,1.01-10.05,1.54-3.57,4.32-6.44,7.34-8.83,1.5-1.19,3.08-2.37,4.72-3.34,1.64-.97,3.39-1.65,5.07-2.51,1.82-.93,3.58-2.02,5.37-3.03,1.79-1.01,3.62-2.04,5.44-3.04,7.25-4.02,14.55-7.92,21.86-11.81,7.32-3.9,14.65-7.78,21.94-11.74,3.66-1.99,7.39-3.9,10.95-6.08,3.56-2.18,7.22-4.24,10.82-6.38.89-.53,1.79-1.07,2.67-1.61.43-.27-.32-1.48-.79-1.19h0Z"/>
      <path class="cls-6" d="M389.43,198.68c3.35-2.18,5.44-5.73,6.39-9.5,1.03-4.08.8-8.37-.25-12.26-.99-3.64-2.75-6.97-5.6-9.35-2.64-2.21-5.99-3.59-9.47-4.05-3.48-.45-7.26.02-10.64,1.63-.43.2-.84.43-1.25.66-.43.25.31,1.47.79,1.19,3.11-1.8,6.67-2.56,10.1-2.37,3.31.19,6.58,1.22,9.24,3.07,1.24.86,2.41,1.95,3.27,3.13.99,1.37,1.7,2.95,2.25,4.6,1.2,3.62,1.57,7.64.86,11.55-.65,3.63-2.35,7.24-5.32,9.64-.37.3-.76.58-1.16.84-.43.28.33,1.49.79,1.19h0Z"/>
      <path class="cls-6" d="M315.01,246.68c3.54-2.54,4.23-7.31,3.9-11.16-.41-4.87-2.37-9.32-5.15-13.1-2.15-2.92-4.54-5.66-7.26-8.04-2.71-2.38-5.67-4.39-9.14-5.35-3.22-.89-6.7-.54-9.72,1.39-.4.25-.78.53-1.15.82-.43.33.37,1.51.79,1.19,1.39-1.09,2.96-1.92,4.64-2.32,1.54-.37,3.11-.38,4.62-.1,3.29.6,6.19,2.38,8.71,4.42,2.68,2.16,5.02,4.72,7.14,7.45,0,0,.09.11.02.03.02.03.05.06.07.09.06.08.12.16.18.24.13.17.25.34.38.51.22.3.44.6.66.91.65.92,1.25,1.89,1.77,2.91,1.04,2.06,1.81,4.29,2.21,6.62.62,3.66.52,8.42-2.42,11.42-.32.33-.67.62-1.04.89-.43.31.35,1.5.79,1.19Z"/>
      <path class="cls-6" d="M339.5,230.52c3.06-2.2,3.72-6.28,3.63-9.65-.1-4.06-1.24-8.15-3.11-11.61-.85-1.57-1.88-3.04-2.94-4.46-1.07-1.43-2.2-2.8-3.43-4.08-2.38-2.46-5.16-4.62-8.46-5.75-3.3-1.13-6.82-.92-10.17.49-.47.2-.93.42-1.39.66s.29,1.45.79,1.19c3.16-1.65,6.63-2.25,9.93-1.44,3.12.77,5.8,2.62,8.07,4.78,2.39,2.27,4.37,4.89,6.15,7.67,1.95,3.04,3.1,6.77,3.45,10.48.3,3.18.08,7.22-2.43,9.76-.28.28-.58.53-.9.76-.43.31.35,1.5.79,1.19h0Z"/>
      <path class="cls-6" d="M378.35,201.36c2.23-4.48,1.55-9.83-.04-14.09-1.84-4.93-5.17-9.46-9.82-11.91-2.54-1.34-5.45-1.95-8.42-1.62-.52.06.09,1.32.6,1.27,5.03-.56,9.54,1.75,12.7,5.31,3.04,3.44,5.08,8.08,5.36,12.95.13,2.36-.19,4.85-1.29,7.06-.23.46.68,1.53.93,1.03h0Z"/>
      <path class="cls-6" d="M376.08,203.26c2.23-4.48,1.55-9.83-.04-14.09-1.84-4.93-5.17-9.46-9.82-11.91-2.54-1.34-5.45-1.95-8.42-1.62-.52.06.09,1.32.6,1.27,5.03-.56,9.54,1.75,12.7,5.31,3.15,3.57,5.08,8.08,5.36,12.94.13,2.36-.19,4.85-1.29,7.06-.23.46.68,1.53.93,1.03h0Z"/>
      <path class="cls-6" d="M282.05,252.27c2.48-2.22,1.63-6.06.67-8.56-.67-1.73-1.61-3.32-2.73-4.75-1.05-1.35-2.31-2.57-3.78-3.44-1.33-.79-2.97-1.31-4.59-.84-.56.16.12,1.4.6,1.27,1.27-.37,2.53-.09,3.61.46,1.32.67,2.38,1.64,3.33,2.76.95,1.12,1.83,2.51,2.48,3.99.56,1.29,1,2.73,1.03,4.24.03,1.29-.33,2.74-1.39,3.69-.41.37.41,1.53.79,1.19h0Z"/>
      <path class="cls-6" d="M275.08,256.31c.84-.93,1.03-2.15.98-3.32-.07-1.5-.54-2.96-1.12-4.29-.65-1.5-1.48-2.91-2.46-4.18-.93-1.21-1.97-2.36-3.23-3.23-1.03-.71-2.34-1.39-3.69-1.08-.55.13.11,1.38.6,1.27,1.01-.23,1.9.15,2.72.65.43.26.95.68,1.39,1.08.18.16.42.41.65.66.24.26.48.53.7.81.83,1.02,1.63,2.28,2.23,3.53.56,1.17,1.01,2.4,1.17,3.71.12,1.05.07,2.32-.73,3.21-.38.43.47,1.54.79,1.19h-.01Z"/>
      <path class="cls-6" d="M281.14,251.45c-2.26,1.69-4.52,3.38-6.78,5.08-.43.32.36,1.51.79,1.19,2.26-1.69,4.52-3.38,6.78-5.08.43-.32-.36-1.51-.79-1.19Z"/>
      <path class="cls-6" d="M271.33,234.59c-2.45,1.55-4.9,3.09-7.35,4.64-.43.27.33,1.48.79,1.19,2.45-1.55,4.9-3.09,7.35-4.64.43-.27-.33-1.48-.79-1.19Z"/>
      <path class="cls-6" d="M274.51,256.43c-1.23.14-2.35-.38-3.35-1-1.25-.78-2.34-1.89-3.32-3.08-.98-1.19-1.93-2.66-2.63-4.11-.64-1.32-1.15-2.7-1.3-4.18-.12-1.17,0-2.56.96-3.48.4-.39-.43-1.53-.79-1.19-.99.95-1.24,2.3-1.2,3.57.05,1.66.59,3.27,1.23,4.74.76,1.74,1.76,3.36,2.91,4.85,1.06,1.37,2.28,2.65,3.69,3.65,1.24.88,2.76,1.68,4.39,1.49.52-.06-.09-1.33-.6-1.27Z"/>
    </g>
    <g>
      <path class="cls-9" d="M29.51,385.39c-.12-13.63,1.43-27.8,5.25-40.5-10.28-4.49-12.58-7.49-12.58-7.49l-7.22,6.47s-.15,6.04-.22,6.73c-.07.69.61.93-.02,1.04-1.39.24-5.16-4.96-5.73-3.55-3.13,7.77-8.4,24.27-8.4,24.27,0,0,4.23,8.43,8.33,12.79,2.98,3.16,6.63,5.47,9.47,8.78.22.25.43.51.55.83.16.43.13.9.11,1.35-.18,3.39-.84,5.89.57,9.03.65,1.45,3.18,5.18,4.23,4.59,3.41-1.93-.45-7.06,8.92-7.29.93-.02,2.24-.33,3.46-4.8.99-3.65-2.47-9.85-3.76-11.52-.77-.99-2.6-.62-2.96-.73h0ZM14.65,361.46c-.25,4.36,2.26,10.7,2.05,14.55-1.86-1.61-4.58-5.19-6.42-7.4-.41-.49-.85-1.08-.81-1.72.03-.45.29-.83.55-1.17,1.21-1.64,2.41-3.28,3.62-4.92.15-.2.34-.43.59-.38.38.06.45.63.43,1.04h0Z"/>
      <path class="cls-9" d="M23.11,409.64c-4.37,8.18-8.29,17.62-10.88,26.75-.41,1.44-.8,2.93-.78,4.47.05,2.97,1.61,5.73,2.4,8.63,1.22,4.49.48,9.44-1.96,13.03-.57.83-1.25,1.9-.74,2.86.64,1.2,2.4.75,3.38,1.65,1.23,1.13-.12,3.85.06,5.56.23,2.21,2.75,3.02,4.57,4.1,9.74,5.75,21.02,12.87,31.17,17.55.91.42,18.57-9.83,23.49-17.79.39-.63,9.59,2.54,12,2.81,4.34-6.31,7.62-12.82,10.4-19.36-.55.8-2.43-.09-2.85-1.05s-.04-2.01-.01-3.04c.4-13.73,2.94-44.08,2.94-44.08,0,0-4.84-.21-17.08,2.86-10.14,2.54-17.42,5.21-17.42,5.21,0,0-7.77-6.21-9.24-7.64-5.43-5.26-11.04-9.93-16.64-15.35-.41,1.67.2,2.23-.7,3.62-.9,1.4-3.51,2.52-5.12,2.35-.72-.08-1.79.12-2.5.24-1.58.26-1.66,2.92-2.06,4.6-.4,1.68-1.18,2.95-2.45,2.03h0Z"/>
      <path class="cls-6" d="M19.5,393.4c-2.1,3.81-2.01,8.98.1,13.05,1.01,1.94,2.76,4.26,4.98,3.46,1.54-.55,1.77-2.58,2.21-4.06.24-.82.55-1.68,1.2-2.2.88-.71,2.17-.53,3.23-.6,1.16-.07,2.25-.34,3.19-1.06.8-.61,1.41-1.47,1.84-2.43.97-2.19.89-4.7.14-7.07-.45-1.43-1.11-2.77-1.85-4.06-.38-.66-.79-1.31-1.2-1.96-.18-.29-.37-.57-.55-.85-.1-.15-.19-.33-.32-.43-.18-.13-.42-.13-.62-.12-4.46.32-8.57,2.89-10.91,6.94-.28.49-.54,1-.76,1.52-.18.43,1.01.56,1.18.16,1.51-3.52,4.36-6.21,7.77-7.38.93-.32,1.91-.52,2.9-.59l-.6-.24c2.19,3.34,4.74,7.22,4.3,11.42-.17,1.61-.78,3.2-1.84,4.28-.49.49-1.08.87-1.74,1.05-.82.22-1.71.14-2.56.2-.89.07-1.8.22-2.53.78-.5.38-.85.93-1.11,1.53-.48,1.14-.62,2.45-1.14,3.57-.19.42-.49.86-.85,1-.11.04-.15.05-.22.06-.12.01-.24-.01-.36-.06-.34-.12-.64-.37-.91-.62-1.16-1.11-1.98-2.79-2.52-4.33-1.1-3.18-1.05-6.8.2-9.75.16-.37.33-.73.52-1.08.13-.24-.32-.38-.45-.4-.24-.03-.59,0-.73.24h0Z"/>
      <path class="cls-6" d="M15.12,351.89c-.87-.77-1.87-1.39-2.81-2.05-.4-.28-.8-.55-1.19-.85-.64-.5-1.21-1.06-1.99-1.21-.24-.05-.6,0-.73.24-.25.46-.41,1-.62,1.48-.24.55-.47,1.09-.7,1.64-.46,1.08-.9,2.18-1.33,3.27-.86,2.18-1.67,4.38-2.44,6.61-1.04,3.03-1.97,6.12-2.87,9.22-.12.4-.24.8-.34,1.21-.19.77-.11,1.5.19,2.26.44,1.12,1.09,2.13,1.75,3.1.66.97,1.35,1.97,2.06,2.94,1.43,1.96,2.93,3.87,4.61,5.59,1.33,1.36,2.74,2.64,4.12,3.94,1.91,1.8,3.82,3.59,5.7,5.42.09.09.19.19.29.28.29.29,1.44.08,1.02-.35-1.7-1.74-3.51-3.37-5.27-5.03-1.15-1.08-2.31-2.15-3.45-3.24-1.72-1.65-3.31-3.41-4.78-5.33-.73-.95-1.44-1.93-2.13-2.92-.69-.99-1.37-1.93-1.96-2.95-.51-.87-1.1-1.9-1.06-2.95.02-.42.13-.79.24-1.18.79-2.8,1.63-5.58,2.54-8.33,1.47-4.46,3.16-8.82,5-13.1.2-.47.36-.99.6-1.42l-.73.24c.25.05.53.33.73.5.22.18.44.37.67.55.4.3.81.58,1.22.86.88.61,1.81,1.2,2.62,1.92.22.2.59.19.84.11.17-.06.41-.26.19-.46h0Z"/>
      <path class="cls-6" d="M14.1,359.34c-1.42,1.79-2.8,3.63-4.06,5.56-.63.96-1.23,1.95-1.81,2.95-.31.54-.61,1.07-.91,1.62-.27.5-.54,1.02-.69,1.59-.28,1.12-.08,2.28.49,3.31.7,1.27,1.44,2.52,2.16,3.77,1.47,2.54,2.94,5.07,4.42,7.6,1.67,2.85,3.35,5.69,5.05,8.53.23.39,1.4.22,1.16-.19-2.96-4.95-5.88-9.92-8.77-14.92-.72-1.24-1.43-2.48-2.14-3.72-.33-.58-.71-1.16-.98-1.78-.22-.49-.28-1-.29-1.53,0-1.28.68-2.31,1.25-3.33.57-1.02,1.15-1.99,1.76-2.96,1.36-2.16,2.87-4.18,4.44-6.16.35-.44-.82-.63-1.07-.32h0Z"/>
      <path class="cls-6" d="M8.78,367.12c2.53,3.09,4.91,6.32,7.43,9.41.19.23.51.27.76.22.11-.02.58-.19.39-.41-2.53-3.09-4.91-6.32-7.43-9.41-.19-.23-.51-.27-.76-.22-.11.02-.58.19-.39.41Z"/>
      <path class="cls-6" d="M14.36,343.89c-.22,6.48-.49,12.98-.1,19.5.19,3.21.55,6.41,1.17,9.59.62,3.17,1.5,6.45,2.32,9.66.93,3.62,1.8,7.26,2.23,10.96.05.47,1.26.44,1.21-.02-.77-6.61-2.94-12.98-4.31-19.49-1.37-6.51-1.65-12.89-1.59-19.34.03-3.63.17-7.26.29-10.88.01-.43-1.2-.47-1.21.02h0Z"/>
      <path class="cls-6" d="M15.5,344.04c2.41-2.16,4.81-4.31,7.22-6.47h-1.05c2.93,2.69,6.24,4.87,9.74,6.43,1.01.45,2.03.84,3.06,1.19l-.3-.37c-1.41,5.24-2.69,10.53-3.61,15.92-.86,5.06-1.38,10.2-1.54,15.38-.1,3.22-.08,6.45.02,9.68.01.45,1.23.46,1.21-.02-.18-5.52-.11-11.03.39-16.49.47-5.12,1.32-10.16,2.42-15.11.69-3.1,1.47-6.16,2.29-9.21.06-.21-.15-.32-.3-.37-3.48-1.18-6.82-2.97-9.85-5.28-.86-.66-1.69-1.36-2.5-2.09-.27-.25-.8-.21-1.05.01-2.41,2.16-4.81,4.31-7.22,6.47-.21.19.08.4.25.45.27.08.61.06.82-.13h0Z"/>
      <path class="cls-6" d="M32.58,348.11c-.24-.56-.54-1.15-1.01-1.51-.58-.44-1.37-.49-1.97-.18-.6.32-.9,1-1.15,1.63-.27.68-.52,1.36-.75,2.06-.76,2.3-1.27,4.71-1.5,7.18-.23,2.47-.2,4.99-.17,7.5.03,3.25.01,6.49.14,9.75.15,3.93.48,7.87,1.18,11.77.09.48,1.29.42,1.21-.02-1.17-6.54-1.24-13.09-1.3-19.65-.04-4.75-.2-9.54.95-14.08.36-1.42.82-2.8,1.34-4.14.14-.36.27-.73.47-1.05.08-.14.18-.27.3-.38.04-.04.09-.09.15-.1.06-.01-.02,0-.03,0,.2.05.4.33.51.51.19.28.34.59.47.91.17.4,1.36.29,1.16-.19h0Z"/>
      <path class="cls-6" d="M22.71,409.61c-3.19,6.46-6.02,13.16-8.57,19.99-.63,1.7-1.25,3.4-1.84,5.12-.28.8-.55,1.6-.81,2.4s-.55,1.59-.69,2.43c-.34,1.97.64,3.94,1.2,5.82.56,1.89,1.07,3.98,1.31,6.02.41,3.44.1,7.03-1.48,9.96-.38.71-.87,1.3-1.32,1.95s-.59,1.39-.08,2.09,1.25.98,1.96,1.21c.67.21,1.39.41,1.76,1.14.31.61.22,1.34.11,1.97-.12.69-.3,1.38-.33,2.09-.08,1.78,1.16,3,2.48,3.88,1.61,1.07,3.3,1.99,4.95,2.96,1.65.97,3.44,2,5.16,3,6.95,3.99,13.95,7.86,21,11.59.86.46,1.73.91,2.59,1.37.25.13.63.14.86-.01.2-.13.2-.35-.03-.47-6.99-3.67-13.94-7.46-20.83-11.38-3.43-1.95-6.85-3.94-10.26-5.95-.81-.48-1.62-.93-2.41-1.44-.69-.44-1.39-.98-1.85-1.71-.87-1.4-.24-2.89-.07-4.33.07-.64.04-1.32-.31-1.89-.4-.65-1.05-.97-1.7-1.2-.7-.25-1.56-.39-2.03-1.11-.53-.81.1-1.52.54-2.09,1.89-2.49,2.67-5.8,2.63-9.09-.02-1.94-.31-3.89-.75-5.8-.44-1.91-1.11-3.85-1.69-5.77-.3-.98-.41-1.94-.21-2.92.18-.84.47-1.65.74-2.46.55-1.66,1.13-3.32,1.72-4.96,2.47-6.82,5.23-13.51,8.32-19.99.35-.75.72-1.49,1.08-2.23.2-.4-.99-.55-1.18-.16Z"/>
      <path class="cls-6" d="M35.99,397.38c5.5,5.68,11.39,10.88,17.3,16.02,1.48,1.29,2.97,2.57,4.45,3.86.7.61,1.41,1.22,2.11,1.83.34.29.66.59,1,.88.45.38.86.24,1.34.07,3.68-1.33,7.39-2.52,11.15-3.58,3.76-1.05,7.52-1.97,11.33-2.74,1.93-.39,3.86-.75,5.81-1.08.97-.16,1.95-.31,2.92-.46.46-.07.92-.13,1.38-.2.24-.03.49-.07.73-.1.22-.03.29-.1.37.19.1.4-.01.89-.04,1.28-.04.58-.09,1.15-.13,1.73-.08,1.09-.17,2.18-.25,3.27-.17,2.15-.33,4.3-.5,6.45-.34,4.33-.67,8.66-1.01,12.99-.34,4.33-.67,8.66-1.01,12.99-.08,1.09-.17,2.18-.25,3.27-.08,1.09-.22,2.1-.2,3.16.01.86.17,1.82.73,2.5.46.56,1.13.89,1.79.96s1.36-.08,1.77-.64l-1.12-.24c-1.85,3.98-3.8,7.9-5.86,11.73-1.02,1.89-2.06,3.77-3.13,5.63-.25.44-.5.89-.77,1.32-.1.16-.22.34-.37.45-.25.18-.54.08-.82,0-1.03-.28-2.05-.6-3.08-.9-2.39-.7-4.78-1.4-7.17-2.09-.24-.07-.64-.08-.82.13-.18.21.05.39.25.45,2.28.67,4.56,1.33,6.84,2,1.11.32,2.22.66,3.33.97.94.27,2.03.38,2.72-.43.31-.36.53-.82.77-1.23.31-.53.61-1.06.91-1.59.58-1.02,1.15-2.04,1.71-3.07,1.1-2.01,2.17-4.04,3.21-6.09,1.19-2.35,2.34-4.72,3.45-7.12.2-.44-.94-.49-1.12-.24-.66.9-1.64-.45-1.85-1.2-.39-1.4-.08-2.99.03-4.39.24-3.03.47-6.06.71-9.09.48-6.12.95-12.23,1.43-18.35.24-3.03.47-6.06.71-9.09.12-1.55.24-3.09.36-4.63.04-.55.13-1.19-.39-1.55-.46-.32-1.05-.25-1.54-.18-5.46.73-10.87,1.75-16.21,3.03-5.34,1.28-10.66,2.83-15.86,4.65-.64.22-1.29.45-1.93.69l.84.11c-6.64-5.82-13.39-11.5-19.82-17.6-1.75-1.66-3.47-3.35-5.16-5.09-.29-.3-1.44-.08-1.02.35h0Z"/>
      <path class="cls-6" d="M72.93,476.54c-1.04,1.52-2.31,2.85-3.61,4.11-1.57,1.54-3.24,2.97-4.94,4.33-3.28,2.63-6.71,5.06-10.3,7.16-.73.43-1.48.84-2.24,1.22-.17.08-.33.16-.5.24-.03.01-.05.02-.08.04s-.05.02-.08.04c.05-.02.05-.03.02,0-.07.03-.14.06-.21.09-.26.11-.52.21-.79.3-.19.06-.39.25-.19.46.2.2.61.18.84.11,1.23-.4,2.4-1.05,3.53-1.69,1.67-.95,3.29-1.99,4.89-3.07,3.7-2.51,7.29-5.26,10.57-8.37,1.54-1.46,3.03-3.01,4.26-4.8.16-.23-.34-.39-.45-.4-.26-.04-.57,0-.73.24h0Z"/>
      <path class="cls-6" d="M27.57,402.07c.78-3.45,1.65-6.86,2.61-10.24.14-.48-1.06-.57-1.18-.16-.97,3.38-1.84,6.79-2.61,10.24-.11.5,1.09.57,1.18.16Z"/>
      <path class="cls-6" d="M28.63,398.63c-.04.69-.08,1.39.17,2.07.19.55.61,1.02,1.12,1.24.77.33,1.48.09,2.17-.23.61-.28,1.22-.59,1.81-.92.21-.12.19-.35-.03-.47-.26-.14-.61-.12-.86.01-.5.27-1,.53-1.51.77-.23.11-.46.23-.71.31-.04.01-.07,0-.09.02-.06.03-.01-.01.03,0-.12-.06.04.05-.07-.02.07.04-.08-.04-.08-.04-.32-.19-.57-.61-.67-1-.15-.58-.11-1.19-.07-1.77.02-.27-.48-.33-.63-.32-.2,0-.57.06-.58.34h0Z"/>
      <path class="cls-6" d="M26.46,413.43c-1.97,6.04-3.94,12.09-5.92,18.13-.56,1.71-1.12,3.43-1.68,5.14-.15.46,1.05.57,1.18.16,1.97-6.04,3.94-12.09,5.92-18.13.56-1.71,1.12-3.43,1.68-5.14.15-.46-1.05-.57-1.18-.16Z"/>
      <path class="cls-6" d="M31.06,411.96c.4,4.83.91,9.65,1.51,14.46.17,1.37.36,2.74.54,4.12.06.47,1.27.43,1.21-.02-.67-4.81-1.23-9.63-1.69-14.45-.13-1.37-.25-2.75-.37-4.13-.04-.46-1.25-.45-1.21.02h0Z"/>
      <path class="cls-6" d="M33.49,412.3c1.09,3.65,2.4,7.23,3.93,10.71.18.4,1.36.28,1.16-.19-1.51-3.42-2.81-6.94-3.88-10.53-.14-.48-1.33-.37-1.21.02h0Z"/>
      <path class="cls-6" d="M36.2,406.35c3.6,4.9,7.29,9.72,11.06,14.47,3.77,4.75,7.64,9.44,11.57,14.04,2.21,2.59,4.45,5.14,6.71,7.68.28.31,1.43.1,1.02-.35-4.01-4.49-7.94-9.06-11.79-13.72-3.84-4.64-7.61-9.37-11.29-14.17-2.07-2.69-4.11-5.41-6.12-8.15-.18-.24-.52-.26-.76-.22-.12.02-.57.18-.39.41h0Z"/>
      <path class="cls-6" d="M75.69,470.92c-.8-5.46-2-10.87-3.59-16.17-.09-.31-.19-.63-.29-.94-.07-.21-.1-.3,0-.48.07-.13.17-.26.26-.38.35-.51.7-1.02,1.06-1.53.7-.99,1.41-1.96,2.14-2.93,1.47-1.94,2.99-3.82,4.58-5.64,1.77-2.04,3.62-3.99,5.53-5.87.2-.2-.07-.4-.25-.45-.26-.08-.62-.07-.82.13-3.45,3.38-6.68,7.03-9.66,10.91-.75.97-1.48,1.96-2.19,2.95-.35.5-.7.99-1.05,1.49-.16.24-.33.48-.49.71-.09.13-.17.25-.26.38-.12.18-.19.23-.14.45.16.68.41,1.34.61,2.01.19.67.39,1.34.57,2.02.37,1.35.71,2.71,1.03,4.07.71,3.07,1.3,6.16,1.75,9.27.07.47,1.28.43,1.21-.02h0Z"/>
      <path class="cls-6" d="M22.97,460.72c2.99,3.65,6.08,7.2,9.27,10.65,3.19,3.44,6.49,6.78,9.88,10,1.91,1.82,3.86,3.6,5.83,5.34.22.19.59.19.84.11.17-.06.41-.26.19-.46-3.47-3.07-6.86-6.26-10.15-9.57-3.29-3.3-6.46-6.69-9.55-10.2-1.75-1.99-3.47-4.01-5.15-6.07-.19-.23-.51-.27-.76-.22-.11.02-.58.19-.39.41h0Z"/>
    </g>
  </g>
  <g id="Layer_12" data-name="Layer 12">
    <path class="cls-4" d="M718.13,21.83l133.85,228.18c10.46,17.83,6.45,40.62-9.48,53.81l-432.75,358.25c-17.94,14.85-44.51,12.34-59.36-5.59l-100.59-121.51c-6.33-7.64-9.76-17.27-9.68-27.19l.99-135.02c.09-12.45,5.68-24.23,15.27-32.17L654.88,10.69c20.01-16.57,50.1-11.27,63.25,11.14Z"/>
    <ellipse class="cls-7" cx="616.83" cy="696" rx="70.51" ry="68.44"/>
    <path class="cls-5" d="M1077.46,499.08l8.2-177.09s174,3.85,196.86,19.96c22.87,16.11,144.21,125.97,104.85,307.99v55.75h-138.27l-7.67-60.67s-1.64-36.07-36.07-37.71-126.26,0-126.26,0v22.96h-14.76v59.24l-67.23-.2-26.24-44.27h-42.63v51.71l-191.85.76v-53.82l-52.47-.29s-65.59-80.35-141.02,0h-55.75v-43.79l562.44-3.77v-96.75h27.88Z"/>
    <path class="cls-3" d="M1271.32,382.14c-15.33-3.73-60.49-13.93-95.68-13.99-16.61-.03-30.14,13.32-30.14,29.93v43.19c0,11.94,7.09,22.73,18.05,27.47l123.28,53.3c3.75,1.62,7.79,2.46,11.88,2.46h13.35c21.49,0,36-21.98,27.51-41.72-14.27-33.2-35.68-76.87-55.85-94.31-3.56-3.08-7.82-5.22-12.39-6.33Z"/>
    <polygon class="cls-1" points="620.13 39.46 767.18 362.63 734.68 389.53 582.38 70.71 620.13 39.46"/>
    <ellipse class="cls-11" cx="616.33" cy="695.92" rx="35.36" ry="34.32"/>
    <ellipse class="cls-7" cx="617.21" cy="695.85" rx="17.74" ry="17.22"/>
    <ellipse class="cls-7" cx="1158.99" cy="696.34" rx="70.51" ry="68.44"/>
    <ellipse class="cls-11" cx="1158.49" cy="696.26" rx="35.36" ry="34.32"/>
    <ellipse class="cls-7" cx="1159.37" cy="696.19" rx="17.74" ry="17.22"/>
    <polygon class="cls-1" points="489.56 146.51 638.36 471.77 605.86 498.68 451.81 177.76 489.56 146.51"/>
    <polygon class="cls-1" points="353.15 259.44 501.95 584.7 469.45 611.61 315.4 290.69 353.15 259.44"/>
    <path class="cls-2" d="M1163.2,397.79s-.47-20.17,11.54-18.25c12.02,1.92,46.97,5.66,46.97,5.66"/>
    <path class="cls-2" d="M1318.63,501.12s-6.32,19.33-19.62,13.73c-13.3-5.61-52.61-20.16-52.61-20.16"/>
  </g>
</svg>