<?xml version="1.0" encoding="UTF-8"?>
<svg id="Layer_2" data-name="Layer 2" xmlns="http://www.w3.org/2000/svg" viewBox="0 0 975.45 661.28">
  <defs>
    <style>
      .cls-1 {
        fill: #246db1;
      }

      .cls-1, .cls-2, .cls-3, .cls-4, .cls-5 {
        stroke: #01242c;
        stroke-miterlimit: 10;
      }

      .cls-2 {
        fill: none;
      }

      .cls-6 {
        fill: #2d3365;
      }

      .cls-6, .cls-7, .cls-8, .cls-9, .cls-10, .cls-11 {
        stroke-width: 0px;
      }

      .cls-3, .cls-4, .cls-5 {
        stroke-width: 2px;
      }

      .cls-3, .cls-11 {
        fill: #b5edfe;
      }

      .cls-7 {
        fill: #01242c;
      }

      .cls-8 {
        fill: #4990ad;
      }

      .cls-4 {
        fill: #2493b1;
      }

      .cls-9 {
        fill: #bfeafb;
      }

      .cls-5 {
        fill: #193268;
      }

      .cls-10 {
        fill: #a4f4d2;
      }
    </style>
  </defs>
  <g id="Layer_12" data-name="Layer 12">
    <g>
      <path class="cls-9" d="M444.22,66.15c12.46-4.62,26.06-7.82,39.17-8.39.18-11.28,2.05-14.47,2.05-14.47l-8.7-4.74s-5.6,1.86-6.26,2.01c-.66.16-.62.89-.96.33-.75-1.24,2.57-6.56,1.07-6.63-8.33-.42-25.49.01-25.49.01,0,0-6.12,6.82-8.54,12.17-1.76,3.89-2.47,8.13-4.43,11.93-.15.29-.31.58-.55.8-.33.3-.78.42-1.2.55-3.18.95-5.72,1.15-8.07,3.53-1.08,1.1-3.53,4.74-2.59,5.55,3.08,2.62,6.31-2.76,10.1,6.09.38.88,1.17,2.03,5.73,1.71,3.73-.26,8.09-5.61,9.13-7.39.61-1.06-.43-2.68-.46-3.06h0ZM460.49,44.07c-4.09,1.21-8.95,5.69-12.57,6.76.77-2.31,3.01-6.08,4.33-8.57.29-.55.66-1.16,1.27-1.34.43-.12.87,0,1.28.13,1.97.61,3.93,1.21,5.9,1.82.25.08.52.19.58.43.09.38-.4.64-.79.75h0Z"/>
      <path class="cls-9" d="M419.52,68.07c-9.18-1.47-19.34-2.08-28.72-1.53-1.48.09-2.99.2-4.4.74-2.71,1.03-4.64,3.43-7,5.14-3.65,2.65-8.48,3.58-12.71,2.43-.98-.27-2.22-.56-2.9.24-.86,1.01.24,2.54-.22,3.77-.57,1.55-3.58,1.16-5.08,1.9-1.94.95-1.72,3.62-2.01,5.71-1.54,11.18-3.76,24.3-4.16,35.53-.04,1,16.14,14.45,25.33,16.52.73.16,1.34,9.98,2.02,12.37,7.45,2.05,14.69,3.03,21.75,3.52-.95-.26-.85-2.35-.13-3.06s1.83-.71,2.79-1.02c12.75-4.16,41.58-11.77,41.58-11.77,0,0-1.66-4.69-9.17-15.34-6.22-8.82-11.46-14.89-11.46-14.89,0,0,2.72-9.46,3.46-11.34,2.75-6.92,4.88-13.81,7.71-20.95-1.69.17-1.97.93-3.59.53-1.63-.4-3.66-2.51-4.12-4.1-.21-.72-.8-1.67-1.18-2.3-.85-1.42-3.31-.62-5.01-.44-1.7.18-3.16-.15-2.8-1.67h0Z"/>
      <path class="cls-6" d="M433.04,59.25c-4.3-.74-9.01,1.05-11.94,4.42-1.39,1.6-2.85,4.04-1.27,5.9,1.1,1.29,3.05.84,4.57.77.84-.04,1.76-.03,2.48.41.99.6,1.32,1.89,1.79,2.88.51,1.08,1.17,2.03,2.19,2.69.87.56,1.89.86,2.93.95,2.38.2,4.66-.7,6.54-2.2,1.14-.9,2.12-1.98,3.02-3.11.46-.58.9-1.18,1.33-1.79.19-.27.38-.54.57-.81.1-.14.23-.29.27-.45.05-.22-.04-.44-.13-.63-2-4.15-5.94-7.21-10.54-8.11-.56-.11-1.12-.18-1.69-.22-.46-.03-.13,1.15.3,1.18,3.81.28,7.37,2.11,9.75,4.97.65.78,1.21,1.65,1.65,2.57v-.65c-2.23,3.2-4.82,6.91-8.84,7.88-1.54.37-3.24.32-4.64-.34-.64-.3-1.22-.74-1.63-1.31-.51-.71-.79-1.58-1.17-2.37-.4-.83-.89-1.64-1.68-2.16-.54-.35-1.18-.51-1.83-.55-1.23-.08-2.48.21-3.71.1-.45-.04-.98-.19-1.25-.48-.08-.09-.11-.12-.14-.19-.06-.11-.08-.23-.08-.36-.02-.36.09-.73.22-1.07.57-1.48,1.8-2.81,3.01-3.83,2.5-2.1,5.83-3.25,9.03-3.04.4.03.8.08,1.19.14.28.05.23-.43.2-.56-.06-.24-.23-.57-.5-.62h0Z"/>
      <path class="cls-6" d="M469.45,41.36c.38-1.08.56-2.24.81-3.35.1-.47.2-.94.32-1.41.22-.78.51-1.5.35-2.3-.05-.24-.24-.57-.5-.62-.51-.09-1.07-.06-1.6-.1-.59-.04-1.18-.09-1.78-.13-1.17-.08-2.34-.14-3.51-.19-2.33-.1-4.66-.15-7-.14-3.18.01-6.37.15-9.56.31-.41.02-.83.04-1.24.07-.78.07-1.42.39-2,.92-.86.78-1.54,1.74-2.18,2.69-.64.95-1.29,1.94-1.91,2.93-1.25,2.01-2.43,4.08-3.36,6.24-.74,1.72-1.37,3.49-2.03,5.23-.92,2.41-1.83,4.83-2.79,7.23-.05.12-.1.25-.15.37-.16.37.48,1.4.71.86.95-2.19,1.74-4.46,2.59-6.69.55-1.45,1.09-2.91,1.66-4.36.85-2.19,1.86-4.28,3.06-6.32.6-1.01,1.22-2.01,1.86-2.99.65-.98,1.25-1.94,1.96-2.85.61-.78,1.33-1.68,2.3-1.98.39-.12.78-.13,1.17-.16,2.87-.17,5.75-.29,8.62-.33,4.66-.07,9.31.09,13.93.44.5.04,1.04.01,1.54.1l-.5-.62c.05.25-.1.62-.17.86-.08.27-.17.54-.24.82-.12.48-.22.96-.32,1.45-.23,1.04-.41,2.12-.76,3.13-.1.27.05.63.22.83.12.15.39.31.49.03h0Z"/>
      <path class="cls-6" d="M462.22,42.85c-2.19-.76-4.4-1.47-6.66-2.04-1.12-.28-2.26-.53-3.39-.75-.61-.12-1.22-.23-1.84-.33-.57-.09-1.14-.18-1.72-.13-1.14.1-2.12.68-2.85,1.56-.9,1.09-1.76,2.21-2.63,3.31-1.77,2.24-3.53,4.48-5.28,6.72-1.97,2.53-3.94,5.08-5.89,7.63-.27.35.33,1.41.62,1.04,3.41-4.46,6.85-8.89,10.33-13.3.86-1.09,1.73-2.18,2.59-3.27.41-.51.79-1.06,1.26-1.52.37-.37.81-.6,1.3-.78,1.17-.43,2.38-.12,3.54.09,1.16.21,2.27.43,3.39.7,2.5.59,4.94,1.36,7.35,2.2.54.19.26-.99-.11-1.13h0Z"/>
      <path class="cls-6" d="M453.04,40.34c-1.87,3.43-3.92,6.77-5.79,10.2-.14.26-.05.57.09.8.06.1.39.49.53.24,1.87-3.43,3.92-6.77,5.79-10.2.14-.26.05-.57-.09-.8-.06-.1-.39-.49-.53-.24Z"/>
      <path class="cls-6" d="M476.5,37.98c-6.03,1.93-12.1,3.82-17.93,6.35-2.87,1.24-5.67,2.65-8.35,4.28-2.67,1.64-5.35,3.56-7.98,5.4-2.97,2.08-5.98,4.11-9.21,5.75-.41.21.08,1.35.48,1.15,5.77-2.92,10.78-7.09,16.23-10.55,5.45-3.46,11.2-5.83,17.14-7.91,3.35-1.17,6.72-2.24,10.09-3.32.4-.13-.03-1.29-.48-1.15h0Z"/>
      <path class="cls-6" d="M476.8,39.12c2.9,1.58,5.8,3.16,8.7,4.74l-.41-.99c-1.33,3.68-2.06,7.55-2.15,11.41-.02,1.11,0,2.21.08,3.31l.23-.41c-5.34.39-10.69.92-15.99,1.82-4.97.85-9.88,2.06-14.7,3.61-2.99.97-5.95,2.05-8.88,3.22-.41.16.05,1.32.48,1.15,5-1.99,10.08-3.75,15.28-5.08,4.88-1.25,9.82-2.1,14.79-2.69,3.11-.37,6.22-.64,9.33-.87.22-.02.24-.25.23-.41-.26-3.71.11-7.49,1.07-11.14.27-1.04.6-2.06.96-3.08.12-.34-.12-.83-.41-.99-2.9-1.58-5.8-3.16-8.7-4.74-.25-.14-.34.21-.32.38.03.28.18.6.43.74h0Z"/>
      <path class="cls-6" d="M479.6,56.75c.42-.41.85-.89,1-1.47.18-.7-.07-1.47-.59-1.94-.52-.47-1.26-.53-1.94-.55-.72-.03-1.45-.04-2.17-.03-2.41.03-4.81.34-7.17.94-2.36.6-4.66,1.46-6.95,2.32-2.97,1.11-5.95,2.16-8.89,3.35-3.55,1.44-7.04,3.06-10.35,5.02-.4.24.11,1.37.48,1.15,5.55-3.28,11.54-5.51,17.54-7.73,4.35-1.61,8.67-3.34,13.29-3.75,1.44-.13,2.88-.15,4.32-.09.38.01.77.02,1.14.1.16.03.32.08.46.16.05.03.12.06.15.11.03.05,0-.02,0-.03.03.21-.15.49-.27.66-.19.27-.42.52-.65.75-.3.3.26,1.39.62,1.04h0Z"/>
      <path class="cls-6" d="M419.39,67.68c-7.15-.91-14.38-1.38-21.62-1.56-1.8-.04-3.6-.07-5.4-.07-.84,0-1.68,0-2.52.02s-1.67,0-2.49.14c-1.94.33-3.37,1.91-4.88,3.07-1.52,1.16-3.24,2.33-5.02,3.24-3,1.53-6.41,2.42-9.71,1.88-.8-.13-1.52-.4-2.29-.61s-1.5-.1-1.94.62-.42,1.52-.35,2.27c.06.71.16,1.47-.37,2.06-.44.49-1.15.66-1.77.76-.68.12-1.38.17-2.04.38-1.66.51-2.31,2.1-2.61,3.64-.37,1.88-.56,3.8-.81,5.7-.26,1.9-.52,3.94-.77,5.91-1,7.94-1.86,15.9-2.59,23.86-.09.97-.17,1.95-.26,2.92-.03.28.11.64.34.81.2.15.39.08.42-.19.69-7.88,1.51-15.75,2.46-23.62.48-3.92.99-7.83,1.53-11.75.13-.93.23-1.86.4-2.78.14-.8.36-1.65.86-2.33.95-1.29,2.56-1.18,3.95-1.5.61-.14,1.23-.4,1.62-.92.44-.59.49-1.32.45-2.02-.04-.75-.24-1.61.24-2.3.54-.77,1.43-.4,2.12-.18,3,.98,6.34.63,9.35-.49,1.77-.66,3.45-1.58,5.03-2.63,1.58-1.05,3.11-2.33,4.65-3.52.78-.61,1.62-1.04,2.6-1.17.84-.11,1.7-.09,2.54-.11,1.74-.02,3.47-.02,5.21,0,7.2.1,14.4.52,21.53,1.32.82.09,1.64.19,2.46.29.44.06.13-1.12-.3-1.18Z"/>
      <path class="cls-6" d="M435.7,76.3c-3.11,7.12-5.61,14.46-8.07,21.79-.62,1.84-1.23,3.68-1.84,5.52-.29.87-.58,1.74-.88,2.61-.14.42-.29.83-.42,1.25-.17.56.11.9.45,1.3,2.63,3.07,5.15,6.22,7.55,9.45,2.41,3.24,4.68,6.52,6.86,9.89,1.1,1.71,2.17,3.44,3.21,5.18.52.87,1.03,1.75,1.54,2.63.24.42.48.83.71,1.25.12.22.25.44.37.66.11.2.2.25-.03.41-.32.23-.82.28-1.2.38-.55.15-1.09.29-1.64.44-1.03.28-2.07.56-3.1.84-2.04.55-4.07,1.1-6.11,1.66-4.1,1.11-8.21,2.22-12.31,3.33-4.1,1.11-8.21,2.22-12.31,3.33-1.03.28-2.07.56-3.1.84-1.03.28-2.01.49-2.98.86-.78.3-1.6.77-2.01,1.53-.34.63-.38,1.37-.2,2.03s.6,1.27,1.26,1.47l-.21-1.15c-4.36-.44-8.7-1.01-13.01-1.71-2.13-.34-4.25-.72-6.37-1.12-.5-.1-1.01-.18-1.51-.3-.18-.04-.4-.09-.55-.2-.26-.18-.28-.49-.32-.78-.14-1.07-.24-2.16-.36-3.23-.28-2.51-.55-5.02-.83-7.53-.03-.26-.17-.64-.43-.74-.26-.1-.34.18-.32.38.26,2.39.52,4.79.79,7.19.13,1.17.25,2.33.39,3.5.12.99.43,2.06,1.44,2.45.45.18.95.24,1.43.33.6.12,1.21.23,1.81.35,1.15.21,2.31.42,3.47.62,2.26.38,4.54.73,6.81,1.04,2.61.36,5.23.67,7.86.94.48.05.09-1.06-.21-1.15-1.08-.33-.22-1.71.39-2.16,1.14-.84,2.72-1.07,4.04-1.42,2.87-.78,5.74-1.55,8.61-2.33,5.8-1.57,11.59-3.14,17.39-4.71,2.87-.78,5.74-1.55,8.61-2.33,1.46-.4,2.93-.79,4.39-1.19.52-.14,1.14-.27,1.27-.88.12-.55-.18-1.08-.43-1.53-2.76-4.96-5.77-9.78-8.99-14.45-3.22-4.67-6.68-9.22-10.35-13.58-.45-.54-.91-1.08-1.37-1.61l.22.83c2.8-8.26,5.42-16.57,8.56-24.72.85-2.22,1.75-4.42,2.7-6.6.16-.37-.48-1.4-.71-.86h0Z"/>
      <path class="cls-6" d="M377.23,137.69c-1.79-.49-3.5-1.26-5.16-2.08-2.01-.99-3.96-2.11-5.87-3.28-3.67-2.25-7.21-4.72-10.52-7.46-.68-.56-1.34-1.13-1.98-1.73-.14-.13-.28-.26-.41-.4-.02-.02-.04-.04-.06-.06s-.04-.04-.06-.06c.04.04.04.04.02.02-.05-.06-.11-.11-.16-.17-.2-.21-.4-.43-.58-.65-.13-.16-.38-.28-.49-.03-.11.26.07.64.22.83.84,1.04,1.88,1.94,2.9,2.8,1.51,1.28,3.09,2.48,4.69,3.64,3.72,2.69,7.62,5.21,11.73,7.31,1.93.99,3.92,1.89,6.04,2.48.27.07.23-.45.2-.56-.07-.26-.22-.54-.5-.62h0Z"/>
      <path class="cls-6" d="M428.17,69.82c3.46-.4,6.93-.7,10.39-.89.49-.03.12-1.2-.3-1.18-3.47.2-6.93.49-10.39.89-.5.06-.11,1.23.3,1.18Z"/>
      <path class="cls-6" d="M431.74,69.69c-.65.19-1.3.39-1.84.84-.43.37-.7.92-.71,1.47,0,.84.49,1.44,1.05,1.99.5.49,1.01.97,1.54,1.43.19.17.4.06.42-.19.03-.29-.13-.63-.34-.81-.44-.38-.87-.78-1.29-1.18-.19-.18-.39-.37-.56-.57-.03-.04-.03-.06-.06-.08-.05-.04,0-.01,0,.03,0-.13-.03.05-.01-.07-.01.08,0-.09,0-.09.05-.37.34-.74.66-.97.48-.34,1.05-.5,1.6-.66.25-.07.12-.57.06-.71-.08-.19-.27-.52-.54-.44h0Z"/>
      <path class="cls-6" d="M417.32,72.52c-6.3.12-12.6.23-18.9.35-1.79.03-3.58.07-5.36.1-.48,0-.12,1.19.3,1.18,6.3-.12,12.6-.23,18.9-.35,1.79-.03,3.58-.07,5.36-.1.48,0,.12-1.19-.3-1.18Z"/>
      <path class="cls-6" d="M420.44,76.41c-4.27,1.98-8.5,4.05-12.69,6.22-1.19.62-2.38,1.25-3.57,1.88-.41.22.09,1.36.48,1.15,4.16-2.23,8.36-4.36,12.61-6.39,1.21-.58,2.43-1.15,3.64-1.72.41-.19-.07-1.34-.48-1.15h0Z"/>
      <path class="cls-6" d="M421.05,78.85c-2.93,2.24-5.71,4.67-8.32,7.29-.3.3.26,1.39.62,1.04,2.56-2.57,5.29-4.97,8.17-7.18.38-.29-.16-1.39-.48-1.15h0Z"/>
      <path class="cls-6" d="M427.55,79.46c-3.11,5.05-6.13,10.16-9.04,15.33-2.91,5.16-5.74,10.4-8.45,15.68-1.52,2.96-3.02,5.94-4.47,8.94-.18.36.45,1.4.71.86,2.58-5.31,5.27-10.57,8.07-15.78,2.79-5.2,5.68-10.36,8.67-15.45,1.68-2.86,3.39-5.71,5.13-8.53.15-.25.04-.58-.09-.8-.07-.11-.38-.48-.53-.24h0Z"/>
      <path class="cls-6" d="M383.44,138.46c4.7-2.57,9.21-5.5,13.46-8.77.25-.19.5-.39.75-.59.17-.13.23-.19.44-.16.15.02.3.08.45.12.61.16,1.21.33,1.81.5,1.17.34,2.34.69,3.5,1.07,2.34.76,4.65,1.59,6.93,2.5,2.55,1.02,5.05,2.13,7.51,3.34.26.13.34-.2.32-.38-.03-.27-.18-.61-.43-.74-4.43-2.17-9.01-4.05-13.72-5.61-1.18-.39-2.36-.76-3.55-1.11-.59-.17-1.18-.34-1.77-.51-.28-.08-.56-.15-.84-.23-.15-.04-.3-.08-.45-.12-.21-.06-.28-.11-.47.02-.56.38-1.07.84-1.61,1.24-.54.4-1.09.81-1.64,1.21-1.1.8-2.21,1.57-3.34,2.33-2.54,1.7-5.15,3.27-7.83,4.73-.41.22.1,1.36.48,1.15h0Z"/>
      <path class="cls-6" d="M372.6,84.82c-2.21,4.06-4.28,8.18-6.22,12.36-1.94,4.18-3.74,8.43-5.39,12.73-.94,2.43-1.83,4.87-2.67,7.32-.09.28.05.63.22.83.12.15.39.31.49.03,1.49-4.32,3.12-8.61,4.89-12.84,1.77-4.23,3.66-8.37,5.7-12.47,1.15-2.32,2.35-4.63,3.6-6.92.14-.26.05-.57-.09-.8-.06-.1-.39-.49-.53-.24h0Z"/>
    </g>
    <g>
      <path class="cls-9" d="M369.38,116.46c1.26.14,2.64-.14,3.94-.77,1.17-4.33,1.69-8.71,1.54-12.89,0-.21-.02-.42-.12-.57-.12-.17-.33-.23-.54-.27-1.24-.24-2.7.12-3.94.98.01,1.45.02,2.9.03,4.35.02,2.54.02,5.16-.87,7.75-.24.69-.49,1.38-.04,1.44h0Z"/>
      <path class="cls-10" d="M353.25,85.36s-26.26-1.58-47.93,2.46c-5.91,1.1-13.22,2.41-25.42,13.9-2.1,1.98-13.6,14.99-6.99,35.52,2.86,8.87,13.51,8.24,15.89,7.95,15.3-1.9,33.65-6.62,44.85-8.83,7.62-1.5,25.19-6.49,28.82-9.35,4.71-3.71,7.35-12.45,7.79-18.08.54-6.87-.15-12.95-3.46-17.94-3.3-4.99-13.57-5.63-13.57-5.63h0Z"/>
      <path class="cls-8" d="M324.73,137.9c1.36-.33,2.74-1.05,3.9-2.08,10.32-9.2,12.15-18.05,12.34-25.57.36-13.87-3.78-18.5-4.94-19.59-2.06-1.91-5.31-3.68-8.18-4.78,4.47-.7,18.11-.78,18.11-.78,0,0,7.11.89,10.69,10.38,1.51,4,1.31,8.65.88,13.39-.43,4.73-1.32,9.66-4.07,14-1.68,2.64-4.04,6.81-11.66,11.12-4.29,2.43-8.96,2.64-13.45,3.73-1.24.3-2.48.6-3.61.18h0Z"/>
      <path class="cls-6" d="M307.42,86.58c-4.97.58-10.04,2.07-14.9,4.6-4.25,2.21-8.3,5.19-11.79,8.86-3.12,3.29-5.8,7.13-7.61,11.26-.86,1.96-1.52,3.98-1.95,5.99-.53,2.51-.63,4.99-.65,7.43-.06,5.1.5,10.28,2.79,14.28,2,3.49,5.21,5.66,9.13,6.52,4.91,1.08,10.33.2,15.63-.71,6.05-1.05,12.12-2.24,18.18-3.56,6.13-1.34,12.26-2.82,18.39-4.42,6.34-1.66,12.68-3.45,19.02-5.34,1.6-.48,3.21-.96,4.81-1.46.55-.17-.08-1.41-.59-1.25-6.32,1.94-12.64,3.78-18.97,5.5-6.05,1.65-12.1,3.18-18.15,4.58-6.05,1.4-11.87,2.61-17.79,3.72-3,.56-5.99,1.11-8.98,1.58-2.66.42-5.31.67-7.89.58-3.98-.14-7.84-1.16-10.46-3.95-2.71-2.89-3.71-7.29-4.01-11.68-.19-2.74-.19-5.6.12-8.46.21-1.94.64-3.9,1.3-5.83,1.38-4.06,3.65-7.95,6.45-11.35,3.07-3.73,6.75-6.89,10.68-9.35,4.48-2.81,9.28-4.67,14.03-5.67,1.27-.27,2.54-.47,3.81-.62.33-.04.18-.62.12-.75-.13-.28-.37-.54-.71-.5h0Z"/>
      <path class="cls-6" d="M357.97,130.17c6.25-1.5,10.06-8.5,11.7-14.51.99-3.61,1.31-7.2,1.17-10.67-.16-3.81-.69-7.55-1.95-10.86s-3.19-5.87-6.05-7.39c-1.44-.77-3.05-1.12-4.72-1.36-1.69-.24-3.4-.42-5.11-.55-7.2-.56-14.6-.41-22-.07-6.83.32-13.65.66-20.55,1.45-1,.11-2.01.24-3.01.36-.33.04-.18.62-.12.75.13.28.37.54.71.5,3.48-.44,6.96-.82,10.42-1.08,3.3-.25,6.6-.41,9.89-.57,7.2-.36,14.39-.61,21.45-.3,3.42.15,6.87.37,10.14,1,3.05.59,5.47,2.41,7.02,5.07,1.62,2.8,2.35,6.26,2.7,9.75.35,3.49.35,6.94-.34,10.58-1.09,5.76-4.1,13.26-9.93,15.95-.65.3-1.31.52-1.97.68-.53.13.08,1.37.59,1.25h0Z"/>
      <path class="cls-6" d="M282.01,142.4c2.41.99,5.13,1.35,7.97.87,2.65-.44,5.32-1.62,7.75-3.33,5.43-3.81,9.36-9.98,11.44-16.18,2.25-6.67,2.79-13.86.71-19.59-1.67-4.58-4.98-8.27-9.61-9.43-2.09-.52-4.39-.51-6.71.1-2.42.64-4.8,1.94-6.93,3.67-.56.45-1.1.94-1.62,1.45-.44.42.37,1.55.79,1.14,1.98-1.92,4.22-3.48,6.6-4.42,2.19-.87,4.41-1.19,6.5-.97,2.09.22,3.99,1,5.59,2.18,1.69,1.25,3,2.96,3.93,4.97,2.35,5.04,2.15,11.6.48,17.83-1.68,6.23-5.15,12.53-10.28,16.84-4.57,3.84-10.07,5.49-14.83,4.3-.65-.16-1.27-.38-1.88-.63-.26-.11-.47.1-.45.4.02.35.27.69.56.81h0Z"/>
      <path class="cls-6" d="M323.36,139.89c4.7-2.63,9.14-6.14,12.39-10.86,2.47-3.58,4.02-7.59,4.85-11.6.82-3.97,1.08-7.98.91-11.79-.18-4.41-1.05-8.72-3.02-12.22-2.18-3.87-5.59-6.52-9.89-7.58-.59-.15-1.19-.26-1.8-.35-.32-.05-.35.39-.3.59.09.32.33.63.65.68,4.21.62,7.79,2.66,10.07,6.17,2.03,3.14,2.94,7.14,3.22,11.24.25,3.71.05,7.62-.65,11.51-.7,3.89-1.97,7.57-4.1,11.05-2.74,4.47-6.67,8.02-10.9,10.69-.67.42-1.35.83-2.03,1.21-.31.17-.22.53-.12.75.08.18.42.66.71.5h0Z"/>
      <path class="cls-6" d="M340.56,135.23c4.41-2.46,8.83-5.57,12.08-9.89,2.35-3.13,3.81-6.64,4.58-10.25.37-1.74.58-3.47.74-5.19.2-2.1.3-4.19.27-6.25-.07-4.2-.77-8.33-2.62-11.65-2.1-3.77-5.52-6.17-9.68-7.17-.6-.15-1.21-.26-1.83-.35-.32-.05-.35.39-.3.59.09.32.33.63.65.68,4.09.61,7.72,2.41,9.94,5.86,1.91,2.95,2.64,6.77,2.8,10.66.15,3.59-.1,7.38-.78,11.12-.61,3.39-1.81,6.77-3.85,9.82-2.72,4.06-6.62,7.17-10.56,9.59-.67.41-1.35.81-2.03,1.19-.31.17-.22.53-.12.75.08.18.42.66.71.5Z"/>
      <path class="cls-6" d="M369.24,117.39c1.43-.31,2.86-.62,4.29-.94.07-.02.13-.07.17-.15,1.59-4.93,2.21-9.94,1.8-14.65-.03-.37-.37-.94-.8-.83-1.6.4-3.19.93-4.79,1.34-.53.14.08,1.38.59,1.25,1.6-.4,3.19-.93,4.79-1.34l-.8-.83c.4,4.52-.19,9.37-1.72,14.11l.17-.15c-1.43.31-2.86.62-4.29.94-.33.07-.19.6-.12.75.12.25.38.57.71.5h0Z"/>
    </g>
    <g>
      <path class="cls-8" d="M586.63,88.18c-13.74-1.87-26.13-4.42-39.63-7.29-13.32-2.83-26.73-5.33-40.14-7.83-8.3-1.55-16.76-3.79-25.22-2.64-9.74,1.32-13.7,7.65-15.35,13.42-2.82,9.82-.76,18.63.95,21.24,4.32,6.64,14.82,9.01,22.54,9.79,27.3,2.76,50.3,5.82,77.04,8.51,4.59.46,12.69,2.41,17.32,2.05,4.62-.35,10.25-3.88,12.94-7.45,4.61-6.14,6.04-11.66,4.62-15.59-2.33-6.47-8.81-13.37-15.05-14.22h0Z"/>
      <path class="cls-9" d="M530.39,78.11c-10.25-2.4-20.62-4.43-31.07-6.07,1.67,1.64,5.06,4.11,5.85,6.26,1.8,4.94,5.18,15.5.37,28.19-.85,2.24-5.26,9.66-11.97,9.34,5.61.05,32.24,2.21,32.24,2.21,0,0,8.23-3.33,10.96-15.58,3.53-15.79-6.72-25.1-6.37-24.35h0Z"/>
      <path class="cls-9" d="M467.94,79.81c-2.21-.26-4.43-.52-6.64-.78-1.23-.14-2.57-.27-3.65.34-.58.32-1.01.83-1.39,1.34-1.25,1.69-2.07,3.64-2.37,5.65-.26,1.71-.15,3.43-.32,5.15-.09.92.56,3.24,1.66,6.41.19.55.95.77,1.53.98.79.29,1.67.29,2.52.29,2.12,0,4.3-.01,6.33-.65.74-.23,1.46-.55,2.03-1.05.44-.38.63-.82.96-1.28.55-.76,5.77-6.45.44-16.04-.3-.55-1.16-.72-1.1-.36h0Z"/>
      <path class="cls-6" d="M464.88,99.01c.41,3.33,1.38,6.66,3.77,9.21,1.21,1.29,2.74,2.25,4.33,3.09,1.53.81,3.16,1.49,4.83,2.04,3.37,1.11,6.9,1.73,10.46,2.12,1.79.2,3.59.34,5.39.48,2.05.15,4.07.36,6.11.62,4.4.57,8.79,1.14,13.22,1.54,4.43.4,8.86.71,13.28,1.14,4.5.44,8.98,1.05,13.47,1.56,4.45.51,8.91,1,13.36,1.53,8.75,1.04,17.52,2.06,26.23,3.32,1.09.16,2.18.32,3.27.49.5.08.69-1.34.14-1.42-8.52-1.32-17.13-2.27-25.7-3.35-8.79-1.1-17.61-1.99-26.4-3.1-4.37-.55-8.79-.86-13.19-1.23-4.4-.36-8.78-.79-13.15-1.35-2.1-.27-4.19-.55-6.29-.81-1.9-.24-3.81-.34-5.72-.49-3.56-.28-7.13-.67-10.59-1.45-3.46-.78-6.78-1.99-9.74-3.78-1.56-.94-2.88-2.05-3.89-3.51-.96-1.37-1.58-2.93-1.97-4.53-.2-.81-.34-1.64-.44-2.47-.02-.2-.09-.63-.42-.52-.29.09-.38.64-.36.86h0Z"/>
      <path class="cls-6" d="M586.7,87.46c-4.18-.58-8.34-1.3-12.51-1.94-2.11-.32-4.21-.62-6.3-1-2.09-.38-4.11-.75-6.16-1.14-8.27-1.56-16.51-3.22-24.76-4.87-8.25-1.65-16.38-3.27-24.6-4.79-4.12-.77-8.26-1.5-12.39-2.2-1.93-.33-3.8-.81-5.69-1.26-1.91-.45-3.86-.62-5.83-.73-3.8-.21-7.75-.04-11.38,1.28-3.41,1.25-6.1,3.47-8.13,6.29-.48.67-.93,1.36-1.37,2.05-.18.28-.25.71-.1,1.01.12.25.37.3.54.03,1.8-2.9,3.94-5.48,7.15-7.13,3.46-1.78,7.42-2.24,11.27-2.18,1.91.03,3.88.11,5.77.4,1.88.29,3.67.88,5.51,1.27,2,.43,4.05.71,6.07,1.06,2.02.35,4.09.72,6.14,1.1,8.15,1.49,16.28,3.09,24.4,4.72,8.13,1.63,16.26,3.27,24.41,4.83,4.09.78,8.19,1.66,12.32,2.24,4.14.58,8.27,1.29,12.41,1.93,1.03.16,2.06.31,3.09.45.5.07.69-1.34.14-1.42h0Z"/>
      <path class="cls-6" d="M581.98,126.07c3.97.44,7.84-.98,10.96-3.3,3.38-2.5,5.93-5.97,7.57-9.64,1.54-3.45,2.29-7.13,1.6-10.78-.64-3.38-2.35-6.57-4.76-9.13-2.41-2.56-5.63-4.59-9.26-5.48-.46-.11-.92-.2-1.39-.28-.49-.08-.69,1.33-.14,1.42,3.55.58,6.78,2.25,9.31,4.58,2.44,2.24,4.31,5.12,5.19,8.23.41,1.45.63,3.03.54,4.49-.1,1.68-.55,3.36-1.18,4.99-1.36,3.56-3.63,6.9-6.65,9.48-2.81,2.39-6.41,4.1-10.23,4.08-.48,0-.95-.03-1.42-.09-.51-.06-.69,1.36-.14,1.42h0Z"/>
      <path class="cls-6" d="M494,116.02c4.35.28,7.9-2.97,10.09-6.16,2.77-4.03,4.08-8.71,4.32-13.39.19-3.62.07-7.25-.52-10.82-.59-3.56-1.6-6.99-3.67-9.93-1.93-2.73-4.84-4.66-8.4-5.09-.47-.06-.94-.09-1.41-.1-.54-.01-.67,1.41-.14,1.42,1.77.04,3.5.39,5.06,1.15,1.43.69,2.65,1.68,3.64,2.85,2.16,2.55,3.28,5.77,3.94,8.94.7,3.37.9,6.83.8,10.29,0,.01,0,.14,0,.04,0,.04,0,.08,0,.11,0,.1,0,.2-.01.3,0,.21-.02.42-.03.63-.02.37-.04.75-.07,1.12-.08,1.13-.23,2.25-.48,3.37-.5,2.25-1.32,4.47-2.49,6.52-1.84,3.23-4.94,6.84-9.11,7.3-.46.05-.91.06-1.37.03-.53-.03-.68,1.39-.14,1.42Z"/>
      <path class="cls-6" d="M523.18,119.04c3.76.24,6.85-2.5,8.93-5.16,2.5-3.21,4.21-7.09,4.96-10.95.34-1.75.47-3.54.55-5.31.08-1.78.08-3.56-.07-5.33-.28-3.41-1.06-6.85-2.9-9.81-1.83-2.96-4.69-5.04-8.18-6.06-.49-.14-.99-.27-1.49-.37s-.69,1.31-.14,1.42c3.48.73,6.56,2.46,8.59,5.18,1.93,2.57,2.83,5.7,3.22,8.81.41,3.27.27,6.55-.1,9.83-.41,3.59-1.9,7.2-3.97,10.29-1.78,2.65-4.52,5.64-8.07,6.01-.39.04-.79.05-1.18.02-.53-.03-.68,1.39-.14,1.42h0Z"/>
      <path class="cls-6" d="M571.72,121.12c4.56-2.05,7.43-6.62,8.9-10.92,1.71-4.98,1.99-10.59-.05-15.43-1.12-2.65-2.98-4.96-5.49-6.59-.44-.29-.77,1.08-.34,1.36,4.25,2.76,6.27,7.4,6.45,12.16.17,4.58-1.2,9.47-4.06,13.41-1.4,1.91-3.22,3.63-5.48,4.64-.47.21-.44,1.61.06,1.38h0Z"/>
      <path class="cls-6" d="M568.75,121.16c4.56-2.05,7.43-6.62,8.9-10.92,1.71-4.98,1.99-10.59-.05-15.43-1.12-2.65-2.98-4.96-5.49-6.59-.44-.29-.77,1.08-.34,1.36,4.25,2.76,6.27,7.4,6.45,12.16.18,4.76-1.2,9.47-4.06,13.41-1.4,1.91-3.22,3.63-5.48,4.64-.47.21-.44,1.61.06,1.38h0Z"/>
      <path class="cls-6" d="M464.96,99.45c3.33-.15,5.1-3.65,5.94-6.2.58-1.76.86-3.59.9-5.41.04-1.71-.16-3.45-.74-5.06-.53-1.45-1.47-2.9-3.01-3.56-.53-.23-.79,1.16-.34,1.36,1.22.52,2.02,1.54,2.5,2.64.6,1.35.8,2.77.83,4.25.03,1.47-.18,3.11-.61,4.65-.38,1.35-.96,2.74-1.89,3.94-.79,1.01-1.99,1.91-3.42,1.97-.56.02-.65,1.44-.14,1.42h0Z"/>
      <path class="cls-6" d="M457.01,98.16c1.24-.19,2.16-1.01,2.86-1.94.9-1.2,1.45-2.63,1.86-4.03.45-1.57.7-3.19.75-4.8.05-1.52-.03-3.07-.45-4.54-.34-1.2-.93-2.56-2.16-3.17-.51-.25-.79,1.14-.34,1.36.93.46,1.38,1.32,1.69,2.23.17.48.31,1.13.39,1.72.03.24.07.59.09.92.02.36.03.71.03,1.07,0,1.32-.18,2.8-.51,4.14-.31,1.26-.74,2.5-1.45,3.61-.57.89-1.42,1.84-2.6,2.02-.56.09-.61,1.49-.14,1.42h0Z"/>
      <path class="cls-6" d="M464.78,98.24c-2.82-.12-5.64-.25-8.47-.37-.54-.02-.68,1.4-.14,1.42,2.82.12,5.64.25,8.47.37.54.02.68-1.4.14-1.42Z"/>
      <path class="cls-6" d="M467.88,78.97c-2.87-.36-5.75-.71-8.62-1.07-.51-.06-.69,1.35-.14,1.42,2.87.36,5.75.71,8.62,1.07.51.06.69-1.35.14-1.42Z"/>
      <path class="cls-6" d="M456.49,97.88c-1.05-.67-1.58-1.78-1.95-2.9-.47-1.4-.61-2.94-.61-4.48,0-1.54.19-3.28.57-4.85.35-1.43.82-2.82,1.64-4.05.65-.98,1.62-1.98,2.95-2.09.56-.04.64-1.46.14-1.42-1.37.11-2.42.99-3.2,2-1.01,1.32-1.62,2.9-2.05,4.45-.52,1.83-.77,3.72-.82,5.6-.05,1.73.08,3.5.54,5.17.41,1.46,1.07,3.05,2.45,3.93.44.29.77-1.08.34-1.36Z"/>
    </g>
    <g>
      <path class="cls-9" d="M185.26,42.31c8.54-10.62,18.73-20.59,29.73-28-5.1-9.99-4.98-13.76-4.98-13.76l-9.68.43s-3.94,4.58-4.44,5.07c-.5.49-.12,1.11-.67.79-1.22-.7-.85-7.11-2.18-6.38-7.34,4.02-21.88,13.44-21.88,13.44,0,0-2.08,9.2-1.66,15.17.3,4.33,1.66,8.43,1.76,12.79,0,.33,0,.67-.1.99-.14.43-.47.78-.77,1.11-2.29,2.51-4.38,4.03-5.28,7.34-.42,1.53-.82,6.02.36,6.23,3.86.67,4.13-5.74,11.51.02.73.57,1.95,1.16,5.72-1.52,3.08-2.19,4.34-9.18,4.4-11.29.03-1.25-1.62-2.13-1.82-2.44h0ZM188.94,14.38c-2.95,3.21-5.03,9.71-7.64,12.55-.41-2.43-.25-6.91-.27-9.8,0-.64.03-1.37.47-1.84.31-.33.75-.45,1.16-.56,1.97-.5,3.94-1.01,5.92-1.51.25-.06.54-.11.7.08.25.29-.05.78-.33,1.08h0Z"/>
      <path class="cls-9" d="M164.94,57.01c-8.57,3.55-17.58,8.38-25.38,13.79-1.23.86-2.48,1.75-3.43,2.96-1.85,2.33-2.39,5.46-3.61,8.2-1.9,4.25-5.62,7.61-9.78,8.83-.97.28-2.17.68-2.38,1.74-.27,1.34,1.38,2.1,1.57,3.42.24,1.66-2.53,2.9-3.48,4.34-1.22,1.86.21,4.08.94,6.07,3.89,10.62,8.1,23.28,12.98,33.34.44.9,20.59,4.17,29.45,1.13.71-.24,5.81,8.05,7.5,9.78,7.35-2.13,14.02-5.09,20.32-8.38-.94.27-1.82-1.61-1.54-2.62s1.24-1.58,1.92-2.36c9.01-10.37,30.22-32.23,30.22-32.23,0,0-3.61-3.23-15.03-8.62-9.45-4.46-16.77-7.01-16.77-7.01,0,0-2.07-9.73-2.31-11.76-.87-7.51-2.25-14.68-3.14-22.42-1.38,1.04-1.25,1.85-2.84,2.36-1.58.51-4.31-.27-5.45-1.43-.51-.52-1.46-1.04-2.08-1.4-1.39-.8-3.13,1.21-4.51,2.26-1.37,1.05-2.78,1.53-3.18.02h0Z"/>
      <path class="cls-6" d="M172.44,42.16c-4.04,1.62-7.24,5.67-8.19,10.16-.45,2.14-.56,5.04,1.66,5.84,1.54.55,3.01-.87,4.29-1.74.7-.48,1.5-.95,2.32-.95,1.13,0,2.02.96,2.88,1.58.94.68,1.95,1.17,3.14,1.21,1,.03,2.02-.24,2.96-.71,2.14-1.08,3.67-3.07,4.59-5.38.55-1.39.9-2.85,1.14-4.32.13-.76.22-1.51.31-2.27.04-.34.08-.67.11-1.01.02-.17.06-.37.02-.54-.06-.22-.24-.37-.41-.49-3.65-2.58-8.46-3.2-12.83-1.55-.53.2-1.05.43-1.55.7-.41.21.42,1.07.81.87,3.4-1.76,7.31-2.04,10.69-.78.93.34,1.81.81,2.62,1.39l-.31-.56c-.42,3.97-.91,8.59-3.91,11.56-1.15,1.13-2.63,1.98-4.14,2.14-.69.07-1.39,0-2.01-.29-.77-.36-1.41-.97-2.11-1.47-.73-.51-1.53-.97-2.45-1-.63-.02-1.25.18-1.82.48-1.1.58-2.03,1.5-3.14,2.04-.41.2-.93.35-1.29.24-.11-.04-.15-.05-.21-.1-.1-.07-.18-.16-.24-.27-.18-.31-.26-.69-.31-1.06-.2-1.6.23-3.41.8-4.94,1.17-3.16,3.5-5.92,6.34-7.42.35-.19.72-.35,1.09-.5.26-.1,0-.5-.09-.6-.17-.18-.46-.38-.72-.27h0Z"/>
      <path class="cls-6" d="M195.37,7.28c-.18-1.15-.56-2.26-.87-3.37-.13-.47-.27-.93-.38-1.41-.18-.79-.26-1.58-.77-2.2-.15-.19-.47-.37-.72-.27-.48.19-.95.51-1.42.75-.53.27-1.06.55-1.58.83-1.04.55-2.08,1.11-3.1,1.69-2.05,1.14-4.07,2.33-6.08,3.57-2.73,1.69-5.4,3.49-8.06,5.31-.34.24-.69.47-1.03.72-.63.47-1.03,1.09-1.29,1.86-.37,1.14-.51,2.34-.61,3.51-.11,1.17-.2,2.39-.27,3.58-.14,2.42-.18,4.85.03,7.24.17,1.9.45,3.78.69,5.66.34,2.6.68,5.2.97,7.81.01.13.03.27.04.4.04.41,1.06.97,1.01.38-.21-2.42-.58-4.83-.89-7.23-.2-1.57-.42-3.13-.61-4.69-.29-2.37-.4-4.73-.32-7.15.04-1.2.11-2.4.21-3.61.1-1.2.17-2.36.36-3.53.16-1,.36-2.17,1.05-2.95.28-.31.61-.53.93-.76,2.39-1.66,4.8-3.28,7.25-4.83,3.97-2.52,8.04-4.82,12.17-6.96.45-.23.9-.54,1.37-.72l-.72-.27c.16.2.2.59.25.85.06.28.1.57.18.85.12.48.26.96.4,1.44.29,1.03.64,2.07.81,3.14.05.29.33.53.58.61.17.06.48.06.43-.24h0Z"/>
      <path class="cls-6" d="M189.86,12.4c-2.24.49-4.47,1.03-6.67,1.72-1.09.35-2.18.73-3.26,1.13-.58.22-1.15.44-1.73.68-.53.21-1.07.44-1.54.79-.93.69-1.51,1.71-1.72,2.87-.26,1.42-.48,2.86-.72,4.29-.48,2.89-.94,5.78-1.4,8.67-.51,3.26-1.01,6.53-1.5,9.79-.07.44.94,1.06,1.02.59.85-5.7,1.74-11.4,2.68-17.1.23-1.41.46-2.82.7-4.24.11-.66.19-1.35.37-2,.14-.52.42-.96.75-1.37.8-.99,1.99-1.36,3.08-1.79,1.09-.43,2.15-.81,3.23-1.17,2.42-.8,4.87-1.41,7.34-1.95.55-.12-.24-1.01-.62-.93h0Z"/>
      <path class="cls-6" d="M180.81,15.04c0,3.99-.21,8-.22,11.99,0,.3.22.53.45.65.1.06.57.23.57-.07,0-3.99.21-8,.22-11.99,0-.3-.22-.53-.45-.65-.1-.06-.57-.23-.57.07Z"/>
      <path class="cls-6" d="M199.85.61c-4.28,4.87-8.61,9.73-12.44,15.02-1.88,2.6-3.64,5.31-5.17,8.16-1.53,2.85-2.93,5.94-4.33,8.94-1.58,3.39-3.21,6.75-5.23,9.89-.26.4.7,1.14.95.75,3.6-5.61,5.96-11.9,9.02-17.81,3.06-5.9,6.9-11.02,11.03-15.97,2.33-2.79,4.73-5.51,7.12-8.23.29-.33-.63-1.12-.95-.75h0Z"/>
      <path class="cls-6" d="M200.64,1.45c3.23-.14,6.46-.29,9.68-.43l-.82-.65c.57,3.93,1.75,7.71,3.47,11.14.49.98,1.03,1.94,1.61,2.86v-.48c-4.41,3.16-8.75,6.44-12.88,10.03-3.87,3.36-7.53,7.01-10.94,10.92-2.12,2.42-4.15,4.94-6.12,7.5-.28.36.66,1.13.95.75,3.36-4.38,6.91-8.6,10.76-12.5,3.61-3.66,7.46-7.02,11.45-10.15,2.5-1.96,5.04-3.84,7.61-5.68.18-.13.09-.34,0-.48-1.95-3.12-3.4-6.62-4.27-10.33-.25-1.05-.45-2.12-.61-3.2-.05-.37-.49-.67-.82-.65-3.23.14-6.46.29-9.68.43-.28.01-.19.36-.09.51.15.23.43.43.72.42h0Z"/>
      <path class="cls-6" d="M211.26,15.43c.17-.58.31-1.23.18-1.81-.17-.71-.75-1.25-1.41-1.39-.66-.13-1.32.2-1.92.54-.63.35-1.26.73-1.88,1.12-2.05,1.3-3.97,2.84-5.72,4.6-1.74,1.77-3.32,3.74-4.89,5.69-2.03,2.53-4.11,5.03-6.07,7.62-2.38,3.13-4.62,6.39-6.55,9.85-.24.42.73,1.14.95.75,3.24-5.8,7.34-10.91,11.46-16.02,2.98-3.7,5.89-7.5,9.67-10.29,1.18-.87,2.41-1.65,3.66-2.36.34-.19.67-.39,1.02-.51.15-.05.31-.1.47-.1.06,0,.13-.01.18.01.05.03-.01-.01-.02-.02.13.17.1.51.08.72-.03.34-.12.67-.21,1-.12.42.87,1.08,1.02.59h0Z"/>
      <path class="cls-6" d="M164.65,56.74c-6.56,2.97-13,6.37-19.3,10.02-1.57.91-3.12,1.84-4.67,2.79-.72.44-1.44.89-2.15,1.34s-1.43.88-2.07,1.44c-1.51,1.31-2,3.45-2.76,5.26-.76,1.81-1.7,3.75-2.8,5.48-1.86,2.92-4.38,5.5-7.46,6.76-.75.31-1.5.45-2.26.67s-1.34.71-1.38,1.57.34,1.55.75,2.18c.38.59.82,1.2.64,2-.15.67-.68,1.18-1.16,1.6-.53.46-1.1.88-1.58,1.41-1.19,1.33-1.01,3.06-.55,4.57.56,1.84,1.29,3.63,1.96,5.43.66,1.8,1.39,3.73,2.09,5.59,2.84,7.49,5.81,14.92,8.89,22.28.38.9.76,1.8,1.14,2.7.11.26.4.5.67.54.24.03.38-.14.27-.38-3.08-7.27-6.05-14.6-8.89-22-1.42-3.69-2.81-7.39-4.17-11.1-.32-.88-.66-1.75-.95-2.64-.25-.78-.45-1.64-.34-2.49.21-1.63,1.64-2.39,2.69-3.39.46-.44.87-.99.96-1.66.1-.75-.2-1.42-.55-2.01-.38-.64-.96-1.29-.86-2.14.11-.96,1.04-1.11,1.74-1.28,3.04-.73,5.74-2.79,7.8-5.36,1.22-1.51,2.23-3.21,3.1-4.96.87-1.75,1.58-3.68,2.35-5.54.39-.95.91-1.76,1.69-2.39.67-.54,1.41-.98,2.13-1.43,1.48-.94,2.97-1.85,4.48-2.74,6.23-3.71,12.61-7.13,19.1-10.19.75-.35,1.5-.7,2.25-1.04.41-.18-.42-1.05-.81-.87Z"/>
      <path class="cls-6" d="M182.68,55.69c.65,7.88,1.92,15.63,3.23,23.36.33,1.94.66,3.87.99,5.81.16.92.31,1.84.47,2.75.07.44.14.88.22,1.31.11.58.51.74.99.9,3.68,1.3,7.32,2.74,10.89,4.31,3.58,1.57,7.06,3.25,10.5,5.06,1.74.92,3.47,1.87,5.17,2.85.85.49,1.7.99,2.55,1.5.4.24.8.48,1.2.72.21.13.42.26.63.39.18.11.29.11.16.38-.17.37-.58.68-.85.97-.4.42-.8.83-1.2,1.25-.76.79-1.51,1.58-2.27,2.37-1.49,1.56-2.98,3.11-4.48,4.67-3.01,3.14-6.01,6.27-9.02,9.41-3.01,3.14-6.01,6.27-9.02,9.41-.76.79-1.51,1.58-2.27,2.37-.76.79-1.5,1.49-2.16,2.32-.54.67-1.02,1.52-1.02,2.4,0,.73.31,1.4.78,1.88s1.1.8,1.77.63l-.72-.9c-3.95,1.91-7.94,3.7-11.97,5.36-1.99.82-3.99,1.61-5.99,2.37-.48.18-.95.37-1.43.53-.18.06-.38.13-.57.11-.31-.02-.47-.28-.64-.52-.62-.87-1.21-1.77-1.81-2.64-1.41-2.06-2.81-4.11-4.22-6.17-.14-.21-.44-.47-.72-.42-.27.05-.21.34-.09.51,1.34,1.96,2.68,3.93,4.03,5.89.65.95,1.3,1.92,1.96,2.86.56.8,1.33,1.58,2.38,1.39.47-.08.93-.3,1.38-.46.57-.21,1.15-.43,1.72-.65,1.09-.42,2.18-.85,3.27-1.29,2.12-.86,4.24-1.75,6.34-2.68,2.41-1.06,4.81-2.17,7.19-3.32.43-.21-.42-.98-.72-.9-1.08.27-.98-1.39-.67-2.1.58-1.34,1.84-2.37,2.81-3.38,2.1-2.19,4.2-4.39,6.31-6.58,4.25-4.43,8.49-8.86,12.74-13.29,2.1-2.19,4.2-4.39,6.31-6.58,1.07-1.12,2.14-2.24,3.22-3.35.38-.4.86-.84.68-1.44-.15-.54-.65-.85-1.08-1.11-4.68-2.9-9.51-5.54-14.45-7.93-4.94-2.39-10.04-4.56-15.21-6.45-.64-.23-1.28-.46-1.93-.69l.58.61c-1.45-8.71-3.07-17.38-4.17-26.18-.3-2.39-.56-4.79-.76-7.21-.03-.41-1.06-.97-1.01-.38h0Z"/>
      <path class="cls-6" d="M161.07,140.33c-1.77.51-3.6.74-5.4.9-2.19.19-4.38.24-6.56.22-4.2-.04-8.4-.34-12.51-.99-.84-.13-1.68-.28-2.5-.47-.18-.04-.36-.08-.54-.13-.03,0-.06-.01-.08-.02s-.06-.01-.08-.02c.05.01.06.02.02,0-.07-.02-.14-.04-.22-.06-.27-.08-.54-.16-.8-.27-.19-.08-.46-.05-.43.24.03.28.35.53.58.61,1.21.47,2.52.71,3.8.93,1.89.33,3.81.55,5.73.72,4.45.4,8.97.55,13.48.23,2.11-.15,4.25-.41,6.34-1.01.27-.08-.01-.51-.09-.6-.18-.2-.44-.36-.72-.27h0Z"/>
      <path class="cls-6" d="M173.19,53.98c2.79-2.17,5.62-4.26,8.51-6.26.41-.28-.46-1.12-.81-.87-2.89,2-5.72,4.09-8.51,6.26-.4.31.48,1.13.81.87Z"/>
      <path class="cls-6" d="M176.19,51.99c-.47.51-.94,1.03-1.18,1.7-.2.55-.17,1.18.08,1.67.39.74,1.09,1.01,1.83,1.2.65.17,1.32.31,1.98.44.24.04.37-.16.27-.38-.11-.27-.4-.48-.67-.54-.56-.11-1.11-.22-1.65-.36-.25-.06-.5-.12-.75-.21-.04-.02-.06-.03-.08-.04-.07,0,0-.02.02.02-.06-.12,0,.06-.04-.05.02.07-.03-.08-.03-.08-.13-.35-.05-.83.12-1.19.25-.55.67-.99,1.07-1.42.18-.2-.16-.56-.28-.65-.16-.12-.47-.31-.67-.11h0Z"/>
      <path class="cls-6" d="M165.13,62.07c-5.36,3.42-10.71,6.85-16.07,10.27-1.52.97-3.04,1.94-4.56,2.91-.41.26.45,1.1.81.87,5.36-3.42,10.71-6.85,16.07-10.27,1.52-.97,3.04-1.94,4.56-2.91.41-.26-.45-1.1-.81-.87Z"/>
      <path class="cls-6" d="M169.62,63.84c-2.75,3.99-5.41,8.04-8,12.14-.74,1.17-1.46,2.35-2.19,3.53-.25.41.71,1.14.95.75,2.53-4.14,5.15-8.22,7.85-12.25.77-1.15,1.55-2.29,2.33-3.42.26-.38-.68-1.14-.95-.75h0Z"/>
      <path class="cls-6" d="M171.28,65.65c-1.47,3.51-2.73,7.11-3.74,10.77-.12.42.88,1.08,1.02.59,1-3.6,2.22-7.15,3.67-10.6.19-.46-.79-1.13-.95-.75h0Z"/>
      <path class="cls-6" d="M177.15,62.77c-.32,6.07-.53,12.14-.62,18.2-.09,6.06-.08,12.14.05,18.2.07,3.4.18,6.8.32,10.19.02.41,1.04.99,1.01.38-.25-6.01-.4-12.04-.42-18.08-.03-6.03.05-12.07.25-18.12.11-3.39.25-6.79.43-10.19.02-.29-.23-.53-.45-.65-.11-.06-.55-.22-.57.07h0Z"/>
      <path class="cls-6" d="M166.76,137.73c2.84-4.73,5.35-9.68,7.47-14.79.13-.3.25-.6.37-.91.08-.2.11-.29.3-.37.14-.06.3-.09.44-.13.6-.18,1.19-.35,1.79-.51,1.17-.32,2.33-.63,3.51-.91,2.36-.57,4.74-1.05,7.12-1.46,2.66-.45,5.33-.79,8-1.03.28-.02.2-.35.09-.51-.15-.22-.44-.45-.72-.42-4.81.43-9.62,1.2-14.39,2.31-1.19.28-2.38.58-3.57.9-.59.16-1.17.32-1.76.49-.28.08-.55.16-.83.24-.15.04-.29.09-.44.13-.21.06-.29.06-.39.26-.3.62-.53,1.3-.8,1.94-.27.64-.55,1.28-.84,1.92-.57,1.28-1.17,2.54-1.79,3.8-1.39,2.82-2.9,5.58-4.52,8.28-.25.41.72,1.14.95.75h0Z"/>
      <path class="cls-6" d="M132.45,96.43c0,4.72.14,9.43.42,14.11.29,4.69.72,9.36,1.3,14,.33,2.62.7,5.23,1.12,7.83.05.29.33.53.58.61.17.06.48.06.43-.24-.74-4.58-1.33-9.19-1.79-13.83-.45-4.64-.76-9.27-.92-13.94-.09-2.65-.14-5.3-.14-7.96,0-.3-.22-.53-.45-.65-.1-.06-.57-.23-.57.07h0Z"/>
    </g>
    <path class="cls-4" d="M688.98,199.36l-42.4,261.12c-3.31,20.41-20.94,35.4-41.61,35.4H43.16c-23.28,0-42.16-18.88-42.16-42.16v-157.75c0-9.92,3.5-19.53,9.88-27.12l86.86-103.38c8.01-9.53,19.83-15.04,32.28-15.04h517.34c25.98,0,45.78,23.27,41.61,48.92Z"/>
    <ellipse class="cls-7" cx="196.12" cy="592.51" rx="70.51" ry="68.44"/>
    <path class="cls-5" d="M656.75,395.59l8.2-177.09s174,3.85,196.86,19.96c22.87,16.11,144.21,125.97,104.85,307.99v55.75h-138.27l-7.67-60.67s-1.64-36.07-36.07-37.71c-34.44-1.64-126.26,0-126.26,0v22.96h-14.76v59.24l-67.23-.2-26.24-44.27h-42.63v51.71l-191.85.76v-53.82l-52.47-.29s-65.59-80.35-141.02,0h-55.75v-43.79l562.44-3.77v-96.75h27.88Z"/>
    <path class="cls-3" d="M850.61,278.64c-15.33-3.73-60.49-13.93-95.68-13.99-16.61-.03-30.14,13.32-30.14,29.93v43.19c0,11.94,7.09,22.73,18.05,27.47l123.28,53.3c3.75,1.62,7.79,2.46,11.88,2.46h13.35c21.49,0,36-21.98,27.51-41.72-14.27-33.2-35.68-76.87-55.85-94.31-3.56-3.08-7.82-5.22-12.39-6.33Z"/>
    <path class="cls-7" d="M644.45,150.45s-31.16-63.95-116.42-32.8c0,0-41.21-46.63-85.37-8.56,0,0-27.77-25.88-76.96,23.31,0,0-40.99-37.71-77.07-16.4,0,0-18.04-59.03-72.15-49.19-54.11,9.84-59.03,59.03-59.03,59.03,0,0-24.46,11.48-33.55,24.6h520.56Z"/>
    <polygon class="cls-1" points="602.25 150.45 509.45 493.16 467.25 493.16 553.24 150.45 602.25 150.45"/>
    <ellipse class="cls-11" cx="195.62" cy="592.43" rx="35.36" ry="34.32"/>
    <ellipse class="cls-7" cx="196.49" cy="592.36" rx="17.74" ry="17.22"/>
    <ellipse class="cls-7" cx="738.28" cy="592.84" rx="70.51" ry="68.44"/>
    <ellipse class="cls-11" cx="737.78" cy="592.76" rx="35.36" ry="34.32"/>
    <ellipse class="cls-7" cx="738.66" cy="592.7" rx="17.74" ry="17.22"/>
    <polygon class="cls-1" points="433.41 149.64 340.61 495.08 298.42 495.08 384.41 149.64 433.41 149.64"/>
    <polygon class="cls-1" points="256.32 149.64 163.52 495.08 121.33 495.08 207.31 149.64 256.32 149.64"/>
    <path class="cls-2" d="M742.49,294.3s-.47-20.17,11.54-18.25c12.02,1.92,46.97,5.66,46.97,5.66"/>
    <path class="cls-2" d="M897.92,397.63s-6.32,19.33-19.62,13.73c-13.3-5.61-52.61-20.16-52.61-20.16"/>
  </g>
</svg>