<?xml version="1.0" encoding="UTF-8"?>
<svg id="Layer_2" data-name="Layer 2" xmlns="http://www.w3.org/2000/svg" viewBox="0 0 2313.32 1345.41">
  <defs>
    <style>
      .cls-1 {
        fill: #007c7a;
      }

      .cls-1, .cls-2, .cls-3, .cls-4 {
        stroke-width: 0px;
      }

      .cls-5 {
        fill: none;
        stroke: #f88720;
        stroke-miterlimit: 10;
        stroke-width: 8px;
      }

      .cls-2 {
        fill: #89e5f7;
      }

      .cls-2, .cls-3, .cls-4 {
        fill-rule: evenodd;
      }

      .cls-3 {
        fill: #b5edfe;
      }

      .cls-4 {
        fill: #193268;
      }
    </style>
  </defs>
  <g id="Layer_5" data-name="Layer 5">
    <path class="cls-2" d="M7.88,102.53c116.46-27.63,287.62-48.18,464.07,19.36,135.55,51.89,193.56,124.89,284.12,183.9,296.46,193.19,708.39,172.93,757.67,58.08,38.09-88.77-150.05-208.7-104.18-300.05,35.25-70.19,185.38-77.19,293.6-38.72,184.92,65.73,260.41,268.84,293.6,358.13,99.81,268.55,35.8,519.72,0,629.15l-23.68,324.25H12.62L7.88,102.53Z"/>
    <path class="cls-4" d="M9.68,830.31c143.96-8.9,353.47,5.65,571.07,138.99,98.81,60.55,103.49,86.89,183.9,138.99,373.98,242.33,899.66,78.87,929.2-126.35,15.74-109.37-115.05-191.47-87.11-265.35,30.56-80.8,226.26-86.28,338.77,37.91,107.78,118.96,135.05,352.32,67.75,581.23H9.68v-505.42Z"/>
    <line class="cls-5" x1="2313.32" y1="1340.57" y2="1340.57"/>
    <line class="cls-5" x1="4.84" x2="4.84" y2="1345.41"/>
    <polygon class="cls-3" points="1697.83 717.84 1703.75 735.62 1722.89 735.62 1707.4 746.6 1713.32 764.37 1697.83 753.39 1682.34 764.37 1688.26 746.6 1672.77 735.62 1691.92 735.62 1697.83 717.84"/>
    <polygon class="cls-3" points="1549.77 1192.12 1555.69 1209.9 1574.83 1209.9 1559.34 1220.88 1565.26 1238.65 1549.77 1227.67 1534.28 1238.65 1540.2 1220.88 1524.71 1209.9 1543.86 1209.9 1549.77 1192.12"/>
    <polygon class="cls-3" points="1511.05 1279.24 1516.97 1297.01 1536.12 1297.01 1520.63 1307.99 1526.54 1325.77 1511.05 1314.78 1495.57 1325.77 1501.48 1307.99 1485.99 1297.01 1505.14 1297.01 1511.05 1279.24"/>
    <polygon class="cls-3" points="1907.9 1182.45 1913.82 1200.22 1932.96 1200.22 1917.47 1211.2 1923.39 1228.97 1907.9 1217.99 1892.41 1228.97 1898.33 1211.2 1882.84 1200.22 1901.98 1200.22 1907.9 1182.45"/>
    <polygon class="cls-3" points="1665.92 1114.69 1671.84 1132.46 1690.98 1132.46 1675.49 1143.45 1681.41 1161.22 1665.92 1150.24 1650.43 1161.22 1656.35 1143.45 1640.86 1132.46 1660.01 1132.46 1665.92 1114.69"/>
    <polygon class="cls-3" points="1975.66 1056.62 1981.57 1074.39 2000.72 1074.39 1985.23 1085.37 1991.14 1103.14 1975.66 1092.16 1960.17 1103.14 1966.08 1085.37 1950.59 1074.39 1969.74 1074.39 1975.66 1056.62"/>
    <polygon class="cls-3" points="1849.83 959.82 1855.74 977.6 1874.89 977.6 1859.4 988.58 1865.31 1006.35 1849.83 995.37 1834.34 1006.35 1840.25 988.58 1824.76 977.6 1843.91 977.6 1849.83 959.82"/>
    <polygon class="cls-3" points="1752.19 998.4 1758.11 1016.17 1777.26 1016.17 1761.77 1027.16 1767.68 1044.93 1752.19 1033.95 1736.71 1044.93 1742.62 1027.16 1727.13 1016.17 1746.28 1016.17 1752.19 998.4"/>
    <polygon class="cls-3" points="1772.39 843.67 1778.31 861.45 1797.45 861.45 1781.96 872.43 1787.88 890.2 1772.39 879.22 1756.9 890.2 1762.82 872.43 1747.33 861.45 1766.48 861.45 1772.39 843.67"/>
    <polygon class="cls-3" points="1878.86 746.88 1884.78 764.65 1903.92 764.65 1888.44 775.64 1894.35 793.41 1878.86 782.43 1863.37 793.41 1869.29 775.64 1853.8 764.65 1872.95 764.65 1878.86 746.88"/>
    <polygon class="cls-3" points="936.13 1262.28 949 1275.9 966.35 1267.81 956.95 1284.31 969.82 1297.92 951.14 1294.5 941.74 1311 939.59 1292.39 920.92 1288.98 938.27 1280.89 936.13 1262.28"/>
    <polygon class="cls-3" points="588.86 1066.3 594.78 1084.07 613.92 1084.07 598.43 1095.05 604.35 1112.82 588.86 1101.84 573.37 1112.82 579.29 1095.05 563.8 1084.07 582.94 1084.07 588.86 1066.3"/>
    <polygon class="cls-3" points="637.26 1192.12 643.17 1209.9 662.32 1209.9 646.83 1220.88 652.75 1238.65 637.26 1227.67 621.77 1238.65 627.68 1220.88 612.2 1209.9 631.34 1209.9 637.26 1192.12"/>
    <polygon class="cls-3" points="705.01 1124.37 710.93 1142.14 730.07 1142.14 714.58 1153.13 720.5 1170.9 705.01 1159.92 689.52 1170.9 695.44 1153.13 679.95 1142.14 699.09 1142.14 705.01 1124.37"/>
    <polygon class="cls-3" points="821.16 1269.56 827.08 1287.33 846.22 1287.33 830.73 1298.31 836.65 1316.09 821.16 1305.1 805.67 1316.09 811.59 1298.31 796.1 1287.33 815.24 1287.33 821.16 1269.56"/>
    <polygon class="cls-3" points="734.05 1230.84 739.96 1248.61 759.11 1248.61 743.62 1259.6 749.54 1277.37 734.05 1266.39 718.56 1277.37 724.48 1259.6 708.99 1248.61 728.13 1248.61 734.05 1230.84"/>
    <polygon class="cls-3" points="66.19 1066.3 72.1 1084.07 91.25 1084.07 75.76 1095.05 81.67 1112.82 66.19 1101.84 50.7 1112.82 56.61 1095.05 41.12 1084.07 60.27 1084.07 66.19 1066.3"/>
    <polygon class="cls-3" points="869.56 1201.8 875.47 1219.58 894.62 1219.58 879.13 1230.56 885.05 1248.33 869.56 1237.35 854.07 1248.33 859.98 1230.56 844.5 1219.58 863.64 1219.58 869.56 1201.8"/>
    <polygon class="cls-3" points="1053.46 1250.2 1059.38 1267.97 1078.52 1267.97 1063.03 1278.96 1068.95 1296.73 1053.46 1285.74 1037.97 1296.73 1043.89 1278.96 1028.4 1267.97 1047.55 1267.97 1053.46 1250.2"/>
    <polygon class="cls-3" points="1121.22 1269.56 1127.13 1287.33 1146.28 1287.33 1130.79 1298.31 1136.7 1316.09 1121.22 1305.1 1105.73 1316.09 1111.64 1298.31 1096.15 1287.33 1115.3 1287.33 1121.22 1269.56"/>
    <polygon class="cls-3" points="1266.4 1259.88 1272.32 1277.65 1291.46 1277.65 1275.98 1288.64 1281.89 1306.41 1266.4 1295.42 1250.91 1306.41 1256.83 1288.64 1241.34 1277.65 1260.49 1277.65 1266.4 1259.88"/>
    <polygon class="cls-3" points="1643.89 1250.2 1649.81 1267.97 1668.95 1267.97 1653.46 1278.96 1659.38 1296.73 1643.89 1285.74 1628.4 1296.73 1634.32 1278.96 1618.83 1267.97 1637.97 1267.97 1643.89 1250.2"/>
    <polygon class="cls-3" points="1972.98 1250.2 1978.9 1267.97 1998.04 1267.97 1982.56 1278.96 1988.47 1296.73 1972.98 1285.74 1957.49 1296.73 1963.41 1278.96 1947.92 1267.97 1967.07 1267.97 1972.98 1250.2"/>
    <polygon class="cls-3" points="1798.76 1259.88 1804.67 1277.65 1823.82 1277.65 1808.33 1288.64 1814.25 1306.41 1798.76 1295.42 1783.27 1306.41 1789.19 1288.64 1773.7 1277.65 1792.84 1277.65 1798.76 1259.88"/>
    <polygon class="cls-3" points="1401.91 1240.52 1407.83 1258.29 1426.97 1258.29 1411.48 1269.28 1417.4 1287.05 1401.91 1276.07 1386.42 1287.05 1392.34 1269.28 1376.85 1258.29 1396 1258.29 1401.91 1240.52"/>
    <polygon class="cls-3" points="1750.36 1172.77 1756.28 1190.54 1775.42 1190.54 1759.93 1201.52 1765.85 1219.29 1750.36 1208.31 1734.87 1219.29 1740.79 1201.52 1725.3 1190.54 1744.45 1190.54 1750.36 1172.77"/>
    <polygon class="cls-3" points="2002.02 940.47 2007.94 958.24 2027.08 958.24 2011.59 969.22 2017.51 986.99 2002.02 976.01 1986.53 986.99 1992.45 969.22 1976.96 958.24 1996.1 958.24 2002.02 940.47"/>
    <polygon class="cls-3" points="1876.19 1066.3 1882.11 1084.07 1901.25 1084.07 1885.76 1095.05 1891.68 1112.82 1876.19 1101.84 1860.7 1112.82 1866.62 1095.05 1851.13 1084.07 1870.27 1084.07 1876.19 1066.3"/>
    <polygon class="cls-3" points="1924.59 843.67 1930.5 861.45 1949.65 861.45 1934.16 872.43 1940.08 890.2 1924.59 879.22 1909.1 890.2 1915.01 872.43 1899.53 861.45 1918.67 861.45 1924.59 843.67"/>
    <polygon class="cls-3" points="424.31 1134.05 430.23 1151.82 449.38 1151.82 433.89 1162.81 439.8 1180.58 424.31 1169.59 408.83 1180.58 414.74 1162.81 399.25 1151.82 418.4 1151.82 424.31 1134.05"/>
    <polygon class="cls-3" points="66.19 930.79 72.1 948.56 91.25 948.56 75.76 959.54 81.67 977.32 66.19 966.33 50.7 977.32 56.61 959.54 41.12 948.56 60.27 948.56 66.19 930.79"/>
    <polygon class="cls-3" points="143.62 872.71 149.53 890.48 168.68 890.48 153.19 901.47 159.11 919.24 143.62 908.26 128.13 919.24 134.05 901.47 118.56 890.48 137.7 890.48 143.62 872.71"/>
    <polygon class="cls-3" points="143.62 1124.37 149.53 1142.14 168.68 1142.14 153.19 1153.13 159.11 1170.9 143.62 1159.92 128.13 1170.9 134.05 1153.13 118.56 1142.14 137.7 1142.14 143.62 1124.37"/>
    <polygon class="cls-3" points="143.62 1250.2 149.53 1267.97 168.68 1267.97 153.19 1278.96 159.11 1296.73 143.62 1285.74 128.13 1296.73 134.05 1278.96 118.56 1267.97 137.7 1267.97 143.62 1250.2"/>
    <polygon class="cls-3" points="259.77 921.11 265.68 938.88 284.83 938.88 269.34 949.86 275.26 967.64 259.77 956.65 244.28 967.64 250.2 949.86 234.71 938.88 253.85 938.88 259.77 921.11"/>
    <polygon class="cls-3" points="259.77 998.54 265.68 1016.31 284.83 1016.31 269.34 1027.3 275.26 1045.07 259.77 1034.09 244.28 1045.07 250.2 1027.3 234.71 1016.31 253.85 1016.31 259.77 998.54"/>
    <polygon class="cls-3" points="66.19 1201.8 72.1 1219.58 91.25 1219.58 75.76 1230.56 81.67 1248.33 66.19 1237.35 50.7 1248.33 56.61 1230.56 41.12 1219.58 60.27 1219.58 66.19 1201.8"/>
    <polygon class="cls-3" points="346.88 1182.45 352.8 1200.22 371.94 1200.22 356.45 1211.2 362.37 1228.97 346.88 1217.99 331.39 1228.97 337.31 1211.2 321.82 1200.22 340.97 1200.22 346.88 1182.45"/>
    <polygon class="cls-3" points="143.62 979.18 149.53 996.96 168.68 996.96 153.19 1007.94 159.11 1025.71 143.62 1014.73 128.13 1025.71 134.05 1007.94 118.56 996.96 137.7 996.96 143.62 979.18"/>
    <polygon class="cls-3" points="240.41 1095.33 246.33 1113.11 265.47 1113.11 249.98 1124.09 255.9 1141.86 240.41 1130.88 224.92 1141.86 230.84 1124.09 215.35 1113.11 234.49 1113.11 240.41 1095.33"/>
    <polygon class="cls-3" points="240.41 1201.8 246.33 1219.58 265.47 1219.58 249.98 1230.56 255.9 1248.33 240.41 1237.35 224.92 1248.33 230.84 1230.56 215.35 1219.58 234.49 1219.58 240.41 1201.8"/>
    <polygon class="cls-3" points="346.88 950.15 352.8 967.92 371.94 967.92 356.45 978.9 362.37 996.67 346.88 985.69 331.39 996.67 337.31 978.9 321.82 967.92 340.97 967.92 346.88 950.15"/>
    <polygon class="cls-3" points="530.79 969.5 536.7 987.28 555.85 987.28 540.36 998.26 546.27 1016.03 530.79 1005.05 515.3 1016.03 521.21 998.26 505.72 987.28 524.87 987.28 530.79 969.5"/>
    <polygon class="cls-3" points="408.14 1060.06 404.37 1078.41 420.95 1087.98 402.05 1089.75 398.29 1108.1 390.37 1090.84 371.46 1092.61 385.47 1080.18 377.55 1062.92 394.13 1072.5 408.14 1060.06"/>
    <polygon class="cls-3" points="472.71 1017.9 478.63 1035.67 497.77 1035.67 482.28 1046.66 488.2 1064.43 472.71 1053.44 457.22 1064.43 463.14 1046.66 447.65 1035.67 466.79 1035.67 472.71 1017.9"/>
    <polygon class="cls-3" points="395.28 1259.88 401.19 1277.65 420.34 1277.65 404.85 1288.64 410.77 1306.41 395.28 1295.42 379.79 1306.41 385.7 1288.64 370.22 1277.65 389.36 1277.65 395.28 1259.88"/>
    <polygon class="cls-3" points="540.46 1192.12 546.38 1209.9 565.53 1209.9 550.04 1220.88 555.95 1238.65 540.46 1227.67 524.98 1238.65 530.89 1220.88 515.4 1209.9 534.55 1209.9 540.46 1192.12"/>
    <polygon class="cls-3" points="521.11 1259.88 527.02 1277.65 546.17 1277.65 530.68 1288.64 536.59 1306.41 521.11 1295.42 505.62 1306.41 511.53 1288.64 496.05 1277.65 515.19 1277.65 521.11 1259.88"/>
    <polygon class="cls-3" points="492.06 1097.23 504.23 1111.46 521.97 1104.25 511.76 1120.26 523.94 1134.49 505.45 1130.15 495.24 1146.16 494.03 1127.47 475.54 1123.14 493.27 1115.92 492.06 1097.23"/>
    <rect class="cls-1" x="1267.97" y="600.11" width="29.04" height="58.08" rx="1.5" ry="1.5" transform="translate(-145.52 591.79) rotate(-24.63)"/>
    <rect class="cls-1" x="1171.18" y="580.75" width="29.04" height="58.08"/>
    <rect class="cls-1" x="977.6" y="474.28" width="29.04" height="58.08" rx="1" ry="1" transform="translate(1794.91 -266.84) rotate(109.29)"/>
    <rect class="cls-1" x="1200.22" y="687.22" width="29.04" height="58.08"/>
    <rect class="cls-1" x="183.9" y="222.62" width="29.04" height="58.08" rx="1.5" ry="1.5" transform="translate(-116.46 192.04) rotate(-41.02)"/>
    <rect class="cls-1" x="77.43" y="716.26" width="29.04" height="58.08" rx="1.44" ry="1.44" transform="translate(-462.45 238.78) rotate(-40.55)"/>
    <rect class="cls-1" x="503.32" y="832.41" width="29.04" height="58.08"/>
    <rect class="cls-1" x="735.62" y="977.6" width="29.04" height="58.08" rx="1.17" ry="1.17" transform="translate(-351.3 404.26) rotate(-24.63)"/>
    <rect class="cls-1" x="861.45" y="851.77" width="29.04" height="58.08"/>
    <rect class="cls-1" x="996.96" y="648.5" width="29.04" height="58.08" rx="1.13" ry="1.13" transform="translate(-205.92 687.62) rotate(-34.29)"/>
    <rect class="cls-1" x="580.75" y="687.22" width="29.04" height="58.08"/>
    <rect class="cls-1" x="1055.03" y="725.94" width="29.04" height="58.08" transform="translate(687.27 -497.14) rotate(37.8)"/>
    <rect class="cls-1" x="609.79" y="271.02" width="29.04" height="58.08" rx="1.34" ry="1.34" transform="translate(-66.39 352.35) rotate(-30)"/>
    <rect class="cls-1" x="706.58" y="454.92" width="29.04" height="58.08" transform="translate(1066.26 -312.95) rotate(79.55)"/>
    <rect class="cls-1" x="938.88" y="813.05" width="29.04" height="58.08" rx=".93" ry=".93" transform="translate(452.98 -327.38) rotate(25.38)"/>
    <rect class="cls-1" x="232.3" y="677.54" width="29.04" height="58.08" rx="1.5" ry="1.5" transform="translate(-384.52 304.6) rotate(-38.26)"/>
    <rect class="cls-1" x="77.43" y="454.92" width="29.04" height="58.08" rx="1.38" ry="1.38" transform="translate(-266.6 146.15) rotate(-35.95)"/>
    <rect class="cls-1" x="338.77" y="706.58" width="29.04" height="58.08"/>
    <rect class="cls-1" x="1045.35" y="542.03" width="29.04" height="58.08" rx=".91" ry=".91"/>
    <rect class="cls-1" x="909.84" y="561.39" width="29.04" height="58.08"/>
    <rect class="cls-1" x="774.33" y="793.69" width="29.04" height="58.08" transform="translate(1157.62 -255.78) rotate(62.67)"/>
    <rect class="cls-1" x="658.18" y="764.65" width="29.04" height="58.08" rx="1.25" ry="1.25" transform="translate(303.06 -178.85) rotate(19.47)"/>
    <rect class="cls-1" x="677.54" y="551.71" width="29.04" height="58.08" rx="1.12" ry="1.12" transform="translate(-114.56 173.83) rotate(-13.23)"/>
    <rect class="cls-1" x="803.37" y="464.6" width="29.04" height="58.08" rx=".63" ry=".63" transform="translate(97.77 -134.09) rotate(9.97)"/>
    <rect class="cls-1" x="813.05" y="600.11" width="29.04" height="58.08" transform="translate(242.88 1488.7) rotate(-93.02)"/>
    <rect class="cls-1" x="464.6" y="454.92" width="29.04" height="58.08" rx="1.3" ry="1.3" transform="translate(562.45 -191.93) rotate(51.74)"/>
    <rect class="cls-1" x="445.24" y="677.54" width="29.04" height="58.08" rx="1.5" ry="1.5" transform="translate(964.86 31.67) rotate(69.86)"/>
    <rect class="cls-1" x="125.83" y="561.39" width="29.04" height="58.08" transform="translate(517.05 114.62) rotate(51.74)"/>
    <rect class="cls-1" x="261.34" y="454.92" width="29.04" height="58.08"/>
    <rect class="cls-1" x="319.41" y="532.35" width="29.04" height="58.08" rx="1.5" ry="1.5" transform="translate(-227.46 895.32) rotate(-90)"/>
    <rect class="cls-1" x="551.71" y="532.35" width="29.04" height="58.08"/>
    <rect class="cls-1" x="648.5" y="367.81" width="29.04" height="58.08"/>
    <rect class="cls-1" x="387.17" y="338.77" width="29.04" height="58.08" rx="1.04" ry="1.04"/>
    <rect class="cls-1" x="513" y="280.7" width="29.04" height="58.08" transform="translate(177.92 -192.25) rotate(24.73)"/>
    <rect class="cls-1" x="125.83" y="309.73" width="29.04" height="58.08" transform="translate(188.19 -24.79) rotate(30)"/>
    <rect class="cls-1" x="280.7" y="261.34" width="29.04" height="58.08" transform="translate(130.36 -89.48) rotate(22.01)"/>
    <rect class="cls-1" x="387.17" y="164.55" width="29.04" height="58.08" rx="1.22" ry="1.22" transform="translate(208.1 595.27) rotate(-90)"/>
    <rect class="cls-1" x="96.79" y="154.87" width="29.04" height="58.08" rx="1.39" ry="1.39" transform="translate(167.38 391.43) rotate(-163.93)"/>
    <rect class="cls-1" x="232.3" y="116.15" width="29.04" height="58.08" transform="translate(-31.92 79.57) rotate(-17.22)"/>
    <rect class="cls-1" x="1326.05" y="522.68" width="29.04" height="58.08"/>
    <rect class="cls-1" x="1219.58" y="513" width="29.04" height="58.08"/>
    <rect class="cls-1" x="1451.88" y="503.32" width="29.04" height="58.08" rx="1.5" ry="1.5"/>
    <rect class="cls-1" x="1403.48" y="609.79" width="29.04" height="58.08" transform="translate(342.81 -484.92) rotate(22.01)"/>
    <rect class="cls-1" x="1142.14" y="900.16" width="29.04" height="58.08" transform="translate(432.6 -365.79) rotate(22.01)"/>
    <rect class="cls-1" x="1316.37" y="774.33" width="29.04" height="58.08"/>
    <rect class="cls-1" x="1267.97" y="900.16" width="29.04" height="58.08"/>
    <rect class="cls-1" x="1480.91" y="706.58" width="29.04" height="58.08" rx="1.46" ry="1.46"/>
    <rect class="cls-1" x="987.28" y="967.92" width="29.04" height="58.08"/>
    <rect class="cls-1" x="871.13" y="725.94" width="29.04" height="58.08" transform="translate(-274.45 847.37) rotate(-45)"/>
    <rect class="cls-1" x="1616.42" y="958.24" width="29.04" height="58.08"/>
    <rect class="cls-1" x="1142.14" y="754.98" width="29.04" height="58.08" rx=".95" ry=".95"/>
    <rect class="cls-1" x="1084.07" y="629.15" width="29.04" height="58.08"/>
    <rect class="cls-1" x="1316.37" y="677.54" width="29.04" height="58.08" transform="translate(531.59 -570.78) rotate(30)"/>
    <rect class="cls-1" x="735.62" y="348.45" width="29.04" height="58.08" rx="1.15" ry="1.15" transform="translate(166.81 -226.61) rotate(19.29)"/>
    <rect class="cls-1" x="183.9" y="735.62" width="29.04" height="58.08" transform="translate(650.43 116.77) rotate(49.45)"/>
    <rect class="cls-1" x="377.49" y="803.37" width="29.04" height="58.08" transform="translate(-500.84 610.15) rotate(-50.8)"/>
    <rect class="cls-1" x="648.5" y="890.48" width="29.04" height="58.08"/>
    <rect class="cls-1" x="38.72" y="261.34" width="29.04" height="58.08" transform="translate(-138.06 65.52) rotate(-30)"/>
    <rect class="cls-1" x="483.96" y="183.9" width="29.04" height="58.08"/>
    <rect class="cls-1" x="725.94" y="687.22" width="29.04" height="58.08"/>
    <rect class="cls-1" x="222.62" y="580.75" width="29.04" height="58.08" transform="translate(569.11 45.99) rotate(51.74)"/>
    <rect class="cls-1" x="503.32" y="619.47" width="29.04" height="58.08" transform="translate(-266.68 377.86) rotate(-32.36)"/>
    <rect class="cls-1" x="212.94" y="377.49" width="29.04" height="58.08" rx="1.37" ry="1.37" transform="translate(560.54 80.86) rotate(74.87)"/>
    <rect class="cls-1" x="406.53" y="561.39" width="29.04" height="58.08"/>
    <rect class="cls-1" x="561.39" y="387.17" width="29.04" height="58.08" rx="1.5" ry="1.5" transform="translate(-132.27 474.37) rotate(-40.55)"/>
    <rect class="cls-1" x="1635.78" y="435.56" width="29.04" height="58.08" transform="translate(1377.44 2157.2) rotate(-96.57)"/>
    <rect class="cls-1" x="1916.48" y="319.41" width="29.04" height="58.08" rx="1.5" ry="1.5"/>
    <rect class="cls-1" x="1916.48" y="629.15" width="29.04" height="58.08"/>
    <rect class="cls-1" x="1984.23" y="696.9" width="29.04" height="58.08" rx="1.5" ry="1.5" transform="translate(1392.4 2764.15) rotate(-93.39)"/>
    <rect class="cls-1" x="1548.67" y="658.18" width="29.04" height="58.08"/>
    <rect class="cls-1" x="1335.73" y="958.24" width="29.04" height="58.08" rx="1.5" ry="1.5"/>
    <rect class="cls-1" x="1403.48" y="1093.75" width="29.04" height="58.08" transform="translate(-389.39 1191.52) rotate(-40.55)"/>
    <rect class="cls-1" x="1055.03" y="880.8" width="29.04" height="58.08" transform="translate(-329.2 786.38) rotate(-35.34)"/>
    <rect class="cls-1" x="1122.78" y="1113.11" width="29.04" height="58.08"/>
    <rect class="cls-1" x="1229.26" y="1113.11" width="29.04" height="58.08"/>
    <rect class="cls-1" x="1519.63" y="1025.99" width="29.04" height="58.08" transform="translate(2406.84 -589.69) rotate(83.43)"/>
    <rect class="cls-1" x="967.92" y="1103.43" width="29.04" height="58.08" rx="1.3" ry="1.3" transform="translate(-461.83 1534.65) rotate(-64.62)"/>
    <rect class="cls-1" x="1055.03" y="1045.35" width="29.04" height="58.08" transform="translate(419.33 -295.09) rotate(19.47)"/>
    <rect class="cls-1" x="1306.69" y="1055.03" width="29.04" height="58.08" transform="translate(1827.45 -548.27) rotate(67.86)"/>
    <rect class="cls-1" x="1413.16" y="784.01" width="29.04" height="58.08" transform="translate(-183.71 492.54) rotate(-18.41)"/>
    <rect class="cls-1" x="1751.93" y="561.39" width="29.04" height="58.08" transform="translate(70.24 1359.73) rotate(-42.88)"/>
    <rect class="cls-1" x="1229.26" y="822.73" width="29.04" height="58.08" transform="translate(-229.29 531.52) rotate(-22.14)"/>
    <rect class="cls-1" x="1451.88" y="938.88" width="29.04" height="58.08" transform="translate(469.69 -479.06) rotate(22.01)"/>
    <rect class="cls-1" x="880.8" y="1016.31" width="29.04" height="58.08" transform="translate(1604.39 -134.31) rotate(71.59)"/>
    <rect class="cls-1" x="1151.82" y="1016.31" width="29.04" height="58.08" rx="1.5" ry="1.5"/>
    <rect class="cls-1" x="1955.19" y="513" width="29.04" height="58.08" rx="1.5" ry="1.5" transform="translate(515.44 1976.84) rotate(-60)"/>
    <rect class="cls-1" x="1548.67" y="880.8" width="29.04" height="58.08" rx="1.46" ry="1.46" transform="translate(-207.35 540.29) rotate(-18.41)"/>
    <rect class="cls-1" x="1839.04" y="542.03" width="29.04" height="58.08"/>
    <rect class="cls-1" x="1597.06" y="551.71" width="29.04" height="58.08"/>
    <rect class="cls-1" x="1742.25" y="387.17" width="29.04" height="58.08"/>
    <rect class="cls-1" x="1674.5" y="513" width="29.04" height="58.08" rx="1.48" ry="1.48" transform="translate(1002.81 -1093.72) rotate(49.45)"/>
    <rect class="cls-1" x="1713.21" y="222.62" width="29.04" height="58.08" transform="translate(795.72 -1224.74) rotate(49.45)"/>
    <rect class="cls-1" x="1810.01" y="222.62" width="29.04" height="58.08" transform="translate(118.61 945.98) rotate(-30)"/>
    <rect class="cls-1" x="1848.72" y="387.17" width="29.04" height="58.08" transform="translate(694.07 -1093.08) rotate(39.64)"/>
    <rect class="cls-1" x="1568.03" y="106.47" width="29.04" height="58.08" rx="1.39" ry="1.39"/>
    <rect class="cls-1" x="1742.25" y="96.79" width="29.04" height="58.08" rx="1.46" ry="1.46"/>
    <rect class="cls-1" x="1674.5" y="309.73" width="29.04" height="58.08" rx="1.37" ry="1.37" transform="translate(-29.92 451.95) rotate(-15.11)"/>
    <rect class="cls-1" x="1519.63" y="425.88" width="29.04" height="58.08" transform="translate(433 -706.13) rotate(30)"/>
    <rect class="cls-1" x="890.48" y="445.24" width="29.04" height="58.08" transform="translate(-116.73 468.4) rotate(-27.33)"/>
    <rect class="cls-1" x="1568.03" y="319.41" width="29.04" height="58.08"/>
    <rect class="cls-1" x="1626.1" y="193.58" width="29.04" height="58.08"/>
    <rect class="cls-1" x="1645.46" y="38.72" width="29.04" height="58.08" transform="translate(322.87 -918.28) rotate(34.07)"/>
    <rect class="cls-1" x="1471.23" y="164.55" width="29.04" height="58.08" transform="translate(295.84 -716.94) rotate(30)"/>
    <rect class="cls-1" x="1490.59" y="38.72" width="29.04" height="58.08" transform="translate(1609.9 1570.74) rotate(-96.57)"/>
  </g>
</svg>