<?xml version="1.0" encoding="utf-8"?>
<!-- Generator: Adobe Adobe Illustrator 24.2.0, SVG Export Plug-In . SVG Version: 6.00 Build 0)  -->
<svg version="1.1" xmlns="http://www.w3.org/2000/svg" xmlns:xlink="http://www.w3.org/1999/xlink" x="0px" y="0px"
	 width="1360.04px" height="1045.54px" viewBox="0 0 1360.04 1045.54" style="enable-background:new 0 0 1360.04 1045.54;"
	 xml:space="preserve">
<style type="text/css">
	.st0{display:none;}
	.st1{fill:#2493B1;}
	.st2{fill:#02242C;}
	.st3{fill:#30386D;}
	.st4{fill:#2B3369;}
	.st5{fill:#8AF8D1;}
	.st6{fill:#140505;}
	.st7{fill:#2F376C;}
	.st8{display:inline;fill:#0D242B;}
	.st9{fill:#FFFFFF;}
	.st10{fill:#3B8FCF;}
	.st11{fill:#193268;}
	.st12{fill:#86DCF7;}
	.st13{fill:#89E5F7;}
	.st14{fill:#B4EDFE;}
	.st15{display:inline;}
	.st16{fill:#89F8D1;}
	.st17{display:inline;fill:url(#SVGID_1_);}
	.st18{display:inline;fill:url(#SVGID_2_);}
</style>
<g id="Layer_1" class="st0">
</g>
<g id="Layer_43" class="st0">
</g>
<g id="Layer_44">
	<g id="Layer_45">
	</g>
</g>
<g id="Layer_46">
</g>
<g id="Layer_46_copy">
</g>
<g id="Layer_46_copy_2">
</g>
<g id="Layer_46_copy_3">
</g>
<g id="Layer_42" class="st0">
</g>
<g id="Layer_21">
</g>
<g id="Layer_2">
	<g id="Layer_3">
	</g>
</g>
<g id="Layer_2_copy">
	<g id="Layer_3_copy">
	</g>
</g>
<g id="Layer_4">
	<g id="Layer_11">
	</g>
	<g id="Layer_10">
	</g>
	<g id="Layer_13">
	</g>
</g>
<g id="Layer_4_copy" class="st0">
	<g id="Layer_11_copy" class="st15">
	</g>
	<g id="Layer_10_copy" class="st15">
	</g>
	<g id="Layer_13_copy" class="st15">
	</g>
</g>
<g id="Layer_5" class="st0">
	<g id="Layer_12" class="st15">
	</g>
	<g id="Layer_14" class="st15">
	</g>
</g>
<g id="Layer_5_copy">
	<g id="Layer_12_copy">
	</g>
	<g id="Layer_14_copy">
	</g>
</g>
<g id="Layer_6">
	<g id="Layer_15">
	</g>
	<g id="Layer_16">
	</g>
</g>
<g id="Layer_51">
</g>
<g id="Layer_7_copy_2">
	<g id="Layer_17_copy_2">
	</g>
</g>
<g id="Layer_52">
	<path class="st1" d="M350.16,369.5c-12.89-11.92-26.84-19.51-44.93-24.29c-7.43-1.96-16.77,7.78-21.42,13.9
		c-14.08,18.5-52.43,21.38-78.51,23.39c-7.41,0.57-11,6.66-8.11,13.5c6.84,16.19,23.43,30.74,42.07,41.87
		c28.11,16.77,56.43,17.75,88.84,13.18c6.23-0.88,19.82-1.14,25.63,1.28c4.78,1.99,14.58,6.3,17.86,10.31
		c82.52,101.25,184.89,178.11,308.43,217.82c-5.61,17.03-11.85,36.34-21.6,51.39c-15.17,23.43-24.29,38.74-24.29,38.74
		s-36.05-2.53-50.25,4.56c-43.6,21.77-89.78,29.46-94.2,31.11c-68.33,25.51-21.35,27.77,10.78,24.02
		c38.05-4.44,56.39,5.71,126.17-11.51c23.99-5.92,66.11-18.48,89.47-26.53c36.14-12.45,61.98-24.16,96.3-45.12
		c28.76-17.56,41.13-36.98,22.9-97.57c-1.06-3.52,8.52-8.81,11.13-6.23c6.93,6.83,19.17,23.28,24.41,26.76
		c7.51,4.99,8.48-3.12,13.53-10.59c5.05-7.47,13.32-11.93,21.75-15.12c21.95,15.79,33.5,29.86,58.76,59.48
		c4.41,5.17,15.51,4.09,22.23,5.09c7.67,1.14,26.2,3.23,19.96,18.34c-2.72,6.59,37.6-16.05,38.63-28.8
		c1.38-17.11-2.69-45.27-5.83-62.87c-2.31-12.96,0.62-32.88-5-40.36c-12.54-16.69-38.07-36.58-56.59-52.21
		c-12.01-10.14-9.57-18.07-24.78-22.07c-18.83-4.96-49.69,5.01-65.41-16.28c-6.64-9-17.54-19.46-25.45-27.36
		c-5.64-5.64-23.88,5.86-31.25,13.52c-15.59,16.23-27.64,39.27-34.9,60.57c-7.26,21.3-14.73,37.99-35.85,45.74
		c-10.54,3.87-19.7,9.3-30.65,11.79c-21.23,4.83-39.48,21.13-46.69,41.67c-1.17,3.34-2.23,7.01-5.07,9.12
		c-3.45,2.55-6.24-2.12-10.43-3.06c-60.2-13.53-110.95-52.23-156.88-93.43c-33.33-29.9-67.11-60.33-90.88-98.27
		C398.3,430.27,378.16,395.4,350.16,369.5z"/>
	<path class="st1" d="M917.47,446.32c10.87-14.02,20.67-29.87,19.47-47.58c-0.57-8.38-2.93-16.51-5.32-24.56
		c-6.82-23-13.91-48.78-28.14-68.09c-17.48-23.73-33.91-36.62-43.36-50.65c-6.3-9.35-10.53-30.74-20.05-29.9
		c-6.04,0.53-9.68,11.07-9.73,17.13c-0.4,44.6,9.56,90.62-4.47,132.96c-7.22,21.77-20.42,41.14-27.92,62.81
		c-0.46,1.34-0.91,2.78-0.56,4.16c0.27,1.07,1,1.96,1.76,2.76c7.71,8.19,19.59,10.56,30.67,12.52c10.58,1.87,21.15,3.74,31.73,5.6
		C863.51,463.83,900.91,467.68,917.47,446.32z"/>
	<path class="st1" d="M357.03,298.99c-9.53-14.37-16.22-30.41-22.17-46.59c-3.46-9.42-6.74-19.34-5.48-29.3
		c0.51-4.06,2.59-8.75,6.66-9.21c1.78-0.2,3.67,0.23,5.16,1.23c18,12.14,32.26,25.6,49.95,36.16c4.72,2.82,9.71,5.16,14.37,8.08
		c11.94,7.5,21.2,18.49,30.25,29.3c0.77,0.92,1.57,1.9,1.75,3.09c0.18,1.21-0.32,2.4-0.81,3.52c-2.72,6.15-5.93,12.51-11.57,16.18
		c-3.94,2.56-8.7,3.54-13.38,4C391.67,317.42,366.9,313.87,357.03,298.99z"/>
	<g id="Layer_63">
		<path class="st14" d="M907.3,644.11c-15.18,6.4-41.94,33.87-52.21,58.16c-1.22,2.88-3.15,11.59-0.41,13.09
			c15.27,8.33,34.68,7.04,38.27,14.94c0.48,1.07-1.17,9.32-1.04,10.49c1.16,10.62,0.28,22.79,1.69,24.52
			c1.39,1.71,9.68,6.43,11.78,7.1c55.72,17.56,82.67,21.44,88.91,14.53c4.08-4.52,0.76-5.28,2.2-11.19
			c0.99-4.07,1.32-8.41,3.41-12.03c1.79-3.1,6.88-17.01,9.99-24.46c1.07-2.58,5.42-13.83,3.03-13.09
			c-6.56,2.02-6.46-13.5-16.06-15.29c-18.47-3.42-32.52-2.15-41.9-18.33c-4.15-7.15-9.06-12.84-15.49-18.03
			C927.31,664.73,917.92,651.32,907.3,644.11z"/>
	</g>
	<g>
		<g>
			<g>
				<path class="st4" d="M890.65,728.78c-1.2,8.27-1.62,16.64-1.26,24.99c0.16,3.72,0.18,7.74,1.77,11.18
					c1.48,3.21,4.34,5.28,7.51,6.67c3.46,1.52,7.23,2.36,10.86,3.39c4.13,1.17,8.26,2.33,12.39,3.5c8.21,2.32,16.41,4.68,24.64,6.92
					c8.29,2.26,16.65,4.31,25.13,5.73c3.98,0.67,8.01,1.18,12.05,1.07c3.55-0.09,7.91-0.5,11-2.41c1.46-0.9,2.26-2.19,2.05-3.94
					c-0.22-1.76-0.97-3.56-1.49-5.25c-1.05-3.36-2.18-6.69-3.38-10c-2.43-6.66-5.18-13.21-8.2-19.62
					c-6.03-12.8-13.18-25.07-21.25-36.68c-8.08-11.63-17.09-22.6-26.81-32.9c-4.86-5.15-9.91-10.12-15.13-14.91
					c-2.66-2.44-5.36-4.83-8.1-7.17c-2.84-2.43-5.75-4.82-9.11-6.52c-3.37-1.71-7.7-3.1-11.44-1.81c-1.67,0.58-2.94,1.8-4.11,3.08
					c-1.23,1.36-2.46,2.72-3.68,4.09c-4.97,5.56-9.85,11.21-14.38,17.14c-4.42,5.78-8.49,11.84-11.9,18.27
					c-1.69,3.19-3.21,6.48-4.51,9.85c-0.65,1.69-1.24,3.4-1.77,5.13c-0.5,1.64-1.24,3.49-1.03,5.24c0.4,3.32,4.43,4.5,7.19,4.97
					c3.29,0.57,6.63,0.78,9.92,1.44c5.48,1.1,10.36,3.03,15.43,5.4c3.01,1.41,6,2.86,9.02,4.25c0.78,0.36,2.53,0.75,3.2-0.05
					c0.71-0.85-0.69-1.66-1.29-1.94c-5.38-2.48-10.65-5.27-16.21-7.34c-5.75-2.15-11.74-3.36-17.83-4.07
					c-1.17-0.14-2.41-0.18-3.51-0.52c-0.88-0.27-1.21-1.25-1.04-2.45c0.22-1.63,0.85-3.29,1.36-4.85c0.52-1.59,1.08-3.16,1.7-4.71
					c2.58-6.51,5.97-12.66,9.85-18.49c3.84-5.78,8.12-11.25,12.59-16.56c2.29-2.72,4.63-5.39,6.99-8.05
					c1.13-1.27,2.26-2.53,3.4-3.79c1.05-1.16,2.09-2.56,3.49-3.32c2.8-1.53,6.45,0.82,8.74,2.37c2.84,1.93,5.41,4.29,7.98,6.55
					c5.02,4.4,9.89,8.96,14.6,13.68c18.88,18.91,35.22,40.44,47.78,64.05c6.29,11.82,11.59,24.17,15.75,36.9
					c0.5,1.54,0.99,3.1,1.46,4.65c0.46,1.52,1.61,3.78,0.31,5.12c-0.92,0.95-2.52,1.33-3.76,1.64c-1.89,0.48-3.81,0.71-5.75,0.76
					c-3.8,0.1-7.58-0.45-11.31-1.09c-3.95-0.67-7.87-1.51-11.77-2.43c-15.62-3.69-31.02-8.42-46.46-12.78
					c-3.49-0.99-7.11-1.8-10.51-3.06c-2.94-1.1-5.3-2.8-6.35-5.87c-1.12-3.27-1.12-6.95-1.26-10.37c-0.16-4.08-0.12-8.17,0.11-12.24
					c0.22-3.87,0.62-7.73,1.17-11.57C895.74,728.28,890.89,727.14,890.65,728.78L890.65,728.78z"/>
			</g>
		</g>
		<g>
			<g>
				<path class="st4" d="M995.48,789.3c2.53-1.92,5-4,4.15-7.5c-0.49-2-1.39-3.97-2.1-5.9c-0.77-2.09-1.55-4.17-2.35-6.25
					c-3.11-8.13-6.41-16.19-10.07-24.09c-6.97-15.08-15.22-29.56-25.57-42.59c-7.66-9.64-15.92-18.82-24.43-27.72
					c-7.79-8.15-15.81-16.31-24.71-23.27c-2.73-2.13-5.66-4.42-8.96-5.61c-1.4-0.51-3.01-0.91-4.49-0.53
					c-0.91,0.23-1.59,0.87-2.28,1.48c-1.13,1.01-2.18,2.11-3.25,3.19c-0.8,0.81-1.59,1.69-2.51,2.38c-0.89,0.67,0.82,1.74,1.29,1.94
					c0.98,0.41,2.29,0.63,3.2-0.05c2.04-1.53,3.67-3.66,5.55-5.38c0.23-0.21,0.47-0.42,0.71-0.63c0.07-0.06,0.57-0.53,0.36-0.3
					c0.05-0.05,0.14-0.05,0.19-0.1c0.17-0.17-0.39,0.09-0.13,0.05c0.33-0.05-0.41,0.03-0.26,0.02c0.41-0.01-0.13-0.02-0.27-0.03
					c0.1,0.01,0.19,0.02,0.29,0.03c0.45,0.07-0.69-0.06-0.21-0.04c0.1,0.01,0.24,0.06,0.34,0.1c0.37,0.14-0.59-0.26-0.22-0.07
					c0.26,0.13,0.56,0.23,0.83,0.35c0.15,0.07,0.62,0.32-0.01-0.01c0.12,0.07,0.25,0.13,0.37,0.2c0.33,0.18,0.66,0.37,0.98,0.57
					c0.69,0.42,1.36,0.86,2.03,1.32c0.84,0.59,1.06,0.75,1.98,1.46c8.46,6.5,16.07,14.18,23.48,21.83
					c8.3,8.58,16.33,17.44,23.85,26.71c9.7,11.94,17.74,25.01,24.5,38.82c3.67,7.5,6.98,15.18,10.07,22.94
					c1.57,3.93,3.08,7.89,4.55,11.86c0.72,1.94,1.47,3.88,2.13,5.84c0.45,1.33,0.69,2.7-0.1,3.95c-0.81,1.3-2.24,2.25-3.43,3.16
					c-0.88,0.67,0.82,1.74,1.29,1.94C993.25,789.76,994.58,789.98,995.48,789.3L995.48,789.3z"/>
			</g>
		</g>
		<g>
			<g>
				<path class="st4" d="M999.45,777.11c1.19-3.7,1.78-7.49,1.94-11.37c0.04-0.94,0.06-1.88,0.07-2.82
					c0.01-0.81-0.26-2.19,0.12-2.91c0.35-0.68,1.22-1.31,1.72-1.92c0.54-0.65,1.06-1.33,1.55-2.02c3.93-5.54,6.2-12.01,8.17-18.45
					c1.09-3.57,2.11-7.16,3.34-10.69c0.55-1.58-4.24-2.99-4.83-1.29c-2.19,6.27-3.71,12.75-6.14,18.93
					c-1.23,3.13-2.69,6.18-4.58,8.97c-0.99,1.46-2.09,2.85-3.3,4.14c-0.25,0.26-0.63,0.54-0.78,0.87c-0.17,0.37-0.09,0.88-0.09,1.29
					c0,1.03-0.01,2.06-0.03,3.1c-0.09,4.39-0.63,8.69-1.98,12.88C994.1,777.43,998.9,778.8,999.45,777.11L999.45,777.11z"/>
			</g>
		</g>
		<g>
			<g>
				<path class="st4" d="M905.24,642.83c-0.79,0.33-1.58,0.63-2.39,0.91c-0.23,0.08,0.11-0.04,0.16-0.05
					c-0.08,0.02-0.15,0.05-0.23,0.07c-0.14,0.04-0.29,0.09-0.43,0.13c-0.27,0.08-0.54,0.15-0.81,0.23c-1.51,0.41-2.98,0.91-4.43,1.5
					c-0.34,0.14-0.57,0.49-0.49,0.87c0.09,0.42,0.58,0.82,0.92,1.02c0.98,0.57,2.33,0.9,3.42,0.45c0.44-0.18,0.88-0.36,1.33-0.52
					c0.19-0.07,0.37-0.14,0.56-0.2c0.14-0.05,0.72-0.22,0.16-0.06c0.55-0.16,1.1-0.33,1.66-0.48c1.51-0.42,2.98-0.92,4.42-1.52
					c0.34-0.14,0.57-0.49,0.49-0.87c-0.09-0.42-0.58-0.82-0.92-1.02C907.68,642.71,906.32,642.37,905.24,642.83L905.24,642.83z"/>
			</g>
		</g>
		<g>
			<g>
				<path class="st4" d="M991.36,782.87c-1.57,0.89-2.73,1.17-4.57,1.45c-0.93,0.14-1.66,0.2-2.83,0.24
					c-1.19,0.04-2.39,0.03-3.58-0.03c-5.21-0.22-11.28-1.3-16.66-2.44c-14.49-3.07-28.69-7.39-42.89-11.55
					c-3.57-1.05-7.13-2.09-10.7-3.12c-1.75-0.5-3.5-1-5.25-1.49c-0.8-0.22-1.59-0.44-2.39-0.66c-0.39-0.11-0.79-0.22-1.18-0.32
					c-0.22-0.06-0.45-0.11-0.67-0.18c-0.11-0.03-0.35-0.13-0.11-0.03c-1.13-0.46-2.1-1.55-2.35-2.89c-0.42-2.17-0.25-4.6-0.31-6.81
					c-0.11-4.4-0.07-8.8,0.26-13.19c0.17-2.2,0.4-4.39,0.71-6.58c0.28-1.96,0.46-4.01,1.14-5.87c0.52-1.42,1.11-2.73,0.1-4.07
					c-1.2-1.58-3.2-2.3-4.97-3.02c-8.09-3.31-16.17-6.8-24.66-8.99c-2.13-0.55-4.28-1.01-6.44-1.37c-1.06-0.18-2.12-0.32-3.19-0.43
					c-0.49-0.05-0.99-0.09-1.48-0.13c-0.97-0.07-2.81-0.62-0.36,0.5c-1.24-0.57,1.57,0.4,1.42,0.84c0.01-0.03-0.04-0.1-0.04-0.13
					c0.01-0.09-0.04-0.21-0.04-0.31c-0.01-0.31-0.01-0.31,0.02-0.75c0.07-0.97,0.23-1.94,0.39-2.9c0.89-5.18,2.19-10.34,3.75-15.36
					c0.28-0.89,0.57-1.78,0.9-2.65c0.59-1.53-4.17-2.99-4.83-1.29c-1.83,4.73-2.97,9.83-4.03,14.78c-0.46,2.15-0.96,4.37-1.05,6.57
					c-0.02,0.64-0.07,1.33,0.3,1.89c1.02,1.55,3.25,1.39,4.85,1.53c8.88,0.75,17.37,3.99,25.56,7.3c1.96,0.8,3.92,1.61,5.88,2.41
					c0.96,0.39,3.79,0.98,3.72,2.3c-0.04,0.65-0.42,1.37-0.64,1.98c-0.31,0.84-0.47,1.67-0.62,2.55c-0.41,2.39-0.75,4.8-0.99,7.21
					c-0.45,4.45-0.59,8.93-0.55,13.4c0.02,2.29,0.09,4.58,0.18,6.87c0.08,2.05,0.05,3.96,1.39,5.64c2.34,2.93,6.1,3.57,9.51,4.53
					c3.61,1.01,7.21,2.05,10.82,3.1c14.83,4.32,29.62,8.9,44.69,12.33c6.29,1.43,12.66,2.73,19.1,3.3
					c4.72,0.42,9.77,0.64,14.33-0.87c0.77-0.25,1.51-0.56,2.22-0.96c0.97-0.55,0.27-1.45-0.42-1.88
					C993.93,782.8,992.32,782.33,991.36,782.87L991.36,782.87z"/>
			</g>
		</g>
		<g>
			<g>
				<path class="st4" d="M997.94,754.53c-3.09-8.77-7.51-17.02-13.12-24.44c-0.7-0.92-2.06-1.35-3.19-1.32
					c-0.71,0.02-2.02,0.48-1.31,1.42c5.46,7.21,9.78,15.2,12.79,23.73c0.37,1.04,1.74,1.52,2.74,1.64
					C996.39,755.63,998.31,755.57,997.94,754.53L997.94,754.53z"/>
			</g>
		</g>
		<g>
			<g>
				<path class="st4" d="M987.81,768c-13.92-2.1-27.85-4.18-41.9-5.21c-6.3-0.46-12.63-0.77-18.87-1.79c-3-0.49-5.98-1.17-8.86-2.14
					c-2.63-0.89-5.67-1.96-7.7-3.94c-2.31-2.25-2.88-5.73-2.99-8.82c-0.13-3.74,0.42-7.45-0.13-11.18c-0.24-1.63-5.11-2.5-4.83-0.61
					c0.94,6.37-1.35,13.36,2.26,19.18c1.75,2.83,4.76,4.51,7.7,5.84c3,1.36,6.17,2.39,9.36,3.16c6.57,1.59,13.32,2.16,20.04,2.63
					c7.2,0.5,14.39,1.13,21.56,2c8.36,1.02,16.69,2.28,25.02,3.53c0.72,0.11,2.23,0.02,2.08-1.03
					C990.41,768.61,988.6,768.12,987.81,768L987.81,768z"/>
			</g>
		</g>
		<g>
			<g>
				<path class="st4" d="M904.72,720.93c7.18-10.52,14.55-20.91,22.12-31.15c1.14-1.55-3.5-3.22-4.49-1.89
					c-7.57,10.24-14.94,20.63-22.12,31.15C899.13,720.66,903.8,722.28,904.72,720.93L904.72,720.93z"/>
			</g>
		</g>
		<g>
			<g>
				<path class="st4" d="M883.87,678.93c-2.09,4.13-4.1,8.3-6,12.52c-0.92,2.04-1.82,4.08-2.69,6.14c-0.76,1.79-1.8,3.68-1.96,5.65
					c-0.34,4.42,4.57,5.59,7.97,6.23c4.59,0.87,9.23,1.34,13.9,1.52c0.85,0.03,1.83-0.49,1.31-1.42c-0.56-0.99-2.18-1.28-3.19-1.32
					c-3.86-0.15-7.7-0.58-11.51-1.24c-0.94-0.16-2.76-0.14-3.35-1.05c-0.83-1.28,0.04-3.2,0.54-4.43c2.94-7.24,6.27-14.34,9.8-21.3
					C889.4,678.85,884.71,677.28,883.87,678.93L883.87,678.93z"/>
			</g>
		</g>
	</g>
	<g id="Layer_56">
	</g>
	<g id="Layer_55">
		<path class="st5" d="M545.09,292.81c-61.45-7.25-125.32-5.25-187.02,8.18c-9.91,2.16-22.64-2.5-23.91,7.56
			c-0.44,3.46,5.39,19.41,6.57,22.7c10.69,29.97,8.92,63.95,22.64,90.95c9.96,19.6,20.01,36.62,35.56,52.16
			c38.29,38.29,73.96,74.86,118.26,106.27c46.97,33.3,109.94,69.46,163.93,81.65c4.74,1.07,11.39-18.47,13.66-21.49
			c20.59-27.45,44.77-35.86,77.18-46.55c11.08-3.65,10.34,2.39,14.8-13.87c2.01-7.32,21.67-53.72,30.94-68.34
			c9.26-14.62,20.93-30.65,38.12-32.63c20.09-2.31,4.8-21.4,1.16-25.62C791.63,378.02,666.59,307.14,545.09,292.81z"/>
	</g>
	<g id="Layer_57_copy">
		<g id="Layer_57">
			<g>
				<g>
					<path class="st4" d="M784.17,592.2c-24.89-22.74-50.54-44.66-76.95-65.61c-26.64-21.14-54.06-41.33-82.23-60.39
						c-28.39-19.21-57.55-37.28-87.48-53.99c-29.6-16.52-59.95-31.73-91.01-45.33c-30.77-13.47-62.25-25.36-94.32-35.36
						c-3.96-1.23-7.93-2.44-11.9-3.62c-0.7-0.21-2.47-0.43-2.74,0.56c-0.27,1.01,1.44,1.66,2.09,1.85
						c31.99,9.48,63.39,20.87,94.12,33.88c31.05,13.15,61.41,27.92,91.01,44.06c29.75,16.22,58.75,33.79,86.99,52.51
						c28.29,18.74,55.81,38.63,82.56,59.51c26.43,20.62,52.12,42.2,77.04,64.62c2.99,2.69,5.97,5.39,8.94,8.11
						c0.79,0.72,2.36,1.25,3.42,0.92C784.65,593.61,784.98,592.95,784.17,592.2L784.17,592.2z"/>
				</g>
			</g>
		</g>
		<g>
			<g>
				<path class="st4" d="M786.76,587.93c-25.02-22.87-50.86-44.84-77.46-65.85c-27.02-21.33-54.84-41.68-83.4-60.89
					c-28.87-19.42-58.51-37.68-88.92-54.59c-29.9-16.62-60.54-31.95-91.88-45.67c-31.09-13.61-62.89-25.65-95.3-35.75
					c-3.89-1.21-7.78-2.39-11.69-3.55c-0.7-0.21-2.47-0.43-2.74,0.56c-0.27,1.01,1.44,1.66,2.09,1.85
					c32.17,9.53,63.74,21.02,94.64,34.1c31.45,13.32,62.2,28.27,92.2,44.57c30.1,16.36,59.46,34.06,88.06,52.9
					c28.71,18.91,56.65,38.96,83.81,60.03c26.66,20.68,52.56,42.33,77.66,64.88c3.03,2.72,6.05,5.46,9.06,8.21
					c0.79,0.72,2.36,1.25,3.42,0.92C787.24,589.34,787.58,588.68,786.76,587.93L786.76,587.93z"/>
			</g>
		</g>
	</g>
	<g id="Layer_57_copy_3">
		<g id="Layer_57_copy_3_1_">
			<g>
				<g>
					<path class="st4" d="M686.34,656.03c-21.69-11.93-42.35-25.7-62.35-40.25c-23.72-17.26-46.53-35.78-68.66-55.02
						c-24.34-21.17-47.87-43.28-70.63-66.14c-23.75-23.87-46.68-48.57-68.65-74.08c-21.86-25.38-42.8-51.57-62.49-78.67
						c-2.36-3.25-4.71-6.52-7.04-9.8c-0.66-0.93-2.09-1.37-3.19-1.32c-0.74,0.03-1.99,0.47-1.31,1.42
						c19.43,27.37,40.15,53.81,61.82,79.43c21.79,25.76,44.55,50.72,68.14,74.84c22.93,23.45,46.66,46.13,71.22,67.87
						c22.31,19.74,45.3,38.74,69.18,56.56c20.49,15.29,41.62,29.82,63.8,42.57c2.38,1.37,4.77,2.71,7.18,4.03
						c0.91,0.5,2.42,1.03,3.42,0.45C687.71,657.36,687.08,656.43,686.34,656.03L686.34,656.03z"/>
				</g>
			</g>
		</g>
		<g>
			<g>
				<path class="st4" d="M682.61,661.57c-24.81-16.32-49.13-33.37-72.85-51.24c-23.83-17.95-47.06-36.69-69.58-56.25
					c-22.84-19.84-44.95-40.52-66.24-62.02c-21.78-21.99-42.69-44.84-62.66-68.49c-20.55-24.33-40.1-49.5-58.62-75.41
					c-2.34-3.27-4.66-6.56-6.97-9.86c-0.65-0.93-2.1-1.37-3.19-1.32c-0.75,0.03-1.98,0.46-1.31,1.42
					c18.51,26.44,38.07,52.14,58.67,77c19.83,23.92,40.6,47.06,62.25,69.34c21.19,21.82,43.23,42.81,66.01,62.96
					c22.58,19.97,45.9,39.11,69.85,57.42c23.6,18.05,47.79,35.31,72.49,51.82c3.04,2.03,6.09,4.05,9.15,6.06
					c0.85,0.56,2.47,1,3.42,0.45C684.02,662.88,683.29,662.02,682.61,661.57L682.61,661.57z"/>
			</g>
		</g>
	</g>
	<g id="Layer_57_copy_2">
		<g id="Layer_57_copy_2_1_">
			<g>
				<g>
					<path class="st4" d="M864.98,472.25c-28.27-19.99-57.26-38.98-87.27-56.26c-29.31-16.89-59.59-32.14-90.77-45.27
						c-32.07-13.5-65.08-24.75-98.71-33.68c-36.41-9.67-73.53-16.64-110.9-21.38c-42.06-5.33-84.46-7.84-126.84-8.37
						c-5.75-0.07-11.51-0.11-17.26-0.11c-0.95,0-1.71,0.46-1.31,1.42c0.4,0.98,2.31,1.32,3.19,1.32
						c43.02,0.01,86.06,1.96,128.82,6.74c37.6,4.2,74.96,10.59,111.68,19.72c33.68,8.37,66.77,19.03,98.96,32.01
						c31.02,12.51,61.16,27.14,90.34,43.47c29.76,16.65,58.54,35.02,86.55,54.45c3.52,2.44,7.03,4.9,10.52,7.38
						C863.51,474.76,867.64,474.13,864.98,472.25L864.98,472.25z"/>
				</g>
			</g>
		</g>
		<g>
			<g>
				<path class="st4" d="M866.9,467.02c-29.36-20.08-59.34-39.28-90.29-56.84c-29.5-16.73-59.88-31.95-91.16-45.06
					c-31.7-13.29-64.31-24.39-97.53-33.19c-35.87-9.5-72.43-16.32-109.25-20.93c-41.35-5.17-83.03-7.58-124.68-8.09
					c-5.71-0.07-11.42-0.1-17.14-0.1c-0.95,0-1.71,0.46-1.31,1.42c0.4,0.98,2.31,1.32,3.19,1.32c42.31,0.01,84.63,1.86,126.7,6.5
					c36.9,4.06,73.58,10.27,109.63,19.18c33.36,8.24,66.13,18.78,98.01,31.59c31.17,12.52,61.45,27.15,90.84,43.38
					c30.49,16.83,60.03,35.32,88.92,54.75c3.7,2.49,7.39,5,11.08,7.51C865.44,469.5,869.59,468.86,866.9,467.02L866.9,467.02z"/>
			</g>
		</g>
	</g>
	<g>
		<g>
			<g>
				<path class="st4" d="M869.14,464.59c-30.21-33.98-64.87-63.83-102.81-88.89c-37.81-24.97-78.8-45.18-121.61-59.98
					c-43.04-14.88-87.93-24.44-133.35-27.89c-24.28-1.84-48.53-1.99-72.76,0.62c-24.86,2.68-49.42,7.56-74.26,10.41
					c-6.5,0.74-13.02,1.34-19.56,1.73c-4.5,0.27-8.74,1.16-11.63,4.96c-2.47,3.25-3.24,7.65-1.79,11.5c0.94,2.5,2.57,4.75,3.79,7.13
					c1.55,3,2.93,6.08,4.16,9.22c4.11,10.47,6.56,21.5,8.22,32.6c1.27,8.47,1.83,17.07,3.41,25.49
					c8.76,46.63,44.05,83.42,76.98,115.09c19.02,18.3,38.89,35.71,59.35,52.38c20.24,16.49,40.87,32.83,62.8,47.05
					c33.95,22.02,71.17,40.1,109.76,52.39c4.9,1.56,9.84,3.04,14.85,4.18c2.25,0.51,5.62,1.66,7.97,0.99
					c1.62-0.46,2.43-2.46,3.21-3.79c1.68-2.87,3.33-5.76,5.12-8.57c15.06-23.67,37.6-41.03,64-50.43
					c9.89-3.52,20.15-5.89,30.52-7.46c0.32-0.05,0.86-0.29,0.94-0.66c4.04-19.57,10.65-38.55,19.72-56.36
					c8.45-16.62,18.87-33.89,33.23-46.1c7.58-6.45,16.69-11.26,26.79-11.69c0.43-0.02,1.4-0.12,1.48-0.72
					c0.55-4.17,1.1-8.34,1.65-12.51c0.24-1.8-4.62-2.92-4.83-1.29c-0.55,4.17-1.1,8.34-1.65,12.51c0.49-0.24,0.98-0.48,1.48-0.72
					c-18.44,0.78-32.84,13.74-43.48,27.74c-12.34,16.24-22.12,34.69-29.33,53.73c-4.2,11.09-7.48,22.5-9.88,34.12
					c0.31-0.22,0.62-0.44,0.94-0.66c-32.71,4.93-64,19.03-85.7,44.55c-5.63,6.62-10.37,13.83-14.71,21.33
					c-0.56,0.97-1.11,1.95-1.71,2.89c-0.22,0.36-1.14,1.26-1.2,1.64c0.01-0.06,0.59-0.09,0.69-0.18c-0.1,0.09-0.96-0.12-0.03,0.02
					c-0.23-0.03-0.47-0.03-0.7-0.07c-1.71-0.25-2.27-0.35-3.85-0.72c-12.01-2.73-23.74-6.97-35.22-11.38
					c-19.02-7.31-37.58-15.87-55.51-25.54c-21.92-11.83-42.51-25.53-62.32-40.59c-20.49-15.57-40.51-31.78-59.86-48.75
					c-18.99-16.66-37.56-33.98-54.79-52.47c-15.7-16.85-30.23-35.19-40.43-55.94c-5.06-10.29-8.99-21.23-11.24-32.48
					c-1.6-7.96-2.13-16.12-3.27-24.16c-1.53-10.83-3.72-21.6-7.44-31.91c-1.9-5.28-4.19-10.42-6.92-15.33
					c-2.48-4.47-4.19-8.96-1.06-13.67c3.24-4.87,8.53-4.53,13.75-4.91c6.06-0.45,12.11-1.06,18.15-1.77
					c12.07-1.43,24.08-3.32,36.09-5.18c25.03-3.88,50.1-7.27,75.48-6.95c44.53,0.56,88.94,7.16,131.82,19.15
					c43.04,12.04,84.55,29.52,123.25,51.86c38.66,22.31,74.52,49.45,106.29,80.82c7.76,7.67,15.28,15.58,22.53,23.74
					c0.76,0.86,2.02,1.41,3.19,1.32C868.44,465.96,869.95,465.5,869.14,464.59z"/>
			</g>
		</g>
		<g>
			<g>
				<path class="st4" d="M816.68,613.16c13.17,24.72,21.53,52.2,23.82,80.15c1.16,14.08-0.97,27.1-10.94,37.69
					c-9.12,9.69-21.27,16.72-32.75,23.22c-24.84,14.06-51.49,25.22-78.19,35.21c-27.4,10.26-55.42,18.87-83.86,25.77
					c-15.85,3.85-31.84,7.27-47.93,9.91c-17.03,2.79-34.33,4.32-51.52,2.14c0.75,0.83,1.5,1.67,2.25,2.5
					c27.39-12.98,58.16-20.68,81.73-40.59c20.59-17.39,34.49-41.4,45.84-65.48c6.53-13.86,12.28-28.08,18.05-42.27
					c0.38-0.94-1.55-1.72-2.09-1.85c-6.52-1.64-12.94-3.79-19.29-5.99c-17.58-6.08-34.78-13.25-51.6-21.17
					c-25.19-11.85-49.54-25.47-72.92-40.58c-29.77-19.24-57.94-40.96-84.13-64.85c-14.84-13.53-29.05-27.76-42.55-42.63
					c-7.23-7.97-14.26-16.12-21.08-24.44c-5.35-6.53-10.56-13.15-17.08-18.58c-8.66-7.21-18.88-11.59-30.17-12.23
					c-11.05-0.63-22.03,1.61-33.01,2.47c-15.15,1.19-30.09-0.25-44.62-4.84c-16.56-5.23-31.25-14-44.29-25.43
					c-5.72-5.02-11.18-10.47-15.71-16.6c-2.84-3.85-6.29-8.72-6.42-13.71c-0.14-5.42,5.34-6.42,9.61-7.44
					c5.52-1.32,11.1-1.45,16.74-1.73c12.49-0.62,24.73-3.39,36.91-6.08c9.27-2.05,16.66-7.56,23.7-13.7
					c3.52-3.07,6.91-6.27,10.26-9.52c2-1.94,4.15-5.39,7.03-6.03c3.83-0.86,8.65,1.62,12,3.14c10.26,4.64,19.8,11.02,28.97,17.49
					c1.73,1.22,3.46,2.46,5.15,3.73c0.83,0.63,2.35,1.33,3.42,0.92c0.8-0.32,1.41-0.99,0.46-1.71c-6.24-4.71-12.73-9.12-19.36-13.25
					c-5.23-3.26-10.59-6.34-16.19-8.92c-4.46-2.06-9.39-4.07-14.37-4.23c-6.25-0.2-9.37,4.86-13.57,8.87
					c-5.49,5.26-11.13,10.57-17.44,14.85c-3.37,2.28-6.99,4.18-10.94,5.24c-3.65,0.98-7.42,1.48-11.11,2.3
					c-8.36,1.86-16.62,3.58-25.19,4.08c-5.64,0.33-11.31,0.34-16.88,1.39c-4.24,0.8-11.12,1.66-13.33,6.01
					c-1.9,3.75,0.06,8.39,1.82,11.78c6.72,13,19.23,23.65,30.82,32.16c14.13,10.37,30.1,17.66,47.21,21.52
					c13.97,3.15,28.11,3.45,42.31,1.99c10.78-1.11,21.97-3.36,32.78-1.38c13.43,2.46,23.68,12.39,31.97,22.61
					c13.46,16.61,27.59,32.65,42.56,47.91c26.68,27.21,55.8,51.99,86.85,74.08c25.11,17.87,51.5,33.95,78.94,48.01
					c19.44,9.96,39.38,18.96,59.84,26.62c9.84,3.68,19.81,7.18,29.96,9.93c0.43,0.12,0.86,0.23,1.28,0.34
					c-0.7-0.62-1.39-1.24-2.09-1.85c-10.19,25.05-20.3,50.46-34.89,73.35c-6.96,10.92-14.97,21.26-24.47,30.1
					c-10.54,9.81-22.89,16.97-35.93,22.96c-16.24,7.46-33.19,13.24-49.34,20.9c-1.92,0.91,1.54,2.41,2.25,2.5
					c29.94,3.8,60.37-2.69,89.48-9.23c29.05-6.52,57.7-14.82,85.74-24.8c28.23-10.05,56.29-21.49,82.74-35.63
					c12.11-6.48,24.46-13.52,34.95-22.47c10.31-8.79,16.34-19.72,16.78-33.41c0.5-15.56-2.69-31.68-6.73-46.63
					c-4.19-15.52-10.19-30.5-17.75-44.69C820.44,611.67,815.6,611.13,816.68,613.16L816.68,613.16z"/>
			</g>
		</g>
		<g>
			<g>
				<path class="st4" d="M630.78,767.95c-9.71,1.26-19.52-0.04-29.26,0.7c-4.89,0.37-9.7,1.24-14.3,2.99
					c-4.39,1.67-8.48,4.01-12.55,6.33c-7.54,4.29-15.31,7.89-23.52,10.71c-8,2.74-16.21,4.84-24.44,6.77
					c-16.47,3.88-33.2,7.07-49.06,13.09c-7.85,2.98-15.45,6.69-22.39,11.43c-1.5,1.02-3.26,2.36-3.67,4.26
					c-0.47,2.19,1.39,3.74,3.22,4.49c2.31,0.96,4.96,1.34,7.42,1.72c2.47,0.38,4.96,0.62,7.45,0.79
					c20.68,1.41,41.57,0.57,62.12-2.09c2.59-0.34,5.17-0.7,7.75-1.1c1.03-0.16,1.14-1.05,0.46-1.71c-0.85-0.81-2.29-1.09-3.42-0.92
					c-19.73,3.03-39.72,4.21-59.67,3.53c-4.89-0.17-9.8-0.36-14.64-1.06c-1.13-0.16-2.27-0.35-3.38-0.6
					c-0.66-0.14-2.14-0.42-2.3-0.64c-1.09-1.48,1.32-3.49,2.34-4.23c6.52-4.68,13.99-8.21,21.44-11.11
					c15.13-5.89,31.15-9.02,46.92-12.68c15.86-3.68,31.86-7.87,46.31-15.59c8.08-4.32,15.67-9.46,24.87-11.04
					c9.33-1.6,18.86-0.44,28.26-0.82c2.33-0.09,4.66-0.29,6.98-0.59c1.05-0.14,1.13-1.07,0.46-1.71
					C633.33,768.04,631.92,767.81,630.78,767.95L630.78,767.95z"/>
			</g>
		</g>
		<g>
			<g>
				<path class="st4" d="M438.24,290.18c-3.04-5.93-7.21-11.23-11.72-16.1c-4.57-4.94-9.65-9.42-15.26-13.15
					c-6.5-4.33-13.35-8.08-20.08-12.02c-6.7-3.91-13.17-8.15-19.42-12.74c-6.27-4.61-12.4-9.41-18.69-13.98
					c-3.13-2.28-6.31-4.51-9.57-6.59c-3.04-1.94-7.19-3.83-10.74-2.05c-2.52,1.26-3.63,4.16-4.09,6.77
					c-0.63,3.56-0.64,7.31-0.42,10.91c0.46,7.67,2.44,15.16,5.03,22.36c5.95,16.53,14.64,31.84,22.55,47.46
					c0.71,1.4,5.54,1.96,4.5-0.1c-6.82-13.47-14.15-26.66-19.87-40.66c-2.74-6.71-5.12-13.62-6.43-20.77
					c-0.66-3.62-1.06-7.3-1.05-10.99c0.01-3.13,0.09-6.58,1.22-9.54c0.41-1.07,1-2.16,1.95-2.84c1.23-0.89,2.23-0.41,3.42,0.29
					c3.11,1.84,6.06,3.98,9,6.08c6.03,4.32,11.87,8.9,17.83,13.32c5.88,4.37,11.88,8.56,18.16,12.34
					c6.42,3.86,13.01,7.43,19.38,11.38c12.12,7.52,23.23,17.88,29.81,30.71C434.46,291.67,439.29,292.22,438.24,290.18
					L438.24,290.18z"/>
			</g>
		</g>
		<g>
			<g>
				<path class="st4" d="M814.16,409.5c12.55-19.05,18.03-41.59,19.94-64.09c2.07-24.37,0.07-48.84-0.54-73.22
					c-0.16-6.39-0.23-12.79-0.11-19.18c0.11-5.95,0.14-12.07,0.97-17.98c0.4-2.88,2.32-10.08,6.64-7.81
					c4.13,2.17,7.03,6.91,9.11,10.9c4.67,8.93,7.11,18.82,13.7,26.7c3.68,4.4,8.01,8.17,12.24,12.03
					c4.35,3.97,8.47,8.16,12.32,12.62c3.88,4.49,7.51,9.18,10.95,14.02c3.42,4.81,6.78,9.72,9.68,14.87
					c3.01,5.35,5.52,10.97,7.92,16.61c2.24,5.27,4.53,10.54,6.61,15.88c6.18,15.88,10.68,32.99,10.2,50.16
					c-0.33,11.85-3.15,23.84-9.45,33.98c-5.13,8.26-12.36,15.13-20.76,19.8c-1.94,1.08-3.94,2.05-5.99,2.9
					c-1.01,0.42-2.03,0.82-3.06,1.18c-0.25,0.09-0.51,0.18-0.77,0.27c-0.09,0.03-0.81,0.27-0.48,0.16
					c-0.51,0.16-1.02,0.32-1.53,0.47c-1.99,0.58-4.01,1.05-6.06,1.41c-0.98,0.17-1.97,0.31-2.96,0.43c-0.6,0.08,0.27-0.02-0.34,0.04
					c-0.22,0.02-0.44,0.04-0.65,0.06c-0.5,0.04-1.01,0.08-1.51,0.11c-0.94,0.05-1.87,0.08-2.81,0.07c-0.41,0-0.82-0.01-1.23-0.02
					c-0.23-0.01-0.45-0.02-0.68-0.03c0.79,0.03-0.15-0.01-0.32-0.02c-0.87-0.06-1.73-0.15-2.59-0.28c-0.38-0.05-0.75-0.12-1.12-0.18
					c-0.2-0.03-0.98-0.21-0.08-0.01c-0.22-0.05-0.44-0.09-0.66-0.14c-0.78-0.17-1.54-0.37-2.3-0.61c-0.17-0.05-0.33-0.11-0.5-0.16
					c-0.23-0.07,0.59,0.22-0.02-0.01c-0.35-0.13-0.7-0.26-1.05-0.41c-0.34-0.14-0.67-0.29-1-0.44c-0.19-0.09-0.77-0.42-0.03-0.01
					c-0.15-0.09-0.31-0.16-0.47-0.25c-0.6-0.33-1.17-0.7-1.74-1.09c-0.15-0.1,0.37,0.3-0.04-0.04c-0.13-0.1-0.26-0.2-0.39-0.31
					c-0.23-0.19-0.45-0.38-0.66-0.58c-0.23-0.22-0.46-0.45-0.68-0.67c-0.33-0.34,0.24,0.3-0.07-0.08c-0.1-0.12-0.2-0.24-0.3-0.36
					c-0.73-0.91-2.04-1.35-3.19-1.32c-0.68,0.02-2.05,0.5-1.31,1.42c4.32,5.39,11.7,7.56,18.33,8.14c8.5,0.74,17.12-0.84,25.03-3.97
					c9.01-3.56,17.2-9.34,23.47-16.73c7.45-8.78,12.02-19.64,13.83-30.96c2.52-15.76,0.1-32.01-4.39-47.18
					c-3.13-10.59-7.5-20.72-11.83-30.85c-2.45-5.74-5.03-11.44-8.12-16.87c-2.99-5.26-6.44-10.28-9.97-15.19
					c-7.08-9.86-15.02-19.01-24.01-27.18c-4.31-3.92-8.76-7.77-12.31-12.42c-3.17-4.16-5.34-8.88-7.34-13.68
					c-1.93-4.65-3.76-9.39-6.36-13.72c-2.6-4.35-6.34-8.9-11.2-10.77c-2.62-1.01-5.82-1.31-8.28,0.29
					c-1.77,1.15-2.84,3.04-3.49,5.01c-0.8,2.41-0.97,4.95-1.15,7.47c-0.22,3.11-0.38,6.23-0.49,9.34
					c-0.89,25.98,1.67,51.92,1.4,77.9c-0.24,23.01-2.96,46.6-12.36,67.82c-2.3,5.18-4.99,10.16-8.11,14.9
					C808.6,409.25,813.27,410.86,814.16,409.5L814.16,409.5z"/>
			</g>
		</g>
		<g>
			<g>
				<path class="st4" d="M861.69,478.71c7.13,7.37,14.34,14.65,21.52,21.97c3.38,3.45,6.72,6.94,10.12,10.38
					c2.07,2.09,4.31,4.01,6.97,5.33c2.75,1.36,5.81,1.97,8.85,2.23c6.52,0.56,13.12,0.61,19.66,0.88
					c6.44,0.27,12.94,0.33,19.36,0.86c2.65,0.22,5.38,0.59,7.72,1.92c2.39,1.36,4.34,3.37,6.24,5.32c4.38,4.5,8.79,8.98,13.27,13.38
					c9.13,8.96,18.51,17.68,28.11,26.13c4.74,4.17,9.54,8.29,14.39,12.33c4.28,3.57,9.15,6.94,12.39,11.55
					c3.53,5.03,3.76,11.25,4.37,17.16c0.68,6.69,1.37,13.38,2.05,20.07c1.35,13.21,2.7,26.42,4.05,39.64
					c0.68,6.69,1.37,13.38,2.05,20.07c0.32,3.12,0.94,6.39,0.52,9.53c-0.36,2.69-1.65,5.01-3.43,7.03
					c-1.71,1.94-3.74,3.57-5.78,5.15c-2.3,1.78-4.6,3.55-6.94,5.27c-4.7,3.46-9.58,6.72-14.84,9.27c-2.6,1.26-5.28,2.33-8.05,3.14
					c1.24,0.75,2.48,1.5,3.72,2.26c3.9-3.17,3.28-9.07,0.7-12.87c-3.43-5.06-10.03-6.86-15.69-7.96c-6.9-1.34-13.85-2.41-20.77-3.66
					c-2.92-0.53-5.52-1.29-7.7-3.41c-2.28-2.22-4.08-5-6.05-7.49c-15.76-19.94-33.79-38.1-53.63-53.99
					c-11.17-8.95-22.91-17.19-35.12-24.65c-0.87-0.53-2.45-1.01-3.42-0.45c-0.97,0.56-0.28,1.45,0.42,1.88
					c21.29,13.01,41.08,28.42,58.93,45.86c8.88,8.67,17.27,17.83,25.11,27.45c1.94,2.38,3.85,4.78,5.72,7.21
					c1.85,2.4,3.67,4.85,6.17,6.63c2.77,1.98,6.08,2.85,9.38,3.48c3.45,0.66,6.92,1.22,10.39,1.83c3.68,0.64,7.38,1.22,11.04,1.95
					c2.95,0.59,6.05,1.35,8.52,3.16c3.94,2.9,5.77,9.69,1.52,13.14c-0.66,0.54,0.34,1.41,0.74,1.66c0.8,0.49,2.05,0.87,2.98,0.6
					c11.58-3.39,21.28-10.64,30.71-17.91c4.03-3.11,8.55-6.62,9.91-11.79c0.77-2.92,0.35-6.02,0.05-8.98
					c-0.35-3.47-0.71-6.94-1.06-10.4c-1.37-13.38-2.73-26.75-4.1-40.13c-0.69-6.77-1.38-13.54-2.07-20.31
					c-0.67-6.54-1.05-13.19-2.11-19.68c-0.46-2.84-1.27-5.6-2.69-8.12c-1.41-2.5-3.38-4.67-5.45-6.63
					c-4.46-4.21-9.41-7.93-14.08-11.91c-9.74-8.29-19.26-16.85-28.54-25.66c-4.7-4.46-9.33-8.98-13.91-13.57
					c-2.29-2.29-4.56-4.6-6.81-6.92c-2.04-2.11-4.07-4.22-6.46-5.94c-5.2-3.74-11.46-4.29-17.67-4.55
					c-6.66-0.28-13.32-0.56-19.98-0.83c-3.37-0.14-6.74-0.28-10.11-0.42c-2.88-0.12-5.89-0.1-8.68-0.95
					c-2.66-0.81-4.75-2.72-6.69-4.65c-1.68-1.67-3.3-3.39-4.96-5.09c-7.41-7.59-14.87-15.13-22.28-22.72
					c-1.57-1.61-3.14-3.22-4.71-4.84c-0.77-0.79-2.36-1.17-3.42-0.92C861.11,477.25,860.99,477.98,861.69,478.71L861.69,478.71z"/>
			</g>
		</g>
		<g>
			<g>
				<path class="st4" d="M838.16,648.04c0.42-2.01,2.96-3.26,4.72-3.85c0.42-0.14,0.85-0.25,1.28-0.33
					c0.06-0.01,0.51-0.07,0.55-0.08c0.21-0.02,0.56,0.13,0.39-0.01c-0.1-0.08-0.87-0.36-0.79-0.31c-0.69-0.39-0.17-0.13,0.03,0.07
					c0.07,0.07,0.47,0.49,0.27,0.28c-0.18-0.2,0.26,0.31,0.34,0.4c0.4,0.48,0.79,0.98,1.17,1.47c0.96,1.26,1.9,2.54,2.83,3.81
					c4.86,6.61,9.81,13.63,16.27,18.78c3.2,2.56,7.27,4.96,11.54,4.59c0.82-0.07,1.87-0.43,1.31-1.42c-0.51-0.91-2.23-1.4-3.19-1.32
					c-0.19,0.02-1.21-0.02-0.58,0.04c-0.17-0.02-0.35-0.04-0.52-0.06c-0.6-0.07,0.55,0.15-0.05-0.01c-0.18-0.05-0.36-0.1-0.53-0.15
					c-0.61-0.17,0.52,0.21-0.09-0.03c-0.18-0.07-0.36-0.14-0.54-0.22c-0.07-0.03-0.7-0.33-0.46-0.21c-1.27-0.65-2.77-1.76-4.06-2.87
					c-3.28-2.83-6.11-6.15-8.79-9.53c-2.51-3.16-4.87-6.42-7.26-9.66c-1.35-1.83-2.78-4.26-4.79-5.46c-2.53-1.5-5.85-1.01-8.46-0.01
					c-2.11,0.8-4.91,2.36-5.42,4.78C832.96,648.48,837.81,649.71,838.16,648.04L838.16,648.04z"/>
			</g>
		</g>
	</g>
</g>
<g id="Layer_6_copy">
	<g id="Layer_15_copy">
	</g>
	<g id="Layer_16_copy">
	</g>
</g>
<g id="Layer_50">
</g>
<g id="Layer_7">
	<g id="Layer_17">
	</g>
</g>
<g id="Layer_7_copy">
	<g id="Layer_17_copy">
	</g>
</g>
<g id="Layer_8">
	<g id="Layer_18">
	</g>
	<g id="Layer_18_copy" class="st0">
	</g>
	<g id="Layer_19">
	</g>
</g>
<g id="Layer_8_copy">
	<g id="Layer_18_copy_2_1_">
	</g>
	<g id="Layer_18_copy_2" class="st0">
	</g>
	<g id="Layer_22_copy">
	</g>
	<g id="Layer_19_copy">
	</g>
</g>
<g id="Layer_9">
	<g id="Layer_20">
	</g>
</g>
</svg>
